%TF.GenerationSoftware,Altium Limited,Altium Designer,19.0.15 (446)*%
G04 Layer_Color=16711935*
%FSLAX45Y45*%
%MOMM*%
%TF.FileFunction,Other,Mechanical_13*%
%TF.Part,Single*%
G01*
G75*
%TA.AperFunction,NonConductor*%
%ADD52C,0.10000*%
D52*
X10972000Y7479695D02*
G03*
X10972000Y7479695I-50000J0D01*
G01*
X8432000Y7974670D02*
G03*
X8432000Y7974670I-50000J0D01*
G01*
X12220700Y7989700D02*
X12315700D01*
X12220700Y8164700D02*
X12315700D01*
X12220700Y7989700D02*
Y8164700D01*
X12315700Y7989700D02*
Y8164700D01*
X12058800Y7937200D02*
Y8217200D01*
X11918800Y7937200D02*
Y8217200D01*
Y7937200D02*
X12058800D01*
X11918800Y8217200D02*
X12058800D01*
X11661900Y8190100D02*
X11756900D01*
X11661900Y8015100D02*
X11756900D01*
Y8190100D01*
X11661900Y8015100D02*
Y8190100D01*
X11583800Y6581900D02*
Y6676900D01*
X11758800Y6581900D02*
Y6676900D01*
X11583800D02*
X11758800D01*
X11583800Y6581900D02*
X11758800D01*
X11379100Y7634100D02*
Y7809100D01*
X11684100Y7634100D02*
Y7809100D01*
X11379100Y7634100D02*
X11684100D01*
X11379100Y7809100D02*
X11684100D01*
X11542900Y8004300D02*
Y8099300D01*
X11367900Y8004300D02*
Y8099300D01*
Y8004300D02*
X11542900D01*
X11367900Y8099300D02*
X11542900D01*
X10427025Y7112000D02*
X10922000Y7606974D01*
Y6617025D02*
X11416975Y7112000D01*
X10922000Y7606974D02*
X11416975Y7112000D01*
X10427025D02*
X10922000Y6617025D01*
X11153807Y8190100D02*
X11248807D01*
X11153807Y8015100D02*
X11248807D01*
Y8190100D01*
X11153807Y8015100D02*
Y8190100D01*
X11916250Y5997700D02*
Y6092700D01*
X11741250Y5997700D02*
Y6092700D01*
Y5997700D02*
X11916250D01*
X11741250Y6092700D02*
X11916250D01*
X11128500Y6008500D02*
X11223500D01*
X11128500Y6183500D02*
X11223500D01*
X11128500Y6008500D02*
Y6183500D01*
X11223500Y6008500D02*
Y6183500D01*
X10859900Y7940800D02*
Y8035800D01*
X11034900Y7940800D02*
Y8035800D01*
X10859900D02*
X11034900D01*
X10859900Y7940800D02*
X11034900D01*
X11585700Y7049900D02*
X11680700D01*
X11585700Y7224900D02*
X11680700D01*
X11585700Y7049900D02*
Y7224900D01*
X11680700Y7049900D02*
Y7224900D01*
X10620200Y7842281D02*
Y8172281D01*
X10360200Y7842281D02*
Y8172281D01*
X10620200D01*
X10360200Y7842281D02*
X10620200D01*
X10701259Y6183500D02*
X10796259D01*
X10701259Y6008500D02*
X10796259D01*
Y6183500D01*
X10701259Y6008500D02*
Y6183500D01*
X10958700Y8131300D02*
Y8226300D01*
X10783700Y8131300D02*
Y8226300D01*
Y8131300D02*
X10958700D01*
X10783700Y8226300D02*
X10958700D01*
X10137900Y7805481D02*
X10232900D01*
X10137900Y7980481D02*
X10232900D01*
X10137900Y7805481D02*
Y7980481D01*
X10232900Y7805481D02*
Y7980481D01*
X10903900Y6008500D02*
X10998900D01*
X10903900Y6183500D02*
X10998900D01*
X10903900Y6008500D02*
Y6183500D01*
X10998900Y6008500D02*
Y6183500D01*
X11093240Y6461416D02*
X11160416Y6394240D01*
X11216984Y6585159D02*
X11284159Y6517984D01*
X11093240Y6461416D02*
X11216984Y6585159D01*
X11160416Y6394240D02*
X11284159Y6517984D01*
X11964800Y6429500D02*
Y6524500D01*
X12139800Y6429500D02*
Y6524500D01*
X11964800D02*
X12139800D01*
X11964800Y6429500D02*
X12139800D01*
X11914000Y6188200D02*
Y6283200D01*
X12089000Y6188200D02*
Y6283200D01*
X11914000D02*
X12089000D01*
X11914000Y6188200D02*
X12089000D01*
X11728600Y6184600D02*
Y6464600D01*
X11588600Y6184600D02*
Y6464600D01*
Y6184600D02*
X11728600D01*
X11588600Y6464600D02*
X11728600D01*
X12307700Y6467600D02*
Y6562600D01*
X12482700Y6467600D02*
Y6562600D01*
X12307700D02*
X12482700D01*
X12307700Y6467600D02*
X12482700D01*
X11319000Y6211700D02*
X11414000D01*
X11319000Y6386700D02*
X11414000D01*
X11319000Y6211700D02*
Y6386700D01*
X11414000Y6211700D02*
Y6386700D01*
X12411200Y8040500D02*
X12506200D01*
X12411200Y8215500D02*
X12506200D01*
X12411200Y8040500D02*
Y8215500D01*
X12506200Y8040500D02*
Y8215500D01*
X12269600Y6200900D02*
Y6295900D01*
X12444600Y6200900D02*
Y6295900D01*
X12269600D02*
X12444600D01*
X12269600Y6200900D02*
X12444600D01*
X12385800Y7710300D02*
X12480800D01*
X12385800Y7885300D02*
X12480800D01*
X12385800Y7710300D02*
Y7885300D01*
X12480800Y7710300D02*
Y7885300D01*
X12129900Y6092700D02*
X12304900D01*
X12129900Y5997700D02*
X12304900D01*
X12129900D02*
Y6092700D01*
X12304900Y5997700D02*
Y6092700D01*
X11551139Y5997700D02*
Y6092700D01*
X11376139Y5997700D02*
Y6092700D01*
Y5997700D02*
X11551139D01*
X11376139Y6092700D02*
X11551139D01*
X11216984Y7638841D02*
X11284159Y7706016D01*
X11093241Y7762584D02*
X11160416Y7829759D01*
X11093241Y7762584D02*
X11216984Y7638841D01*
X11160416Y7829759D02*
X11284159Y7706016D01*
X10454984Y7588459D02*
X10522159Y7521284D01*
X10331241Y7464716D02*
X10398416Y7397541D01*
X10522159Y7521284D01*
X10331241Y7464716D02*
X10454984Y7588459D01*
X11410741Y6791616D02*
X11477916Y6724441D01*
X11534484Y6915359D02*
X11601659Y6848184D01*
X11410741Y6791616D02*
X11534484Y6915359D01*
X11477916Y6724441D02*
X11601659Y6848184D01*
X10547141Y6517984D02*
X10614316Y6585159D01*
X10670884Y6394241D02*
X10738059Y6461416D01*
X10614316Y6585159D02*
X10738059Y6461416D01*
X10547141Y6517984D02*
X10670884Y6394241D01*
X11930000Y7857400D02*
X12200000D01*
X11930000Y7687400D02*
X12200000D01*
X11930000D02*
Y7857400D01*
X12200000Y7687400D02*
Y7857400D01*
X7181641Y7327667D02*
X7248816Y7260492D01*
X7305384Y7451411D02*
X7372559Y7384236D01*
X7181641Y7327667D02*
X7305384Y7451411D01*
X7248816Y7260492D02*
X7372559Y7384236D01*
X7292684Y7690059D02*
X7359859Y7622884D01*
X7168941Y7566316D02*
X7236116Y7499141D01*
X7359859Y7622884D01*
X7168941Y7566316D02*
X7292684Y7690059D01*
X6940341Y7337716D02*
X7007516Y7270541D01*
X7064084Y7461459D02*
X7131259Y7394284D01*
X6940341Y7337716D02*
X7064084Y7461459D01*
X7007516Y7270541D02*
X7131259Y7394284D01*
X9396600Y7712200D02*
Y7807200D01*
X9221600Y7712200D02*
Y7807200D01*
Y7712200D02*
X9396600D01*
X9221600Y7807200D02*
X9396600D01*
X7969041Y8112416D02*
X8036216Y8045241D01*
X8092784Y8236159D02*
X8159959Y8168984D01*
X7969041Y8112416D02*
X8092784Y8236159D01*
X8036216Y8045241D02*
X8159959Y8168984D01*
X7740441Y7883816D02*
X7807616Y7816641D01*
X7864184Y8007559D02*
X7931359Y7940384D01*
X7740441Y7883816D02*
X7864184Y8007559D01*
X7807616Y7816641D02*
X7931359Y7940384D01*
X7533984Y7677359D02*
X7601159Y7610184D01*
X7410241Y7553616D02*
X7477416Y7486441D01*
X7601159Y7610184D01*
X7410241Y7553616D02*
X7533984Y7677359D01*
X7368884Y6711741D02*
X7436059Y6778916D01*
X7245141Y6835484D02*
X7312316Y6902659D01*
X7245141Y6835484D02*
X7368884Y6711741D01*
X7312316Y6902659D02*
X7436059Y6778916D01*
X8041984Y6013241D02*
X8109159Y6080416D01*
X7918241Y6136984D02*
X7985416Y6204159D01*
X7918241Y6136984D02*
X8041984Y6013241D01*
X7985416Y6204159D02*
X8109159Y6080416D01*
X9477084Y6928152D02*
X9544260Y6860977D01*
X9353341Y6804409D02*
X9420516Y6737233D01*
X9544260Y6860977D01*
X9353341Y6804409D02*
X9477084Y6928152D01*
X8618881Y8156284D02*
X8686056Y8223459D01*
X8742624Y8032541D02*
X8809799Y8099716D01*
X8686056Y8223459D02*
X8809799Y8099716D01*
X8618881Y8156284D02*
X8742624Y8032541D01*
X9413584Y7397541D02*
X9480759Y7464716D01*
X9289841Y7521284D02*
X9357016Y7588459D01*
X9289841Y7521284D02*
X9413584Y7397541D01*
X9357016Y7588459D02*
X9480759Y7464716D01*
X9207600Y7934500D02*
X9537600D01*
X9207600Y8194500D02*
X9537600D01*
Y7934500D02*
Y8194500D01*
X9207600Y7934500D02*
Y8194500D01*
X10874500Y6332100D02*
X10969500D01*
X10874500Y6507100D02*
X10969500D01*
X10874500Y6332100D02*
Y6507100D01*
X10969500Y6332100D02*
Y6507100D01*
X8956800Y8126600D02*
X9051800D01*
X8956800Y7951600D02*
X9051800D01*
Y8126600D01*
X8956800Y7951600D02*
Y8126600D01*
X9680700Y7913500D02*
X9775700D01*
X9680700Y8088500D02*
X9775700D01*
X9680700Y7913500D02*
Y8088500D01*
X9775700Y7913500D02*
Y8088500D01*
X10442284Y6660941D02*
X10509459Y6728116D01*
X10318541Y6784684D02*
X10385716Y6851859D01*
X10318541Y6784684D02*
X10442284Y6660941D01*
X10385716Y6851859D02*
X10509459Y6728116D01*
X10958700Y7756650D02*
Y7851650D01*
X10783700Y7756650D02*
Y7851650D01*
Y7756650D02*
X10958700D01*
X10783700Y7851650D02*
X10958700D01*
X7392050Y7112000D02*
X8382000Y6122050D01*
Y8101949D02*
X9371950Y7112000D01*
X8382000Y6122050D02*
X9371950Y7112000D01*
X7392050D02*
X8382000Y8101949D01*
X10393400Y6203100D02*
Y6573100D01*
X9723400Y6203100D02*
Y6573100D01*
X10393400D01*
X9723400Y6203100D02*
X10393400D01*
X9752200Y7661400D02*
Y7756400D01*
X9577200Y7661400D02*
Y7756400D01*
Y7661400D02*
X9752200D01*
X9577200Y7756400D02*
X9752200D01*
X10137900Y7415400D02*
X10232900D01*
X10137900Y7240400D02*
X10232900D01*
Y7415400D01*
X10137900Y7240400D02*
Y7415400D01*
X9505800Y6047464D02*
X9645800D01*
X9505800Y6267463D02*
X9645800D01*
X9505800Y6047464D02*
Y6267463D01*
X9645800Y6047464D02*
Y6267463D01*
X10471000Y6047464D02*
X10611000D01*
X10471000Y6267463D02*
X10611000D01*
X10471000Y6047464D02*
Y6267463D01*
X10611000Y6047464D02*
Y6267463D01*
X7303900Y8200900D02*
X7478900D01*
X7303900Y8105900D02*
X7478900D01*
X7303900D02*
Y8200900D01*
X7478900Y8105900D02*
Y8200900D01*
X7113400Y7902700D02*
Y7997700D01*
X7288400Y7902700D02*
Y7997700D01*
X7113400D02*
X7288400D01*
X7113400Y7902700D02*
X7288400D01*
X9587100Y6442200D02*
Y6537200D01*
X9412100Y6442200D02*
Y6537200D01*
Y6442200D02*
X9587100D01*
X9412100Y6537200D02*
X9587100D01*
X9299700Y6148200D02*
X9394700D01*
X9299700Y6323200D02*
X9394700D01*
X9299700Y6148200D02*
Y6323200D01*
X9394700Y6148200D02*
Y6323200D01*
X10150600Y6904292D02*
X10245600D01*
X10150600Y7079292D02*
X10245600D01*
X10150600Y6904292D02*
Y7079292D01*
X10245600Y6904292D02*
Y7079292D01*
X10158600Y7559800D02*
Y7654800D01*
X9983600Y7559800D02*
Y7654800D01*
Y7559800D02*
X10158600D01*
X9983600Y7654800D02*
X10158600D01*
X9934700Y7984781D02*
X10029700D01*
X9934700Y7809781D02*
X10029700D01*
Y7984781D01*
X9934700Y7809781D02*
Y7984781D01*
X9640700Y7445500D02*
Y7540500D01*
X9815700Y7445500D02*
Y7540500D01*
X9640700D02*
X9815700D01*
X9640700Y7445500D02*
X9815700D01*
X9996300Y8097200D02*
X10171300D01*
X9996300Y8192200D02*
X10171300D01*
Y8097200D02*
Y8192200D01*
X9996300Y8097200D02*
Y8192200D01*
X6564500Y6683500D02*
Y6778500D01*
X6389500Y6683500D02*
Y6778500D01*
Y6683500D02*
X6564500D01*
X6389500Y6778500D02*
X6564500D01*
Y7445500D02*
Y7540500D01*
X6389500Y7445500D02*
Y7540500D01*
Y7445500D02*
X6564500D01*
X6389500Y7540500D02*
X6564500D01*
X6991140Y7642516D02*
X7058316Y7575340D01*
X7114884Y7766259D02*
X7182059Y7699084D01*
X6991140Y7642516D02*
X7114884Y7766259D01*
X7058316Y7575340D02*
X7182059Y7699084D01*
X7410241Y7833016D02*
X7477416Y7765841D01*
X7533984Y7956759D02*
X7601159Y7889584D01*
X7410241Y7833016D02*
X7533984Y7956759D01*
X7477416Y7765841D02*
X7601159Y7889584D01*
X7651541Y8061616D02*
X7718716Y7994441D01*
X7775284Y8185359D02*
X7842459Y8118184D01*
X7651541Y8061616D02*
X7775284Y8185359D01*
X7718716Y7994441D02*
X7842459Y8118184D01*
X7787984Y6267241D02*
X7855159Y6334416D01*
X7664241Y6390984D02*
X7731416Y6458159D01*
X7664241Y6390984D02*
X7787984Y6267241D01*
X7731416Y6458159D02*
X7855159Y6334416D01*
X9261184Y6699459D02*
X9328359Y6632284D01*
X9137441Y6575716D02*
X9204616Y6508541D01*
X9328359Y6632284D01*
X9137441Y6575716D02*
X9261184Y6699459D01*
%TF.MD5,1dc7aab07757f4beb0b3608a6ab494f0*%
M02*
