%TF.GenerationSoftware,Altium Limited,Altium Designer,19.0.15 (446)*%
G04 Layer_Color=8388736*
%FSLAX45Y45*%
%MOMM*%
%TF.FileFunction,Soldermask,Top*%
%TF.Part,Single*%
G01*
G75*
%TA.AperFunction,ComponentPad*%
%ADD45C,1.88000*%
G04:AMPARAMS|DCode=46|XSize=1.08mm|YSize=1.88mm|CornerRadius=0.54mm|HoleSize=0mm|Usage=FLASHONLY|Rotation=90.000|XOffset=0mm|YOffset=0mm|HoleType=Round|Shape=RoundedRectangle|*
%AMROUNDEDRECTD46*
21,1,1.08000,0.80000,0,0,90.0*
21,1,0.00000,1.88000,0,0,90.0*
1,1,1.08000,0.40000,0.00000*
1,1,1.08000,0.40000,0.00000*
1,1,1.08000,-0.40000,0.00000*
1,1,1.08000,-0.40000,0.00000*
%
%ADD46ROUNDEDRECTD46*%
G04:AMPARAMS|DCode=47|XSize=1.08mm|YSize=2.18mm|CornerRadius=0.54mm|HoleSize=0mm|Usage=FLASHONLY|Rotation=90.000|XOffset=0mm|YOffset=0mm|HoleType=Round|Shape=RoundedRectangle|*
%AMROUNDEDRECTD47*
21,1,1.08000,1.10000,0,0,90.0*
21,1,0.00000,2.18000,0,0,90.0*
1,1,1.08000,0.55000,0.00000*
1,1,1.08000,0.55000,0.00000*
1,1,1.08000,-0.55000,0.00000*
1,1,1.08000,-0.55000,0.00000*
%
%ADD47ROUNDEDRECTD47*%
%ADD48C,0.08000*%
%TA.AperFunction,ViaPad*%
%ADD49C,0.58000*%
%TA.AperFunction,SMDPad,CuDef*%
%ADD57R,1.08000X0.98000*%
%ADD58R,1.08000X0.78000*%
%ADD59R,0.93000X1.03000*%
%ADD60R,0.68000X1.08000*%
%ADD61R,0.98000X1.08000*%
G04:AMPARAMS|DCode=62|XSize=0.38mm|YSize=1.48mm|CornerRadius=0mm|HoleSize=0mm|Usage=FLASHONLY|Rotation=45.000|XOffset=0mm|YOffset=0mm|HoleType=Round|Shape=Rectangle|*
%AMROTATEDRECTD62*
4,1,4,0.38891,-0.65761,-0.65761,0.38891,-0.38891,0.65761,0.65761,-0.38891,0.38891,-0.65761,0.0*
%
%ADD62ROTATEDRECTD62*%

G04:AMPARAMS|DCode=63|XSize=0.38mm|YSize=1.48mm|CornerRadius=0mm|HoleSize=0mm|Usage=FLASHONLY|Rotation=315.000|XOffset=0mm|YOffset=0mm|HoleType=Round|Shape=Rectangle|*
%AMROTATEDRECTD63*
4,1,4,-0.65761,-0.38891,0.38891,0.65761,0.65761,0.38891,-0.38891,-0.65761,-0.65761,-0.38891,0.0*
%
%ADD63ROTATEDRECTD63*%

%ADD64R,1.03000X0.93000*%
%ADD65R,1.23000X1.48000*%
G04:AMPARAMS|DCode=66|XSize=1.03mm|YSize=0.93mm|CornerRadius=0mm|HoleSize=0mm|Usage=FLASHONLY|Rotation=135.000|XOffset=0mm|YOffset=0mm|HoleType=Round|Shape=Rectangle|*
%AMROTATEDRECTD66*
4,1,4,0.69297,-0.03535,0.03535,-0.69297,-0.69297,0.03535,-0.03535,0.69297,0.69297,-0.03535,0.0*
%
%ADD66ROTATEDRECTD66*%

%TA.AperFunction,ConnectorPad*%
%ADD67R,1.37600X0.67600*%
%ADD68R,1.37600X0.37600*%
%TA.AperFunction,SMDPad,CuDef*%
%ADD69R,0.98000X0.88000*%
%ADD70R,0.88000X0.88000*%
%ADD71R,0.88000X0.88000*%
G04:AMPARAMS|DCode=72|XSize=1.08mm|YSize=0.98mm|CornerRadius=0mm|HoleSize=0mm|Usage=FLASHONLY|Rotation=225.000|XOffset=0mm|YOffset=0mm|HoleType=Round|Shape=Rectangle|*
%AMROTATEDRECTD72*
4,1,4,0.03535,0.72832,0.72832,0.03535,-0.03535,-0.72832,-0.72832,-0.03535,0.03535,0.72832,0.0*
%
%ADD72ROTATEDRECTD72*%

G04:AMPARAMS|DCode=73|XSize=1.08mm|YSize=0.98mm|CornerRadius=0mm|HoleSize=0mm|Usage=FLASHONLY|Rotation=315.000|XOffset=0mm|YOffset=0mm|HoleType=Round|Shape=Rectangle|*
%AMROTATEDRECTD73*
4,1,4,-0.72832,0.03535,-0.03535,0.72832,0.72832,-0.03535,0.03535,-0.72832,-0.72832,0.03535,0.0*
%
%ADD73ROTATEDRECTD73*%

%ADD74R,1.28000X1.28000*%
%ADD75R,1.28000X1.28000*%
%ADD76R,1.48000X1.23000*%
%ADD77R,3.88000X2.08000*%
%ADD78R,1.58000X2.08000*%
%ADD79R,1.48000X1.38000*%
%ADD80R,0.72600X1.27600*%
D45*
X7112000Y8636000D02*
D03*
X6604000D02*
D03*
X6858000D02*
D03*
X6350000D02*
D03*
X7366000D02*
D03*
X7874000D02*
D03*
X7620000D02*
D03*
X9652000D02*
D03*
X9398000D02*
D03*
X9906000D02*
D03*
X10160000D02*
D03*
X9144000D02*
D03*
X8890000D02*
D03*
X8382000D02*
D03*
X8636000D02*
D03*
X8128000D02*
D03*
X10414000D02*
D03*
X10922000D02*
D03*
X10668000D02*
D03*
X11176000D02*
D03*
X11430000D02*
D03*
X12446000D02*
D03*
X12192000D02*
D03*
X11684000D02*
D03*
X11938000D02*
D03*
X7112000Y5080000D02*
D03*
X6604000D02*
D03*
X6858000D02*
D03*
X6350000D02*
D03*
X7366000D02*
D03*
X7874000D02*
D03*
X7620000D02*
D03*
X9652000D02*
D03*
X9398000D02*
D03*
X9906000D02*
D03*
X10160000D02*
D03*
X9144000D02*
D03*
X8890000D02*
D03*
X8382000D02*
D03*
X8636000D02*
D03*
X8128000D02*
D03*
X10414000D02*
D03*
X10922000D02*
D03*
X10668000D02*
D03*
X11176000D02*
D03*
X11430000D02*
D03*
X12446000D02*
D03*
X12192000D02*
D03*
X11684000D02*
D03*
X11938000D02*
D03*
X7112000Y9144000D02*
D03*
X6604000D02*
D03*
X6858000D02*
D03*
X6350000D02*
D03*
X7366000D02*
D03*
X7874000D02*
D03*
X7620000D02*
D03*
X9652000D02*
D03*
X9398000D02*
D03*
X9906000D02*
D03*
X10160000D02*
D03*
X9144000D02*
D03*
X8890000D02*
D03*
X8382000D02*
D03*
X8636000D02*
D03*
X8128000D02*
D03*
X10414000D02*
D03*
X10922000D02*
D03*
X10668000D02*
D03*
X11176000D02*
D03*
X11430000D02*
D03*
X12446000D02*
D03*
X12192000D02*
D03*
X11684000D02*
D03*
X11938000D02*
D03*
X7112000Y5588000D02*
D03*
X6604000D02*
D03*
X6858000D02*
D03*
X6350000D02*
D03*
X7366000D02*
D03*
X7874000D02*
D03*
X7620000D02*
D03*
X9652000D02*
D03*
X9398000D02*
D03*
X9906000D02*
D03*
X10160000D02*
D03*
X9144000D02*
D03*
X8890000D02*
D03*
X8382000D02*
D03*
X8636000D02*
D03*
X8128000D02*
D03*
X10414000D02*
D03*
X10922000D02*
D03*
X10668000D02*
D03*
X11176000D02*
D03*
X11430000D02*
D03*
X12446000D02*
D03*
X12192000D02*
D03*
X11684000D02*
D03*
X11938000D02*
D03*
D46*
X12366250Y7544000D02*
D03*
Y6680000D02*
D03*
D47*
X11948250Y7544000D02*
D03*
Y6680000D02*
D03*
D48*
X11998250Y6823000D02*
D03*
Y7401000D02*
D03*
D49*
X7937500Y7255026D02*
D03*
X7848600Y7461728D02*
D03*
X7810500Y7378700D02*
D03*
X8155691Y7362703D02*
D03*
X7416400Y8035100D02*
D03*
X10210800Y6260144D02*
D03*
X9604678Y7320596D02*
D03*
X8559800Y7823200D02*
D03*
X8458200Y7933500D02*
D03*
X8496300Y7861300D02*
D03*
X8441196Y7790231D02*
D03*
X8293100Y7868604D02*
D03*
X8267700Y7797200D02*
D03*
X8229600Y7734300D02*
D03*
X8199321Y7658100D02*
D03*
X8961321Y7277100D02*
D03*
X9217786Y7048500D02*
D03*
X9679197Y6855969D02*
D03*
X8953500Y6823000D02*
D03*
X8890000Y6756400D02*
D03*
X8826500Y6673594D02*
D03*
X8750300Y6616700D02*
D03*
X9017000Y6870700D02*
D03*
X9653038Y6461886D02*
D03*
X9055100Y7112925D02*
D03*
X9459131Y7036865D02*
D03*
X10690330Y7760656D02*
D03*
X10756900Y7696200D02*
D03*
X9902040Y8154176D02*
D03*
X10341808Y7291314D02*
D03*
X11054131Y6172200D02*
D03*
X10796630Y7408985D02*
D03*
X10803541Y6860547D02*
D03*
X11048044Y6314970D02*
D03*
X10677358Y7631730D02*
D03*
X11078574Y7175666D02*
D03*
X12366250Y7112925D02*
D03*
X11305300Y6469275D02*
D03*
X11413639Y6492114D02*
D03*
X11462006Y7356997D02*
D03*
X11998250Y5997697D02*
D03*
X11274302Y7046685D02*
D03*
X11680470Y5963100D02*
D03*
X11290300Y6146966D02*
D03*
X11531600Y7912100D02*
D03*
X8978900Y6946900D02*
D03*
X9728200Y6477000D02*
D03*
X11811980Y5637159D02*
D03*
X11568981Y6172200D02*
D03*
X11061700Y5676900D02*
D03*
X10316574Y6261100D02*
D03*
X9279466Y6413500D02*
D03*
X9715500Y6375400D02*
D03*
Y6273800D02*
D03*
X9760019Y6121400D02*
D03*
X9525000Y6350000D02*
D03*
X9004300Y6426106D02*
D03*
X9715500Y5981700D02*
D03*
X8910800Y6375400D02*
D03*
X9715500Y6060970D02*
D03*
X8677550Y6565900D02*
D03*
X8610600Y6487100D02*
D03*
X8864600Y6237464D02*
D03*
X8525150Y6426200D02*
D03*
X7848600Y5994400D02*
D03*
X8497881Y6362700D02*
D03*
X8820406Y6096000D02*
D03*
X8724900Y6121400D02*
D03*
X9779000Y5524500D02*
D03*
X8284216Y6032500D02*
D03*
X8348316Y6556270D02*
D03*
X8788400Y5688644D02*
D03*
X8216900Y6438900D02*
D03*
X8331569Y6489700D02*
D03*
X8296600Y6426106D02*
D03*
X7886700Y6273800D02*
D03*
X8242300Y6532173D02*
D03*
X8176754Y6565000D02*
D03*
X8128000Y6629400D02*
D03*
X8049660Y6604000D02*
D03*
X8019500Y6692900D02*
D03*
X7962900Y6756400D02*
D03*
X7899400Y6807200D02*
D03*
X7802173Y6823000D02*
D03*
X7638096Y6261100D02*
D03*
X7645400Y6350000D02*
D03*
X7581900Y6487100D02*
D03*
X7531100Y6527800D02*
D03*
X7467600Y6487100D02*
D03*
X7035800Y6972300D02*
D03*
X7150100Y6971728D02*
D03*
X7277100Y7035800D02*
D03*
X7467600Y6629400D02*
D03*
X7448619Y6703100D02*
D03*
X7663840Y6960996D02*
D03*
X7549941Y7046685D02*
D03*
X7239000Y6914010D02*
D03*
X7302500Y7239000D02*
D03*
X7493000Y8048500D02*
D03*
X7442200Y7670800D02*
D03*
X7721600Y7320596D02*
D03*
X7645400Y8242300D02*
D03*
Y7251700D02*
D03*
X7416800Y7480300D02*
D03*
X7747000Y7823200D02*
D03*
X7658100Y7772400D02*
D03*
X7607300Y7691827D02*
D03*
X7721600Y7727950D02*
D03*
X8128000Y7629630D02*
D03*
X7950200Y7454900D02*
D03*
X9017956Y8559800D02*
D03*
X8432966Y8166100D02*
D03*
X8610600Y8242300D02*
D03*
X8293100Y7944431D02*
D03*
X8178800Y8255000D02*
D03*
X8280400Y8204200D02*
D03*
X8178800Y7810500D02*
D03*
X7950200Y8026400D02*
D03*
X8559800Y8173359D02*
D03*
X8820406Y8143800D02*
D03*
X8851900Y8039100D02*
D03*
X8737298Y8246417D02*
D03*
X8826500Y7969800D02*
D03*
X8928100Y8255000D02*
D03*
X9004300Y8193000D02*
D03*
X9114397Y8108950D02*
D03*
X9575800Y7629630D02*
D03*
X9283700Y7645400D02*
D03*
X9182100D02*
D03*
X9401071Y7603439D02*
D03*
X9080500Y7721600D02*
D03*
X8978900Y7772400D02*
D03*
X8915400Y7848600D02*
D03*
X9080500Y7823200D02*
D03*
X9496529Y7603439D02*
D03*
X9537700Y7378700D02*
D03*
X9144000Y7791100D02*
D03*
X8877300Y7911579D02*
D03*
X8648700Y7724897D02*
D03*
X10156062Y8255000D02*
D03*
X8763000Y7632700D02*
D03*
X9245600Y7861300D02*
D03*
X9321800Y7886700D02*
D03*
X10464800Y8253110D02*
D03*
X8864600Y7521727D02*
D03*
X10617200Y8253110D02*
D03*
X9601200Y7823200D02*
D03*
X10693400Y8216900D02*
D03*
X10083800Y7791100D02*
D03*
X10541000Y5981700D02*
D03*
X10642600Y6073100D02*
D03*
X10833100Y6031000D02*
D03*
X11036300Y6032500D02*
D03*
X11264900Y6031000D02*
D03*
X11607800Y5994400D02*
D03*
X11895750Y5956300D02*
D03*
X12292100Y6337300D02*
D03*
X12460200Y6426106D02*
D03*
X12125025Y6390751D02*
D03*
X11710030Y6987000D02*
D03*
X12460200Y8254721D02*
D03*
X12268200Y7933500D02*
D03*
X12039600Y7978670D02*
D03*
X11796980Y8175730D02*
D03*
X11620500Y8089900D02*
D03*
X11290300Y8193753D02*
D03*
X10795000Y7987300D02*
D03*
X10662939Y8117281D02*
D03*
X10410200Y8001000D02*
D03*
X9822750Y7944431D02*
D03*
X9753353Y7629630D02*
D03*
X9663200Y7569200D02*
D03*
X9867900Y6896233D02*
D03*
X10312470Y6897000D02*
D03*
X10096500Y6921081D02*
D03*
X10033000Y7219340D02*
D03*
X10083800Y7035800D02*
D03*
X10107900Y7391307D02*
D03*
X9880600Y7874000D02*
D03*
X9496529Y7506727D02*
D03*
X10312470Y7747000D02*
D03*
X9842500Y7708900D02*
D03*
X9042400Y7320596D02*
D03*
X10185400Y7708900D02*
D03*
X9931427D02*
D03*
X11430000Y8254721D02*
D03*
X10261600Y7642330D02*
D03*
X10134600Y7529437D02*
D03*
X10312400Y7589783D02*
D03*
X10210800Y7493000D02*
D03*
X9283700Y7442200D02*
D03*
X9262600Y8246417D02*
D03*
X9626600Y7924800D02*
D03*
X9486900Y7886700D02*
D03*
X11506200Y8216900D02*
D03*
X9906000Y7327000D02*
D03*
X9760019Y7213600D02*
D03*
X9118600Y7262900D02*
D03*
X10337800Y7378700D02*
D03*
X9182100Y7200900D02*
D03*
X11938000Y8255000D02*
D03*
X9080500Y6997700D02*
D03*
X7912100Y6211182D02*
D03*
X8001000Y6007100D02*
D03*
X10198100Y6527800D02*
D03*
X10109200Y6532173D02*
D03*
X10020300D02*
D03*
X9931400D02*
D03*
X10096500Y6410430D02*
D03*
X10013500D02*
D03*
X9931400D02*
D03*
X9842500D02*
D03*
X9374100Y6083300D02*
D03*
X9459407Y6045200D02*
D03*
Y6121400D02*
D03*
X9613900Y6350000D02*
D03*
X9244100Y6491421D02*
D03*
X9461500Y6726627D02*
D03*
X9550400Y6938759D02*
D03*
X7048500Y7262900D02*
D03*
X7162800Y7355952D02*
D03*
X7366000Y7708900D02*
D03*
X7061200Y7950200D02*
D03*
X7493000Y7965970D02*
D03*
X7823200Y8026400D02*
D03*
X7950200Y8153400D02*
D03*
X8049660Y8246417D02*
D03*
X11303000Y7531100D02*
D03*
X11606300Y7391307D02*
D03*
X11125200Y7048500D02*
D03*
X11264900Y6654800D02*
D03*
X12103100Y7277100D02*
D03*
X12306300Y7202400D02*
D03*
X12026900Y7048500D02*
D03*
X12118800Y6934200D02*
D03*
X10536627Y7594600D02*
D03*
X11553930Y6410430D02*
D03*
X10604500Y7188200D02*
D03*
X9512300Y7213600D02*
D03*
X9677400Y7226300D02*
D03*
X10096500Y6213974D02*
D03*
X10013500D02*
D03*
X10210800Y6638238D02*
D03*
Y6772170D02*
D03*
X9906000D02*
D03*
Y6638238D02*
D03*
X10934700Y6591300D02*
D03*
X11874500Y7937500D02*
D03*
X10934700Y7683500D02*
D03*
X12039600Y8175730D02*
D03*
X12115800Y8108950D02*
D03*
X12204700Y8216900D02*
D03*
X12331700D02*
D03*
X11798300Y7491115D02*
D03*
X11785600Y6792000D02*
D03*
X11398639Y6726627D02*
D03*
X11606300Y6921081D02*
D03*
X10541000Y6591300D02*
D03*
X10744200Y6388100D02*
D03*
X11087100Y7832281D02*
D03*
X11290300Y7629630D02*
D03*
D57*
X12268200Y8009700D02*
D03*
Y8144700D02*
D03*
X11709400Y8170100D02*
D03*
Y8035100D02*
D03*
X10185400Y7825481D02*
D03*
Y7960481D02*
D03*
X10922000Y6352100D02*
D03*
Y6487100D02*
D03*
X9004300Y8106600D02*
D03*
Y7971600D02*
D03*
X9728200Y7933500D02*
D03*
Y8068500D02*
D03*
X10198100Y6924292D02*
D03*
Y7059292D02*
D03*
D58*
X12118800Y7982200D02*
D03*
Y8172200D02*
D03*
X11858800Y8077200D02*
D03*
D59*
X11606300Y6629400D02*
D03*
X11736300D02*
D03*
X11893750Y6045200D02*
D03*
X11763750D02*
D03*
X11987300Y6477000D02*
D03*
X12117300D02*
D03*
X11936500Y6235700D02*
D03*
X12066500D02*
D03*
X12330200Y6515100D02*
D03*
X12460200D02*
D03*
X12292100Y6248400D02*
D03*
X12422100D02*
D03*
X11528639Y6045200D02*
D03*
X11398639D02*
D03*
X9374100Y7759700D02*
D03*
X9244100D02*
D03*
X9729700Y7708900D02*
D03*
X9599700D02*
D03*
X7135900Y7950200D02*
D03*
X7265900D02*
D03*
X9663200Y7493000D02*
D03*
X9793200D02*
D03*
X6542000Y6731000D02*
D03*
X6412000D02*
D03*
X6542000Y7493000D02*
D03*
X6412000D02*
D03*
D60*
X11626600Y7584100D02*
D03*
X11531600D02*
D03*
X11436600D02*
D03*
Y7859100D02*
D03*
X11531600D02*
D03*
X11626600D02*
D03*
D61*
X11522900Y8051800D02*
D03*
X11387900D02*
D03*
X10879900Y7988300D02*
D03*
X11014900D02*
D03*
X10938700Y8178800D02*
D03*
X10803700D02*
D03*
X10938700Y7804150D02*
D03*
X10803700D02*
D03*
D62*
X10819470Y7603439D02*
D03*
X10784114Y7568084D02*
D03*
X10748759Y7532728D02*
D03*
X10713404Y7497373D02*
D03*
X10678048Y7462018D02*
D03*
X10642693Y7426662D02*
D03*
X10607337Y7391307D02*
D03*
X10571982Y7355952D02*
D03*
X10536627Y7320596D02*
D03*
X10501271Y7285241D02*
D03*
X10465916Y7249886D02*
D03*
X10430561Y7214530D02*
D03*
X11024531Y6620561D02*
D03*
X11059886Y6655916D02*
D03*
X11095241Y6691271D02*
D03*
X11130597Y6726627D02*
D03*
X11165952Y6761982D02*
D03*
X11201307Y6797337D02*
D03*
X11236663Y6832693D02*
D03*
X11272018Y6868048D02*
D03*
X11307373Y6903403D02*
D03*
X11342729Y6938759D02*
D03*
X11378084Y6974114D02*
D03*
X11413439Y7009469D02*
D03*
X9350736Y6991792D02*
D03*
X9315381Y6956436D02*
D03*
X9280026Y6921081D02*
D03*
X9244670Y6885726D02*
D03*
X9209315Y6850371D02*
D03*
X9173960Y6815015D02*
D03*
X9138604Y6779660D02*
D03*
X9103249Y6744305D02*
D03*
X9067894Y6708949D02*
D03*
X9032538Y6673594D02*
D03*
X8997183Y6638238D02*
D03*
X8961827Y6602883D02*
D03*
X8926472Y6567528D02*
D03*
X8891117Y6532173D02*
D03*
X8855762Y6496817D02*
D03*
X8820406Y6461462D02*
D03*
X8785051Y6426106D02*
D03*
X8749695Y6390751D02*
D03*
X8714340Y6355396D02*
D03*
X8678985Y6320040D02*
D03*
X8643629Y6284685D02*
D03*
X8608274Y6249330D02*
D03*
X8572919Y6213974D02*
D03*
X8537564Y6178619D02*
D03*
X8502208Y6143264D02*
D03*
X7413264Y7232208D02*
D03*
X7448619Y7267564D02*
D03*
X7483974Y7302919D02*
D03*
X7519330Y7338274D02*
D03*
X7554685Y7373629D02*
D03*
X7590040Y7408985D02*
D03*
X7625396Y7444340D02*
D03*
X7660751Y7479695D02*
D03*
X7696106Y7515051D02*
D03*
X7731462Y7550406D02*
D03*
X7766817Y7585762D02*
D03*
X7802173Y7621117D02*
D03*
X7837528Y7656472D02*
D03*
X7872883Y7691827D02*
D03*
X7908238Y7727183D02*
D03*
X7943594Y7762538D02*
D03*
X7978949Y7797894D02*
D03*
X8014305Y7833249D02*
D03*
X8049660Y7868604D02*
D03*
X8085015Y7903960D02*
D03*
X8120371Y7939315D02*
D03*
X8155726Y7974670D02*
D03*
X8191081Y8010026D02*
D03*
X8226436Y8045381D02*
D03*
X8261792Y8080736D02*
D03*
D63*
X10430561Y7009469D02*
D03*
X10465916Y6974114D02*
D03*
X10501271Y6938759D02*
D03*
X10536627Y6903403D02*
D03*
X10571982Y6868048D02*
D03*
X10607337Y6832693D02*
D03*
X10642693Y6797337D02*
D03*
X10678048Y6761982D02*
D03*
X10713403Y6726627D02*
D03*
X10748759Y6691271D02*
D03*
X10784114Y6655916D02*
D03*
X10819469Y6620561D02*
D03*
X11413439Y7214530D02*
D03*
X11378084Y7249886D02*
D03*
X11342729Y7285241D02*
D03*
X11307373Y7320596D02*
D03*
X11272018Y7355952D02*
D03*
X11236663Y7391307D02*
D03*
X11201307Y7426662D02*
D03*
X11165952Y7462018D02*
D03*
X11130596Y7497373D02*
D03*
X11095241Y7532728D02*
D03*
X11059886Y7568084D02*
D03*
X11024530Y7603439D02*
D03*
X8502208Y8080736D02*
D03*
X8537564Y8045381D02*
D03*
X8572919Y8010026D02*
D03*
X8608274Y7974670D02*
D03*
X8643629Y7939315D02*
D03*
X8678985Y7903960D02*
D03*
X8714340Y7868604D02*
D03*
X8749695Y7833249D02*
D03*
X8785051Y7797894D02*
D03*
X8820406Y7762538D02*
D03*
X8855762Y7727183D02*
D03*
X8891117Y7691827D02*
D03*
X8926472Y7656472D02*
D03*
X8961827Y7621117D02*
D03*
X8997183Y7585762D02*
D03*
X9032538Y7550406D02*
D03*
X9067894Y7515051D02*
D03*
X9103249Y7479695D02*
D03*
X9138604Y7444340D02*
D03*
X9173960Y7408985D02*
D03*
X9209315Y7373629D02*
D03*
X9244670Y7338274D02*
D03*
X9280026Y7302919D02*
D03*
X9315381Y7267564D02*
D03*
X9350736Y7232208D02*
D03*
X8261792Y6143264D02*
D03*
X8226436Y6178619D02*
D03*
X8191081Y6213974D02*
D03*
X8155726Y6249330D02*
D03*
X8120371Y6284685D02*
D03*
X8085015Y6320040D02*
D03*
X8049660Y6355396D02*
D03*
X8014305Y6390751D02*
D03*
X7978949Y6426106D02*
D03*
X7943594Y6461462D02*
D03*
X7908238Y6496817D02*
D03*
X7872883Y6532173D02*
D03*
X7837528Y6567528D02*
D03*
X7802173Y6602883D02*
D03*
X7766817Y6638238D02*
D03*
X7731462Y6673594D02*
D03*
X7696106Y6708949D02*
D03*
X7660751Y6744305D02*
D03*
X7625396Y6779660D02*
D03*
X7590040Y6815015D02*
D03*
X7554685Y6850371D02*
D03*
X7519330Y6885726D02*
D03*
X7483974Y6921081D02*
D03*
X7448619Y6956436D02*
D03*
X7413264Y6991792D02*
D03*
D64*
X11201307Y8167600D02*
D03*
Y8037600D02*
D03*
X11176000Y6031000D02*
D03*
Y6161000D02*
D03*
X11633200Y7072400D02*
D03*
Y7202400D02*
D03*
X10748759Y6161000D02*
D03*
Y6031000D02*
D03*
X10951400Y6031000D02*
D03*
Y6161000D02*
D03*
X11366500Y6234200D02*
D03*
Y6364200D02*
D03*
X12458700Y8063000D02*
D03*
Y8193000D02*
D03*
X10185400Y7392900D02*
D03*
Y7262900D02*
D03*
X9347200Y6170700D02*
D03*
Y6300700D02*
D03*
X9982200Y7962281D02*
D03*
Y7832281D02*
D03*
D65*
X10410200Y8117281D02*
D03*
X10570200D02*
D03*
X10410200Y7897281D02*
D03*
X10570200D02*
D03*
D66*
X11142738Y6443738D02*
D03*
X11234662Y6535662D02*
D03*
X7040638Y7624838D02*
D03*
X7132562Y7716762D02*
D03*
D67*
X11890750Y7432000D02*
D03*
Y7352000D02*
D03*
Y6792000D02*
D03*
Y6872000D02*
D03*
D68*
Y7287000D02*
D03*
Y7237000D02*
D03*
Y7187000D02*
D03*
Y7137000D02*
D03*
Y7087000D02*
D03*
Y7037000D02*
D03*
Y6987000D02*
D03*
Y6937000D02*
D03*
D69*
X11758600Y6229600D02*
D03*
Y6419600D02*
D03*
X11558600Y6324600D02*
D03*
D70*
X12433300Y7722800D02*
D03*
Y7872800D02*
D03*
D71*
X12142400Y6045200D02*
D03*
X12292400D02*
D03*
X7316400Y8153400D02*
D03*
X7466400D02*
D03*
X9574600Y6489700D02*
D03*
X9424600D02*
D03*
X10146100Y7607300D02*
D03*
X9996100D02*
D03*
X10158800Y8144700D02*
D03*
X10008800D02*
D03*
D72*
X11236430Y7686570D02*
D03*
X11140970Y7782030D02*
D03*
X10594870Y6537430D02*
D03*
X10690330Y6441970D02*
D03*
X7388330Y6759470D02*
D03*
X7292870Y6854930D02*
D03*
X8061430Y6060970D02*
D03*
X7965970Y6156430D02*
D03*
X8666611Y8175730D02*
D03*
X8762070Y8080270D02*
D03*
X9433030Y7445270D02*
D03*
X9337570Y7540730D02*
D03*
X10461729Y6708671D02*
D03*
X10366271Y6804129D02*
D03*
X7807430Y6314970D02*
D03*
X7711970Y6410430D02*
D03*
D73*
X10474430Y7540730D02*
D03*
X10378970Y7445270D02*
D03*
X11458470Y6772170D02*
D03*
X11553930Y6867630D02*
D03*
X7229370Y7308222D02*
D03*
X7324830Y7403682D02*
D03*
X7312130Y7642330D02*
D03*
X7216670Y7546870D02*
D03*
X6988070Y7318270D02*
D03*
X7083530Y7413730D02*
D03*
X8016770Y8092970D02*
D03*
X8112230Y8188430D02*
D03*
X7788170Y7864370D02*
D03*
X7883630Y7959830D02*
D03*
X7553430Y7629630D02*
D03*
X7457970Y7534170D02*
D03*
X9496529Y6880422D02*
D03*
X9401071Y6784963D02*
D03*
X7457970Y7813570D02*
D03*
X7553430Y7909030D02*
D03*
X7699270Y8042170D02*
D03*
X7794730Y8137630D02*
D03*
X9280630Y6651730D02*
D03*
X9185170Y6556270D02*
D03*
D74*
X11922000Y7772400D02*
D03*
D75*
X12208000D02*
D03*
D76*
X9482600Y8144500D02*
D03*
Y7984500D02*
D03*
X9262600Y8144500D02*
D03*
Y7984500D02*
D03*
D77*
X10058400Y6703100D02*
D03*
D78*
X10288400Y6073100D02*
D03*
X10058400D02*
D03*
X9828400D02*
D03*
D79*
X9575800Y6077464D02*
D03*
Y6237464D02*
D03*
X10541000Y6077464D02*
D03*
Y6237464D02*
D03*
D80*
X10013500Y6897000D02*
D03*
X9798500D02*
D03*
Y7327000D02*
D03*
X10013500D02*
D03*
X6584500Y6135000D02*
D03*
X6369500D02*
D03*
Y6565000D02*
D03*
X6584500D02*
D03*
X6369500Y8089000D02*
D03*
X6584500D02*
D03*
Y7659000D02*
D03*
X6369500D02*
D03*
%TF.MD5,27561d022b1f38294e2c00119dd1a944*%
M02*
