%TF.GenerationSoftware,Altium Limited,Altium Designer,19.0.15 (446)*%
G04 Layer_Color=2752767*
%FSLAX45Y45*%
%MOMM*%
%TF.FileFunction,Drawing*%
%TF.Part,Single*%
G01*
G75*
%TA.AperFunction,NonConductor*%
%ADD90C,0.12700*%
%ADD91C,0.16933*%
D90*
X7061200Y8585200D02*
Y8686800D01*
X7162800D01*
Y8585200D01*
X7061200D01*
X6553200D02*
Y8686800D01*
X6654800D01*
Y8585200D01*
X6553200D01*
X6807200D02*
Y8686800D01*
X6908800D01*
Y8585200D01*
X6807200D01*
X6299200D02*
Y8686800D01*
X6400800D01*
Y8585200D01*
X6299200D01*
X7315200D02*
Y8686800D01*
X7416800D01*
Y8585200D01*
X7315200D01*
X7823200D02*
Y8686800D01*
X7924800D01*
Y8585200D01*
X7823200D01*
X7569200D02*
Y8686800D01*
X7670800D01*
Y8585200D01*
X7569200D01*
X9601200D02*
Y8686800D01*
X9702800D01*
Y8585200D01*
X9601200D01*
X9347200D02*
Y8686800D01*
X9448800D01*
Y8585200D01*
X9347200D01*
X9855200D02*
Y8686800D01*
X9956800D01*
Y8585200D01*
X9855200D01*
X10109200D02*
Y8686800D01*
X10210800D01*
Y8585200D01*
X10109200D01*
X9093200D02*
Y8686800D01*
X9194800D01*
Y8585200D01*
X9093200D01*
X8839200D02*
Y8686800D01*
X8940800D01*
Y8585200D01*
X8839200D01*
X8331200D02*
Y8686800D01*
X8432800D01*
Y8585200D01*
X8331200D01*
X8585200D02*
Y8686800D01*
X8686800D01*
Y8585200D01*
X8585200D01*
X8077200D02*
Y8686800D01*
X8178800D01*
Y8585200D01*
X8077200D01*
X10363200D02*
Y8686800D01*
X10464800D01*
Y8585200D01*
X10363200D01*
X10871200D02*
Y8686800D01*
X10972800D01*
Y8585200D01*
X10871200D01*
X10617200D02*
Y8686800D01*
X10718800D01*
Y8585200D01*
X10617200D01*
X11125200D02*
Y8686800D01*
X11226800D01*
Y8585200D01*
X11125200D01*
X11379200D02*
Y8686800D01*
X11480800D01*
Y8585200D01*
X11379200D01*
X12395200D02*
Y8686800D01*
X12496800D01*
Y8585200D01*
X12395200D01*
X12141200D02*
Y8686800D01*
X12242800D01*
Y8585200D01*
X12141200D01*
X11633200D02*
Y8686800D01*
X11734800D01*
Y8585200D01*
X11633200D01*
X11887200D02*
Y8686800D01*
X11988800D01*
Y8585200D01*
X11887200D01*
X7061200Y5029200D02*
Y5130800D01*
X7162800D01*
Y5029200D01*
X7061200D01*
X6553200D02*
Y5130800D01*
X6654800D01*
Y5029200D01*
X6553200D01*
X6807200D02*
Y5130800D01*
X6908800D01*
Y5029200D01*
X6807200D01*
X6299200D02*
Y5130800D01*
X6400800D01*
Y5029200D01*
X6299200D01*
X7315200D02*
Y5130800D01*
X7416800D01*
Y5029200D01*
X7315200D01*
X7823200D02*
Y5130800D01*
X7924800D01*
Y5029200D01*
X7823200D01*
X7569200D02*
Y5130800D01*
X7670800D01*
Y5029200D01*
X7569200D01*
X9601200D02*
Y5130800D01*
X9702800D01*
Y5029200D01*
X9601200D01*
X9347200D02*
Y5130800D01*
X9448800D01*
Y5029200D01*
X9347200D01*
X9855200D02*
Y5130800D01*
X9956800D01*
Y5029200D01*
X9855200D01*
X10109200D02*
Y5130800D01*
X10210800D01*
Y5029200D01*
X10109200D01*
X9093200D02*
Y5130800D01*
X9194800D01*
Y5029200D01*
X9093200D01*
X8839200D02*
Y5130800D01*
X8940800D01*
Y5029200D01*
X8839200D01*
X8331200D02*
Y5130800D01*
X8432800D01*
Y5029200D01*
X8331200D01*
X8585200D02*
Y5130800D01*
X8686800D01*
Y5029200D01*
X8585200D01*
X8077200D02*
Y5130800D01*
X8178800D01*
Y5029200D01*
X8077200D01*
X10363200D02*
Y5130800D01*
X10464800D01*
Y5029200D01*
X10363200D01*
X10871200D02*
Y5130800D01*
X10972800D01*
Y5029200D01*
X10871200D01*
X10617200D02*
Y5130800D01*
X10718800D01*
Y5029200D01*
X10617200D01*
X11125200D02*
Y5130800D01*
X11226800D01*
Y5029200D01*
X11125200D01*
X11379200D02*
Y5130800D01*
X11480800D01*
Y5029200D01*
X11379200D01*
X12395200D02*
Y5130800D01*
X12496800D01*
Y5029200D01*
X12395200D01*
X12141200D02*
Y5130800D01*
X12242800D01*
Y5029200D01*
X12141200D01*
X11633200D02*
Y5130800D01*
X11734800D01*
Y5029200D01*
X11633200D01*
X11887200D02*
Y5130800D01*
X11988800D01*
Y5029200D01*
X11887200D01*
X7061200Y9093200D02*
Y9194800D01*
X7162800D01*
Y9093200D01*
X7061200D01*
X6553200D02*
Y9194800D01*
X6654800D01*
Y9093200D01*
X6553200D01*
X6807200D02*
Y9194800D01*
X6908800D01*
Y9093200D01*
X6807200D01*
X6299200D02*
Y9194800D01*
X6400800D01*
Y9093200D01*
X6299200D01*
X7315200D02*
Y9194800D01*
X7416800D01*
Y9093200D01*
X7315200D01*
X7823200D02*
Y9194800D01*
X7924800D01*
Y9093200D01*
X7823200D01*
X7569200D02*
Y9194800D01*
X7670800D01*
Y9093200D01*
X7569200D01*
X9601200D02*
Y9194800D01*
X9702800D01*
Y9093200D01*
X9601200D01*
X9347200D02*
Y9194800D01*
X9448800D01*
Y9093200D01*
X9347200D01*
X9855200D02*
Y9194800D01*
X9956800D01*
Y9093200D01*
X9855200D01*
X10109200D02*
Y9194800D01*
X10210800D01*
Y9093200D01*
X10109200D01*
X9093200D02*
Y9194800D01*
X9194800D01*
Y9093200D01*
X9093200D01*
X8839200D02*
Y9194800D01*
X8940800D01*
Y9093200D01*
X8839200D01*
X8331200D02*
Y9194800D01*
X8432800D01*
Y9093200D01*
X8331200D01*
X8585200D02*
Y9194800D01*
X8686800D01*
Y9093200D01*
X8585200D01*
X8077200D02*
Y9194800D01*
X8178800D01*
Y9093200D01*
X8077200D01*
X10363200D02*
Y9194800D01*
X10464800D01*
Y9093200D01*
X10363200D01*
X10871200D02*
Y9194800D01*
X10972800D01*
Y9093200D01*
X10871200D01*
X10617200D02*
Y9194800D01*
X10718800D01*
Y9093200D01*
X10617200D01*
X11125200D02*
Y9194800D01*
X11226800D01*
Y9093200D01*
X11125200D01*
X11379200D02*
Y9194800D01*
X11480800D01*
Y9093200D01*
X11379200D01*
X12395200D02*
Y9194800D01*
X12496800D01*
Y9093200D01*
X12395200D01*
X12141200D02*
Y9194800D01*
X12242800D01*
Y9093200D01*
X12141200D01*
X11633200D02*
Y9194800D01*
X11734800D01*
Y9093200D01*
X11633200D01*
X11887200D02*
Y9194800D01*
X11988800D01*
Y9093200D01*
X11887200D01*
X11948250Y7493200D02*
X11897450Y7594800D01*
X11999050D01*
X11948250Y7493200D01*
Y6629200D02*
X11897450Y6730800D01*
X11999050D01*
X11948250Y6629200D01*
X11998250Y6772200D02*
X12023650Y6797600D01*
X12049050D01*
X12023650Y6823000D01*
X12049050Y6848400D01*
X12023650D01*
X11998250Y6873800D01*
X11972850Y6848400D01*
X11947450D01*
X11972850Y6823000D01*
X11947450Y6797600D01*
X11972850D01*
X11998250Y6772200D01*
Y7350200D02*
X12023650Y7375600D01*
X12049050D01*
X12023650Y7401000D01*
X12049050Y7426400D01*
X12023650D01*
X11998250Y7451800D01*
X11972850Y7426400D01*
X11947450D01*
X11972850Y7401000D01*
X11947450Y7375600D01*
X11972850D01*
X11998250Y7350200D01*
X7061200Y5537200D02*
Y5638800D01*
X7162800D01*
Y5537200D01*
X7061200D01*
X6553200D02*
Y5638800D01*
X6654800D01*
Y5537200D01*
X6553200D01*
X6807200D02*
Y5638800D01*
X6908800D01*
Y5537200D01*
X6807200D01*
X6299200D02*
Y5638800D01*
X6400800D01*
Y5537200D01*
X6299200D01*
X7315200D02*
Y5638800D01*
X7416800D01*
Y5537200D01*
X7315200D01*
X7823200D02*
Y5638800D01*
X7924800D01*
Y5537200D01*
X7823200D01*
X7569200D02*
Y5638800D01*
X7670800D01*
Y5537200D01*
X7569200D01*
X9601200D02*
Y5638800D01*
X9702800D01*
Y5537200D01*
X9601200D01*
X9347200D02*
Y5638800D01*
X9448800D01*
Y5537200D01*
X9347200D01*
X9855200D02*
Y5638800D01*
X9956800D01*
Y5537200D01*
X9855200D01*
X10109200D02*
Y5638800D01*
X10210800D01*
Y5537200D01*
X10109200D01*
X9093200D02*
Y5638800D01*
X9194800D01*
Y5537200D01*
X9093200D01*
X8839200D02*
Y5638800D01*
X8940800D01*
Y5537200D01*
X8839200D01*
X8331200D02*
Y5638800D01*
X8432800D01*
Y5537200D01*
X8331200D01*
X8585200D02*
Y5638800D01*
X8686800D01*
Y5537200D01*
X8585200D01*
X8077200D02*
Y5638800D01*
X8178800D01*
Y5537200D01*
X8077200D01*
X10363200D02*
Y5638800D01*
X10464800D01*
Y5537200D01*
X10363200D01*
X10871200D02*
Y5638800D01*
X10972800D01*
Y5537200D01*
X10871200D01*
X10617200D02*
Y5638800D01*
X10718800D01*
Y5537200D01*
X10617200D01*
X11125200D02*
Y5638800D01*
X11226800D01*
Y5537200D01*
X11125200D01*
X11379200D02*
Y5638800D01*
X11480800D01*
Y5537200D01*
X11379200D01*
X12395200D02*
Y5638800D01*
X12496800D01*
Y5537200D01*
X12395200D01*
X12141200D02*
Y5638800D01*
X12242800D01*
Y5537200D01*
X12141200D01*
X11633200D02*
Y5638800D01*
X11734800D01*
Y5537200D01*
X11633200D01*
X11887200D02*
Y5638800D01*
X11988800D01*
Y5537200D01*
X11887200D01*
X7886700Y7204226D02*
X7912100Y7255026D01*
X7886700Y7305826D01*
X7937500Y7280426D01*
X7988300Y7305826D01*
X7962900Y7255026D01*
X7988300Y7204226D01*
X7937500Y7229626D01*
X7886700Y7204226D01*
X7797800Y7410928D02*
X7823200Y7461728D01*
X7797800Y7512528D01*
X7848600Y7487128D01*
X7899400Y7512528D01*
X7874000Y7461728D01*
X7899400Y7410928D01*
X7848600Y7436328D01*
X7797800Y7410928D01*
X7759700Y7327900D02*
X7785100Y7378700D01*
X7759700Y7429500D01*
X7810500Y7404100D01*
X7861300Y7429500D01*
X7835900Y7378700D01*
X7861300Y7327900D01*
X7810500Y7353300D01*
X7759700Y7327900D01*
X8104891Y7311903D02*
X8130291Y7362703D01*
X8104891Y7413503D01*
X8155691Y7388103D01*
X8206491Y7413503D01*
X8181091Y7362703D01*
X8206491Y7311903D01*
X8155691Y7337303D01*
X8104891Y7311903D01*
X7365600Y7984300D02*
X7391000Y8035100D01*
X7365600Y8085900D01*
X7416400Y8060500D01*
X7467200Y8085900D01*
X7441800Y8035100D01*
X7467200Y7984300D01*
X7416400Y8009700D01*
X7365600Y7984300D01*
X10160000Y6209344D02*
X10185400Y6260144D01*
X10160000Y6310944D01*
X10210800Y6285544D01*
X10261600Y6310944D01*
X10236200Y6260144D01*
X10261600Y6209344D01*
X10210800Y6234744D01*
X10160000Y6209344D01*
X9553878Y7269796D02*
X9579278Y7320596D01*
X9553878Y7371396D01*
X9604678Y7345996D01*
X9655478Y7371396D01*
X9630078Y7320596D01*
X9655478Y7269796D01*
X9604678Y7295196D01*
X9553878Y7269796D01*
X8509000Y7772400D02*
X8534400Y7823200D01*
X8509000Y7874000D01*
X8559800Y7848600D01*
X8610600Y7874000D01*
X8585200Y7823200D01*
X8610600Y7772400D01*
X8559800Y7797800D01*
X8509000Y7772400D01*
X8407400Y7882700D02*
X8432800Y7933500D01*
X8407400Y7984300D01*
X8458200Y7958900D01*
X8509000Y7984300D01*
X8483600Y7933500D01*
X8509000Y7882700D01*
X8458200Y7908100D01*
X8407400Y7882700D01*
X8445500Y7810500D02*
X8470900Y7861300D01*
X8445500Y7912100D01*
X8496300Y7886700D01*
X8547100Y7912100D01*
X8521700Y7861300D01*
X8547100Y7810500D01*
X8496300Y7835900D01*
X8445500Y7810500D01*
X8390396Y7739431D02*
X8415796Y7790231D01*
X8390396Y7841031D01*
X8441196Y7815631D01*
X8491996Y7841031D01*
X8466596Y7790231D01*
X8491996Y7739431D01*
X8441196Y7764831D01*
X8390396Y7739431D01*
X8242300Y7817804D02*
X8267700Y7868604D01*
X8242300Y7919404D01*
X8293100Y7894004D01*
X8343900Y7919404D01*
X8318500Y7868604D01*
X8343900Y7817804D01*
X8293100Y7843204D01*
X8242300Y7817804D01*
X8216900Y7746400D02*
X8242300Y7797200D01*
X8216900Y7848000D01*
X8267700Y7822600D01*
X8318500Y7848000D01*
X8293100Y7797200D01*
X8318500Y7746400D01*
X8267700Y7771800D01*
X8216900Y7746400D01*
X8178800Y7683500D02*
X8204200Y7734300D01*
X8178800Y7785100D01*
X8229600Y7759700D01*
X8280400Y7785100D01*
X8255000Y7734300D01*
X8280400Y7683500D01*
X8229600Y7708900D01*
X8178800Y7683500D01*
X8148521Y7607300D02*
X8173921Y7658100D01*
X8148521Y7708900D01*
X8199321Y7683500D01*
X8250121Y7708900D01*
X8224721Y7658100D01*
X8250121Y7607300D01*
X8199321Y7632700D01*
X8148521Y7607300D01*
X8910521Y7226300D02*
X8935921Y7277100D01*
X8910521Y7327900D01*
X8961321Y7302500D01*
X9012121Y7327900D01*
X8986721Y7277100D01*
X9012121Y7226300D01*
X8961321Y7251700D01*
X8910521Y7226300D01*
X9166986Y6997700D02*
X9192386Y7048500D01*
X9166986Y7099300D01*
X9217786Y7073900D01*
X9268586Y7099300D01*
X9243186Y7048500D01*
X9268586Y6997700D01*
X9217786Y7023100D01*
X9166986Y6997700D01*
X9628397Y6805169D02*
X9653797Y6855969D01*
X9628397Y6906769D01*
X9679197Y6881369D01*
X9729997Y6906769D01*
X9704597Y6855969D01*
X9729997Y6805169D01*
X9679197Y6830569D01*
X9628397Y6805169D01*
X8902700Y6772200D02*
X8928100Y6823000D01*
X8902700Y6873800D01*
X8953500Y6848400D01*
X9004300Y6873800D01*
X8978900Y6823000D01*
X9004300Y6772200D01*
X8953500Y6797600D01*
X8902700Y6772200D01*
X8839200Y6705600D02*
X8864600Y6756400D01*
X8839200Y6807200D01*
X8890000Y6781800D01*
X8940800Y6807200D01*
X8915400Y6756400D01*
X8940800Y6705600D01*
X8890000Y6731000D01*
X8839200Y6705600D01*
X8775700Y6622794D02*
X8801100Y6673594D01*
X8775700Y6724394D01*
X8826500Y6698994D01*
X8877300Y6724394D01*
X8851900Y6673594D01*
X8877300Y6622794D01*
X8826500Y6648194D01*
X8775700Y6622794D01*
X8699500Y6565900D02*
X8724900Y6616700D01*
X8699500Y6667500D01*
X8750300Y6642100D01*
X8801100Y6667500D01*
X8775700Y6616700D01*
X8801100Y6565900D01*
X8750300Y6591300D01*
X8699500Y6565900D01*
X8966200Y6819900D02*
X8991600Y6870700D01*
X8966200Y6921500D01*
X9017000Y6896100D01*
X9067800Y6921500D01*
X9042400Y6870700D01*
X9067800Y6819900D01*
X9017000Y6845300D01*
X8966200Y6819900D01*
X9602238Y6411086D02*
X9627638Y6461886D01*
X9602238Y6512686D01*
X9653038Y6487286D01*
X9703838Y6512686D01*
X9678438Y6461886D01*
X9703838Y6411086D01*
X9653038Y6436486D01*
X9602238Y6411086D01*
X9004300Y7062125D02*
X9029700Y7112925D01*
X9004300Y7163725D01*
X9055100Y7138325D01*
X9105900Y7163725D01*
X9080500Y7112925D01*
X9105900Y7062125D01*
X9055100Y7087525D01*
X9004300Y7062125D01*
X9408331Y6986065D02*
X9433731Y7036865D01*
X9408331Y7087665D01*
X9459131Y7062265D01*
X9509931Y7087665D01*
X9484531Y7036865D01*
X9509931Y6986065D01*
X9459131Y7011465D01*
X9408331Y6986065D01*
X10639530Y7709856D02*
X10664930Y7760656D01*
X10639530Y7811456D01*
X10690330Y7786056D01*
X10741130Y7811456D01*
X10715730Y7760656D01*
X10741130Y7709856D01*
X10690330Y7735256D01*
X10639530Y7709856D01*
X10706100Y7645400D02*
X10731500Y7696200D01*
X10706100Y7747000D01*
X10756900Y7721600D01*
X10807700Y7747000D01*
X10782300Y7696200D01*
X10807700Y7645400D01*
X10756900Y7670800D01*
X10706100Y7645400D01*
X9851240Y8103376D02*
X9876640Y8154176D01*
X9851240Y8204976D01*
X9902040Y8179576D01*
X9952840Y8204976D01*
X9927440Y8154176D01*
X9952840Y8103376D01*
X9902040Y8128776D01*
X9851240Y8103376D01*
X10291008Y7240514D02*
X10316408Y7291314D01*
X10291008Y7342114D01*
X10341808Y7316714D01*
X10392608Y7342114D01*
X10367208Y7291314D01*
X10392608Y7240514D01*
X10341808Y7265914D01*
X10291008Y7240514D01*
X11003331Y6121400D02*
X11028731Y6172200D01*
X11003331Y6223000D01*
X11054131Y6197600D01*
X11104931Y6223000D01*
X11079531Y6172200D01*
X11104931Y6121400D01*
X11054131Y6146800D01*
X11003331Y6121400D01*
X10745830Y7358185D02*
X10771230Y7408985D01*
X10745830Y7459785D01*
X10796630Y7434385D01*
X10847430Y7459785D01*
X10822030Y7408985D01*
X10847430Y7358185D01*
X10796630Y7383585D01*
X10745830Y7358185D01*
X10752741Y6809747D02*
X10778141Y6860547D01*
X10752741Y6911347D01*
X10803541Y6885947D01*
X10854341Y6911347D01*
X10828941Y6860547D01*
X10854341Y6809747D01*
X10803541Y6835147D01*
X10752741Y6809747D01*
X10997244Y6264170D02*
X11022644Y6314970D01*
X10997244Y6365770D01*
X11048044Y6340370D01*
X11098844Y6365770D01*
X11073444Y6314970D01*
X11098844Y6264170D01*
X11048044Y6289570D01*
X10997244Y6264170D01*
X10626558Y7580930D02*
X10651958Y7631730D01*
X10626558Y7682530D01*
X10677358Y7657130D01*
X10728158Y7682530D01*
X10702758Y7631730D01*
X10728158Y7580930D01*
X10677358Y7606330D01*
X10626558Y7580930D01*
X11027774Y7124866D02*
X11053174Y7175666D01*
X11027774Y7226466D01*
X11078574Y7201066D01*
X11129374Y7226466D01*
X11103974Y7175666D01*
X11129374Y7124866D01*
X11078574Y7150266D01*
X11027774Y7124866D01*
X12315450Y7062125D02*
X12340850Y7112925D01*
X12315450Y7163725D01*
X12366250Y7138325D01*
X12417050Y7163725D01*
X12391650Y7112925D01*
X12417050Y7062125D01*
X12366250Y7087525D01*
X12315450Y7062125D01*
X11254500Y6418475D02*
X11279900Y6469275D01*
X11254500Y6520075D01*
X11305300Y6494675D01*
X11356100Y6520075D01*
X11330700Y6469275D01*
X11356100Y6418475D01*
X11305300Y6443875D01*
X11254500Y6418475D01*
X11362839Y6441314D02*
X11388239Y6492114D01*
X11362839Y6542914D01*
X11413639Y6517514D01*
X11464439Y6542914D01*
X11439039Y6492114D01*
X11464439Y6441314D01*
X11413639Y6466714D01*
X11362839Y6441314D01*
X11411206Y7306197D02*
X11436606Y7356997D01*
X11411206Y7407797D01*
X11462006Y7382397D01*
X11512806Y7407797D01*
X11487406Y7356997D01*
X11512806Y7306197D01*
X11462006Y7331597D01*
X11411206Y7306197D01*
X11947450Y5946897D02*
X11972850Y5997697D01*
X11947450Y6048497D01*
X11998250Y6023097D01*
X12049050Y6048497D01*
X12023650Y5997697D01*
X12049050Y5946897D01*
X11998250Y5972297D01*
X11947450Y5946897D01*
X11223502Y6995885D02*
X11248902Y7046685D01*
X11223502Y7097485D01*
X11274302Y7072085D01*
X11325102Y7097485D01*
X11299702Y7046685D01*
X11325102Y6995885D01*
X11274302Y7021285D01*
X11223502Y6995885D01*
X11629670Y5912300D02*
X11655070Y5963100D01*
X11629670Y6013900D01*
X11680470Y5988500D01*
X11731270Y6013900D01*
X11705870Y5963100D01*
X11731270Y5912300D01*
X11680470Y5937700D01*
X11629670Y5912300D01*
X11239500Y6096166D02*
X11264900Y6146966D01*
X11239500Y6197766D01*
X11290300Y6172366D01*
X11341100Y6197766D01*
X11315700Y6146966D01*
X11341100Y6096166D01*
X11290300Y6121566D01*
X11239500Y6096166D01*
X11480800Y7861300D02*
X11506200Y7912100D01*
X11480800Y7962900D01*
X11531600Y7937500D01*
X11582400Y7962900D01*
X11557000Y7912100D01*
X11582400Y7861300D01*
X11531600Y7886700D01*
X11480800Y7861300D01*
X8928100Y6896100D02*
X8953500Y6946900D01*
X8928100Y6997700D01*
X8978900Y6972300D01*
X9029700Y6997700D01*
X9004300Y6946900D01*
X9029700Y6896100D01*
X8978900Y6921500D01*
X8928100Y6896100D01*
X9677400Y6426200D02*
X9702800Y6477000D01*
X9677400Y6527800D01*
X9728200Y6502400D01*
X9779000Y6527800D01*
X9753600Y6477000D01*
X9779000Y6426200D01*
X9728200Y6451600D01*
X9677400Y6426200D01*
X11761180Y5586359D02*
X11786580Y5637159D01*
X11761180Y5687959D01*
X11811980Y5662559D01*
X11862780Y5687959D01*
X11837380Y5637159D01*
X11862780Y5586359D01*
X11811980Y5611759D01*
X11761180Y5586359D01*
X11518181Y6121400D02*
X11543581Y6172200D01*
X11518181Y6223000D01*
X11568981Y6197600D01*
X11619781Y6223000D01*
X11594381Y6172200D01*
X11619781Y6121400D01*
X11568981Y6146800D01*
X11518181Y6121400D01*
X11010900Y5626100D02*
X11036300Y5676900D01*
X11010900Y5727700D01*
X11061700Y5702300D01*
X11112500Y5727700D01*
X11087100Y5676900D01*
X11112500Y5626100D01*
X11061700Y5651500D01*
X11010900Y5626100D01*
X10265774Y6210300D02*
X10291174Y6261100D01*
X10265774Y6311900D01*
X10316574Y6286500D01*
X10367374Y6311900D01*
X10341974Y6261100D01*
X10367374Y6210300D01*
X10316574Y6235700D01*
X10265774Y6210300D01*
X9228666Y6362700D02*
X9254066Y6413500D01*
X9228666Y6464300D01*
X9279466Y6438900D01*
X9330266Y6464300D01*
X9304866Y6413500D01*
X9330266Y6362700D01*
X9279466Y6388100D01*
X9228666Y6362700D01*
X9664700Y6324600D02*
X9690100Y6375400D01*
X9664700Y6426200D01*
X9715500Y6400800D01*
X9766300Y6426200D01*
X9740900Y6375400D01*
X9766300Y6324600D01*
X9715500Y6350000D01*
X9664700Y6324600D01*
Y6223000D02*
X9690100Y6273800D01*
X9664700Y6324600D01*
X9715500Y6299200D01*
X9766300Y6324600D01*
X9740900Y6273800D01*
X9766300Y6223000D01*
X9715500Y6248400D01*
X9664700Y6223000D01*
X9709219Y6070600D02*
X9734619Y6121400D01*
X9709219Y6172200D01*
X9760019Y6146800D01*
X9810819Y6172200D01*
X9785419Y6121400D01*
X9810819Y6070600D01*
X9760019Y6096000D01*
X9709219Y6070600D01*
X9474200Y6299200D02*
X9499600Y6350000D01*
X9474200Y6400800D01*
X9525000Y6375400D01*
X9575800Y6400800D01*
X9550400Y6350000D01*
X9575800Y6299200D01*
X9525000Y6324600D01*
X9474200Y6299200D01*
X8953500Y6375306D02*
X8978900Y6426106D01*
X8953500Y6476906D01*
X9004300Y6451506D01*
X9055100Y6476906D01*
X9029700Y6426106D01*
X9055100Y6375306D01*
X9004300Y6400706D01*
X8953500Y6375306D01*
X9664700Y5930900D02*
X9690100Y5981700D01*
X9664700Y6032500D01*
X9715500Y6007100D01*
X9766300Y6032500D01*
X9740900Y5981700D01*
X9766300Y5930900D01*
X9715500Y5956300D01*
X9664700Y5930900D01*
X8860000Y6324600D02*
X8885400Y6375400D01*
X8860000Y6426200D01*
X8910800Y6400800D01*
X8961600Y6426200D01*
X8936200Y6375400D01*
X8961600Y6324600D01*
X8910800Y6350000D01*
X8860000Y6324600D01*
X9664700Y6010170D02*
X9690100Y6060970D01*
X9664700Y6111770D01*
X9715500Y6086370D01*
X9766300Y6111770D01*
X9740900Y6060970D01*
X9766300Y6010170D01*
X9715500Y6035570D01*
X9664700Y6010170D01*
X8626750Y6515100D02*
X8652150Y6565900D01*
X8626750Y6616700D01*
X8677550Y6591300D01*
X8728350Y6616700D01*
X8702950Y6565900D01*
X8728350Y6515100D01*
X8677550Y6540500D01*
X8626750Y6515100D01*
X8559800Y6436300D02*
X8585200Y6487100D01*
X8559800Y6537900D01*
X8610600Y6512500D01*
X8661400Y6537900D01*
X8636000Y6487100D01*
X8661400Y6436300D01*
X8610600Y6461700D01*
X8559800Y6436300D01*
X8813800Y6186664D02*
X8839200Y6237464D01*
X8813800Y6288264D01*
X8864600Y6262864D01*
X8915400Y6288264D01*
X8890000Y6237464D01*
X8915400Y6186664D01*
X8864600Y6212064D01*
X8813800Y6186664D01*
X8474350Y6375400D02*
X8499750Y6426200D01*
X8474350Y6477000D01*
X8525150Y6451600D01*
X8575950Y6477000D01*
X8550550Y6426200D01*
X8575950Y6375400D01*
X8525150Y6400800D01*
X8474350Y6375400D01*
X7797800Y5943600D02*
X7823200Y5994400D01*
X7797800Y6045200D01*
X7848600Y6019800D01*
X7899400Y6045200D01*
X7874000Y5994400D01*
X7899400Y5943600D01*
X7848600Y5969000D01*
X7797800Y5943600D01*
X8447081Y6311900D02*
X8472481Y6362700D01*
X8447081Y6413500D01*
X8497881Y6388100D01*
X8548681Y6413500D01*
X8523281Y6362700D01*
X8548681Y6311900D01*
X8497881Y6337300D01*
X8447081Y6311900D01*
X8769606Y6045200D02*
X8795006Y6096000D01*
X8769606Y6146800D01*
X8820406Y6121400D01*
X8871206Y6146800D01*
X8845806Y6096000D01*
X8871206Y6045200D01*
X8820406Y6070600D01*
X8769606Y6045200D01*
X8674100Y6070600D02*
X8699500Y6121400D01*
X8674100Y6172200D01*
X8724900Y6146800D01*
X8775700Y6172200D01*
X8750300Y6121400D01*
X8775700Y6070600D01*
X8724900Y6096000D01*
X8674100Y6070600D01*
X9728200Y5473700D02*
X9753600Y5524500D01*
X9728200Y5575300D01*
X9779000Y5549900D01*
X9829800Y5575300D01*
X9804400Y5524500D01*
X9829800Y5473700D01*
X9779000Y5499100D01*
X9728200Y5473700D01*
X8233416Y5981700D02*
X8258816Y6032500D01*
X8233416Y6083300D01*
X8284216Y6057900D01*
X8335016Y6083300D01*
X8309616Y6032500D01*
X8335016Y5981700D01*
X8284216Y6007100D01*
X8233416Y5981700D01*
X8297516Y6505470D02*
X8322916Y6556270D01*
X8297516Y6607070D01*
X8348316Y6581670D01*
X8399116Y6607070D01*
X8373716Y6556270D01*
X8399116Y6505470D01*
X8348316Y6530870D01*
X8297516Y6505470D01*
X8737600Y5637844D02*
X8763000Y5688644D01*
X8737600Y5739444D01*
X8788400Y5714044D01*
X8839200Y5739444D01*
X8813800Y5688644D01*
X8839200Y5637844D01*
X8788400Y5663244D01*
X8737600Y5637844D01*
X8166100Y6388100D02*
X8191500Y6438900D01*
X8166100Y6489700D01*
X8216900Y6464300D01*
X8267700Y6489700D01*
X8242300Y6438900D01*
X8267700Y6388100D01*
X8216900Y6413500D01*
X8166100Y6388100D01*
X8280769Y6438900D02*
X8306169Y6489700D01*
X8280769Y6540500D01*
X8331569Y6515100D01*
X8382369Y6540500D01*
X8356969Y6489700D01*
X8382369Y6438900D01*
X8331569Y6464300D01*
X8280769Y6438900D01*
X8245800Y6375306D02*
X8271200Y6426106D01*
X8245800Y6476906D01*
X8296600Y6451506D01*
X8347400Y6476906D01*
X8322000Y6426106D01*
X8347400Y6375306D01*
X8296600Y6400706D01*
X8245800Y6375306D01*
X7835900Y6223000D02*
X7861300Y6273800D01*
X7835900Y6324600D01*
X7886700Y6299200D01*
X7937500Y6324600D01*
X7912100Y6273800D01*
X7937500Y6223000D01*
X7886700Y6248400D01*
X7835900Y6223000D01*
X8191500Y6481373D02*
X8216900Y6532173D01*
X8191500Y6582973D01*
X8242300Y6557573D01*
X8293100Y6582973D01*
X8267700Y6532173D01*
X8293100Y6481373D01*
X8242300Y6506773D01*
X8191500Y6481373D01*
X8125954Y6514200D02*
X8151354Y6565000D01*
X8125954Y6615800D01*
X8176754Y6590400D01*
X8227554Y6615800D01*
X8202154Y6565000D01*
X8227554Y6514200D01*
X8176754Y6539600D01*
X8125954Y6514200D01*
X8077200Y6578600D02*
X8102600Y6629400D01*
X8077200Y6680200D01*
X8128000Y6654800D01*
X8178800Y6680200D01*
X8153400Y6629400D01*
X8178800Y6578600D01*
X8128000Y6604000D01*
X8077200Y6578600D01*
X7998860Y6553200D02*
X8024260Y6604000D01*
X7998860Y6654800D01*
X8049660Y6629400D01*
X8100460Y6654800D01*
X8075060Y6604000D01*
X8100460Y6553200D01*
X8049660Y6578600D01*
X7998860Y6553200D01*
X7968700Y6642100D02*
X7994100Y6692900D01*
X7968700Y6743700D01*
X8019500Y6718300D01*
X8070300Y6743700D01*
X8044900Y6692900D01*
X8070300Y6642100D01*
X8019500Y6667500D01*
X7968700Y6642100D01*
X7912100Y6705600D02*
X7937500Y6756400D01*
X7912100Y6807200D01*
X7962900Y6781800D01*
X8013700Y6807200D01*
X7988300Y6756400D01*
X8013700Y6705600D01*
X7962900Y6731000D01*
X7912100Y6705600D01*
X7848600Y6756400D02*
X7874000Y6807200D01*
X7848600Y6858000D01*
X7899400Y6832600D01*
X7950200Y6858000D01*
X7924800Y6807200D01*
X7950200Y6756400D01*
X7899400Y6781800D01*
X7848600Y6756400D01*
X7751373Y6772200D02*
X7776773Y6823000D01*
X7751373Y6873800D01*
X7802173Y6848400D01*
X7852973Y6873800D01*
X7827573Y6823000D01*
X7852973Y6772200D01*
X7802173Y6797600D01*
X7751373Y6772200D01*
X7587296Y6210300D02*
X7612696Y6261100D01*
X7587296Y6311900D01*
X7638096Y6286500D01*
X7688896Y6311900D01*
X7663496Y6261100D01*
X7688896Y6210300D01*
X7638096Y6235700D01*
X7587296Y6210300D01*
X7594600Y6299200D02*
X7620000Y6350000D01*
X7594600Y6400800D01*
X7645400Y6375400D01*
X7696200Y6400800D01*
X7670800Y6350000D01*
X7696200Y6299200D01*
X7645400Y6324600D01*
X7594600Y6299200D01*
X7531100Y6436300D02*
X7556500Y6487100D01*
X7531100Y6537900D01*
X7581900Y6512500D01*
X7632700Y6537900D01*
X7607300Y6487100D01*
X7632700Y6436300D01*
X7581900Y6461700D01*
X7531100Y6436300D01*
X7480300Y6477000D02*
X7505700Y6527800D01*
X7480300Y6578600D01*
X7531100Y6553200D01*
X7581900Y6578600D01*
X7556500Y6527800D01*
X7581900Y6477000D01*
X7531100Y6502400D01*
X7480300Y6477000D01*
X7416800Y6436300D02*
X7442200Y6487100D01*
X7416800Y6537900D01*
X7467600Y6512500D01*
X7518400Y6537900D01*
X7493000Y6487100D01*
X7518400Y6436300D01*
X7467600Y6461700D01*
X7416800Y6436300D01*
X6985000Y6921500D02*
X7010400Y6972300D01*
X6985000Y7023100D01*
X7035800Y6997700D01*
X7086600Y7023100D01*
X7061200Y6972300D01*
X7086600Y6921500D01*
X7035800Y6946900D01*
X6985000Y6921500D01*
X7099300Y6920928D02*
X7124700Y6971728D01*
X7099300Y7022528D01*
X7150100Y6997128D01*
X7200900Y7022528D01*
X7175500Y6971728D01*
X7200900Y6920928D01*
X7150100Y6946328D01*
X7099300Y6920928D01*
X7226300Y6985000D02*
X7251700Y7035800D01*
X7226300Y7086600D01*
X7277100Y7061200D01*
X7327900Y7086600D01*
X7302500Y7035800D01*
X7327900Y6985000D01*
X7277100Y7010400D01*
X7226300Y6985000D01*
X7416800Y6578600D02*
X7442200Y6629400D01*
X7416800Y6680200D01*
X7467600Y6654800D01*
X7518400Y6680200D01*
X7493000Y6629400D01*
X7518400Y6578600D01*
X7467600Y6604000D01*
X7416800Y6578600D01*
X7397819Y6652300D02*
X7423219Y6703100D01*
X7397819Y6753900D01*
X7448619Y6728500D01*
X7499419Y6753900D01*
X7474019Y6703100D01*
X7499419Y6652300D01*
X7448619Y6677700D01*
X7397819Y6652300D01*
X7613040Y6910196D02*
X7638440Y6960996D01*
X7613040Y7011796D01*
X7663840Y6986396D01*
X7714640Y7011796D01*
X7689240Y6960996D01*
X7714640Y6910196D01*
X7663840Y6935596D01*
X7613040Y6910196D01*
X7499141Y6995885D02*
X7524541Y7046685D01*
X7499141Y7097485D01*
X7549941Y7072085D01*
X7600741Y7097485D01*
X7575341Y7046685D01*
X7600741Y6995885D01*
X7549941Y7021285D01*
X7499141Y6995885D01*
X7188200Y6863210D02*
X7213600Y6914010D01*
X7188200Y6964810D01*
X7239000Y6939410D01*
X7289800Y6964810D01*
X7264400Y6914010D01*
X7289800Y6863210D01*
X7239000Y6888610D01*
X7188200Y6863210D01*
X7251700Y7188200D02*
X7277100Y7239000D01*
X7251700Y7289800D01*
X7302500Y7264400D01*
X7353300Y7289800D01*
X7327900Y7239000D01*
X7353300Y7188200D01*
X7302500Y7213600D01*
X7251700Y7188200D01*
X7442200Y7997700D02*
X7467600Y8048500D01*
X7442200Y8099300D01*
X7493000Y8073900D01*
X7543800Y8099300D01*
X7518400Y8048500D01*
X7543800Y7997700D01*
X7493000Y8023100D01*
X7442200Y7997700D01*
X7391400Y7620000D02*
X7416800Y7670800D01*
X7391400Y7721600D01*
X7442200Y7696200D01*
X7493000Y7721600D01*
X7467600Y7670800D01*
X7493000Y7620000D01*
X7442200Y7645400D01*
X7391400Y7620000D01*
X7670800Y7269796D02*
X7696200Y7320596D01*
X7670800Y7371396D01*
X7721600Y7345996D01*
X7772400Y7371396D01*
X7747000Y7320596D01*
X7772400Y7269796D01*
X7721600Y7295196D01*
X7670800Y7269796D01*
X7594600Y8191500D02*
X7620000Y8242300D01*
X7594600Y8293100D01*
X7645400Y8267700D01*
X7696200Y8293100D01*
X7670800Y8242300D01*
X7696200Y8191500D01*
X7645400Y8216900D01*
X7594600Y8191500D01*
Y7200900D02*
X7620000Y7251700D01*
X7594600Y7302500D01*
X7645400Y7277100D01*
X7696200Y7302500D01*
X7670800Y7251700D01*
X7696200Y7200900D01*
X7645400Y7226300D01*
X7594600Y7200900D01*
X7366000Y7429500D02*
X7391400Y7480300D01*
X7366000Y7531100D01*
X7416800Y7505700D01*
X7467600Y7531100D01*
X7442200Y7480300D01*
X7467600Y7429500D01*
X7416800Y7454900D01*
X7366000Y7429500D01*
X7696200Y7772400D02*
X7721600Y7823200D01*
X7696200Y7874000D01*
X7747000Y7848600D01*
X7797800Y7874000D01*
X7772400Y7823200D01*
X7797800Y7772400D01*
X7747000Y7797800D01*
X7696200Y7772400D01*
X7607300Y7721600D02*
X7632700Y7772400D01*
X7607300Y7823200D01*
X7658100Y7797800D01*
X7708900Y7823200D01*
X7683500Y7772400D01*
X7708900Y7721600D01*
X7658100Y7747000D01*
X7607300Y7721600D01*
X7556500Y7641027D02*
X7581900Y7691827D01*
X7556500Y7742627D01*
X7607300Y7717227D01*
X7658100Y7742627D01*
X7632700Y7691827D01*
X7658100Y7641027D01*
X7607300Y7666427D01*
X7556500Y7641027D01*
X7670800Y7677150D02*
X7696200Y7727950D01*
X7670800Y7778750D01*
X7721600Y7753350D01*
X7772400Y7778750D01*
X7747000Y7727950D01*
X7772400Y7677150D01*
X7721600Y7702550D01*
X7670800Y7677150D01*
X8077200Y7578830D02*
X8102600Y7629630D01*
X8077200Y7680430D01*
X8128000Y7655030D01*
X8178800Y7680430D01*
X8153400Y7629630D01*
X8178800Y7578830D01*
X8128000Y7604230D01*
X8077200Y7578830D01*
X7899400Y7404100D02*
X7924800Y7454900D01*
X7899400Y7505700D01*
X7950200Y7480300D01*
X8001000Y7505700D01*
X7975600Y7454900D01*
X8001000Y7404100D01*
X7950200Y7429500D01*
X7899400Y7404100D01*
X8967156Y8509000D02*
X8992556Y8559800D01*
X8967156Y8610600D01*
X9017956Y8585200D01*
X9068756Y8610600D01*
X9043356Y8559800D01*
X9068756Y8509000D01*
X9017956Y8534400D01*
X8967156Y8509000D01*
X8382166Y8115300D02*
X8407566Y8166100D01*
X8382166Y8216900D01*
X8432966Y8191500D01*
X8483766Y8216900D01*
X8458366Y8166100D01*
X8483766Y8115300D01*
X8432966Y8140700D01*
X8382166Y8115300D01*
X8559800Y8191500D02*
X8585200Y8242300D01*
X8559800Y8293100D01*
X8610600Y8267700D01*
X8661400Y8293100D01*
X8636000Y8242300D01*
X8661400Y8191500D01*
X8610600Y8216900D01*
X8559800Y8191500D01*
X8242300Y7893631D02*
X8267700Y7944431D01*
X8242300Y7995231D01*
X8293100Y7969831D01*
X8343900Y7995231D01*
X8318500Y7944431D01*
X8343900Y7893631D01*
X8293100Y7919031D01*
X8242300Y7893631D01*
X8128000Y8204200D02*
X8153400Y8255000D01*
X8128000Y8305800D01*
X8178800Y8280400D01*
X8229600Y8305800D01*
X8204200Y8255000D01*
X8229600Y8204200D01*
X8178800Y8229600D01*
X8128000Y8204200D01*
X8229600Y8153400D02*
X8255000Y8204200D01*
X8229600Y8255000D01*
X8280400Y8229600D01*
X8331200Y8255000D01*
X8305800Y8204200D01*
X8331200Y8153400D01*
X8280400Y8178800D01*
X8229600Y8153400D01*
X8128000Y7759700D02*
X8153400Y7810500D01*
X8128000Y7861300D01*
X8178800Y7835900D01*
X8229600Y7861300D01*
X8204200Y7810500D01*
X8229600Y7759700D01*
X8178800Y7785100D01*
X8128000Y7759700D01*
X7899400Y7975600D02*
X7924800Y8026400D01*
X7899400Y8077200D01*
X7950200Y8051800D01*
X8001000Y8077200D01*
X7975600Y8026400D01*
X8001000Y7975600D01*
X7950200Y8001000D01*
X7899400Y7975600D01*
X8509000Y8122559D02*
X8534400Y8173359D01*
X8509000Y8224159D01*
X8559800Y8198759D01*
X8610600Y8224159D01*
X8585200Y8173359D01*
X8610600Y8122559D01*
X8559800Y8147959D01*
X8509000Y8122559D01*
X8769606Y8093000D02*
X8795006Y8143800D01*
X8769606Y8194600D01*
X8820406Y8169200D01*
X8871206Y8194600D01*
X8845806Y8143800D01*
X8871206Y8093000D01*
X8820406Y8118400D01*
X8769606Y8093000D01*
X8801100Y7988300D02*
X8826500Y8039100D01*
X8801100Y8089900D01*
X8851900Y8064500D01*
X8902700Y8089900D01*
X8877300Y8039100D01*
X8902700Y7988300D01*
X8851900Y8013700D01*
X8801100Y7988300D01*
X8686498Y8195617D02*
X8711898Y8246417D01*
X8686498Y8297217D01*
X8737298Y8271817D01*
X8788098Y8297217D01*
X8762698Y8246417D01*
X8788098Y8195617D01*
X8737298Y8221017D01*
X8686498Y8195617D01*
X8775700Y7919000D02*
X8801100Y7969800D01*
X8775700Y8020600D01*
X8826500Y7995200D01*
X8877300Y8020600D01*
X8851900Y7969800D01*
X8877300Y7919000D01*
X8826500Y7944400D01*
X8775700Y7919000D01*
X8877300Y8204200D02*
X8902700Y8255000D01*
X8877300Y8305800D01*
X8928100Y8280400D01*
X8978900Y8305800D01*
X8953500Y8255000D01*
X8978900Y8204200D01*
X8928100Y8229600D01*
X8877300Y8204200D01*
X8953500Y8142200D02*
X8978900Y8193000D01*
X8953500Y8243800D01*
X9004300Y8218400D01*
X9055100Y8243800D01*
X9029700Y8193000D01*
X9055100Y8142200D01*
X9004300Y8167600D01*
X8953500Y8142200D01*
X9063597Y8058150D02*
X9088997Y8108950D01*
X9063597Y8159750D01*
X9114397Y8134350D01*
X9165197Y8159750D01*
X9139797Y8108950D01*
X9165197Y8058150D01*
X9114397Y8083550D01*
X9063597Y8058150D01*
X9525000Y7578830D02*
X9550400Y7629630D01*
X9525000Y7680430D01*
X9575800Y7655030D01*
X9626600Y7680430D01*
X9601200Y7629630D01*
X9626600Y7578830D01*
X9575800Y7604230D01*
X9525000Y7578830D01*
X9232900Y7594600D02*
X9258300Y7645400D01*
X9232900Y7696200D01*
X9283700Y7670800D01*
X9334500Y7696200D01*
X9309100Y7645400D01*
X9334500Y7594600D01*
X9283700Y7620000D01*
X9232900Y7594600D01*
X9131300D02*
X9156700Y7645400D01*
X9131300Y7696200D01*
X9182100Y7670800D01*
X9232900Y7696200D01*
X9207500Y7645400D01*
X9232900Y7594600D01*
X9182100Y7620000D01*
X9131300Y7594600D01*
X9350271Y7552639D02*
X9375671Y7603439D01*
X9350271Y7654239D01*
X9401071Y7628839D01*
X9451871Y7654239D01*
X9426471Y7603439D01*
X9451871Y7552639D01*
X9401071Y7578039D01*
X9350271Y7552639D01*
X9029700Y7670800D02*
X9055100Y7721600D01*
X9029700Y7772400D01*
X9080500Y7747000D01*
X9131300Y7772400D01*
X9105900Y7721600D01*
X9131300Y7670800D01*
X9080500Y7696200D01*
X9029700Y7670800D01*
X8928100Y7721600D02*
X8953500Y7772400D01*
X8928100Y7823200D01*
X8978900Y7797800D01*
X9029700Y7823200D01*
X9004300Y7772400D01*
X9029700Y7721600D01*
X8978900Y7747000D01*
X8928100Y7721600D01*
X8864600Y7797800D02*
X8890000Y7848600D01*
X8864600Y7899400D01*
X8915400Y7874000D01*
X8966200Y7899400D01*
X8940800Y7848600D01*
X8966200Y7797800D01*
X8915400Y7823200D01*
X8864600Y7797800D01*
X9029700Y7772400D02*
X9055100Y7823200D01*
X9029700Y7874000D01*
X9080500Y7848600D01*
X9131300Y7874000D01*
X9105900Y7823200D01*
X9131300Y7772400D01*
X9080500Y7797800D01*
X9029700Y7772400D01*
X9445729Y7552639D02*
X9471129Y7603439D01*
X9445729Y7654239D01*
X9496529Y7628839D01*
X9547329Y7654239D01*
X9521929Y7603439D01*
X9547329Y7552639D01*
X9496529Y7578039D01*
X9445729Y7552639D01*
X9486900Y7327900D02*
X9512300Y7378700D01*
X9486900Y7429500D01*
X9537700Y7404100D01*
X9588500Y7429500D01*
X9563100Y7378700D01*
X9588500Y7327900D01*
X9537700Y7353300D01*
X9486900Y7327900D01*
X9093200Y7740300D02*
X9118600Y7791100D01*
X9093200Y7841900D01*
X9144000Y7816500D01*
X9194800Y7841900D01*
X9169400Y7791100D01*
X9194800Y7740300D01*
X9144000Y7765700D01*
X9093200Y7740300D01*
X8826500Y7860779D02*
X8851900Y7911579D01*
X8826500Y7962379D01*
X8877300Y7936979D01*
X8928100Y7962379D01*
X8902700Y7911579D01*
X8928100Y7860779D01*
X8877300Y7886179D01*
X8826500Y7860779D01*
X8597900Y7674097D02*
X8623300Y7724897D01*
X8597900Y7775697D01*
X8648700Y7750297D01*
X8699500Y7775697D01*
X8674100Y7724897D01*
X8699500Y7674097D01*
X8648700Y7699497D01*
X8597900Y7674097D01*
X10105262Y8204200D02*
X10130662Y8255000D01*
X10105262Y8305800D01*
X10156062Y8280400D01*
X10206862Y8305800D01*
X10181462Y8255000D01*
X10206862Y8204200D01*
X10156062Y8229600D01*
X10105262Y8204200D01*
X8712200Y7581900D02*
X8737600Y7632700D01*
X8712200Y7683500D01*
X8763000Y7658100D01*
X8813800Y7683500D01*
X8788400Y7632700D01*
X8813800Y7581900D01*
X8763000Y7607300D01*
X8712200Y7581900D01*
X9194800Y7810500D02*
X9220200Y7861300D01*
X9194800Y7912100D01*
X9245600Y7886700D01*
X9296400Y7912100D01*
X9271000Y7861300D01*
X9296400Y7810500D01*
X9245600Y7835900D01*
X9194800Y7810500D01*
X9271000Y7835900D02*
X9296400Y7886700D01*
X9271000Y7937500D01*
X9321800Y7912100D01*
X9372600Y7937500D01*
X9347200Y7886700D01*
X9372600Y7835900D01*
X9321800Y7861300D01*
X9271000Y7835900D01*
X10414000Y8202310D02*
X10439400Y8253110D01*
X10414000Y8303910D01*
X10464800Y8278510D01*
X10515600Y8303910D01*
X10490200Y8253110D01*
X10515600Y8202310D01*
X10464800Y8227710D01*
X10414000Y8202310D01*
X8813800Y7470927D02*
X8839200Y7521727D01*
X8813800Y7572527D01*
X8864600Y7547127D01*
X8915400Y7572527D01*
X8890000Y7521727D01*
X8915400Y7470927D01*
X8864600Y7496327D01*
X8813800Y7470927D01*
X10566400Y8202310D02*
X10591800Y8253110D01*
X10566400Y8303910D01*
X10617200Y8278510D01*
X10668000Y8303910D01*
X10642600Y8253110D01*
X10668000Y8202310D01*
X10617200Y8227710D01*
X10566400Y8202310D01*
X9550400Y7772400D02*
X9575800Y7823200D01*
X9550400Y7874000D01*
X9601200Y7848600D01*
X9652000Y7874000D01*
X9626600Y7823200D01*
X9652000Y7772400D01*
X9601200Y7797800D01*
X9550400Y7772400D01*
X10642600Y8166100D02*
X10668000Y8216900D01*
X10642600Y8267700D01*
X10693400Y8242300D01*
X10744200Y8267700D01*
X10718800Y8216900D01*
X10744200Y8166100D01*
X10693400Y8191500D01*
X10642600Y8166100D01*
X10033000Y7740300D02*
X10058400Y7791100D01*
X10033000Y7841900D01*
X10083800Y7816500D01*
X10134600Y7841900D01*
X10109200Y7791100D01*
X10134600Y7740300D01*
X10083800Y7765700D01*
X10033000Y7740300D01*
X10490200Y5930900D02*
X10515600Y5981700D01*
X10490200Y6032500D01*
X10541000Y6007100D01*
X10591800Y6032500D01*
X10566400Y5981700D01*
X10591800Y5930900D01*
X10541000Y5956300D01*
X10490200Y5930900D01*
X10591800Y6022300D02*
X10617200Y6073100D01*
X10591800Y6123900D01*
X10642600Y6098500D01*
X10693400Y6123900D01*
X10668000Y6073100D01*
X10693400Y6022300D01*
X10642600Y6047700D01*
X10591800Y6022300D01*
X10782300Y5980200D02*
X10807700Y6031000D01*
X10782300Y6081800D01*
X10833100Y6056400D01*
X10883900Y6081800D01*
X10858500Y6031000D01*
X10883900Y5980200D01*
X10833100Y6005600D01*
X10782300Y5980200D01*
X10985500Y5981700D02*
X11010900Y6032500D01*
X10985500Y6083300D01*
X11036300Y6057900D01*
X11087100Y6083300D01*
X11061700Y6032500D01*
X11087100Y5981700D01*
X11036300Y6007100D01*
X10985500Y5981700D01*
X11214100Y5980200D02*
X11239500Y6031000D01*
X11214100Y6081800D01*
X11264900Y6056400D01*
X11315700Y6081800D01*
X11290300Y6031000D01*
X11315700Y5980200D01*
X11264900Y6005600D01*
X11214100Y5980200D01*
X11557000Y5943600D02*
X11582400Y5994400D01*
X11557000Y6045200D01*
X11607800Y6019800D01*
X11658600Y6045200D01*
X11633200Y5994400D01*
X11658600Y5943600D01*
X11607800Y5969000D01*
X11557000Y5943600D01*
X11844950Y5905500D02*
X11870350Y5956300D01*
X11844950Y6007100D01*
X11895750Y5981700D01*
X11946550Y6007100D01*
X11921150Y5956300D01*
X11946550Y5905500D01*
X11895750Y5930900D01*
X11844950Y5905500D01*
X12241300Y6286500D02*
X12266700Y6337300D01*
X12241300Y6388100D01*
X12292100Y6362700D01*
X12342900Y6388100D01*
X12317500Y6337300D01*
X12342900Y6286500D01*
X12292100Y6311900D01*
X12241300Y6286500D01*
X12409400Y6375306D02*
X12434800Y6426106D01*
X12409400Y6476906D01*
X12460200Y6451506D01*
X12511000Y6476906D01*
X12485600Y6426106D01*
X12511000Y6375306D01*
X12460200Y6400706D01*
X12409400Y6375306D01*
X12074225Y6339951D02*
X12099625Y6390751D01*
X12074225Y6441551D01*
X12125025Y6416151D01*
X12175825Y6441551D01*
X12150425Y6390751D01*
X12175825Y6339951D01*
X12125025Y6365351D01*
X12074225Y6339951D01*
X11659230Y6936200D02*
X11684630Y6987000D01*
X11659230Y7037800D01*
X11710030Y7012400D01*
X11760830Y7037800D01*
X11735430Y6987000D01*
X11760830Y6936200D01*
X11710030Y6961600D01*
X11659230Y6936200D01*
X12409400Y8203921D02*
X12434800Y8254721D01*
X12409400Y8305521D01*
X12460200Y8280121D01*
X12511000Y8305521D01*
X12485600Y8254721D01*
X12511000Y8203921D01*
X12460200Y8229321D01*
X12409400Y8203921D01*
X12217400Y7882700D02*
X12242800Y7933500D01*
X12217400Y7984300D01*
X12268200Y7958900D01*
X12319000Y7984300D01*
X12293600Y7933500D01*
X12319000Y7882700D01*
X12268200Y7908100D01*
X12217400Y7882700D01*
X11988800Y7927870D02*
X12014200Y7978670D01*
X11988800Y8029470D01*
X12039600Y8004070D01*
X12090400Y8029470D01*
X12065000Y7978670D01*
X12090400Y7927870D01*
X12039600Y7953270D01*
X11988800Y7927870D01*
X11746180Y8124930D02*
X11771580Y8175730D01*
X11746180Y8226530D01*
X11796980Y8201130D01*
X11847780Y8226530D01*
X11822380Y8175730D01*
X11847780Y8124930D01*
X11796980Y8150330D01*
X11746180Y8124930D01*
X11569700Y8039100D02*
X11595100Y8089900D01*
X11569700Y8140700D01*
X11620500Y8115300D01*
X11671300Y8140700D01*
X11645900Y8089900D01*
X11671300Y8039100D01*
X11620500Y8064500D01*
X11569700Y8039100D01*
X11239500Y8142953D02*
X11264900Y8193753D01*
X11239500Y8244553D01*
X11290300Y8219153D01*
X11341100Y8244553D01*
X11315700Y8193753D01*
X11341100Y8142953D01*
X11290300Y8168353D01*
X11239500Y8142953D01*
X10744200Y7936500D02*
X10769600Y7987300D01*
X10744200Y8038100D01*
X10795000Y8012700D01*
X10845800Y8038100D01*
X10820400Y7987300D01*
X10845800Y7936500D01*
X10795000Y7961900D01*
X10744200Y7936500D01*
X10612139Y8066481D02*
X10637539Y8117281D01*
X10612139Y8168081D01*
X10662939Y8142681D01*
X10713739Y8168081D01*
X10688339Y8117281D01*
X10713739Y8066481D01*
X10662939Y8091881D01*
X10612139Y8066481D01*
X10359400Y7950200D02*
X10384800Y8001000D01*
X10359400Y8051800D01*
X10410200Y8026400D01*
X10461000Y8051800D01*
X10435600Y8001000D01*
X10461000Y7950200D01*
X10410200Y7975600D01*
X10359400Y7950200D01*
X9771950Y7893631D02*
X9797350Y7944431D01*
X9771950Y7995231D01*
X9822750Y7969831D01*
X9873550Y7995231D01*
X9848150Y7944431D01*
X9873550Y7893631D01*
X9822750Y7919031D01*
X9771950Y7893631D01*
X9702553Y7578830D02*
X9727953Y7629630D01*
X9702553Y7680430D01*
X9753353Y7655030D01*
X9804153Y7680430D01*
X9778753Y7629630D01*
X9804153Y7578830D01*
X9753353Y7604230D01*
X9702553Y7578830D01*
X9612400Y7518400D02*
X9637800Y7569200D01*
X9612400Y7620000D01*
X9663200Y7594600D01*
X9714000Y7620000D01*
X9688600Y7569200D01*
X9714000Y7518400D01*
X9663200Y7543800D01*
X9612400Y7518400D01*
X9817100Y6845433D02*
X9842500Y6896233D01*
X9817100Y6947033D01*
X9867900Y6921633D01*
X9918700Y6947033D01*
X9893300Y6896233D01*
X9918700Y6845433D01*
X9867900Y6870833D01*
X9817100Y6845433D01*
X10261670Y6846200D02*
X10287070Y6897000D01*
X10261670Y6947800D01*
X10312470Y6922400D01*
X10363270Y6947800D01*
X10337870Y6897000D01*
X10363270Y6846200D01*
X10312470Y6871600D01*
X10261670Y6846200D01*
X10045700Y6870281D02*
X10071100Y6921081D01*
X10045700Y6971881D01*
X10096500Y6946481D01*
X10147300Y6971881D01*
X10121900Y6921081D01*
X10147300Y6870281D01*
X10096500Y6895681D01*
X10045700Y6870281D01*
X9982200Y7168540D02*
X10007600Y7219340D01*
X9982200Y7270140D01*
X10033000Y7244740D01*
X10083800Y7270140D01*
X10058400Y7219340D01*
X10083800Y7168540D01*
X10033000Y7193940D01*
X9982200Y7168540D01*
X10033000Y6985000D02*
X10058400Y7035800D01*
X10033000Y7086600D01*
X10083800Y7061200D01*
X10134600Y7086600D01*
X10109200Y7035800D01*
X10134600Y6985000D01*
X10083800Y7010400D01*
X10033000Y6985000D01*
X10057100Y7340507D02*
X10082500Y7391307D01*
X10057100Y7442107D01*
X10107900Y7416707D01*
X10158700Y7442107D01*
X10133300Y7391307D01*
X10158700Y7340507D01*
X10107900Y7365907D01*
X10057100Y7340507D01*
X9829800Y7823200D02*
X9855200Y7874000D01*
X9829800Y7924800D01*
X9880600Y7899400D01*
X9931400Y7924800D01*
X9906000Y7874000D01*
X9931400Y7823200D01*
X9880600Y7848600D01*
X9829800Y7823200D01*
X9445729Y7455927D02*
X9471129Y7506727D01*
X9445729Y7557527D01*
X9496529Y7532127D01*
X9547329Y7557527D01*
X9521929Y7506727D01*
X9547329Y7455927D01*
X9496529Y7481327D01*
X9445729Y7455927D01*
X10261670Y7696200D02*
X10287070Y7747000D01*
X10261670Y7797800D01*
X10312470Y7772400D01*
X10363270Y7797800D01*
X10337870Y7747000D01*
X10363270Y7696200D01*
X10312470Y7721600D01*
X10261670Y7696200D01*
X9791700Y7658100D02*
X9817100Y7708900D01*
X9791700Y7759700D01*
X9842500Y7734300D01*
X9893300Y7759700D01*
X9867900Y7708900D01*
X9893300Y7658100D01*
X9842500Y7683500D01*
X9791700Y7658100D01*
X8991600Y7269796D02*
X9017000Y7320596D01*
X8991600Y7371396D01*
X9042400Y7345996D01*
X9093200Y7371396D01*
X9067800Y7320596D01*
X9093200Y7269796D01*
X9042400Y7295196D01*
X8991600Y7269796D01*
X10134600Y7658100D02*
X10160000Y7708900D01*
X10134600Y7759700D01*
X10185400Y7734300D01*
X10236200Y7759700D01*
X10210800Y7708900D01*
X10236200Y7658100D01*
X10185400Y7683500D01*
X10134600Y7658100D01*
X9880627D02*
X9906027Y7708900D01*
X9880627Y7759700D01*
X9931427Y7734300D01*
X9982227Y7759700D01*
X9956827Y7708900D01*
X9982227Y7658100D01*
X9931427Y7683500D01*
X9880627Y7658100D01*
X11379200Y8203921D02*
X11404600Y8254721D01*
X11379200Y8305521D01*
X11430000Y8280121D01*
X11480800Y8305521D01*
X11455400Y8254721D01*
X11480800Y8203921D01*
X11430000Y8229321D01*
X11379200Y8203921D01*
X10210800Y7591530D02*
X10236200Y7642330D01*
X10210800Y7693130D01*
X10261600Y7667730D01*
X10312400Y7693130D01*
X10287000Y7642330D01*
X10312400Y7591530D01*
X10261600Y7616930D01*
X10210800Y7591530D01*
X10083800Y7478637D02*
X10109200Y7529437D01*
X10083800Y7580237D01*
X10134600Y7554837D01*
X10185400Y7580237D01*
X10160000Y7529437D01*
X10185400Y7478637D01*
X10134600Y7504037D01*
X10083800Y7478637D01*
X10261600Y7538983D02*
X10287000Y7589783D01*
X10261600Y7640583D01*
X10312400Y7615183D01*
X10363200Y7640583D01*
X10337800Y7589783D01*
X10363200Y7538983D01*
X10312400Y7564383D01*
X10261600Y7538983D01*
X10160000Y7442200D02*
X10185400Y7493000D01*
X10160000Y7543800D01*
X10210800Y7518400D01*
X10261600Y7543800D01*
X10236200Y7493000D01*
X10261600Y7442200D01*
X10210800Y7467600D01*
X10160000Y7442200D01*
X9232900Y7391400D02*
X9258300Y7442200D01*
X9232900Y7493000D01*
X9283700Y7467600D01*
X9334500Y7493000D01*
X9309100Y7442200D01*
X9334500Y7391400D01*
X9283700Y7416800D01*
X9232900Y7391400D01*
X9211800Y8195617D02*
X9237200Y8246417D01*
X9211800Y8297217D01*
X9262600Y8271817D01*
X9313400Y8297217D01*
X9288000Y8246417D01*
X9313400Y8195617D01*
X9262600Y8221017D01*
X9211800Y8195617D01*
X9575800Y7874000D02*
X9601200Y7924800D01*
X9575800Y7975600D01*
X9626600Y7950200D01*
X9677400Y7975600D01*
X9652000Y7924800D01*
X9677400Y7874000D01*
X9626600Y7899400D01*
X9575800Y7874000D01*
X9436100Y7835900D02*
X9461500Y7886700D01*
X9436100Y7937500D01*
X9486900Y7912100D01*
X9537700Y7937500D01*
X9512300Y7886700D01*
X9537700Y7835900D01*
X9486900Y7861300D01*
X9436100Y7835900D01*
X11455400Y8166100D02*
X11480800Y8216900D01*
X11455400Y8267700D01*
X11506200Y8242300D01*
X11557000Y8267700D01*
X11531600Y8216900D01*
X11557000Y8166100D01*
X11506200Y8191500D01*
X11455400Y8166100D01*
X9855200Y7276200D02*
X9880600Y7327000D01*
X9855200Y7377800D01*
X9906000Y7352400D01*
X9956800Y7377800D01*
X9931400Y7327000D01*
X9956800Y7276200D01*
X9906000Y7301600D01*
X9855200Y7276200D01*
X9709219Y7162800D02*
X9734619Y7213600D01*
X9709219Y7264400D01*
X9760019Y7239000D01*
X9810819Y7264400D01*
X9785419Y7213600D01*
X9810819Y7162800D01*
X9760019Y7188200D01*
X9709219Y7162800D01*
X9067800Y7212100D02*
X9093200Y7262900D01*
X9067800Y7313700D01*
X9118600Y7288300D01*
X9169400Y7313700D01*
X9144000Y7262900D01*
X9169400Y7212100D01*
X9118600Y7237500D01*
X9067800Y7212100D01*
X10287000Y7327900D02*
X10312400Y7378700D01*
X10287000Y7429500D01*
X10337800Y7404100D01*
X10388600Y7429500D01*
X10363200Y7378700D01*
X10388600Y7327900D01*
X10337800Y7353300D01*
X10287000Y7327900D01*
X9131300Y7150100D02*
X9156700Y7200900D01*
X9131300Y7251700D01*
X9182100Y7226300D01*
X9232900Y7251700D01*
X9207500Y7200900D01*
X9232900Y7150100D01*
X9182100Y7175500D01*
X9131300Y7150100D01*
X11887200Y8204200D02*
X11912600Y8255000D01*
X11887200Y8305800D01*
X11938000Y8280400D01*
X11988800Y8305800D01*
X11963400Y8255000D01*
X11988800Y8204200D01*
X11938000Y8229600D01*
X11887200Y8204200D01*
X9029700Y6946900D02*
X9055100Y6997700D01*
X9029700Y7048500D01*
X9080500Y7023100D01*
X9131300Y7048500D01*
X9105900Y6997700D01*
X9131300Y6946900D01*
X9080500Y6972300D01*
X9029700Y6946900D01*
X7861300Y6160382D02*
X7886700Y6211182D01*
X7861300Y6261982D01*
X7912100Y6236582D01*
X7962900Y6261982D01*
X7937500Y6211182D01*
X7962900Y6160382D01*
X7912100Y6185782D01*
X7861300Y6160382D01*
X7950200Y5956300D02*
X7975600Y6007100D01*
X7950200Y6057900D01*
X8001000Y6032500D01*
X8051800Y6057900D01*
X8026400Y6007100D01*
X8051800Y5956300D01*
X8001000Y5981700D01*
X7950200Y5956300D01*
X10147300Y6477000D02*
X10172700Y6527800D01*
X10147300Y6578600D01*
X10198100Y6553200D01*
X10248900Y6578600D01*
X10223500Y6527800D01*
X10248900Y6477000D01*
X10198100Y6502400D01*
X10147300Y6477000D01*
X10058400Y6481373D02*
X10083800Y6532173D01*
X10058400Y6582973D01*
X10109200Y6557573D01*
X10160000Y6582973D01*
X10134600Y6532173D01*
X10160000Y6481373D01*
X10109200Y6506773D01*
X10058400Y6481373D01*
X9969500D02*
X9994900Y6532173D01*
X9969500Y6582973D01*
X10020300Y6557573D01*
X10071100Y6582973D01*
X10045700Y6532173D01*
X10071100Y6481373D01*
X10020300Y6506773D01*
X9969500Y6481373D01*
X9880600D02*
X9906000Y6532173D01*
X9880600Y6582973D01*
X9931400Y6557573D01*
X9982200Y6582973D01*
X9956800Y6532173D01*
X9982200Y6481373D01*
X9931400Y6506773D01*
X9880600Y6481373D01*
X10045700Y6359630D02*
X10071100Y6410430D01*
X10045700Y6461230D01*
X10096500Y6435830D01*
X10147300Y6461230D01*
X10121900Y6410430D01*
X10147300Y6359630D01*
X10096500Y6385030D01*
X10045700Y6359630D01*
X9962700D02*
X9988100Y6410430D01*
X9962700Y6461230D01*
X10013500Y6435830D01*
X10064300Y6461230D01*
X10038900Y6410430D01*
X10064300Y6359630D01*
X10013500Y6385030D01*
X9962700Y6359630D01*
X9880600D02*
X9906000Y6410430D01*
X9880600Y6461230D01*
X9931400Y6435830D01*
X9982200Y6461230D01*
X9956800Y6410430D01*
X9982200Y6359630D01*
X9931400Y6385030D01*
X9880600Y6359630D01*
X9791700D02*
X9817100Y6410430D01*
X9791700Y6461230D01*
X9842500Y6435830D01*
X9893300Y6461230D01*
X9867900Y6410430D01*
X9893300Y6359630D01*
X9842500Y6385030D01*
X9791700Y6359630D01*
X9323300Y6032500D02*
X9348700Y6083300D01*
X9323300Y6134100D01*
X9374100Y6108700D01*
X9424900Y6134100D01*
X9399500Y6083300D01*
X9424900Y6032500D01*
X9374100Y6057900D01*
X9323300Y6032500D01*
X9408607Y5994400D02*
X9434007Y6045200D01*
X9408607Y6096000D01*
X9459407Y6070600D01*
X9510207Y6096000D01*
X9484807Y6045200D01*
X9510207Y5994400D01*
X9459407Y6019800D01*
X9408607Y5994400D01*
Y6070600D02*
X9434007Y6121400D01*
X9408607Y6172200D01*
X9459407Y6146800D01*
X9510207Y6172200D01*
X9484807Y6121400D01*
X9510207Y6070600D01*
X9459407Y6096000D01*
X9408607Y6070600D01*
X9563100Y6299200D02*
X9588500Y6350000D01*
X9563100Y6400800D01*
X9613900Y6375400D01*
X9664700Y6400800D01*
X9639300Y6350000D01*
X9664700Y6299200D01*
X9613900Y6324600D01*
X9563100Y6299200D01*
X9193300Y6440621D02*
X9218700Y6491421D01*
X9193300Y6542221D01*
X9244100Y6516821D01*
X9294900Y6542221D01*
X9269500Y6491421D01*
X9294900Y6440621D01*
X9244100Y6466021D01*
X9193300Y6440621D01*
X9410700Y6675827D02*
X9436100Y6726627D01*
X9410700Y6777427D01*
X9461500Y6752027D01*
X9512300Y6777427D01*
X9486900Y6726627D01*
X9512300Y6675827D01*
X9461500Y6701227D01*
X9410700Y6675827D01*
X9499600Y6887959D02*
X9525000Y6938759D01*
X9499600Y6989559D01*
X9550400Y6964159D01*
X9601200Y6989559D01*
X9575800Y6938759D01*
X9601200Y6887959D01*
X9550400Y6913359D01*
X9499600Y6887959D01*
X6997700Y7212100D02*
X7023100Y7262900D01*
X6997700Y7313700D01*
X7048500Y7288300D01*
X7099300Y7313700D01*
X7073900Y7262900D01*
X7099300Y7212100D01*
X7048500Y7237500D01*
X6997700Y7212100D01*
X7112000Y7305152D02*
X7137400Y7355952D01*
X7112000Y7406752D01*
X7162800Y7381352D01*
X7213600Y7406752D01*
X7188200Y7355952D01*
X7213600Y7305152D01*
X7162800Y7330552D01*
X7112000Y7305152D01*
X7315200Y7658100D02*
X7340600Y7708900D01*
X7315200Y7759700D01*
X7366000Y7734300D01*
X7416800Y7759700D01*
X7391400Y7708900D01*
X7416800Y7658100D01*
X7366000Y7683500D01*
X7315200Y7658100D01*
X7010400Y7899400D02*
X7035800Y7950200D01*
X7010400Y8001000D01*
X7061200Y7975600D01*
X7112000Y8001000D01*
X7086600Y7950200D01*
X7112000Y7899400D01*
X7061200Y7924800D01*
X7010400Y7899400D01*
X7442200Y7915170D02*
X7467600Y7965970D01*
X7442200Y8016770D01*
X7493000Y7991370D01*
X7543800Y8016770D01*
X7518400Y7965970D01*
X7543800Y7915170D01*
X7493000Y7940570D01*
X7442200Y7915170D01*
X7772400Y7975600D02*
X7797800Y8026400D01*
X7772400Y8077200D01*
X7823200Y8051800D01*
X7874000Y8077200D01*
X7848600Y8026400D01*
X7874000Y7975600D01*
X7823200Y8001000D01*
X7772400Y7975600D01*
X7899400Y8102600D02*
X7924800Y8153400D01*
X7899400Y8204200D01*
X7950200Y8178800D01*
X8001000Y8204200D01*
X7975600Y8153400D01*
X8001000Y8102600D01*
X7950200Y8128000D01*
X7899400Y8102600D01*
X7998860Y8195617D02*
X8024260Y8246417D01*
X7998860Y8297217D01*
X8049660Y8271817D01*
X8100460Y8297217D01*
X8075060Y8246417D01*
X8100460Y8195617D01*
X8049660Y8221017D01*
X7998860Y8195617D01*
X11252200Y7480300D02*
X11277600Y7531100D01*
X11252200Y7581900D01*
X11303000Y7556500D01*
X11353800Y7581900D01*
X11328400Y7531100D01*
X11353800Y7480300D01*
X11303000Y7505700D01*
X11252200Y7480300D01*
X11555500Y7340507D02*
X11580900Y7391307D01*
X11555500Y7442107D01*
X11606300Y7416707D01*
X11657100Y7442107D01*
X11631700Y7391307D01*
X11657100Y7340507D01*
X11606300Y7365907D01*
X11555500Y7340507D01*
X11074400Y6997700D02*
X11099800Y7048500D01*
X11074400Y7099300D01*
X11125200Y7073900D01*
X11176000Y7099300D01*
X11150600Y7048500D01*
X11176000Y6997700D01*
X11125200Y7023100D01*
X11074400Y6997700D01*
X11214100Y6604000D02*
X11239500Y6654800D01*
X11214100Y6705600D01*
X11264900Y6680200D01*
X11315700Y6705600D01*
X11290300Y6654800D01*
X11315700Y6604000D01*
X11264900Y6629400D01*
X11214100Y6604000D01*
X12052300Y7226300D02*
X12077700Y7277100D01*
X12052300Y7327900D01*
X12103100Y7302500D01*
X12153900Y7327900D01*
X12128500Y7277100D01*
X12153900Y7226300D01*
X12103100Y7251700D01*
X12052300Y7226300D01*
X12255500Y7151600D02*
X12280900Y7202400D01*
X12255500Y7253200D01*
X12306300Y7227800D01*
X12357100Y7253200D01*
X12331700Y7202400D01*
X12357100Y7151600D01*
X12306300Y7177000D01*
X12255500Y7151600D01*
X11976100Y6997700D02*
X12001500Y7048500D01*
X11976100Y7099300D01*
X12026900Y7073900D01*
X12077700Y7099300D01*
X12052300Y7048500D01*
X12077700Y6997700D01*
X12026900Y7023100D01*
X11976100Y6997700D01*
X12068000Y6883400D02*
X12093400Y6934200D01*
X12068000Y6985000D01*
X12118800Y6959600D01*
X12169600Y6985000D01*
X12144200Y6934200D01*
X12169600Y6883400D01*
X12118800Y6908800D01*
X12068000Y6883400D01*
X10485827Y7543800D02*
X10511227Y7594600D01*
X10485827Y7645400D01*
X10536627Y7620000D01*
X10587427Y7645400D01*
X10562027Y7594600D01*
X10587427Y7543800D01*
X10536627Y7569200D01*
X10485827Y7543800D01*
X11503130Y6359630D02*
X11528530Y6410430D01*
X11503130Y6461230D01*
X11553930Y6435830D01*
X11604730Y6461230D01*
X11579330Y6410430D01*
X11604730Y6359630D01*
X11553930Y6385030D01*
X11503130Y6359630D01*
X10553700Y7137400D02*
X10579100Y7188200D01*
X10553700Y7239000D01*
X10604500Y7213600D01*
X10655300Y7239000D01*
X10629900Y7188200D01*
X10655300Y7137400D01*
X10604500Y7162800D01*
X10553700Y7137400D01*
X9461500Y7162800D02*
X9486900Y7213600D01*
X9461500Y7264400D01*
X9512300Y7239000D01*
X9563100Y7264400D01*
X9537700Y7213600D01*
X9563100Y7162800D01*
X9512300Y7188200D01*
X9461500Y7162800D01*
X9626600Y7175500D02*
X9652000Y7226300D01*
X9626600Y7277100D01*
X9677400Y7251700D01*
X9728200Y7277100D01*
X9702800Y7226300D01*
X9728200Y7175500D01*
X9677400Y7200900D01*
X9626600Y7175500D01*
X10045700Y6163174D02*
X10071100Y6213974D01*
X10045700Y6264774D01*
X10096500Y6239374D01*
X10147300Y6264774D01*
X10121900Y6213974D01*
X10147300Y6163174D01*
X10096500Y6188574D01*
X10045700Y6163174D01*
X9962700D02*
X9988100Y6213974D01*
X9962700Y6264774D01*
X10013500Y6239374D01*
X10064300Y6264774D01*
X10038900Y6213974D01*
X10064300Y6163174D01*
X10013500Y6188574D01*
X9962700Y6163174D01*
X10160000Y6587438D02*
X10185400Y6638238D01*
X10160000Y6689038D01*
X10210800Y6663638D01*
X10261600Y6689038D01*
X10236200Y6638238D01*
X10261600Y6587438D01*
X10210800Y6612838D01*
X10160000Y6587438D01*
Y6721370D02*
X10185400Y6772170D01*
X10160000Y6822970D01*
X10210800Y6797570D01*
X10261600Y6822970D01*
X10236200Y6772170D01*
X10261600Y6721370D01*
X10210800Y6746770D01*
X10160000Y6721370D01*
X9855200D02*
X9880600Y6772170D01*
X9855200Y6822970D01*
X9906000Y6797570D01*
X9956800Y6822970D01*
X9931400Y6772170D01*
X9956800Y6721370D01*
X9906000Y6746770D01*
X9855200Y6721370D01*
Y6587438D02*
X9880600Y6638238D01*
X9855200Y6689038D01*
X9906000Y6663638D01*
X9956800Y6689038D01*
X9931400Y6638238D01*
X9956800Y6587438D01*
X9906000Y6612838D01*
X9855200Y6587438D01*
X10883900Y6540500D02*
X10909300Y6591300D01*
X10883900Y6642100D01*
X10934700Y6616700D01*
X10985500Y6642100D01*
X10960100Y6591300D01*
X10985500Y6540500D01*
X10934700Y6565900D01*
X10883900Y6540500D01*
X11823700Y7886700D02*
X11849100Y7937500D01*
X11823700Y7988300D01*
X11874500Y7962900D01*
X11925300Y7988300D01*
X11899900Y7937500D01*
X11925300Y7886700D01*
X11874500Y7912100D01*
X11823700Y7886700D01*
X10883900Y7632700D02*
X10909300Y7683500D01*
X10883900Y7734300D01*
X10934700Y7708900D01*
X10985500Y7734300D01*
X10960100Y7683500D01*
X10985500Y7632700D01*
X10934700Y7658100D01*
X10883900Y7632700D01*
X11988800Y8124930D02*
X12014200Y8175730D01*
X11988800Y8226530D01*
X12039600Y8201130D01*
X12090400Y8226530D01*
X12065000Y8175730D01*
X12090400Y8124930D01*
X12039600Y8150330D01*
X11988800Y8124930D01*
X12065000Y8058150D02*
X12090400Y8108950D01*
X12065000Y8159750D01*
X12115800Y8134350D01*
X12166600Y8159750D01*
X12141200Y8108950D01*
X12166600Y8058150D01*
X12115800Y8083550D01*
X12065000Y8058150D01*
X12153900Y8166100D02*
X12179300Y8216900D01*
X12153900Y8267700D01*
X12204700Y8242300D01*
X12255500Y8267700D01*
X12230100Y8216900D01*
X12255500Y8166100D01*
X12204700Y8191500D01*
X12153900Y8166100D01*
X12280900D02*
X12306300Y8216900D01*
X12280900Y8267700D01*
X12331700Y8242300D01*
X12382500Y8267700D01*
X12357100Y8216900D01*
X12382500Y8166100D01*
X12331700Y8191500D01*
X12280900Y8166100D01*
X11747500Y7440315D02*
X11772900Y7491115D01*
X11747500Y7541915D01*
X11798300Y7516515D01*
X11849100Y7541915D01*
X11823700Y7491115D01*
X11849100Y7440315D01*
X11798300Y7465715D01*
X11747500Y7440315D01*
X11734800Y6741200D02*
X11760200Y6792000D01*
X11734800Y6842800D01*
X11785600Y6817400D01*
X11836400Y6842800D01*
X11811000Y6792000D01*
X11836400Y6741200D01*
X11785600Y6766600D01*
X11734800Y6741200D01*
X11347839Y6675827D02*
X11373239Y6726627D01*
X11347839Y6777427D01*
X11398639Y6752027D01*
X11449439Y6777427D01*
X11424039Y6726627D01*
X11449439Y6675827D01*
X11398639Y6701227D01*
X11347839Y6675827D01*
X11555500Y6870281D02*
X11580900Y6921081D01*
X11555500Y6971881D01*
X11606300Y6946481D01*
X11657100Y6971881D01*
X11631700Y6921081D01*
X11657100Y6870281D01*
X11606300Y6895681D01*
X11555500Y6870281D01*
X10490200Y6540500D02*
X10515600Y6591300D01*
X10490200Y6642100D01*
X10541000Y6616700D01*
X10591800Y6642100D01*
X10566400Y6591300D01*
X10591800Y6540500D01*
X10541000Y6565900D01*
X10490200Y6540500D01*
X10693400Y6337300D02*
X10718800Y6388100D01*
X10693400Y6438900D01*
X10744200Y6413500D01*
X10795000Y6438900D01*
X10769600Y6388100D01*
X10795000Y6337300D01*
X10744200Y6362700D01*
X10693400Y6337300D01*
X11036300Y7781481D02*
X11061700Y7832281D01*
X11036300Y7883081D01*
X11087100Y7857681D01*
X11137900Y7883081D01*
X11112500Y7832281D01*
X11137900Y7781481D01*
X11087100Y7806881D01*
X11036300Y7781481D01*
X11239500Y7578830D02*
X11264900Y7629630D01*
X11239500Y7680430D01*
X11290300Y7655030D01*
X11341100Y7680430D01*
X11315700Y7629630D01*
X11341100Y7578830D01*
X11290300Y7604230D01*
X11239500Y7578830D01*
D91*
X12417050Y7544000D02*
G03*
X12417050Y7544000I-50800J0D01*
G01*
Y6680000D02*
G03*
X12417050Y6680000I-50800J0D01*
G01*
%TF.MD5,ce10c0428839df8f765a6c0b50d1859a*%
M02*
