%TF.GenerationSoftware,Altium Limited,Altium Designer,19.0.15 (446)*%
G04 Layer_Color=32768*
%FSLAX45Y45*%
%MOMM*%
%TF.FileFunction,Other,Mechanical_15*%
%TF.Part,Single*%
G01*
G75*
%TA.AperFunction,NonConductor*%
%ADD52C,0.10000*%
%ADD82C,0.05000*%
D52*
X12268200Y8029700D02*
Y8124700D01*
X12220700Y8077200D02*
X12315700D01*
X11938800D02*
X12038800D01*
X11988800Y8027200D02*
Y8127200D01*
X11709400Y8055100D02*
Y8150100D01*
X11661900Y8102600D02*
X11756900D01*
X11623800Y6629400D02*
X11718800D01*
X11671300Y6581900D02*
Y6676900D01*
X11481600Y7721600D02*
X11581600D01*
X11531600Y7671600D02*
Y7771600D01*
X11407900Y8051800D02*
X11502900D01*
X11455400Y8004300D02*
Y8099300D01*
X10886645Y7147355D02*
X10957356Y7076644D01*
X10886644D02*
X10957355Y7147355D01*
X11201307Y8055100D02*
Y8150100D01*
X11153807Y8102600D02*
X11248807D01*
X11781250Y6045200D02*
X11876250D01*
X11828750Y5997700D02*
Y6092700D01*
X11176000Y6048500D02*
Y6143500D01*
X11128500Y6096000D02*
X11223500D01*
X10899900Y7988300D02*
X10994900D01*
X10947400Y7940800D02*
Y8035800D01*
X11633200Y7089900D02*
Y7184900D01*
X11585700Y7137400D02*
X11680700D01*
X10440200Y8007281D02*
X10540200D01*
X10490200Y7957281D02*
Y8057281D01*
X10748759Y6048500D02*
Y6143500D01*
X10701259Y6096000D02*
X10796259D01*
X10823700Y8178800D02*
X10918700D01*
X10871200Y8131300D02*
Y8226300D01*
X10185400Y7845481D02*
Y7940481D01*
X10137900Y7892981D02*
X10232900D01*
X10951400Y6048500D02*
Y6143500D01*
X10903900Y6096000D02*
X10998900D01*
X11155112Y6456112D02*
X11222287Y6523287D01*
X11155112Y6523288D02*
X11222288Y6456112D01*
X12004800Y6477000D02*
X12099800D01*
X12052300Y6429500D02*
Y6524500D01*
X11954000Y6235700D02*
X12049000D01*
X12001500Y6188200D02*
Y6283200D01*
X11608600Y6324600D02*
X11708600D01*
X11658600Y6274600D02*
Y6374600D01*
X12347700Y6515100D02*
X12442700D01*
X12395200Y6467600D02*
Y6562600D01*
X11366500Y6251700D02*
Y6346700D01*
X11319000Y6299200D02*
X11414000D01*
X12458700Y8080500D02*
Y8175500D01*
X12411200Y8128000D02*
X12506200D01*
X12309600Y6248400D02*
X12404600D01*
X12357100Y6200900D02*
Y6295900D01*
X12433300Y7750300D02*
Y7845300D01*
X12385800Y7797800D02*
X12480800D01*
X12217400Y5997700D02*
Y6092700D01*
X12169900Y6045200D02*
X12264900D01*
X11416139D02*
X11511139D01*
X11463639Y5997700D02*
Y6092700D01*
X11155112Y7767888D02*
X11222288Y7700712D01*
X11155113Y7700713D02*
X11222288Y7767888D01*
X10393112Y7459412D02*
X10460288Y7526588D01*
X10393112D02*
X10460287Y7459413D01*
X11472612Y6786312D02*
X11539788Y6853488D01*
X11472613Y6853487D02*
X11539788Y6786312D01*
X10609012Y6523288D02*
X10676188Y6456112D01*
X10609012D02*
X10676187Y6523287D01*
X12065000Y7722400D02*
Y7822400D01*
X12015000Y7772400D02*
X12115000D01*
X7243512Y7322364D02*
X7310688Y7389539D01*
X7243513D02*
X7310687Y7322364D01*
X7230812Y7561012D02*
X7297988Y7628188D01*
X7230812D02*
X7297987Y7561013D01*
X7002212Y7332412D02*
X7069388Y7399588D01*
X7002213Y7399587D02*
X7069388Y7332412D01*
X9261600Y7759700D02*
X9356600D01*
X9309100Y7712200D02*
Y7807200D01*
X8030912Y8107112D02*
X8098088Y8174288D01*
X8030913Y8174287D02*
X8098088Y8107112D01*
X7802312Y7878513D02*
X7869488Y7945687D01*
X7802313D02*
X7869487Y7878512D01*
X7472112Y7548312D02*
X7539288Y7615488D01*
X7472112D02*
X7539287Y7548313D01*
X7307012Y6840788D02*
X7374188Y6773612D01*
X7307013Y6773613D02*
X7374188Y6840788D01*
X7980112Y6142288D02*
X8047288Y6075112D01*
X7980113Y6075113D02*
X8047288Y6142288D01*
X9415212Y6799105D02*
X9482388Y6866280D01*
X9415212D02*
X9482387Y6799105D01*
X8680753Y8161588D02*
X8747928Y8094412D01*
X8680753D02*
X8747928Y8161587D01*
X9351712Y7526588D02*
X9418888Y7459412D01*
X9351713Y7459413D02*
X9418888Y7526588D01*
X9372600Y8014500D02*
Y8114500D01*
X9322600Y8064500D02*
X9422600D01*
X10922000Y6372100D02*
Y6467100D01*
X10874500Y6419600D02*
X10969500D01*
X9004300Y7991600D02*
Y8086600D01*
X8956800Y8039100D02*
X9051800D01*
X9728200Y7953500D02*
Y8048500D01*
X9680700Y8001000D02*
X9775700D01*
X10380412Y6789988D02*
X10447588Y6722812D01*
X10380413Y6722813D02*
X10447588Y6789988D01*
X10823700Y7804150D02*
X10918700D01*
X10871200Y7756650D02*
Y7851650D01*
X8346645Y7076645D02*
X8417355Y7147355D01*
X8346645D02*
X8417355Y7076645D01*
X10008400Y6388100D02*
X10108400D01*
X10058400Y6338100D02*
Y6438100D01*
X9617200Y7708900D02*
X9712200D01*
X9664700Y7661400D02*
Y7756400D01*
X10185400Y7280400D02*
Y7375400D01*
X10137900Y7327900D02*
X10232900D01*
X9575800Y6107464D02*
Y6207464D01*
X9525800Y6157464D02*
X9625800D01*
X10541000Y6107464D02*
Y6207464D01*
X10491000Y6157464D02*
X10591000D01*
X7391400Y8105900D02*
Y8200900D01*
X7343900Y8153400D02*
X7438900D01*
X7153400Y7950200D02*
X7248400D01*
X7200900Y7902700D02*
Y7997700D01*
X9452100Y6489700D02*
X9547100D01*
X9499600Y6442200D02*
Y6537200D01*
X9347200Y6188200D02*
Y6283200D01*
X9299700Y6235700D02*
X9394700D01*
X10198100Y6944292D02*
Y7039292D01*
X10150600Y6991792D02*
X10245600D01*
X10023600Y7607300D02*
X10118600D01*
X10071100Y7559800D02*
Y7654800D01*
X9982200Y7849781D02*
Y7944781D01*
X9934700Y7897281D02*
X10029700D01*
X9680700Y7493000D02*
X9775700D01*
X9728200Y7445500D02*
Y7540500D01*
X10083800Y8097200D02*
Y8192200D01*
X10036300Y8144700D02*
X10131300D01*
X6429500Y6731000D02*
X6524500D01*
X6477000Y6683500D02*
Y6778500D01*
X6429500Y7493000D02*
X6524500D01*
X6477000Y7445500D02*
Y7540500D01*
X7053012Y7637212D02*
X7120187Y7704387D01*
X7053012Y7704388D02*
X7120188Y7637212D01*
X7472112Y7827712D02*
X7539288Y7894888D01*
X7472113Y7894887D02*
X7539288Y7827712D01*
X7713412Y8056312D02*
X7780588Y8123488D01*
X7713413Y8123487D02*
X7780588Y8056312D01*
X7726112Y6396288D02*
X7793288Y6329112D01*
X7726113Y6329113D02*
X7793288Y6396288D01*
X9199312Y6570412D02*
X9266488Y6637588D01*
X9199312D02*
X9266487Y6570413D01*
D82*
X12193200Y7942200D02*
X12343200D01*
X12193200Y8212200D02*
X12343200D01*
X12193200Y7942200D02*
Y8212200D01*
X12343200Y7942200D02*
Y8212200D01*
X12158800Y7907200D02*
Y8247200D01*
X11818800Y7907200D02*
Y8247200D01*
Y7907200D02*
X12158800D01*
X11818800Y8247200D02*
X12158800D01*
X11634400Y8237600D02*
X11784400D01*
X11634400Y7967600D02*
X11784400D01*
Y8237600D01*
X11634400Y7967600D02*
Y8237600D01*
X11536300Y6554400D02*
Y6704400D01*
X11806300Y6554400D02*
Y6704400D01*
X11536300D02*
X11806300D01*
X11536300Y6554400D02*
X11806300D01*
X11351600Y7511600D02*
Y7931600D01*
X11711600Y7511600D02*
Y7931600D01*
X11351600Y7511600D02*
X11711600D01*
X11351600Y7931600D02*
X11711600D01*
X11590400Y7976800D02*
Y8126800D01*
X11320400Y7976800D02*
Y8126800D01*
Y7976800D02*
X11590400D01*
X11320400Y8126800D02*
X11590400D01*
X10193680Y7112000D02*
X10922000Y7840320D01*
Y6383680D02*
X11650320Y7112000D01*
X10922000Y7840320D02*
X11650320Y7112000D01*
X10193680D02*
X10922000Y6383680D01*
X11126307Y8237600D02*
X11276307D01*
X11126307Y7967600D02*
X11276307D01*
Y8237600D01*
X11126307Y7967600D02*
Y8237600D01*
X11963750Y5970200D02*
Y6120200D01*
X11693750Y5970200D02*
Y6120200D01*
Y5970200D02*
X11963750D01*
X11693750Y6120200D02*
X11963750D01*
X11101000Y5961000D02*
X11251000D01*
X11101000Y6231000D02*
X11251000D01*
X11101000Y5961000D02*
Y6231000D01*
X11251000Y5961000D02*
Y6231000D01*
X10812400Y7913300D02*
Y8063300D01*
X11082400Y7913300D02*
Y8063300D01*
X10812400D02*
X11082400D01*
X10812400Y7913300D02*
X11082400D01*
X11558200Y7002400D02*
X11708200D01*
X11558200Y7272400D02*
X11708200D01*
X11558200Y7002400D02*
Y7272400D01*
X11708200Y7002400D02*
Y7272400D01*
X10680200Y7767281D02*
Y8247281D01*
X10300200Y7767281D02*
Y8247281D01*
X10680200D01*
X10300200Y7767281D02*
X10680200D01*
X10673759Y6231000D02*
X10823759D01*
X10673759Y5961000D02*
X10823759D01*
Y6231000D01*
X10673759Y5961000D02*
Y6231000D01*
X11006200Y8103800D02*
Y8253800D01*
X10736200Y8103800D02*
Y8253800D01*
Y8103800D02*
X11006200D01*
X10736200Y8253800D02*
X11006200D01*
X10110400Y7757981D02*
X10260400D01*
X10110400Y8027981D02*
X10260400D01*
X10110400Y7757981D02*
Y8027981D01*
X10260400Y7757981D02*
Y8027981D01*
X10876400Y5961000D02*
X11026400D01*
X10876400Y6231000D02*
X11026400D01*
X10876400Y5961000D02*
Y6231000D01*
X11026400Y5961000D02*
Y6231000D01*
X11040207Y6447274D02*
X11146273Y6341208D01*
X11231126Y6638192D02*
X11337192Y6532126D01*
X11040207Y6447274D02*
X11231126Y6638192D01*
X11146273Y6341208D02*
X11337192Y6532126D01*
X11917300Y6402000D02*
Y6552000D01*
X12187300Y6402000D02*
Y6552000D01*
X11917300D02*
X12187300D01*
X11917300Y6402000D02*
X12187300D01*
X11866500Y6160700D02*
Y6310700D01*
X12136500Y6160700D02*
Y6310700D01*
X11866500D02*
X12136500D01*
X11866500Y6160700D02*
X12136500D01*
X11828600Y6154600D02*
Y6494600D01*
X11488600Y6154600D02*
Y6494600D01*
Y6154600D02*
X11828600D01*
X11488600Y6494600D02*
X11828600D01*
X12260200Y6440100D02*
Y6590100D01*
X12530200Y6440100D02*
Y6590100D01*
X12260200D02*
X12530200D01*
X12260200Y6440100D02*
X12530200D01*
X11291500Y6164200D02*
X11441500D01*
X11291500Y6434200D02*
X11441500D01*
X11291500Y6164200D02*
Y6434200D01*
X11441500Y6164200D02*
Y6434200D01*
X12383700Y7993000D02*
X12533700D01*
X12383700Y8263000D02*
X12533700D01*
X12383700Y7993000D02*
Y8263000D01*
X12533700Y7993000D02*
Y8263000D01*
X12222100Y6173400D02*
Y6323400D01*
X12492100Y6173400D02*
Y6323400D01*
X12222100D02*
X12492100D01*
X12222100Y6173400D02*
X12492100D01*
X12358300Y7658100D02*
X12508300D01*
X12358300Y7937500D02*
X12508300D01*
X12358300Y7658100D02*
Y7937500D01*
X12508300Y7658100D02*
Y7937500D01*
X12077700Y6120200D02*
X12357100D01*
X12077700Y5970200D02*
X12357100D01*
X12077700D02*
Y6120200D01*
X12357100Y5970200D02*
Y6120200D01*
X11598639Y5970200D02*
Y6120200D01*
X11328639Y5970200D02*
Y6120200D01*
Y5970200D02*
X11598639D01*
X11328639Y6120200D02*
X11598639D01*
X11231126Y7585808D02*
X11337192Y7691874D01*
X11040208Y7776726D02*
X11146274Y7882792D01*
X11040208Y7776726D02*
X11231126Y7585808D01*
X11146274Y7882792D02*
X11337192Y7691874D01*
X10469126Y7641492D02*
X10575192Y7535426D01*
X10278208Y7450574D02*
X10384274Y7344508D01*
X10575192Y7535426D01*
X10278208Y7450574D02*
X10469126Y7641492D01*
X11357708Y6777474D02*
X11463774Y6671408D01*
X11548626Y6968392D02*
X11654692Y6862326D01*
X11357708Y6777474D02*
X11548626Y6968392D01*
X11463774Y6671408D02*
X11654692Y6862326D01*
X10494108Y6532126D02*
X10600174Y6638192D01*
X10685026Y6341208D02*
X10791092Y6447274D01*
X10600174Y6638192D02*
X10791092Y6447274D01*
X10494108Y6532126D02*
X10685026Y6341208D01*
X11845000Y7872400D02*
X12285000D01*
X11845000Y7672400D02*
X12285000D01*
X11845000D02*
Y7872400D01*
X12285000Y7672400D02*
Y7872400D01*
X7128608Y7313525D02*
X7234674Y7207459D01*
X7319527Y7504444D02*
X7425592Y7398378D01*
X7128608Y7313525D02*
X7319527Y7504444D01*
X7234674Y7207459D02*
X7425592Y7398378D01*
X7306826Y7743092D02*
X7412892Y7637026D01*
X7115908Y7552174D02*
X7221974Y7446108D01*
X7412892Y7637026D01*
X7115908Y7552174D02*
X7306826Y7743092D01*
X6887308Y7323574D02*
X6993374Y7217508D01*
X7078226Y7514492D02*
X7184292Y7408426D01*
X6887308Y7323574D02*
X7078226Y7514492D01*
X6993374Y7217508D02*
X7184292Y7408426D01*
X9444100Y7684700D02*
Y7834700D01*
X9174100Y7684700D02*
Y7834700D01*
Y7684700D02*
X9444100D01*
X9174100Y7834700D02*
X9444100D01*
X7916008Y8098274D02*
X8022074Y7992208D01*
X8106926Y8289192D02*
X8212992Y8183126D01*
X7916008Y8098274D02*
X8106926Y8289192D01*
X8022074Y7992208D02*
X8212992Y8183126D01*
X7687408Y7869674D02*
X7793474Y7763608D01*
X7878326Y8060592D02*
X7984392Y7954526D01*
X7687408Y7869674D02*
X7878326Y8060592D01*
X7793474Y7763608D02*
X7984392Y7954526D01*
X7548126Y7730392D02*
X7654192Y7624326D01*
X7357208Y7539474D02*
X7463274Y7433408D01*
X7654192Y7624326D01*
X7357208Y7539474D02*
X7548126Y7730392D01*
X7383026Y6658708D02*
X7489092Y6764774D01*
X7192108Y6849626D02*
X7298174Y6955692D01*
X7192108Y6849626D02*
X7383026Y6658708D01*
X7298174Y6955692D02*
X7489092Y6764774D01*
X8056126Y5960208D02*
X8162192Y6066274D01*
X7865208Y6151126D02*
X7971274Y6257192D01*
X7865208Y6151126D02*
X8056126Y5960208D01*
X7971274Y6257192D02*
X8162192Y6066274D01*
X9491226Y6981185D02*
X9597292Y6875119D01*
X9300308Y6790266D02*
X9406374Y6684200D01*
X9597292Y6875119D01*
X9300308Y6790266D02*
X9491226Y6981185D01*
X8565848Y8170426D02*
X8671914Y8276492D01*
X8756767Y7979508D02*
X8862832Y8085574D01*
X8671914Y8276492D02*
X8862832Y8085574D01*
X8565848Y8170426D02*
X8756767Y7979508D01*
X9427726Y7344508D02*
X9533792Y7450574D01*
X9236808Y7535426D02*
X9342874Y7641492D01*
X9236808Y7535426D02*
X9427726Y7344508D01*
X9342874Y7641492D02*
X9533792Y7450574D01*
X9132600Y7874500D02*
X9612600D01*
X9132600Y8254500D02*
X9612600D01*
Y7874500D02*
Y8254500D01*
X9132600Y7874500D02*
Y8254500D01*
X10847000Y6284600D02*
X10997000D01*
X10847000Y6554600D02*
X10997000D01*
X10847000Y6284600D02*
Y6554600D01*
X10997000Y6284600D02*
Y6554600D01*
X8929300Y8174100D02*
X9079300D01*
X8929300Y7904100D02*
X9079300D01*
Y8174100D01*
X8929300Y7904100D02*
Y8174100D01*
X9653200Y7866000D02*
X9803200D01*
X9653200Y8136000D02*
X9803200D01*
X9653200Y7866000D02*
Y8136000D01*
X9803200Y7866000D02*
Y8136000D01*
X10456426Y6607908D02*
X10562492Y6713974D01*
X10265508Y6798826D02*
X10371574Y6904893D01*
X10265508Y6798826D02*
X10456426Y6607908D01*
X10371574Y6904893D02*
X10562492Y6713974D01*
X11006200Y7729150D02*
Y7879150D01*
X10736200Y7729150D02*
Y7879150D01*
Y7729150D02*
X11006200D01*
X10736200Y7879150D02*
X11006200D01*
X7158705Y7112000D02*
X8382000Y5888705D01*
Y8335295D02*
X9605295Y7112000D01*
X8382000Y5888705D02*
X9605295Y7112000D01*
X7158705D02*
X8382000Y8335295D01*
X10418400Y5963100D02*
Y6813100D01*
X9698400Y5963100D02*
Y6813100D01*
X10418400D01*
X9698400Y5963100D02*
X10418400D01*
X9799700Y7633900D02*
Y7783900D01*
X9529700Y7633900D02*
Y7783900D01*
Y7633900D02*
X9799700D01*
X9529700Y7783900D02*
X9799700D01*
X10110400Y7462900D02*
X10260400D01*
X10110400Y7192900D02*
X10260400D01*
Y7462900D01*
X10110400Y7192900D02*
Y7462900D01*
X9480800Y5987464D02*
X9670800D01*
X9480800Y6327464D02*
X9670800D01*
X9480800Y5987464D02*
Y6327464D01*
X9670800Y5987464D02*
Y6327464D01*
X10446000Y5987464D02*
X10636000D01*
X10446000Y6327464D02*
X10636000D01*
X10446000Y5987464D02*
Y6327464D01*
X10636000Y5987464D02*
Y6327464D01*
X7251700Y8228400D02*
X7531100D01*
X7251700Y8078400D02*
X7531100D01*
X7251700D02*
Y8228400D01*
X7531100Y8078400D02*
Y8228400D01*
X7065900Y7875200D02*
Y8025200D01*
X7335900Y7875200D02*
Y8025200D01*
X7065900D02*
X7335900D01*
X7065900Y7875200D02*
X7335900D01*
X9639300Y6414700D02*
Y6564700D01*
X9359900Y6414700D02*
Y6564700D01*
Y6414700D02*
X9639300D01*
X9359900Y6564700D02*
X9639300D01*
X9272200Y6100700D02*
X9422200D01*
X9272200Y6370700D02*
X9422200D01*
X9272200Y6100700D02*
Y6370700D01*
X9422200Y6100700D02*
Y6370700D01*
X10123100Y6856792D02*
X10273100D01*
X10123100Y7126792D02*
X10273100D01*
X10123100Y6856792D02*
Y7126792D01*
X10273100Y6856792D02*
Y7126792D01*
X10210800Y7532300D02*
Y7682300D01*
X9931400Y7532300D02*
Y7682300D01*
Y7532300D02*
X10210800D01*
X9931400Y7682300D02*
X10210800D01*
X9907200Y8032281D02*
X10057200D01*
X9907200Y7762281D02*
X10057200D01*
Y8032281D01*
X9907200Y7762281D02*
Y8032281D01*
X9593200Y7418000D02*
Y7568000D01*
X9863200Y7418000D02*
Y7568000D01*
X9593200D02*
X9863200D01*
X9593200Y7418000D02*
X9863200D01*
X9944100Y8069700D02*
X10223500D01*
X9944100Y8219700D02*
X10223500D01*
Y8069700D02*
Y8219700D01*
X9944100Y8069700D02*
Y8219700D01*
X6612000Y6656000D02*
Y6806000D01*
X6342000Y6656000D02*
Y6806000D01*
Y6656000D02*
X6612000D01*
X6342000Y6806000D02*
X6612000D01*
Y7418000D02*
Y7568000D01*
X6342000Y7418000D02*
Y7568000D01*
Y7418000D02*
X6612000D01*
X6342000Y7568000D02*
X6612000D01*
X6938107Y7628374D02*
X7044173Y7522308D01*
X7129026Y7819292D02*
X7235092Y7713226D01*
X6938107Y7628374D02*
X7129026Y7819292D01*
X7044173Y7522308D02*
X7235092Y7713226D01*
X7357208Y7818874D02*
X7463274Y7712808D01*
X7548126Y8009792D02*
X7654192Y7903726D01*
X7357208Y7818874D02*
X7548126Y8009792D01*
X7463274Y7712808D02*
X7654192Y7903726D01*
X7598508Y8047474D02*
X7704574Y7941408D01*
X7789426Y8238392D02*
X7895492Y8132326D01*
X7598508Y8047474D02*
X7789426Y8238392D01*
X7704574Y7941408D02*
X7895492Y8132326D01*
X7802126Y6214208D02*
X7908192Y6320274D01*
X7611208Y6405126D02*
X7717274Y6511192D01*
X7611208Y6405126D02*
X7802126Y6214208D01*
X7717274Y6511192D02*
X7908192Y6320274D01*
X9275326Y6752492D02*
X9381392Y6646426D01*
X9084408Y6561574D02*
X9190474Y6455508D01*
X9381392Y6646426D01*
X9084408Y6561574D02*
X9275326Y6752492D01*
%TF.MD5,3e7b08f9f92281e5d6d4daff17d6a49b*%
M02*
