%TF.GenerationSoftware,Altium Limited,Altium Designer,19.0.15 (446)*%
G04 Layer_Color=128*
%FSLAX45Y45*%
%MOMM*%
%TF.FileFunction,Drillmap*%
%TF.Part,Single*%
G01*
G75*
%TA.AperFunction,NonConductor*%
%ADD90C,0.12700*%
D90*
X7067000Y8636000D02*
X7157000D01*
X7112000Y8591000D02*
Y8681000D01*
X6559000Y8636000D02*
X6649000D01*
X6604000Y8591000D02*
Y8681000D01*
X6813000Y8636000D02*
X6903000D01*
X6858000Y8591000D02*
Y8681000D01*
X6305000Y8636000D02*
X6395000D01*
X6350000Y8591000D02*
Y8681000D01*
X7321000Y8636000D02*
X7411000D01*
X7366000Y8591000D02*
Y8681000D01*
X7829000Y8636000D02*
X7919000D01*
X7874000Y8591000D02*
Y8681000D01*
X7575000Y8636000D02*
X7665000D01*
X7620000Y8591000D02*
Y8681000D01*
X9607000Y8636000D02*
X9697000D01*
X9652000Y8591000D02*
Y8681000D01*
X9353000Y8636000D02*
X9443000D01*
X9398000Y8591000D02*
Y8681000D01*
X9861000Y8636000D02*
X9951000D01*
X9906000Y8591000D02*
Y8681000D01*
X10115000Y8636000D02*
X10205000D01*
X10160000Y8591000D02*
Y8681000D01*
X9099000Y8636000D02*
X9189000D01*
X9144000Y8591000D02*
Y8681000D01*
X8845000Y8636000D02*
X8935000D01*
X8890000Y8591000D02*
Y8681000D01*
X8337000Y8636000D02*
X8427000D01*
X8382000Y8591000D02*
Y8681000D01*
X8591000Y8636000D02*
X8681000D01*
X8636000Y8591000D02*
Y8681000D01*
X8083000Y8636000D02*
X8173000D01*
X8128000Y8591000D02*
Y8681000D01*
X10369000Y8636000D02*
X10459000D01*
X10414000Y8591000D02*
Y8681000D01*
X10877000Y8636000D02*
X10967000D01*
X10922000Y8591000D02*
Y8681000D01*
X10623000Y8636000D02*
X10713000D01*
X10668000Y8591000D02*
Y8681000D01*
X11131000Y8636000D02*
X11221000D01*
X11176000Y8591000D02*
Y8681000D01*
X11385000Y8636000D02*
X11475000D01*
X11430000Y8591000D02*
Y8681000D01*
X12401000Y8636000D02*
X12491000D01*
X12446000Y8591000D02*
Y8681000D01*
X12147000Y8636000D02*
X12237000D01*
X12192000Y8591000D02*
Y8681000D01*
X11639000Y8636000D02*
X11729000D01*
X11684000Y8591000D02*
Y8681000D01*
X11893000Y8636000D02*
X11983000D01*
X11938000Y8591000D02*
Y8681000D01*
X7067000Y5080000D02*
X7157000D01*
X7112000Y5035000D02*
Y5125000D01*
X6559000Y5080000D02*
X6649000D01*
X6604000Y5035000D02*
Y5125000D01*
X6813000Y5080000D02*
X6903000D01*
X6858000Y5035000D02*
Y5125000D01*
X6305000Y5080000D02*
X6395000D01*
X6350000Y5035000D02*
Y5125000D01*
X7321000Y5080000D02*
X7411000D01*
X7366000Y5035000D02*
Y5125000D01*
X7829000Y5080000D02*
X7919000D01*
X7874000Y5035000D02*
Y5125000D01*
X7575000Y5080000D02*
X7665000D01*
X7620000Y5035000D02*
Y5125000D01*
X9607000Y5080000D02*
X9697000D01*
X9652000Y5035000D02*
Y5125000D01*
X9353000Y5080000D02*
X9443000D01*
X9398000Y5035000D02*
Y5125000D01*
X9861000Y5080000D02*
X9951000D01*
X9906000Y5035000D02*
Y5125000D01*
X10115000Y5080000D02*
X10205000D01*
X10160000Y5035000D02*
Y5125000D01*
X9099000Y5080000D02*
X9189000D01*
X9144000Y5035000D02*
Y5125000D01*
X8845000Y5080000D02*
X8935000D01*
X8890000Y5035000D02*
Y5125000D01*
X8337000Y5080000D02*
X8427000D01*
X8382000Y5035000D02*
Y5125000D01*
X8591000Y5080000D02*
X8681000D01*
X8636000Y5035000D02*
Y5125000D01*
X8083000Y5080000D02*
X8173000D01*
X8128000Y5035000D02*
Y5125000D01*
X10369000Y5080000D02*
X10459000D01*
X10414000Y5035000D02*
Y5125000D01*
X10877000Y5080000D02*
X10967000D01*
X10922000Y5035000D02*
Y5125000D01*
X10623000Y5080000D02*
X10713000D01*
X10668000Y5035000D02*
Y5125000D01*
X11131000Y5080000D02*
X11221000D01*
X11176000Y5035000D02*
Y5125000D01*
X11385000Y5080000D02*
X11475000D01*
X11430000Y5035000D02*
Y5125000D01*
X12401000Y5080000D02*
X12491000D01*
X12446000Y5035000D02*
Y5125000D01*
X12147000Y5080000D02*
X12237000D01*
X12192000Y5035000D02*
Y5125000D01*
X11639000Y5080000D02*
X11729000D01*
X11684000Y5035000D02*
Y5125000D01*
X11893000Y5080000D02*
X11983000D01*
X11938000Y5035000D02*
Y5125000D01*
X7067000Y9144000D02*
X7157000D01*
X7112000Y9099000D02*
Y9189000D01*
X6559000Y9144000D02*
X6649000D01*
X6604000Y9099000D02*
Y9189000D01*
X6813000Y9144000D02*
X6903000D01*
X6858000Y9099000D02*
Y9189000D01*
X6305000Y9144000D02*
X6395000D01*
X6350000Y9099000D02*
Y9189000D01*
X7321000Y9144000D02*
X7411000D01*
X7366000Y9099000D02*
Y9189000D01*
X7829000Y9144000D02*
X7919000D01*
X7874000Y9099000D02*
Y9189000D01*
X7575000Y9144000D02*
X7665000D01*
X7620000Y9099000D02*
Y9189000D01*
X9607000Y9144000D02*
X9697000D01*
X9652000Y9099000D02*
Y9189000D01*
X9353000Y9144000D02*
X9443000D01*
X9398000Y9099000D02*
Y9189000D01*
X9861000Y9144000D02*
X9951000D01*
X9906000Y9099000D02*
Y9189000D01*
X10115000Y9144000D02*
X10205000D01*
X10160000Y9099000D02*
Y9189000D01*
X9099000Y9144000D02*
X9189000D01*
X9144000Y9099000D02*
Y9189000D01*
X8845000Y9144000D02*
X8935000D01*
X8890000Y9099000D02*
Y9189000D01*
X8337000Y9144000D02*
X8427000D01*
X8382000Y9099000D02*
Y9189000D01*
X8591000Y9144000D02*
X8681000D01*
X8636000Y9099000D02*
Y9189000D01*
X8083000Y9144000D02*
X8173000D01*
X8128000Y9099000D02*
Y9189000D01*
X10369000Y9144000D02*
X10459000D01*
X10414000Y9099000D02*
Y9189000D01*
X10877000Y9144000D02*
X10967000D01*
X10922000Y9099000D02*
Y9189000D01*
X10623000Y9144000D02*
X10713000D01*
X10668000Y9099000D02*
Y9189000D01*
X11131000Y9144000D02*
X11221000D01*
X11176000Y9099000D02*
Y9189000D01*
X11385000Y9144000D02*
X11475000D01*
X11430000Y9099000D02*
Y9189000D01*
X12401000Y9144000D02*
X12491000D01*
X12446000Y9099000D02*
Y9189000D01*
X12147000Y9144000D02*
X12237000D01*
X12192000Y9099000D02*
Y9189000D01*
X11639000Y9144000D02*
X11729000D01*
X11684000Y9099000D02*
Y9189000D01*
X11893000Y9144000D02*
X11983000D01*
X11938000Y9099000D02*
Y9189000D01*
X12296250Y7544000D02*
X12436250D01*
X12366250Y7474000D02*
Y7614000D01*
X12296250Y6680000D02*
X12436250D01*
X12366250Y6610000D02*
Y6750000D01*
X11863250Y7544000D02*
X12033250D01*
X11948250Y7459000D02*
Y7629000D01*
X11863250Y6680000D02*
X12033250D01*
X11948250Y6595000D02*
Y6765000D01*
X11965750Y6823000D02*
X12030750D01*
X11998250Y6790500D02*
Y6855500D01*
X11965750Y7401000D02*
X12030750D01*
X11998250Y7368500D02*
Y7433500D01*
X7067000Y5588000D02*
X7157000D01*
X7112000Y5543000D02*
Y5633000D01*
X6559000Y5588000D02*
X6649000D01*
X6604000Y5543000D02*
Y5633000D01*
X6813000Y5588000D02*
X6903000D01*
X6858000Y5543000D02*
Y5633000D01*
X6305000Y5588000D02*
X6395000D01*
X6350000Y5543000D02*
Y5633000D01*
X7321000Y5588000D02*
X7411000D01*
X7366000Y5543000D02*
Y5633000D01*
X7829000Y5588000D02*
X7919000D01*
X7874000Y5543000D02*
Y5633000D01*
X7575000Y5588000D02*
X7665000D01*
X7620000Y5543000D02*
Y5633000D01*
X9607000Y5588000D02*
X9697000D01*
X9652000Y5543000D02*
Y5633000D01*
X9353000Y5588000D02*
X9443000D01*
X9398000Y5543000D02*
Y5633000D01*
X9861000Y5588000D02*
X9951000D01*
X9906000Y5543000D02*
Y5633000D01*
X10115000Y5588000D02*
X10205000D01*
X10160000Y5543000D02*
Y5633000D01*
X9099000Y5588000D02*
X9189000D01*
X9144000Y5543000D02*
Y5633000D01*
X8845000Y5588000D02*
X8935000D01*
X8890000Y5543000D02*
Y5633000D01*
X8337000Y5588000D02*
X8427000D01*
X8382000Y5543000D02*
Y5633000D01*
X8591000Y5588000D02*
X8681000D01*
X8636000Y5543000D02*
Y5633000D01*
X8083000Y5588000D02*
X8173000D01*
X8128000Y5543000D02*
Y5633000D01*
X10369000Y5588000D02*
X10459000D01*
X10414000Y5543000D02*
Y5633000D01*
X10877000Y5588000D02*
X10967000D01*
X10922000Y5543000D02*
Y5633000D01*
X10623000Y5588000D02*
X10713000D01*
X10668000Y5543000D02*
Y5633000D01*
X11131000Y5588000D02*
X11221000D01*
X11176000Y5543000D02*
Y5633000D01*
X11385000Y5588000D02*
X11475000D01*
X11430000Y5543000D02*
Y5633000D01*
X12401000Y5588000D02*
X12491000D01*
X12446000Y5543000D02*
Y5633000D01*
X12147000Y5588000D02*
X12237000D01*
X12192000Y5543000D02*
Y5633000D01*
X11639000Y5588000D02*
X11729000D01*
X11684000Y5543000D02*
Y5633000D01*
X11893000Y5588000D02*
X11983000D01*
X11938000Y5543000D02*
Y5633000D01*
X7922500Y7255026D02*
X7952500D01*
X7937500Y7240026D02*
Y7270026D01*
X7833600Y7461728D02*
X7863600D01*
X7848600Y7446728D02*
Y7476727D01*
X7795500Y7378700D02*
X7825500D01*
X7810500Y7363700D02*
Y7393700D01*
X8140691Y7362703D02*
X8170691D01*
X8155691Y7347703D02*
Y7377703D01*
X7401400Y8035100D02*
X7431400D01*
X7416400Y8020100D02*
Y8050100D01*
X10195800Y6260144D02*
X10225800D01*
X10210800Y6245144D02*
Y6275144D01*
X9589678Y7320596D02*
X9619677D01*
X9604678Y7305597D02*
Y7335596D01*
X8544800Y7823200D02*
X8574800D01*
X8559800Y7808200D02*
Y7838200D01*
X8443200Y7933500D02*
X8473200D01*
X8458200Y7918500D02*
Y7948500D01*
X8481300Y7861300D02*
X8511300D01*
X8496300Y7846300D02*
Y7876300D01*
X8426197Y7790231D02*
X8456196D01*
X8441196Y7775231D02*
Y7805231D01*
X8278100Y7868604D02*
X8308100D01*
X8293100Y7853604D02*
Y7883604D01*
X8252700Y7797200D02*
X8282700D01*
X8267700Y7782200D02*
Y7812200D01*
X8214600Y7734300D02*
X8244600D01*
X8229600Y7719300D02*
Y7749300D01*
X8184321Y7658100D02*
X8214321D01*
X8199321Y7643100D02*
Y7673100D01*
X8946321Y7277100D02*
X8976321D01*
X8961321Y7262100D02*
Y7292100D01*
X9202786Y7048500D02*
X9232786D01*
X9217786Y7033500D02*
Y7063500D01*
X9664197Y6855969D02*
X9694197D01*
X9679197Y6840969D02*
Y6870969D01*
X8938500Y6823000D02*
X8968500D01*
X8953500Y6808000D02*
Y6838000D01*
X8875000Y6756400D02*
X8905000D01*
X8890000Y6741400D02*
Y6771400D01*
X8811500Y6673594D02*
X8841500D01*
X8826500Y6658594D02*
Y6688594D01*
X8735300Y6616700D02*
X8765300D01*
X8750300Y6601700D02*
Y6631700D01*
X9002000Y6870700D02*
X9032000D01*
X9017000Y6855700D02*
Y6885700D01*
X9638038Y6461886D02*
X9668038D01*
X9653038Y6446886D02*
Y6476886D01*
X9040100Y7112925D02*
X9070100D01*
X9055100Y7097925D02*
Y7127925D01*
X9444131Y7036865D02*
X9474131D01*
X9459131Y7021865D02*
Y7051865D01*
X10675330Y7760656D02*
X10705330D01*
X10690330Y7745656D02*
Y7775656D01*
X10741900Y7696200D02*
X10771900D01*
X10756900Y7681200D02*
Y7711200D01*
X9887040Y8154176D02*
X9917040D01*
X9902040Y8139176D02*
Y8169176D01*
X10326808Y7291314D02*
X10356808D01*
X10341808Y7276314D02*
Y7306314D01*
X11039131Y6172200D02*
X11069131D01*
X11054131Y6157200D02*
Y6187200D01*
X10781630Y7408985D02*
X10811630D01*
X10796630Y7393985D02*
Y7423985D01*
X10788541Y6860547D02*
X10818541D01*
X10803541Y6845547D02*
Y6875547D01*
X11033044Y6314970D02*
X11063044D01*
X11048044Y6299970D02*
Y6329970D01*
X10662358Y7631730D02*
X10692358D01*
X10677358Y7616730D02*
Y7646730D01*
X11063574Y7175666D02*
X11093574D01*
X11078574Y7160666D02*
Y7190666D01*
X12351250Y7112925D02*
X12381250D01*
X12366250Y7097925D02*
Y7127925D01*
X11290300Y6469275D02*
X11320300D01*
X11305300Y6454275D02*
Y6484275D01*
X11398639Y6492114D02*
X11428639D01*
X11413639Y6477114D02*
Y6507114D01*
X11447006Y7356997D02*
X11477006D01*
X11462006Y7341997D02*
Y7371997D01*
X11983250Y5997697D02*
X12013250D01*
X11998250Y5982697D02*
Y6012697D01*
X11259302Y7046685D02*
X11289302D01*
X11274302Y7031685D02*
Y7061685D01*
X11665470Y5963100D02*
X11695470D01*
X11680470Y5948100D02*
Y5978100D01*
X11275300Y6146966D02*
X11305300D01*
X11290300Y6131966D02*
Y6161966D01*
X11516600Y7912100D02*
X11546600D01*
X11531600Y7897100D02*
Y7927100D01*
X8963900Y6946900D02*
X8993900D01*
X8978900Y6931900D02*
Y6961900D01*
X9713200Y6477000D02*
X9743200D01*
X9728200Y6462000D02*
Y6492000D01*
X11796980Y5637159D02*
X11826980D01*
X11811980Y5622159D02*
Y5652159D01*
X11553981Y6172200D02*
X11583981D01*
X11568981Y6157200D02*
Y6187200D01*
X11046700Y5676900D02*
X11076700D01*
X11061700Y5661900D02*
Y5691900D01*
X10301574Y6261100D02*
X10331574D01*
X10316574Y6246100D02*
Y6276100D01*
X9264466Y6413500D02*
X9294466D01*
X9279466Y6398500D02*
Y6428500D01*
X9700500Y6375400D02*
X9730500D01*
X9715500Y6360400D02*
Y6390400D01*
X9700500Y6273800D02*
X9730500D01*
X9715500Y6258800D02*
Y6288800D01*
X9745019Y6121400D02*
X9775019D01*
X9760019Y6106400D02*
Y6136400D01*
X9510000Y6350000D02*
X9540000D01*
X9525000Y6335000D02*
Y6365000D01*
X8989300Y6426106D02*
X9019300D01*
X9004300Y6411106D02*
Y6441106D01*
X9700500Y5981700D02*
X9730500D01*
X9715500Y5966700D02*
Y5996700D01*
X8895800Y6375400D02*
X8925800D01*
X8910800Y6360400D02*
Y6390400D01*
X9700500Y6060970D02*
X9730500D01*
X9715500Y6045970D02*
Y6075970D01*
X8662550Y6565900D02*
X8692550D01*
X8677550Y6550900D02*
Y6580900D01*
X8595600Y6487100D02*
X8625600D01*
X8610600Y6472100D02*
Y6502100D01*
X8849600Y6237464D02*
X8879600D01*
X8864600Y6222464D02*
Y6252463D01*
X8510150Y6426200D02*
X8540150D01*
X8525150Y6411200D02*
Y6441200D01*
X7833600Y5994400D02*
X7863600D01*
X7848600Y5979400D02*
Y6009400D01*
X8482881Y6362700D02*
X8512881D01*
X8497881Y6347700D02*
Y6377700D01*
X8805406Y6096000D02*
X8835406D01*
X8820406Y6081000D02*
Y6111000D01*
X8709900Y6121400D02*
X8739900D01*
X8724900Y6106400D02*
Y6136400D01*
X9764000Y5524500D02*
X9794000D01*
X9779000Y5509500D02*
Y5539500D01*
X8269216Y6032500D02*
X8299216D01*
X8284216Y6017500D02*
Y6047500D01*
X8333316Y6556270D02*
X8363316D01*
X8348316Y6541270D02*
Y6571270D01*
X8773400Y5688644D02*
X8803400D01*
X8788400Y5673644D02*
Y5703644D01*
X8201900Y6438900D02*
X8231900D01*
X8216900Y6423900D02*
Y6453900D01*
X8316569Y6489700D02*
X8346569D01*
X8331569Y6474700D02*
Y6504700D01*
X8281600Y6426106D02*
X8311600D01*
X8296600Y6411106D02*
Y6441106D01*
X7871700Y6273800D02*
X7901700D01*
X7886700Y6258800D02*
Y6288800D01*
X8227300Y6532173D02*
X8257300D01*
X8242300Y6517173D02*
Y6547173D01*
X8161754Y6565000D02*
X8191753D01*
X8176754Y6550000D02*
Y6580000D01*
X8113000Y6629400D02*
X8143000D01*
X8128000Y6614400D02*
Y6644400D01*
X8034660Y6604000D02*
X8064660D01*
X8049660Y6589000D02*
Y6619000D01*
X8004500Y6692900D02*
X8034500D01*
X8019500Y6677900D02*
Y6707900D01*
X7947900Y6756400D02*
X7977900D01*
X7962900Y6741400D02*
Y6771400D01*
X7884400Y6807200D02*
X7914400D01*
X7899400Y6792200D02*
Y6822200D01*
X7787173Y6823000D02*
X7817173D01*
X7802173Y6808000D02*
Y6838000D01*
X7623096Y6261100D02*
X7653096D01*
X7638096Y6246100D02*
Y6276100D01*
X7630400Y6350000D02*
X7660400D01*
X7645400Y6335000D02*
Y6365000D01*
X7566900Y6487100D02*
X7596900D01*
X7581900Y6472100D02*
Y6502100D01*
X7516100Y6527800D02*
X7546100D01*
X7531100Y6512800D02*
Y6542800D01*
X7452600Y6487100D02*
X7482600D01*
X7467600Y6472100D02*
Y6502100D01*
X7020800Y6972300D02*
X7050800D01*
X7035800Y6957300D02*
Y6987300D01*
X7135100Y6971728D02*
X7165100D01*
X7150100Y6956728D02*
Y6986728D01*
X7262100Y7035800D02*
X7292100D01*
X7277100Y7020800D02*
Y7050800D01*
X7452600Y6629400D02*
X7482600D01*
X7467600Y6614400D02*
Y6644400D01*
X7433619Y6703100D02*
X7463619D01*
X7448619Y6688100D02*
Y6718100D01*
X7648840Y6960996D02*
X7678840D01*
X7663840Y6945996D02*
Y6975996D01*
X7534941Y7046685D02*
X7564941D01*
X7549941Y7031685D02*
Y7061685D01*
X7224000Y6914010D02*
X7254000D01*
X7239000Y6899010D02*
Y6929010D01*
X7287500Y7239000D02*
X7317500D01*
X7302500Y7224000D02*
Y7254000D01*
X7478000Y8048500D02*
X7508000D01*
X7493000Y8033500D02*
Y8063500D01*
X7427200Y7670800D02*
X7457200D01*
X7442200Y7655800D02*
Y7685800D01*
X7706600Y7320596D02*
X7736600D01*
X7721600Y7305597D02*
Y7335596D01*
X7630400Y8242300D02*
X7660400D01*
X7645400Y8227300D02*
Y8257300D01*
X7630400Y7251700D02*
X7660400D01*
X7645400Y7236700D02*
Y7266700D01*
X7401800Y7480300D02*
X7431800D01*
X7416800Y7465300D02*
Y7495300D01*
X7732000Y7823200D02*
X7762000D01*
X7747000Y7808200D02*
Y7838200D01*
X7643100Y7772400D02*
X7673100D01*
X7658100Y7757400D02*
Y7787400D01*
X7592300Y7691827D02*
X7622300D01*
X7607300Y7676827D02*
Y7706827D01*
X7706600Y7727950D02*
X7736600D01*
X7721600Y7712950D02*
Y7742950D01*
X8113000Y7629630D02*
X8143000D01*
X8128000Y7614630D02*
Y7644630D01*
X7935200Y7454900D02*
X7965200D01*
X7950200Y7439900D02*
Y7469900D01*
X9002956Y8559800D02*
X9032956D01*
X9017956Y8544800D02*
Y8574800D01*
X8417966Y8166100D02*
X8447966D01*
X8432966Y8151100D02*
Y8181100D01*
X8595600Y8242300D02*
X8625600D01*
X8610600Y8227300D02*
Y8257300D01*
X8278100Y7944431D02*
X8308100D01*
X8293100Y7929431D02*
Y7959431D01*
X8163800Y8255000D02*
X8193800D01*
X8178800Y8240000D02*
Y8270000D01*
X8265400Y8204200D02*
X8295400D01*
X8280400Y8189200D02*
Y8219200D01*
X8163800Y7810500D02*
X8193800D01*
X8178800Y7795500D02*
Y7825500D01*
X7935200Y8026400D02*
X7965200D01*
X7950200Y8011400D02*
Y8041400D01*
X8544800Y8173359D02*
X8574800D01*
X8559800Y8158359D02*
Y8188359D01*
X8805406Y8143800D02*
X8835406D01*
X8820406Y8128800D02*
Y8158800D01*
X8836900Y8039100D02*
X8866900D01*
X8851900Y8024100D02*
Y8054100D01*
X8722298Y8246417D02*
X8752298D01*
X8737298Y8231417D02*
Y8261417D01*
X8811500Y7969800D02*
X8841500D01*
X8826500Y7954800D02*
Y7984800D01*
X8913100Y8255000D02*
X8943100D01*
X8928100Y8240000D02*
Y8270000D01*
X8989300Y8193000D02*
X9019300D01*
X9004300Y8178000D02*
Y8208000D01*
X9099397Y8108950D02*
X9129397D01*
X9114397Y8093950D02*
Y8123950D01*
X9560800Y7629630D02*
X9590800D01*
X9575800Y7614630D02*
Y7644630D01*
X9268700Y7645400D02*
X9298700D01*
X9283700Y7630400D02*
Y7660400D01*
X9167100Y7645400D02*
X9197100D01*
X9182100Y7630400D02*
Y7660400D01*
X9386071Y7603439D02*
X9416071D01*
X9401071Y7588439D02*
Y7618439D01*
X9065500Y7721600D02*
X9095500D01*
X9080500Y7706600D02*
Y7736600D01*
X8963900Y7772400D02*
X8993900D01*
X8978900Y7757400D02*
Y7787400D01*
X8900400Y7848600D02*
X8930400D01*
X8915400Y7833600D02*
Y7863600D01*
X9065500Y7823200D02*
X9095500D01*
X9080500Y7808200D02*
Y7838200D01*
X9481529Y7603439D02*
X9511529D01*
X9496529Y7588439D02*
Y7618439D01*
X9522700Y7378700D02*
X9552700D01*
X9537700Y7363700D02*
Y7393700D01*
X9129000Y7791100D02*
X9159000D01*
X9144000Y7776100D02*
Y7806100D01*
X8862300Y7911579D02*
X8892300D01*
X8877300Y7896579D02*
Y7926579D01*
X8633700Y7724897D02*
X8663700D01*
X8648700Y7709897D02*
Y7739897D01*
X10141063Y8255000D02*
X10171062D01*
X10156062Y8240000D02*
Y8270000D01*
X8748000Y7632700D02*
X8778000D01*
X8763000Y7617700D02*
Y7647700D01*
X9230600Y7861300D02*
X9260600D01*
X9245600Y7846300D02*
Y7876300D01*
X9306800Y7886700D02*
X9336800D01*
X9321800Y7871700D02*
Y7901700D01*
X10449800Y8253110D02*
X10479800D01*
X10464800Y8238110D02*
Y8268110D01*
X8849600Y7521727D02*
X8879600D01*
X8864600Y7506727D02*
Y7536727D01*
X10602200Y8253110D02*
X10632200D01*
X10617200Y8238110D02*
Y8268110D01*
X9586200Y7823200D02*
X9616200D01*
X9601200Y7808200D02*
Y7838200D01*
X10678400Y8216900D02*
X10708400D01*
X10693400Y8201900D02*
Y8231900D01*
X10068800Y7791100D02*
X10098800D01*
X10083800Y7776100D02*
Y7806100D01*
X10526000Y5981700D02*
X10556000D01*
X10541000Y5966700D02*
Y5996700D01*
X10627600Y6073100D02*
X10657600D01*
X10642600Y6058100D02*
Y6088100D01*
X10818100Y6031000D02*
X10848100D01*
X10833100Y6016000D02*
Y6046000D01*
X11021300Y6032500D02*
X11051300D01*
X11036300Y6017500D02*
Y6047500D01*
X11249900Y6031000D02*
X11279900D01*
X11264900Y6016000D02*
Y6046000D01*
X11592800Y5994400D02*
X11622800D01*
X11607800Y5979400D02*
Y6009400D01*
X11880750Y5956300D02*
X11910750D01*
X11895750Y5941300D02*
Y5971300D01*
X12277100Y6337300D02*
X12307100D01*
X12292100Y6322300D02*
Y6352300D01*
X12445200Y6426106D02*
X12475200D01*
X12460200Y6411106D02*
Y6441106D01*
X12110025Y6390751D02*
X12140025D01*
X12125025Y6375751D02*
Y6405751D01*
X11695030Y6987000D02*
X11725030D01*
X11710030Y6972000D02*
Y7002000D01*
X12445200Y8254721D02*
X12475200D01*
X12460200Y8239721D02*
Y8269721D01*
X12253200Y7933500D02*
X12283200D01*
X12268200Y7918500D02*
Y7948500D01*
X12024600Y7978670D02*
X12054600D01*
X12039600Y7963670D02*
Y7993670D01*
X11781981Y8175730D02*
X11811980D01*
X11796980Y8160730D02*
Y8190730D01*
X11605500Y8089900D02*
X11635500D01*
X11620500Y8074900D02*
Y8104900D01*
X11275300Y8193753D02*
X11305300D01*
X11290300Y8178754D02*
Y8208753D01*
X10780000Y7987300D02*
X10810000D01*
X10795000Y7972300D02*
Y8002300D01*
X10647939Y8117281D02*
X10677939D01*
X10662939Y8102281D02*
Y8132281D01*
X10395200Y8001000D02*
X10425200D01*
X10410200Y7986000D02*
Y8016000D01*
X9807750Y7944431D02*
X9837750D01*
X9822750Y7929431D02*
Y7959431D01*
X9738353Y7629630D02*
X9768353D01*
X9753353Y7614630D02*
Y7644630D01*
X9648200Y7569200D02*
X9678200D01*
X9663200Y7554200D02*
Y7584200D01*
X9852900Y6896233D02*
X9882900D01*
X9867900Y6881233D02*
Y6911233D01*
X10297470Y6897000D02*
X10327470D01*
X10312470Y6882000D02*
Y6912000D01*
X10081500Y6921081D02*
X10111500D01*
X10096500Y6906081D02*
Y6936081D01*
X10018000Y7219340D02*
X10048000D01*
X10033000Y7204340D02*
Y7234340D01*
X10068800Y7035800D02*
X10098800D01*
X10083800Y7020800D02*
Y7050800D01*
X10092900Y7391307D02*
X10122900D01*
X10107900Y7376307D02*
Y7406307D01*
X9865600Y7874000D02*
X9895600D01*
X9880600Y7859000D02*
Y7889000D01*
X9481529Y7506727D02*
X9511529D01*
X9496529Y7491727D02*
Y7521727D01*
X10297470Y7747000D02*
X10327470D01*
X10312470Y7732000D02*
Y7762000D01*
X9827500Y7708900D02*
X9857500D01*
X9842500Y7693900D02*
Y7723900D01*
X9027400Y7320596D02*
X9057400D01*
X9042400Y7305597D02*
Y7335596D01*
X10170400Y7708900D02*
X10200400D01*
X10185400Y7693900D02*
Y7723900D01*
X9916427Y7708900D02*
X9946427D01*
X9931427Y7693900D02*
Y7723900D01*
X11415000Y8254721D02*
X11445000D01*
X11430000Y8239721D02*
Y8269721D01*
X10246600Y7642330D02*
X10276600D01*
X10261600Y7627330D02*
Y7657330D01*
X10119600Y7529437D02*
X10149600D01*
X10134600Y7514437D02*
Y7544437D01*
X10297400Y7589783D02*
X10327400D01*
X10312400Y7574783D02*
Y7604783D01*
X10195800Y7493000D02*
X10225800D01*
X10210800Y7478000D02*
Y7508000D01*
X9268700Y7442200D02*
X9298700D01*
X9283700Y7427200D02*
Y7457200D01*
X9247600Y8246417D02*
X9277600D01*
X9262600Y8231417D02*
Y8261417D01*
X9611600Y7924800D02*
X9641600D01*
X9626600Y7909800D02*
Y7939800D01*
X9471900Y7886700D02*
X9501900D01*
X9486900Y7871700D02*
Y7901700D01*
X11491200Y8216900D02*
X11521200D01*
X11506200Y8201900D02*
Y8231900D01*
X9891000Y7327000D02*
X9921000D01*
X9906000Y7312000D02*
Y7342000D01*
X9745019Y7213600D02*
X9775019D01*
X9760019Y7198600D02*
Y7228600D01*
X9103600Y7262900D02*
X9133600D01*
X9118600Y7247900D02*
Y7277900D01*
X10322800Y7378700D02*
X10352800D01*
X10337800Y7363700D02*
Y7393700D01*
X9167100Y7200900D02*
X9197100D01*
X9182100Y7185900D02*
Y7215900D01*
X11923000Y8255000D02*
X11953000D01*
X11938000Y8240000D02*
Y8270000D01*
X9065500Y6997700D02*
X9095500D01*
X9080500Y6982700D02*
Y7012700D01*
X7897100Y6211182D02*
X7927100D01*
X7912100Y6196182D02*
Y6226182D01*
X7986000Y6007100D02*
X8016000D01*
X8001000Y5992100D02*
Y6022100D01*
X10183100Y6527800D02*
X10213100D01*
X10198100Y6512800D02*
Y6542800D01*
X10094200Y6532173D02*
X10124200D01*
X10109200Y6517173D02*
Y6547173D01*
X10005300Y6532173D02*
X10035300D01*
X10020300Y6517173D02*
Y6547173D01*
X9916400Y6532173D02*
X9946400D01*
X9931400Y6517173D02*
Y6547173D01*
X10081500Y6410430D02*
X10111500D01*
X10096500Y6395430D02*
Y6425430D01*
X9998500Y6410430D02*
X10028500D01*
X10013500Y6395430D02*
Y6425430D01*
X9916400Y6410430D02*
X9946400D01*
X9931400Y6395430D02*
Y6425430D01*
X9827500Y6410430D02*
X9857500D01*
X9842500Y6395430D02*
Y6425430D01*
X9359100Y6083300D02*
X9389100D01*
X9374100Y6068300D02*
Y6098300D01*
X9444407Y6045200D02*
X9474407D01*
X9459407Y6030200D02*
Y6060200D01*
X9444407Y6121400D02*
X9474407D01*
X9459407Y6106400D02*
Y6136400D01*
X9598900Y6350000D02*
X9628900D01*
X9613900Y6335000D02*
Y6365000D01*
X9229100Y6491421D02*
X9259100D01*
X9244100Y6476421D02*
Y6506421D01*
X9446500Y6726627D02*
X9476500D01*
X9461500Y6711627D02*
Y6741627D01*
X9535400Y6938759D02*
X9565400D01*
X9550400Y6923759D02*
Y6953759D01*
X7033500Y7262900D02*
X7063500D01*
X7048500Y7247900D02*
Y7277900D01*
X7147800Y7355952D02*
X7177800D01*
X7162800Y7340952D02*
Y7370952D01*
X7351000Y7708900D02*
X7381000D01*
X7366000Y7693900D02*
Y7723900D01*
X7046200Y7950200D02*
X7076200D01*
X7061200Y7935200D02*
Y7965200D01*
X7478000Y7965970D02*
X7508000D01*
X7493000Y7950970D02*
Y7980970D01*
X7808200Y8026400D02*
X7838200D01*
X7823200Y8011400D02*
Y8041400D01*
X7935200Y8153400D02*
X7965200D01*
X7950200Y8138400D02*
Y8168400D01*
X8034660Y8246417D02*
X8064660D01*
X8049660Y8231417D02*
Y8261417D01*
X11288000Y7531100D02*
X11318000D01*
X11303000Y7516100D02*
Y7546100D01*
X11591300Y7391307D02*
X11621300D01*
X11606300Y7376307D02*
Y7406307D01*
X11110200Y7048500D02*
X11140200D01*
X11125200Y7033500D02*
Y7063500D01*
X11249900Y6654800D02*
X11279900D01*
X11264900Y6639800D02*
Y6669800D01*
X12088100Y7277100D02*
X12118100D01*
X12103100Y7262100D02*
Y7292100D01*
X12291300Y7202400D02*
X12321300D01*
X12306300Y7187400D02*
Y7217400D01*
X12011900Y7048500D02*
X12041900D01*
X12026900Y7033500D02*
Y7063500D01*
X12103800Y6934200D02*
X12133800D01*
X12118800Y6919200D02*
Y6949200D01*
X10521627Y7594600D02*
X10551627D01*
X10536627Y7579600D02*
Y7609600D01*
X11538930Y6410430D02*
X11568930D01*
X11553930Y6395430D02*
Y6425430D01*
X10589500Y7188200D02*
X10619500D01*
X10604500Y7173200D02*
Y7203200D01*
X9497300Y7213600D02*
X9527300D01*
X9512300Y7198600D02*
Y7228600D01*
X9662400Y7226300D02*
X9692400D01*
X9677400Y7211300D02*
Y7241300D01*
X10081500Y6213974D02*
X10111500D01*
X10096500Y6198974D02*
Y6228974D01*
X9998500Y6213974D02*
X10028500D01*
X10013500Y6198974D02*
Y6228974D01*
X10195800Y6638238D02*
X10225800D01*
X10210800Y6623238D02*
Y6653238D01*
X10195800Y6772170D02*
X10225800D01*
X10210800Y6757170D02*
Y6787170D01*
X9891000Y6772170D02*
X9921000D01*
X9906000Y6757170D02*
Y6787170D01*
X9891000Y6638238D02*
X9921000D01*
X9906000Y6623238D02*
Y6653238D01*
X10919700Y6591300D02*
X10949700D01*
X10934700Y6576300D02*
Y6606300D01*
X11859500Y7937500D02*
X11889500D01*
X11874500Y7922500D02*
Y7952500D01*
X10919700Y7683500D02*
X10949700D01*
X10934700Y7668500D02*
Y7698500D01*
X12024600Y8175730D02*
X12054600D01*
X12039600Y8160730D02*
Y8190730D01*
X12100800Y8108950D02*
X12130800D01*
X12115800Y8093950D02*
Y8123950D01*
X12189700Y8216900D02*
X12219700D01*
X12204700Y8201900D02*
Y8231900D01*
X12316700Y8216900D02*
X12346700D01*
X12331700Y8201900D02*
Y8231900D01*
X11783300Y7491115D02*
X11813300D01*
X11798300Y7476115D02*
Y7506115D01*
X11770600Y6792000D02*
X11800600D01*
X11785600Y6777000D02*
Y6807000D01*
X11383639Y6726627D02*
X11413639D01*
X11398639Y6711627D02*
Y6741627D01*
X11591300Y6921081D02*
X11621300D01*
X11606300Y6906081D02*
Y6936081D01*
X10526000Y6591300D02*
X10556000D01*
X10541000Y6576300D02*
Y6606300D01*
X10729200Y6388100D02*
X10759200D01*
X10744200Y6373100D02*
Y6403100D01*
X11072100Y7832281D02*
X11102100D01*
X11087100Y7817281D02*
Y7847281D01*
X11275300Y7629630D02*
X11305300D01*
X11290300Y7614630D02*
Y7644630D01*
%TF.MD5,649cfc0c911f7af47fa717b73d9648a5*%
M02*
