%TF.GenerationSoftware,Altium Limited,Altium Designer,19.0.15 (446)*%
G04 Layer_Physical_Order=2*
G04 Layer_Color=5220458*
%FSLAX45Y45*%
%MOMM*%
%TF.FileFunction,Copper,L2,Inr,Signal*%
%TF.Part,Single*%
G01*
G75*
%TA.AperFunction,Conductor*%
%ADD34C,0.50000*%
%ADD35C,0.20000*%
%ADD37C,0.40000*%
%TA.AperFunction,ComponentPad*%
%ADD39C,1.80000*%
G04:AMPARAMS|DCode=40|XSize=1mm|YSize=1.8mm|CornerRadius=0.5mm|HoleSize=0mm|Usage=FLASHONLY|Rotation=90.000|XOffset=0mm|YOffset=0mm|HoleType=Round|Shape=RoundedRectangle|*
%AMROUNDEDRECTD40*
21,1,1.00000,0.80000,0,0,90.0*
21,1,0.00000,1.80000,0,0,90.0*
1,1,1.00000,0.40000,0.00000*
1,1,1.00000,0.40000,0.00000*
1,1,1.00000,-0.40000,0.00000*
1,1,1.00000,-0.40000,0.00000*
%
%ADD40ROUNDEDRECTD40*%
G04:AMPARAMS|DCode=41|XSize=1mm|YSize=2.1mm|CornerRadius=0.5mm|HoleSize=0mm|Usage=FLASHONLY|Rotation=90.000|XOffset=0mm|YOffset=0mm|HoleType=Round|Shape=RoundedRectangle|*
%AMROUNDEDRECTD41*
21,1,1.00000,1.10000,0,0,90.0*
21,1,0.00000,2.10000,0,0,90.0*
1,1,1.00000,0.55000,0.00000*
1,1,1.00000,0.55000,0.00000*
1,1,1.00000,-0.55000,0.00000*
1,1,1.00000,-0.55000,0.00000*
%
%ADD41ROUNDEDRECTD41*%
%TA.AperFunction,ViaPad*%
%ADD42C,0.50000*%
G36*
X12573000Y4953000D02*
X6223000D01*
Y9271000D01*
X12573000D01*
Y4953000D01*
D02*
G37*
%LPC*%
G36*
X6619000Y9248940D02*
Y9159000D01*
X6708940D01*
X6707271Y9171672D01*
X6696591Y9197457D01*
X6679600Y9219600D01*
X6657457Y9236591D01*
X6631672Y9247271D01*
X6619000Y9248940D01*
D02*
G37*
G36*
X6365000D02*
Y9159000D01*
X6454940D01*
X6453271Y9171672D01*
X6442591Y9197457D01*
X6425600Y9219600D01*
X6403457Y9236591D01*
X6377672Y9247271D01*
X6365000Y9248940D01*
D02*
G37*
G36*
X6589000D02*
X6576328Y9247271D01*
X6550543Y9236591D01*
X6528400Y9219600D01*
X6511409Y9197457D01*
X6500729Y9171672D01*
X6499060Y9159000D01*
X6589000D01*
Y9248940D01*
D02*
G37*
G36*
X6335000D02*
X6322328Y9247271D01*
X6296543Y9236591D01*
X6274400Y9219600D01*
X6257409Y9197457D01*
X6246729Y9171672D01*
X6245060Y9159000D01*
X6335000D01*
Y9248940D01*
D02*
G37*
G36*
X12446000Y9244863D02*
X12419895Y9241426D01*
X12395569Y9231350D01*
X12374679Y9215321D01*
X12358650Y9194431D01*
X12348574Y9170105D01*
X12345137Y9144000D01*
X12348574Y9117895D01*
X12358650Y9093569D01*
X12374679Y9072679D01*
X12395569Y9056650D01*
X12419895Y9046574D01*
X12446000Y9043137D01*
X12472105Y9046574D01*
X12496431Y9056650D01*
X12517321Y9072679D01*
X12533350Y9093569D01*
X12543426Y9117895D01*
X12546863Y9144000D01*
X12543426Y9170105D01*
X12533350Y9194431D01*
X12517321Y9215321D01*
X12496431Y9231350D01*
X12472105Y9241426D01*
X12446000Y9244863D01*
D02*
G37*
G36*
X12192000D02*
X12165895Y9241426D01*
X12141569Y9231350D01*
X12120679Y9215321D01*
X12104650Y9194431D01*
X12094574Y9170105D01*
X12091137Y9144000D01*
X12094574Y9117895D01*
X12104650Y9093569D01*
X12120679Y9072679D01*
X12141569Y9056650D01*
X12165895Y9046574D01*
X12192000Y9043137D01*
X12218105Y9046574D01*
X12242431Y9056650D01*
X12263321Y9072679D01*
X12279350Y9093569D01*
X12289426Y9117895D01*
X12292863Y9144000D01*
X12289426Y9170105D01*
X12279350Y9194431D01*
X12263321Y9215321D01*
X12242431Y9231350D01*
X12218105Y9241426D01*
X12192000Y9244863D01*
D02*
G37*
G36*
X11938000D02*
X11911895Y9241426D01*
X11887569Y9231350D01*
X11866679Y9215321D01*
X11850650Y9194431D01*
X11840574Y9170105D01*
X11837137Y9144000D01*
X11840574Y9117895D01*
X11850650Y9093569D01*
X11866679Y9072679D01*
X11887569Y9056650D01*
X11911895Y9046574D01*
X11938000Y9043137D01*
X11964105Y9046574D01*
X11988431Y9056650D01*
X12009321Y9072679D01*
X12025350Y9093569D01*
X12035426Y9117895D01*
X12038863Y9144000D01*
X12035426Y9170105D01*
X12025350Y9194431D01*
X12009321Y9215321D01*
X11988431Y9231350D01*
X11964105Y9241426D01*
X11938000Y9244863D01*
D02*
G37*
G36*
X11684000D02*
X11657895Y9241426D01*
X11633569Y9231350D01*
X11612679Y9215321D01*
X11596650Y9194431D01*
X11586574Y9170105D01*
X11583137Y9144000D01*
X11586574Y9117895D01*
X11596650Y9093569D01*
X11612679Y9072679D01*
X11633569Y9056650D01*
X11657895Y9046574D01*
X11684000Y9043137D01*
X11710105Y9046574D01*
X11734431Y9056650D01*
X11755321Y9072679D01*
X11771350Y9093569D01*
X11781426Y9117895D01*
X11784863Y9144000D01*
X11781426Y9170105D01*
X11771350Y9194431D01*
X11755321Y9215321D01*
X11734431Y9231350D01*
X11710105Y9241426D01*
X11684000Y9244863D01*
D02*
G37*
G36*
X11430000D02*
X11403895Y9241426D01*
X11379569Y9231350D01*
X11358679Y9215321D01*
X11342650Y9194431D01*
X11332574Y9170105D01*
X11329137Y9144000D01*
X11332574Y9117895D01*
X11342650Y9093569D01*
X11358679Y9072679D01*
X11379569Y9056650D01*
X11403895Y9046574D01*
X11430000Y9043137D01*
X11456105Y9046574D01*
X11480431Y9056650D01*
X11501321Y9072679D01*
X11517350Y9093569D01*
X11527426Y9117895D01*
X11530863Y9144000D01*
X11527426Y9170105D01*
X11517350Y9194431D01*
X11501321Y9215321D01*
X11480431Y9231350D01*
X11456105Y9241426D01*
X11430000Y9244863D01*
D02*
G37*
G36*
X11176000D02*
X11149895Y9241426D01*
X11125569Y9231350D01*
X11104679Y9215321D01*
X11088650Y9194431D01*
X11078574Y9170105D01*
X11075137Y9144000D01*
X11078574Y9117895D01*
X11088650Y9093569D01*
X11104679Y9072679D01*
X11125569Y9056650D01*
X11149895Y9046574D01*
X11176000Y9043137D01*
X11202105Y9046574D01*
X11226431Y9056650D01*
X11247321Y9072679D01*
X11263350Y9093569D01*
X11273426Y9117895D01*
X11276863Y9144000D01*
X11273426Y9170105D01*
X11263350Y9194431D01*
X11247321Y9215321D01*
X11226431Y9231350D01*
X11202105Y9241426D01*
X11176000Y9244863D01*
D02*
G37*
G36*
X10922000D02*
X10895895Y9241426D01*
X10871569Y9231350D01*
X10850679Y9215321D01*
X10834650Y9194431D01*
X10824574Y9170105D01*
X10821137Y9144000D01*
X10824574Y9117895D01*
X10834650Y9093569D01*
X10850679Y9072679D01*
X10871569Y9056650D01*
X10895895Y9046574D01*
X10922000Y9043137D01*
X10948105Y9046574D01*
X10972431Y9056650D01*
X10993321Y9072679D01*
X11009350Y9093569D01*
X11019426Y9117895D01*
X11022863Y9144000D01*
X11019426Y9170105D01*
X11009350Y9194431D01*
X10993321Y9215321D01*
X10972431Y9231350D01*
X10948105Y9241426D01*
X10922000Y9244863D01*
D02*
G37*
G36*
X10668000D02*
X10641895Y9241426D01*
X10617569Y9231350D01*
X10596679Y9215321D01*
X10580650Y9194431D01*
X10570574Y9170105D01*
X10567137Y9144000D01*
X10570574Y9117895D01*
X10580650Y9093569D01*
X10596679Y9072679D01*
X10617569Y9056650D01*
X10641895Y9046574D01*
X10668000Y9043137D01*
X10694105Y9046574D01*
X10718431Y9056650D01*
X10739321Y9072679D01*
X10755350Y9093569D01*
X10765426Y9117895D01*
X10768863Y9144000D01*
X10765426Y9170105D01*
X10755350Y9194431D01*
X10739321Y9215321D01*
X10718431Y9231350D01*
X10694105Y9241426D01*
X10668000Y9244863D01*
D02*
G37*
G36*
X10414000D02*
X10387895Y9241426D01*
X10363569Y9231350D01*
X10342679Y9215321D01*
X10326650Y9194431D01*
X10316574Y9170105D01*
X10313137Y9144000D01*
X10316574Y9117895D01*
X10326650Y9093569D01*
X10342679Y9072679D01*
X10363569Y9056650D01*
X10387895Y9046574D01*
X10414000Y9043137D01*
X10440105Y9046574D01*
X10464431Y9056650D01*
X10485321Y9072679D01*
X10501350Y9093569D01*
X10511426Y9117895D01*
X10514863Y9144000D01*
X10511426Y9170105D01*
X10501350Y9194431D01*
X10485321Y9215321D01*
X10464431Y9231350D01*
X10440105Y9241426D01*
X10414000Y9244863D01*
D02*
G37*
G36*
X10160000D02*
X10133895Y9241426D01*
X10109569Y9231350D01*
X10088679Y9215321D01*
X10072650Y9194431D01*
X10062574Y9170105D01*
X10059137Y9144000D01*
X10062574Y9117895D01*
X10072650Y9093569D01*
X10088679Y9072679D01*
X10109569Y9056650D01*
X10133895Y9046574D01*
X10160000Y9043137D01*
X10186105Y9046574D01*
X10210431Y9056650D01*
X10231321Y9072679D01*
X10247350Y9093569D01*
X10257426Y9117895D01*
X10260863Y9144000D01*
X10257426Y9170105D01*
X10247350Y9194431D01*
X10231321Y9215321D01*
X10210431Y9231350D01*
X10186105Y9241426D01*
X10160000Y9244863D01*
D02*
G37*
G36*
X9906000D02*
X9879895Y9241426D01*
X9855569Y9231350D01*
X9834679Y9215321D01*
X9818650Y9194431D01*
X9808574Y9170105D01*
X9805137Y9144000D01*
X9808574Y9117895D01*
X9818650Y9093569D01*
X9834679Y9072679D01*
X9855569Y9056650D01*
X9879895Y9046574D01*
X9906000Y9043137D01*
X9932105Y9046574D01*
X9956431Y9056650D01*
X9977321Y9072679D01*
X9993350Y9093569D01*
X10003426Y9117895D01*
X10006863Y9144000D01*
X10003426Y9170105D01*
X9993350Y9194431D01*
X9977321Y9215321D01*
X9956431Y9231350D01*
X9932105Y9241426D01*
X9906000Y9244863D01*
D02*
G37*
G36*
X9398000D02*
X9371895Y9241426D01*
X9347569Y9231350D01*
X9326679Y9215321D01*
X9310650Y9194431D01*
X9300574Y9170105D01*
X9297137Y9144000D01*
X9300574Y9117895D01*
X9310650Y9093569D01*
X9326679Y9072679D01*
X9347569Y9056650D01*
X9371895Y9046574D01*
X9398000Y9043137D01*
X9424105Y9046574D01*
X9448431Y9056650D01*
X9469321Y9072679D01*
X9485350Y9093569D01*
X9495426Y9117895D01*
X9498863Y9144000D01*
X9495426Y9170105D01*
X9485350Y9194431D01*
X9469321Y9215321D01*
X9448431Y9231350D01*
X9424105Y9241426D01*
X9398000Y9244863D01*
D02*
G37*
G36*
X9144000D02*
X9117895Y9241426D01*
X9093569Y9231350D01*
X9072679Y9215321D01*
X9056650Y9194431D01*
X9046574Y9170105D01*
X9043137Y9144000D01*
X9046574Y9117895D01*
X9056650Y9093569D01*
X9072679Y9072679D01*
X9093569Y9056650D01*
X9117895Y9046574D01*
X9144000Y9043137D01*
X9170105Y9046574D01*
X9194431Y9056650D01*
X9215321Y9072679D01*
X9231350Y9093569D01*
X9241426Y9117895D01*
X9244863Y9144000D01*
X9241426Y9170105D01*
X9231350Y9194431D01*
X9215321Y9215321D01*
X9194431Y9231350D01*
X9170105Y9241426D01*
X9144000Y9244863D01*
D02*
G37*
G36*
X8890000D02*
X8863895Y9241426D01*
X8839569Y9231350D01*
X8818679Y9215321D01*
X8802650Y9194431D01*
X8792574Y9170105D01*
X8789137Y9144000D01*
X8792574Y9117895D01*
X8802650Y9093569D01*
X8818679Y9072679D01*
X8839569Y9056650D01*
X8863895Y9046574D01*
X8890000Y9043137D01*
X8916105Y9046574D01*
X8940431Y9056650D01*
X8961321Y9072679D01*
X8977350Y9093569D01*
X8987426Y9117895D01*
X8990863Y9144000D01*
X8987426Y9170105D01*
X8977350Y9194431D01*
X8961321Y9215321D01*
X8940431Y9231350D01*
X8916105Y9241426D01*
X8890000Y9244863D01*
D02*
G37*
G36*
X8382000D02*
X8355895Y9241426D01*
X8331569Y9231350D01*
X8310679Y9215321D01*
X8294650Y9194431D01*
X8284574Y9170105D01*
X8281137Y9144000D01*
X8284574Y9117895D01*
X8294650Y9093569D01*
X8310679Y9072679D01*
X8331569Y9056650D01*
X8355895Y9046574D01*
X8382000Y9043137D01*
X8408105Y9046574D01*
X8432431Y9056650D01*
X8453321Y9072679D01*
X8469350Y9093569D01*
X8479426Y9117895D01*
X8482863Y9144000D01*
X8479426Y9170105D01*
X8469350Y9194431D01*
X8453321Y9215321D01*
X8432431Y9231350D01*
X8408105Y9241426D01*
X8382000Y9244863D01*
D02*
G37*
G36*
X8128000D02*
X8101895Y9241426D01*
X8077569Y9231350D01*
X8056679Y9215321D01*
X8040650Y9194431D01*
X8030574Y9170105D01*
X8027137Y9144000D01*
X8030574Y9117895D01*
X8040650Y9093569D01*
X8056679Y9072679D01*
X8077569Y9056650D01*
X8101895Y9046574D01*
X8128000Y9043137D01*
X8154105Y9046574D01*
X8178431Y9056650D01*
X8199321Y9072679D01*
X8215350Y9093569D01*
X8225426Y9117895D01*
X8228863Y9144000D01*
X8225426Y9170105D01*
X8215350Y9194431D01*
X8199321Y9215321D01*
X8178431Y9231350D01*
X8154105Y9241426D01*
X8128000Y9244863D01*
D02*
G37*
G36*
X7874000D02*
X7847895Y9241426D01*
X7823569Y9231350D01*
X7802679Y9215321D01*
X7786650Y9194431D01*
X7776574Y9170105D01*
X7773137Y9144000D01*
X7776574Y9117895D01*
X7786650Y9093569D01*
X7802679Y9072679D01*
X7823569Y9056650D01*
X7847895Y9046574D01*
X7874000Y9043137D01*
X7900105Y9046574D01*
X7924431Y9056650D01*
X7945321Y9072679D01*
X7961350Y9093569D01*
X7971426Y9117895D01*
X7974863Y9144000D01*
X7971426Y9170105D01*
X7961350Y9194431D01*
X7945321Y9215321D01*
X7924431Y9231350D01*
X7900105Y9241426D01*
X7874000Y9244863D01*
D02*
G37*
G36*
X7620000D02*
X7593895Y9241426D01*
X7569569Y9231350D01*
X7548679Y9215321D01*
X7532650Y9194431D01*
X7522574Y9170105D01*
X7519137Y9144000D01*
X7522574Y9117895D01*
X7532650Y9093569D01*
X7548679Y9072679D01*
X7569569Y9056650D01*
X7593895Y9046574D01*
X7620000Y9043137D01*
X7646105Y9046574D01*
X7670431Y9056650D01*
X7691321Y9072679D01*
X7707350Y9093569D01*
X7717426Y9117895D01*
X7720863Y9144000D01*
X7717426Y9170105D01*
X7707350Y9194431D01*
X7691321Y9215321D01*
X7670431Y9231350D01*
X7646105Y9241426D01*
X7620000Y9244863D01*
D02*
G37*
G36*
X7366000D02*
X7339895Y9241426D01*
X7315569Y9231350D01*
X7294679Y9215321D01*
X7278650Y9194431D01*
X7268574Y9170105D01*
X7265137Y9144000D01*
X7268574Y9117895D01*
X7278650Y9093569D01*
X7294679Y9072679D01*
X7315569Y9056650D01*
X7339895Y9046574D01*
X7366000Y9043137D01*
X7392105Y9046574D01*
X7416431Y9056650D01*
X7437321Y9072679D01*
X7453350Y9093569D01*
X7463426Y9117895D01*
X7466863Y9144000D01*
X7463426Y9170105D01*
X7453350Y9194431D01*
X7437321Y9215321D01*
X7416431Y9231350D01*
X7392105Y9241426D01*
X7366000Y9244863D01*
D02*
G37*
G36*
X7112000D02*
X7085895Y9241426D01*
X7061569Y9231350D01*
X7040679Y9215321D01*
X7024650Y9194431D01*
X7014574Y9170105D01*
X7011137Y9144000D01*
X7014574Y9117895D01*
X7024650Y9093569D01*
X7040679Y9072679D01*
X7061569Y9056650D01*
X7085895Y9046574D01*
X7112000Y9043137D01*
X7138105Y9046574D01*
X7162431Y9056650D01*
X7183321Y9072679D01*
X7199350Y9093569D01*
X7209426Y9117895D01*
X7212863Y9144000D01*
X7209426Y9170105D01*
X7199350Y9194431D01*
X7183321Y9215321D01*
X7162431Y9231350D01*
X7138105Y9241426D01*
X7112000Y9244863D01*
D02*
G37*
G36*
X6858000D02*
X6831895Y9241426D01*
X6807569Y9231350D01*
X6786679Y9215321D01*
X6770650Y9194431D01*
X6760574Y9170105D01*
X6757137Y9144000D01*
X6760574Y9117895D01*
X6770650Y9093569D01*
X6786679Y9072679D01*
X6807569Y9056650D01*
X6831895Y9046574D01*
X6858000Y9043137D01*
X6884105Y9046574D01*
X6908431Y9056650D01*
X6929321Y9072679D01*
X6945350Y9093569D01*
X6955426Y9117895D01*
X6958863Y9144000D01*
X6955426Y9170105D01*
X6945350Y9194431D01*
X6929321Y9215321D01*
X6908431Y9231350D01*
X6884105Y9241426D01*
X6858000Y9244863D01*
D02*
G37*
G36*
X6708940Y9129000D02*
X6619000D01*
Y9039060D01*
X6631672Y9040729D01*
X6657457Y9051409D01*
X6679600Y9068400D01*
X6696591Y9090543D01*
X6707271Y9116328D01*
X6708940Y9129000D01*
D02*
G37*
G36*
X6454940D02*
X6365000D01*
Y9039060D01*
X6377672Y9040729D01*
X6403457Y9051409D01*
X6425600Y9068400D01*
X6442591Y9090543D01*
X6453271Y9116328D01*
X6454940Y9129000D01*
D02*
G37*
G36*
X6589000D02*
X6499060D01*
X6500729Y9116328D01*
X6511409Y9090543D01*
X6528400Y9068400D01*
X6550543Y9051409D01*
X6576328Y9040729D01*
X6589000Y9039060D01*
Y9129000D01*
D02*
G37*
G36*
X6335000D02*
X6245060D01*
X6246729Y9116328D01*
X6257409Y9090543D01*
X6274400Y9068400D01*
X6296543Y9051409D01*
X6322328Y9040729D01*
X6335000Y9039060D01*
Y9129000D01*
D02*
G37*
G36*
X9652000Y9244863D02*
X9625895Y9241426D01*
X9601569Y9231350D01*
X9580679Y9215321D01*
X9564650Y9194431D01*
X9554574Y9170105D01*
X9551137Y9144000D01*
X9554574Y9117895D01*
X9564650Y9093569D01*
X9580679Y9072679D01*
X9601569Y9056650D01*
X9621412Y9048431D01*
Y9012826D01*
X9621703Y9011367D01*
X9510581Y8900245D01*
X9506160Y8893629D01*
X9504608Y8885826D01*
Y8673124D01*
X9491908Y8670598D01*
X9485350Y8686431D01*
X9469321Y8707321D01*
X9448431Y8723350D01*
X9424105Y8733426D01*
X9398000Y8736863D01*
X9371895Y8733426D01*
X9347569Y8723350D01*
X9326679Y8707321D01*
X9310650Y8686431D01*
X9300574Y8662105D01*
X9297137Y8636000D01*
X9300574Y8609895D01*
X9310650Y8585569D01*
X9326679Y8564679D01*
X9347569Y8548650D01*
X9371895Y8538574D01*
X9398000Y8535137D01*
X9424105Y8538574D01*
X9448431Y8548650D01*
X9469321Y8564679D01*
X9485350Y8585569D01*
X9491908Y8601402D01*
X9504608Y8598876D01*
Y8428547D01*
X9478453Y8402392D01*
X9181125D01*
X9177411Y8406410D01*
X9173202Y8413038D01*
X9172822Y8414812D01*
X9174588Y8423688D01*
Y8540431D01*
X9194431Y8548650D01*
X9215321Y8564679D01*
X9231350Y8585569D01*
X9241426Y8609895D01*
X9244863Y8636000D01*
X9241426Y8662105D01*
X9231350Y8686431D01*
X9215321Y8707321D01*
X9194431Y8723350D01*
X9170105Y8733426D01*
X9144000Y8736863D01*
X9117895Y8733426D01*
X9093569Y8723350D01*
X9072679Y8707321D01*
X9056650Y8686431D01*
X9046574Y8662105D01*
X9043137Y8636000D01*
X9046574Y8609895D01*
X9054276Y8591302D01*
X9043190Y8585034D01*
X9031613Y8592769D01*
X9017956Y8595486D01*
X9004300Y8592769D01*
X8992723Y8585034D01*
X8984987Y8573456D01*
X8982271Y8559800D01*
X8984987Y8546144D01*
X8992723Y8534566D01*
X9004300Y8526831D01*
X9017956Y8524114D01*
X9031613Y8526831D01*
X9043190Y8534566D01*
X9050926Y8546144D01*
X9053642Y8559800D01*
X9063751Y8574074D01*
X9065276Y8574328D01*
X9072679Y8564679D01*
X9093569Y8548650D01*
X9113412Y8540431D01*
Y8423688D01*
X9104360Y8415092D01*
X8864368D01*
X8856564Y8413540D01*
X8849949Y8409119D01*
X8817821Y8376992D01*
X8586156D01*
X8578353Y8375440D01*
X8571737Y8371019D01*
X8571736Y8371019D01*
X8476110Y8275392D01*
X8207269D01*
X8204034Y8280234D01*
X8192456Y8287969D01*
X8178800Y8290686D01*
X8165144Y8287969D01*
X8153566Y8280234D01*
X8148392Y8272489D01*
X8135692Y8276342D01*
Y8297353D01*
X8212647Y8374308D01*
X8356600D01*
X8364404Y8375860D01*
X8371019Y8380281D01*
X8523419Y8532681D01*
X8527840Y8539296D01*
X8529392Y8547100D01*
Y8598876D01*
X8542092Y8601402D01*
X8548650Y8585569D01*
X8564679Y8564679D01*
X8585569Y8548650D01*
X8609895Y8538574D01*
X8636000Y8535137D01*
X8662105Y8538574D01*
X8686431Y8548650D01*
X8707321Y8564679D01*
X8723350Y8585569D01*
X8733426Y8609895D01*
X8736863Y8636000D01*
X8733426Y8662105D01*
X8723350Y8686431D01*
X8707321Y8707321D01*
X8686431Y8723350D01*
X8662105Y8733426D01*
X8636000Y8736863D01*
X8609895Y8733426D01*
X8585569Y8723350D01*
X8564679Y8707321D01*
X8548650Y8686431D01*
X8542092Y8670598D01*
X8529392Y8673124D01*
Y8844410D01*
X8634541Y8949559D01*
X8636000Y8949269D01*
X8647705Y8951597D01*
X8657629Y8958227D01*
X8664259Y8968151D01*
X8666588Y8979856D01*
Y9048431D01*
X8686431Y9056650D01*
X8707321Y9072679D01*
X8723350Y9093569D01*
X8733426Y9117895D01*
X8736863Y9144000D01*
X8733426Y9170105D01*
X8723350Y9194431D01*
X8707321Y9215321D01*
X8686431Y9231350D01*
X8662105Y9241426D01*
X8636000Y9244863D01*
X8609895Y9241426D01*
X8585569Y9231350D01*
X8564679Y9215321D01*
X8548650Y9194431D01*
X8538574Y9170105D01*
X8535137Y9144000D01*
X8538574Y9117895D01*
X8548650Y9093569D01*
X8564679Y9072679D01*
X8585569Y9056650D01*
X8605412Y9048431D01*
Y8979856D01*
X8605703Y8978397D01*
X8494581Y8867276D01*
X8490160Y8860660D01*
X8488608Y8852856D01*
Y8673124D01*
X8475908Y8670598D01*
X8469350Y8686431D01*
X8453321Y8707321D01*
X8432431Y8723350D01*
X8408105Y8733426D01*
X8382000Y8736863D01*
X8355895Y8733426D01*
X8331569Y8723350D01*
X8310679Y8707321D01*
X8294650Y8686431D01*
X8284574Y8662105D01*
X8281137Y8636000D01*
X8284574Y8609895D01*
X8294650Y8585569D01*
X8310679Y8564679D01*
X8331569Y8548650D01*
X8355895Y8538574D01*
X8382000Y8535137D01*
X8408105Y8538574D01*
X8432431Y8548650D01*
X8453321Y8564679D01*
X8469350Y8585569D01*
X8475908Y8601402D01*
X8488608Y8598876D01*
Y8555547D01*
X8348153Y8415092D01*
X8204201D01*
X8204200Y8415092D01*
X8196396Y8413540D01*
X8189781Y8409119D01*
X8189780Y8409119D01*
X8100881Y8320219D01*
X8096460Y8313604D01*
X8094908Y8305800D01*
Y8275355D01*
X8082208Y8271503D01*
X8079219Y8275976D01*
X8065657Y8285038D01*
X8064660Y8285236D01*
Y8246417D01*
Y8207598D01*
X8065657Y8207796D01*
X8079219Y8216858D01*
X8082208Y8221331D01*
X8094908Y8217478D01*
Y8169981D01*
X8050081Y8125154D01*
X8045660Y8118538D01*
X8044108Y8110735D01*
Y7974916D01*
X8023698Y7954506D01*
X7747001D01*
X7747000Y7954506D01*
X7739196Y7952954D01*
X7732581Y7948534D01*
X7732580Y7948533D01*
X7643681Y7859634D01*
X7639260Y7853018D01*
X7637708Y7845214D01*
Y7800869D01*
X7632866Y7797634D01*
X7625131Y7786056D01*
X7622414Y7772400D01*
X7625131Y7758744D01*
X7632866Y7747166D01*
X7644444Y7739431D01*
X7658100Y7736714D01*
X7671756Y7739431D01*
X7675784Y7742122D01*
X7687214Y7734485D01*
X7685914Y7727950D01*
X7688631Y7714294D01*
X7696366Y7702717D01*
X7707944Y7694981D01*
X7721600Y7692265D01*
X7735256Y7694981D01*
X7746834Y7702717D01*
X7754569Y7714294D01*
X7757286Y7727950D01*
X7754569Y7741607D01*
X7746834Y7753184D01*
X7735256Y7760919D01*
X7721600Y7763636D01*
X7707944Y7760919D01*
X7703916Y7758228D01*
X7692486Y7765865D01*
X7693786Y7772400D01*
X7691069Y7786056D01*
X7683334Y7797634D01*
X7678492Y7800869D01*
Y7836767D01*
X7755447Y7913722D01*
X8032145D01*
X8039949Y7915274D01*
X8046564Y7919695D01*
X8078919Y7952049D01*
X8078919Y7952050D01*
X8083340Y7958666D01*
X8084892Y7966469D01*
Y8102288D01*
X8129719Y8147115D01*
X8129719Y8147115D01*
X8134140Y8153731D01*
X8135692Y8161535D01*
X8135692Y8161536D01*
Y8233658D01*
X8148392Y8237511D01*
X8153566Y8229766D01*
X8165144Y8222031D01*
X8178800Y8219314D01*
X8192456Y8222031D01*
X8204034Y8229766D01*
X8207269Y8234608D01*
X8243350D01*
X8250138Y8221908D01*
X8247431Y8217856D01*
X8244714Y8204200D01*
X8247431Y8190544D01*
X8255166Y8178966D01*
X8266744Y8171231D01*
X8280400Y8168514D01*
X8294056Y8171231D01*
X8305634Y8178966D01*
X8313369Y8190544D01*
X8316086Y8204200D01*
X8313369Y8217856D01*
X8310662Y8221908D01*
X8317450Y8234608D01*
X8484556D01*
X8492360Y8236160D01*
X8498976Y8240581D01*
X8526708Y8268313D01*
X8539408Y8263053D01*
Y8201828D01*
X8534566Y8198593D01*
X8526831Y8187015D01*
X8524114Y8173359D01*
X8526831Y8159703D01*
X8534566Y8148125D01*
X8546144Y8140390D01*
X8559800Y8137673D01*
X8573456Y8140390D01*
X8577508Y8143097D01*
X8590208Y8136309D01*
Y7870448D01*
X8591760Y7862644D01*
X8596181Y7856028D01*
X8614808Y7837402D01*
Y7824965D01*
X8604858Y7817871D01*
X8595428Y7822911D01*
X8595486Y7823200D01*
X8592769Y7836856D01*
X8585034Y7848434D01*
X8573456Y7856169D01*
X8559800Y7858886D01*
X8546144Y7856169D01*
X8543572Y7854451D01*
X8531986Y7861300D01*
X8529269Y7874956D01*
X8521534Y7886534D01*
X8509956Y7894269D01*
X8496300Y7896986D01*
X8486490Y7895034D01*
X8481534Y7906997D01*
X8483434Y7908266D01*
X8491169Y7919844D01*
X8493886Y7933500D01*
X8491169Y7947156D01*
X8483434Y7958734D01*
X8471856Y7966469D01*
X8458200Y7969186D01*
X8444544Y7966469D01*
X8432966Y7958734D01*
X8425231Y7947156D01*
X8422514Y7933500D01*
X8425231Y7919844D01*
X8432966Y7908266D01*
X8444544Y7900531D01*
X8458200Y7897814D01*
X8468010Y7899766D01*
X8472966Y7887803D01*
X8471066Y7886534D01*
X8463331Y7874956D01*
X8460614Y7861300D01*
X8463331Y7847644D01*
X8471066Y7836066D01*
X8482644Y7828331D01*
X8496300Y7825614D01*
X8509956Y7828331D01*
X8512528Y7830049D01*
X8524114Y7823200D01*
X8526831Y7809544D01*
X8534566Y7797966D01*
X8546144Y7790231D01*
X8548110Y7789840D01*
X8554405Y7775638D01*
X8553169Y7773576D01*
X8490377D01*
X8476358Y7787595D01*
X8476882Y7790231D01*
X8474166Y7803887D01*
X8466430Y7815464D01*
X8454853Y7823200D01*
X8441196Y7825917D01*
X8427540Y7823200D01*
X8415963Y7815464D01*
X8408227Y7803887D01*
X8405511Y7790231D01*
X8408227Y7776574D01*
X8415963Y7764997D01*
X8427540Y7757262D01*
X8441196Y7754545D01*
X8449983Y7756293D01*
X8467511Y7738765D01*
X8467512Y7738765D01*
X8474127Y7734344D01*
X8481931Y7732792D01*
X8481932Y7732792D01*
X8572500D01*
X8580304Y7734344D01*
X8586919Y7738765D01*
X8650253Y7802098D01*
X8654673Y7808714D01*
X8656226Y7816518D01*
Y7845214D01*
X8654673Y7853018D01*
X8650253Y7859634D01*
X8630992Y7878895D01*
Y8213831D01*
X8635834Y8217066D01*
X8639069Y8221908D01*
X8658439D01*
X8693349Y8186998D01*
X8693350Y8186998D01*
X8699966Y8182577D01*
X8707769Y8181025D01*
X8707770Y8181025D01*
X8755937D01*
X8763741Y8182577D01*
X8770357Y8186998D01*
X8868767Y8285408D01*
X8891050D01*
X8897838Y8272708D01*
X8895131Y8268656D01*
X8892414Y8255000D01*
X8895131Y8241344D01*
X8902866Y8229766D01*
X8914444Y8222031D01*
X8928100Y8219314D01*
X8941756Y8222031D01*
X8953334Y8229766D01*
X8961069Y8241344D01*
X8963786Y8255000D01*
X8961069Y8268656D01*
X8958362Y8272708D01*
X8965150Y8285408D01*
X9198381D01*
X9206184Y8286960D01*
X9212800Y8291381D01*
X9232227Y8310808D01*
X9544741D01*
X9552544Y8312360D01*
X9559160Y8316781D01*
X9650541Y8408162D01*
X9652000Y8407872D01*
X9663705Y8410200D01*
X9673629Y8416831D01*
X9680259Y8426754D01*
X9682588Y8438459D01*
Y8540431D01*
X9702431Y8548650D01*
X9723321Y8564679D01*
X9739350Y8585569D01*
X9749426Y8609895D01*
X9752863Y8636000D01*
X9749426Y8662105D01*
X9739350Y8686431D01*
X9723321Y8707321D01*
X9702431Y8723350D01*
X9678105Y8733426D01*
X9652000Y8736863D01*
X9625895Y8733426D01*
X9601569Y8723350D01*
X9580679Y8707321D01*
X9564650Y8686431D01*
X9558092Y8670598D01*
X9545392Y8673124D01*
Y8877379D01*
X9650541Y8982528D01*
X9652000Y8982238D01*
X9663705Y8984566D01*
X9673629Y8991197D01*
X9680259Y9001120D01*
X9682588Y9012826D01*
Y9048431D01*
X9702431Y9056650D01*
X9723321Y9072679D01*
X9739350Y9093569D01*
X9749426Y9117895D01*
X9752863Y9144000D01*
X9749426Y9170105D01*
X9739350Y9194431D01*
X9723321Y9215321D01*
X9702431Y9231350D01*
X9678105Y9241426D01*
X9652000Y9244863D01*
D02*
G37*
G36*
X6619000Y8740940D02*
Y8651000D01*
X6708940D01*
X6707271Y8663672D01*
X6696591Y8689457D01*
X6679600Y8711600D01*
X6657457Y8728591D01*
X6631672Y8739271D01*
X6619000Y8740940D01*
D02*
G37*
G36*
X6365000D02*
Y8651000D01*
X6454940D01*
X6453271Y8663672D01*
X6442591Y8689457D01*
X6425600Y8711600D01*
X6403457Y8728591D01*
X6377672Y8739271D01*
X6365000Y8740940D01*
D02*
G37*
G36*
X6589000D02*
X6576328Y8739271D01*
X6550543Y8728591D01*
X6528400Y8711600D01*
X6511409Y8689457D01*
X6500729Y8663672D01*
X6499060Y8651000D01*
X6589000D01*
Y8740940D01*
D02*
G37*
G36*
X6335000D02*
X6322328Y8739271D01*
X6296543Y8728591D01*
X6274400Y8711600D01*
X6257409Y8689457D01*
X6246729Y8663672D01*
X6245060Y8651000D01*
X6335000D01*
Y8740940D01*
D02*
G37*
G36*
X12446000Y8736863D02*
X12419895Y8733426D01*
X12395569Y8723350D01*
X12374679Y8707321D01*
X12358650Y8686431D01*
X12348574Y8662105D01*
X12345137Y8636000D01*
X12348574Y8609895D01*
X12358650Y8585569D01*
X12374679Y8564679D01*
X12395569Y8548650D01*
X12419895Y8538574D01*
X12446000Y8535137D01*
X12472105Y8538574D01*
X12496431Y8548650D01*
X12517321Y8564679D01*
X12533350Y8585569D01*
X12543426Y8609895D01*
X12546863Y8636000D01*
X12543426Y8662105D01*
X12533350Y8686431D01*
X12517321Y8707321D01*
X12496431Y8723350D01*
X12472105Y8733426D01*
X12446000Y8736863D01*
D02*
G37*
G36*
X12192000D02*
X12165895Y8733426D01*
X12141569Y8723350D01*
X12120679Y8707321D01*
X12104650Y8686431D01*
X12094574Y8662105D01*
X12091137Y8636000D01*
X12094574Y8609895D01*
X12104650Y8585569D01*
X12120679Y8564679D01*
X12141569Y8548650D01*
X12165895Y8538574D01*
X12192000Y8535137D01*
X12218105Y8538574D01*
X12242431Y8548650D01*
X12263321Y8564679D01*
X12279350Y8585569D01*
X12289426Y8609895D01*
X12292863Y8636000D01*
X12289426Y8662105D01*
X12279350Y8686431D01*
X12263321Y8707321D01*
X12242431Y8723350D01*
X12218105Y8733426D01*
X12192000Y8736863D01*
D02*
G37*
G36*
X11938000D02*
X11911895Y8733426D01*
X11887569Y8723350D01*
X11866679Y8707321D01*
X11850650Y8686431D01*
X11840574Y8662105D01*
X11837137Y8636000D01*
X11840574Y8609895D01*
X11850650Y8585569D01*
X11866679Y8564679D01*
X11887569Y8548650D01*
X11911895Y8538574D01*
X11938000Y8535137D01*
X11964105Y8538574D01*
X11988431Y8548650D01*
X12009321Y8564679D01*
X12025350Y8585569D01*
X12035426Y8609895D01*
X12038863Y8636000D01*
X12035426Y8662105D01*
X12025350Y8686431D01*
X12009321Y8707321D01*
X11988431Y8723350D01*
X11964105Y8733426D01*
X11938000Y8736863D01*
D02*
G37*
G36*
X11684000D02*
X11657895Y8733426D01*
X11633569Y8723350D01*
X11612679Y8707321D01*
X11596650Y8686431D01*
X11586574Y8662105D01*
X11583137Y8636000D01*
X11586574Y8609895D01*
X11596650Y8585569D01*
X11612679Y8564679D01*
X11633569Y8548650D01*
X11657895Y8538574D01*
X11684000Y8535137D01*
X11710105Y8538574D01*
X11734431Y8548650D01*
X11755321Y8564679D01*
X11771350Y8585569D01*
X11781426Y8609895D01*
X11784863Y8636000D01*
X11781426Y8662105D01*
X11771350Y8686431D01*
X11755321Y8707321D01*
X11734431Y8723350D01*
X11710105Y8733426D01*
X11684000Y8736863D01*
D02*
G37*
G36*
X11430000D02*
X11403895Y8733426D01*
X11379569Y8723350D01*
X11358679Y8707321D01*
X11342650Y8686431D01*
X11332574Y8662105D01*
X11329137Y8636000D01*
X11332574Y8609895D01*
X11342650Y8585569D01*
X11358679Y8564679D01*
X11379569Y8548650D01*
X11403895Y8538574D01*
X11430000Y8535137D01*
X11456105Y8538574D01*
X11480431Y8548650D01*
X11501321Y8564679D01*
X11517350Y8585569D01*
X11527426Y8609895D01*
X11530863Y8636000D01*
X11527426Y8662105D01*
X11517350Y8686431D01*
X11501321Y8707321D01*
X11480431Y8723350D01*
X11456105Y8733426D01*
X11430000Y8736863D01*
D02*
G37*
G36*
X11176000D02*
X11149895Y8733426D01*
X11125569Y8723350D01*
X11104679Y8707321D01*
X11088650Y8686431D01*
X11078574Y8662105D01*
X11075137Y8636000D01*
X11078574Y8609895D01*
X11088650Y8585569D01*
X11104679Y8564679D01*
X11125569Y8548650D01*
X11149895Y8538574D01*
X11176000Y8535137D01*
X11202105Y8538574D01*
X11226431Y8548650D01*
X11247321Y8564679D01*
X11263350Y8585569D01*
X11273426Y8609895D01*
X11276863Y8636000D01*
X11273426Y8662105D01*
X11263350Y8686431D01*
X11247321Y8707321D01*
X11226431Y8723350D01*
X11202105Y8733426D01*
X11176000Y8736863D01*
D02*
G37*
G36*
X10922000D02*
X10895895Y8733426D01*
X10871569Y8723350D01*
X10850679Y8707321D01*
X10834650Y8686431D01*
X10824574Y8662105D01*
X10821137Y8636000D01*
X10824574Y8609895D01*
X10834650Y8585569D01*
X10850679Y8564679D01*
X10871569Y8548650D01*
X10895895Y8538574D01*
X10922000Y8535137D01*
X10948105Y8538574D01*
X10972431Y8548650D01*
X10993321Y8564679D01*
X11009350Y8585569D01*
X11019426Y8609895D01*
X11022863Y8636000D01*
X11019426Y8662105D01*
X11009350Y8686431D01*
X10993321Y8707321D01*
X10972431Y8723350D01*
X10948105Y8733426D01*
X10922000Y8736863D01*
D02*
G37*
G36*
X10668000D02*
X10641895Y8733426D01*
X10617569Y8723350D01*
X10596679Y8707321D01*
X10580650Y8686431D01*
X10570574Y8662105D01*
X10567137Y8636000D01*
X10570574Y8609895D01*
X10580650Y8585569D01*
X10596679Y8564679D01*
X10617569Y8548650D01*
X10641895Y8538574D01*
X10668000Y8535137D01*
X10694105Y8538574D01*
X10718431Y8548650D01*
X10739321Y8564679D01*
X10755350Y8585569D01*
X10765426Y8609895D01*
X10768863Y8636000D01*
X10765426Y8662105D01*
X10755350Y8686431D01*
X10739321Y8707321D01*
X10718431Y8723350D01*
X10694105Y8733426D01*
X10668000Y8736863D01*
D02*
G37*
G36*
X10414000D02*
X10387895Y8733426D01*
X10363569Y8723350D01*
X10342679Y8707321D01*
X10326650Y8686431D01*
X10316574Y8662105D01*
X10313137Y8636000D01*
X10316574Y8609895D01*
X10326650Y8585569D01*
X10342679Y8564679D01*
X10363569Y8548650D01*
X10387895Y8538574D01*
X10414000Y8535137D01*
X10440105Y8538574D01*
X10464431Y8548650D01*
X10485321Y8564679D01*
X10501350Y8585569D01*
X10511426Y8609895D01*
X10514863Y8636000D01*
X10511426Y8662105D01*
X10501350Y8686431D01*
X10485321Y8707321D01*
X10464431Y8723350D01*
X10440105Y8733426D01*
X10414000Y8736863D01*
D02*
G37*
G36*
X10160000D02*
X10133895Y8733426D01*
X10109569Y8723350D01*
X10088679Y8707321D01*
X10072650Y8686431D01*
X10062574Y8662105D01*
X10059137Y8636000D01*
X10062574Y8609895D01*
X10072650Y8585569D01*
X10088679Y8564679D01*
X10109569Y8548650D01*
X10133895Y8538574D01*
X10160000Y8535137D01*
X10186105Y8538574D01*
X10210431Y8548650D01*
X10231321Y8564679D01*
X10247350Y8585569D01*
X10257426Y8609895D01*
X10260863Y8636000D01*
X10257426Y8662105D01*
X10247350Y8686431D01*
X10231321Y8707321D01*
X10210431Y8723350D01*
X10186105Y8733426D01*
X10160000Y8736863D01*
D02*
G37*
G36*
X9906000D02*
X9879895Y8733426D01*
X9855569Y8723350D01*
X9834679Y8707321D01*
X9818650Y8686431D01*
X9808574Y8662105D01*
X9805137Y8636000D01*
X9808574Y8609895D01*
X9818650Y8585569D01*
X9834679Y8564679D01*
X9855569Y8548650D01*
X9879895Y8538574D01*
X9906000Y8535137D01*
X9932105Y8538574D01*
X9956431Y8548650D01*
X9977321Y8564679D01*
X9993350Y8585569D01*
X10003426Y8609895D01*
X10006863Y8636000D01*
X10003426Y8662105D01*
X9993350Y8686431D01*
X9977321Y8707321D01*
X9956431Y8723350D01*
X9932105Y8733426D01*
X9906000Y8736863D01*
D02*
G37*
G36*
X8890000D02*
X8863895Y8733426D01*
X8839569Y8723350D01*
X8818679Y8707321D01*
X8802650Y8686431D01*
X8792574Y8662105D01*
X8789137Y8636000D01*
X8792574Y8609895D01*
X8802650Y8585569D01*
X8818679Y8564679D01*
X8839569Y8548650D01*
X8863895Y8538574D01*
X8890000Y8535137D01*
X8916105Y8538574D01*
X8940431Y8548650D01*
X8961321Y8564679D01*
X8977350Y8585569D01*
X8987426Y8609895D01*
X8990863Y8636000D01*
X8987426Y8662105D01*
X8977350Y8686431D01*
X8961321Y8707321D01*
X8940431Y8723350D01*
X8916105Y8733426D01*
X8890000Y8736863D01*
D02*
G37*
G36*
X8128000D02*
X8101895Y8733426D01*
X8077569Y8723350D01*
X8056679Y8707321D01*
X8040650Y8686431D01*
X8030574Y8662105D01*
X8027137Y8636000D01*
X8030574Y8609895D01*
X8040650Y8585569D01*
X8056679Y8564679D01*
X8077569Y8548650D01*
X8101895Y8538574D01*
X8128000Y8535137D01*
X8154105Y8538574D01*
X8178431Y8548650D01*
X8199321Y8564679D01*
X8215350Y8585569D01*
X8225426Y8609895D01*
X8228863Y8636000D01*
X8225426Y8662105D01*
X8215350Y8686431D01*
X8199321Y8707321D01*
X8178431Y8723350D01*
X8154105Y8733426D01*
X8128000Y8736863D01*
D02*
G37*
G36*
X7874000D02*
X7847895Y8733426D01*
X7823569Y8723350D01*
X7802679Y8707321D01*
X7786650Y8686431D01*
X7776574Y8662105D01*
X7773137Y8636000D01*
X7776574Y8609895D01*
X7786650Y8585569D01*
X7802679Y8564679D01*
X7823569Y8548650D01*
X7847895Y8538574D01*
X7874000Y8535137D01*
X7900105Y8538574D01*
X7924431Y8548650D01*
X7945321Y8564679D01*
X7961350Y8585569D01*
X7971426Y8609895D01*
X7974863Y8636000D01*
X7971426Y8662105D01*
X7961350Y8686431D01*
X7945321Y8707321D01*
X7924431Y8723350D01*
X7900105Y8733426D01*
X7874000Y8736863D01*
D02*
G37*
G36*
X7620000D02*
X7593895Y8733426D01*
X7569569Y8723350D01*
X7548679Y8707321D01*
X7532650Y8686431D01*
X7522574Y8662105D01*
X7519137Y8636000D01*
X7522574Y8609895D01*
X7532650Y8585569D01*
X7548679Y8564679D01*
X7569569Y8548650D01*
X7593895Y8538574D01*
X7620000Y8535137D01*
X7646105Y8538574D01*
X7670431Y8548650D01*
X7691321Y8564679D01*
X7707350Y8585569D01*
X7717426Y8609895D01*
X7720863Y8636000D01*
X7717426Y8662105D01*
X7707350Y8686431D01*
X7691321Y8707321D01*
X7670431Y8723350D01*
X7646105Y8733426D01*
X7620000Y8736863D01*
D02*
G37*
G36*
X7366000D02*
X7339895Y8733426D01*
X7315569Y8723350D01*
X7294679Y8707321D01*
X7278650Y8686431D01*
X7268574Y8662105D01*
X7265137Y8636000D01*
X7268574Y8609895D01*
X7278650Y8585569D01*
X7294679Y8564679D01*
X7315569Y8548650D01*
X7339895Y8538574D01*
X7366000Y8535137D01*
X7392105Y8538574D01*
X7416431Y8548650D01*
X7437321Y8564679D01*
X7453350Y8585569D01*
X7463426Y8609895D01*
X7466863Y8636000D01*
X7463426Y8662105D01*
X7453350Y8686431D01*
X7437321Y8707321D01*
X7416431Y8723350D01*
X7392105Y8733426D01*
X7366000Y8736863D01*
D02*
G37*
G36*
X7112000D02*
X7085895Y8733426D01*
X7061569Y8723350D01*
X7040679Y8707321D01*
X7024650Y8686431D01*
X7014574Y8662105D01*
X7011137Y8636000D01*
X7014574Y8609895D01*
X7024650Y8585569D01*
X7040679Y8564679D01*
X7061569Y8548650D01*
X7085895Y8538574D01*
X7112000Y8535137D01*
X7138105Y8538574D01*
X7162431Y8548650D01*
X7183321Y8564679D01*
X7199350Y8585569D01*
X7209426Y8609895D01*
X7212863Y8636000D01*
X7209426Y8662105D01*
X7199350Y8686431D01*
X7183321Y8707321D01*
X7162431Y8723350D01*
X7138105Y8733426D01*
X7112000Y8736863D01*
D02*
G37*
G36*
X6858000D02*
X6831895Y8733426D01*
X6807569Y8723350D01*
X6786679Y8707321D01*
X6770650Y8686431D01*
X6760574Y8662105D01*
X6757137Y8636000D01*
X6760574Y8609895D01*
X6770650Y8585569D01*
X6786679Y8564679D01*
X6807569Y8548650D01*
X6831895Y8538574D01*
X6858000Y8535137D01*
X6884105Y8538574D01*
X6908431Y8548650D01*
X6929321Y8564679D01*
X6945350Y8585569D01*
X6955426Y8609895D01*
X6958863Y8636000D01*
X6955426Y8662105D01*
X6945350Y8686431D01*
X6929321Y8707321D01*
X6908431Y8723350D01*
X6884105Y8733426D01*
X6858000Y8736863D01*
D02*
G37*
G36*
X6708940Y8621000D02*
X6619000D01*
Y8531060D01*
X6631672Y8532729D01*
X6657457Y8543409D01*
X6679600Y8560400D01*
X6696591Y8582543D01*
X6707271Y8608328D01*
X6708940Y8621000D01*
D02*
G37*
G36*
X6454940D02*
X6365000D01*
Y8531060D01*
X6377672Y8532729D01*
X6403457Y8543409D01*
X6425600Y8560400D01*
X6442591Y8582543D01*
X6453271Y8608328D01*
X6454940Y8621000D01*
D02*
G37*
G36*
X6589000D02*
X6499060D01*
X6500729Y8608328D01*
X6511409Y8582543D01*
X6528400Y8560400D01*
X6550543Y8543409D01*
X6576328Y8532729D01*
X6589000Y8531060D01*
Y8621000D01*
D02*
G37*
G36*
X6335000D02*
X6245060D01*
X6246729Y8608328D01*
X6257409Y8582543D01*
X6274400Y8560400D01*
X6296543Y8543409D01*
X6322328Y8532729D01*
X6335000Y8531060D01*
Y8621000D01*
D02*
G37*
G36*
X12475200Y8293540D02*
Y8269721D01*
X12499019D01*
X12498821Y8270718D01*
X12489759Y8284280D01*
X12476197Y8293342D01*
X12475200Y8293540D01*
D02*
G37*
G36*
X12445200D02*
X12444202Y8293342D01*
X12430641Y8284280D01*
X12421579Y8270718D01*
X12421381Y8269721D01*
X12445200D01*
Y8293540D01*
D02*
G37*
G36*
X9277600Y8285236D02*
Y8261417D01*
X9301419D01*
X9301221Y8262414D01*
X9292159Y8275976D01*
X9278597Y8285038D01*
X9277600Y8285236D01*
D02*
G37*
G36*
X9247600D02*
X9246603Y8285038D01*
X9233041Y8275976D01*
X9223979Y8262414D01*
X9223781Y8261417D01*
X9247600D01*
Y8285236D01*
D02*
G37*
G36*
X8034660D02*
X8033662Y8285038D01*
X8020101Y8275976D01*
X8011039Y8262414D01*
X8010840Y8261417D01*
X8034660D01*
Y8285236D01*
D02*
G37*
G36*
X11938000Y8290686D02*
X11924344Y8287969D01*
X11912766Y8280234D01*
X11905031Y8268656D01*
X11902314Y8255000D01*
X11905031Y8241344D01*
X11912766Y8229766D01*
X11924344Y8222031D01*
X11938000Y8219314D01*
X11951656Y8222031D01*
X11963234Y8229766D01*
X11970969Y8241344D01*
X11973686Y8255000D01*
X11970969Y8268656D01*
X11963234Y8280234D01*
X11951656Y8287969D01*
X11938000Y8290686D01*
D02*
G37*
G36*
X10156062D02*
X10142406Y8287969D01*
X10130829Y8280234D01*
X10123093Y8268656D01*
X10120377Y8255000D01*
X10123093Y8241344D01*
X10130829Y8229766D01*
X10142406Y8222031D01*
X10156062Y8219314D01*
X10169719Y8222031D01*
X10181296Y8229766D01*
X10189032Y8241344D01*
X10191748Y8255000D01*
X10189032Y8268656D01*
X10181296Y8280234D01*
X10169719Y8287969D01*
X10156062Y8290686D01*
D02*
G37*
G36*
X11430000Y8290407D02*
X11416344Y8287690D01*
X11404766Y8279954D01*
X11397031Y8268377D01*
X11394314Y8254721D01*
X11397031Y8241065D01*
X11404766Y8229487D01*
X11416344Y8221752D01*
X11430000Y8219035D01*
X11443656Y8221752D01*
X11455234Y8229487D01*
X11462969Y8241065D01*
X11465686Y8254721D01*
X11462969Y8268377D01*
X11455234Y8279954D01*
X11443656Y8287690D01*
X11430000Y8290407D01*
D02*
G37*
G36*
X10617200Y8288795D02*
X10603544Y8286079D01*
X10591966Y8278343D01*
X10584231Y8266766D01*
X10581514Y8253110D01*
X10584231Y8239453D01*
X10591966Y8227876D01*
X10603544Y8220141D01*
X10617200Y8217424D01*
X10630856Y8220141D01*
X10642434Y8227876D01*
X10650169Y8239453D01*
X10652886Y8253110D01*
X10650169Y8266766D01*
X10642434Y8278343D01*
X10630856Y8286079D01*
X10617200Y8288795D01*
D02*
G37*
G36*
X10464800D02*
X10451144Y8286079D01*
X10439566Y8278343D01*
X10431831Y8266766D01*
X10429114Y8253110D01*
X10431831Y8239453D01*
X10439566Y8227876D01*
X10451144Y8220141D01*
X10464800Y8217424D01*
X10478456Y8220141D01*
X10490034Y8227876D01*
X10497769Y8239453D01*
X10500486Y8253110D01*
X10497769Y8266766D01*
X10490034Y8278343D01*
X10478456Y8286079D01*
X10464800Y8288795D01*
D02*
G37*
G36*
X12499019Y8239721D02*
X12475200D01*
Y8215902D01*
X12476197Y8216100D01*
X12489759Y8225162D01*
X12498821Y8238723D01*
X12499019Y8239721D01*
D02*
G37*
G36*
X12445200D02*
X12421381D01*
X12421579Y8238723D01*
X12430641Y8225162D01*
X12444202Y8216100D01*
X12445200Y8215902D01*
Y8239721D01*
D02*
G37*
G36*
X9019300Y8231819D02*
Y8208000D01*
X9043119D01*
X9042921Y8208997D01*
X9033859Y8222559D01*
X9020297Y8231621D01*
X9019300Y8231819D01*
D02*
G37*
G36*
X8989300D02*
X8988303Y8231621D01*
X8974741Y8222559D01*
X8965679Y8208997D01*
X8965481Y8208000D01*
X8989300D01*
Y8231819D01*
D02*
G37*
G36*
X9301419Y8231417D02*
X9277600D01*
Y8207598D01*
X9278597Y8207796D01*
X9292159Y8216858D01*
X9301221Y8230419D01*
X9301419Y8231417D01*
D02*
G37*
G36*
X9247600D02*
X9223781D01*
X9223979Y8230419D01*
X9233041Y8216858D01*
X9246603Y8207796D01*
X9247600Y8207598D01*
Y8231417D01*
D02*
G37*
G36*
X8034660D02*
X8010840D01*
X8011039Y8230419D01*
X8020101Y8216858D01*
X8033662Y8207796D01*
X8034660Y8207598D01*
Y8231417D01*
D02*
G37*
G36*
X7645400Y8277986D02*
X7631744Y8275269D01*
X7620166Y8267534D01*
X7612431Y8255956D01*
X7609714Y8242300D01*
X7612431Y8228644D01*
X7620166Y8217066D01*
X7631744Y8209331D01*
X7645400Y8206614D01*
X7659056Y8209331D01*
X7670634Y8217066D01*
X7678369Y8228644D01*
X7681086Y8242300D01*
X7678369Y8255956D01*
X7670634Y8267534D01*
X7659056Y8275269D01*
X7645400Y8277986D01*
D02*
G37*
G36*
X11811980Y8214549D02*
Y8190730D01*
X11835800D01*
X11835601Y8191727D01*
X11826540Y8205289D01*
X11812978Y8214351D01*
X11811980Y8214549D01*
D02*
G37*
G36*
X11781981D02*
X11780983Y8214351D01*
X11767421Y8205289D01*
X11758360Y8191727D01*
X11758161Y8190730D01*
X11781981D01*
Y8214549D01*
D02*
G37*
G36*
X12331700Y8252586D02*
X12318044Y8249869D01*
X12306466Y8242134D01*
X12298731Y8230556D01*
X12296014Y8216900D01*
X12298731Y8203244D01*
X12306466Y8191666D01*
X12318044Y8183931D01*
X12331700Y8181214D01*
X12345356Y8183931D01*
X12356934Y8191666D01*
X12364669Y8203244D01*
X12367386Y8216900D01*
X12364669Y8230556D01*
X12356934Y8242134D01*
X12345356Y8249869D01*
X12331700Y8252586D01*
D02*
G37*
G36*
X12204700D02*
X12191044Y8249869D01*
X12179466Y8242134D01*
X12171731Y8230556D01*
X12169014Y8216900D01*
X12171731Y8203244D01*
X12179466Y8191666D01*
X12191044Y8183931D01*
X12204700Y8181214D01*
X12218356Y8183931D01*
X12229934Y8191666D01*
X12237669Y8203244D01*
X12240386Y8216900D01*
X12237669Y8230556D01*
X12229934Y8242134D01*
X12218356Y8249869D01*
X12204700Y8252586D01*
D02*
G37*
G36*
X11506200D02*
X11492544Y8249869D01*
X11480966Y8242134D01*
X11473231Y8230556D01*
X11470514Y8216900D01*
X11473231Y8203244D01*
X11480966Y8191666D01*
X11492544Y8183931D01*
X11506200Y8181214D01*
X11519856Y8183931D01*
X11531434Y8191666D01*
X11539169Y8203244D01*
X11541886Y8216900D01*
X11539169Y8230556D01*
X11531434Y8242134D01*
X11519856Y8249869D01*
X11506200Y8252586D01*
D02*
G37*
G36*
X10693400D02*
X10679744Y8249869D01*
X10668166Y8242134D01*
X10660431Y8230556D01*
X10657714Y8216900D01*
X10660431Y8203244D01*
X10668166Y8191666D01*
X10679744Y8183931D01*
X10693400Y8181214D01*
X10707056Y8183931D01*
X10718634Y8191666D01*
X10726369Y8203244D01*
X10729086Y8216900D01*
X10726369Y8230556D01*
X10718634Y8242134D01*
X10707056Y8249869D01*
X10693400Y8252586D01*
D02*
G37*
G36*
X8835406Y8182619D02*
Y8158800D01*
X8859226D01*
X8859027Y8159797D01*
X8849966Y8173359D01*
X8836404Y8182421D01*
X8835406Y8182619D01*
D02*
G37*
G36*
X8805406D02*
X8804409Y8182421D01*
X8790847Y8173359D01*
X8781785Y8159797D01*
X8781587Y8158800D01*
X8805406D01*
Y8182619D01*
D02*
G37*
G36*
X11290300Y8229439D02*
X11276643Y8226723D01*
X11265066Y8218987D01*
X11257331Y8207410D01*
X11254614Y8193753D01*
X11257331Y8180097D01*
X11265066Y8168520D01*
X11276643Y8160784D01*
X11290300Y8158068D01*
X11303956Y8160784D01*
X11315533Y8168520D01*
X11323269Y8180097D01*
X11325985Y8193753D01*
X11323269Y8207410D01*
X11315533Y8218987D01*
X11303956Y8226723D01*
X11290300Y8229439D01*
D02*
G37*
G36*
X9043119Y8178000D02*
X9019300D01*
Y8154181D01*
X9020297Y8154379D01*
X9033859Y8163441D01*
X9042921Y8177002D01*
X9043119Y8178000D01*
D02*
G37*
G36*
X8989300D02*
X8965481D01*
X8965679Y8177002D01*
X8974741Y8163441D01*
X8988303Y8154379D01*
X8989300Y8154181D01*
Y8178000D01*
D02*
G37*
G36*
X12039600Y8211415D02*
X12025944Y8208699D01*
X12014366Y8200963D01*
X12006631Y8189386D01*
X12003914Y8175730D01*
X12006631Y8162073D01*
X12014366Y8150496D01*
X12025944Y8142760D01*
X12039600Y8140044D01*
X12053256Y8142760D01*
X12064834Y8150496D01*
X12072569Y8162073D01*
X12075286Y8175730D01*
X12072569Y8189386D01*
X12064834Y8200963D01*
X12053256Y8208699D01*
X12039600Y8211415D01*
D02*
G37*
G36*
X11835800Y8160730D02*
X11811980D01*
Y8136910D01*
X11812978Y8137109D01*
X11826540Y8146170D01*
X11835601Y8159732D01*
X11835800Y8160730D01*
D02*
G37*
G36*
X11781981D02*
X11758161D01*
X11758360Y8159732D01*
X11767421Y8146170D01*
X11780983Y8137109D01*
X11781981Y8136910D01*
Y8160730D01*
D02*
G37*
G36*
X10677939Y8156100D02*
Y8132281D01*
X10701758D01*
X10701560Y8133278D01*
X10692498Y8146840D01*
X10678936Y8155902D01*
X10677939Y8156100D01*
D02*
G37*
G36*
X10647939D02*
X10646941Y8155902D01*
X10633380Y8146840D01*
X10624318Y8133278D01*
X10624119Y8132281D01*
X10647939D01*
Y8156100D01*
D02*
G37*
G36*
X8432966Y8201786D02*
X8419310Y8199069D01*
X8407733Y8191334D01*
X8399997Y8179756D01*
X8397281Y8166100D01*
X8398417Y8160389D01*
X8380281Y8142253D01*
X8375860Y8135637D01*
X8374308Y8127834D01*
Y7991903D01*
X8354881Y7972476D01*
X8350460Y7965860D01*
X8348908Y7958056D01*
Y7767568D01*
X8259832Y7678492D01*
X8227789D01*
X8224554Y7683334D01*
X8218269Y7687533D01*
X8217447Y7688083D01*
X8222402Y7700046D01*
X8223208Y7699886D01*
X8229600Y7698614D01*
X8243256Y7701331D01*
X8254834Y7709066D01*
X8262569Y7720644D01*
X8265286Y7734300D01*
X8262569Y7747956D01*
X8261313Y7749836D01*
X8267700Y7761514D01*
X8281356Y7764231D01*
X8292934Y7771966D01*
X8300669Y7783544D01*
X8303386Y7797200D01*
X8300669Y7810856D01*
X8294047Y7820767D01*
X8295950Y7828702D01*
X8298495Y7833992D01*
X8306756Y7835635D01*
X8318334Y7843371D01*
X8326069Y7854948D01*
X8328786Y7868604D01*
X8326069Y7882261D01*
X8318334Y7893838D01*
X8309917Y7899462D01*
X8309149Y7902376D01*
Y7910659D01*
X8309917Y7913573D01*
X8318334Y7919198D01*
X8326069Y7930775D01*
X8328786Y7944431D01*
X8326069Y7958087D01*
X8318334Y7969665D01*
X8306756Y7977400D01*
X8293100Y7980117D01*
X8279444Y7977400D01*
X8267866Y7969665D01*
X8260131Y7958087D01*
X8257414Y7944431D01*
X8260131Y7930775D01*
X8267866Y7919198D01*
X8276283Y7913573D01*
X8277051Y7910659D01*
Y7902376D01*
X8276283Y7899462D01*
X8267866Y7893838D01*
X8260131Y7882261D01*
X8257414Y7868604D01*
X8260131Y7854948D01*
X8266753Y7845037D01*
X8264850Y7837102D01*
X8262305Y7831813D01*
X8254044Y7830169D01*
X8242466Y7822434D01*
X8234731Y7810856D01*
X8232014Y7797200D01*
X8234731Y7783544D01*
X8235987Y7781664D01*
X8229600Y7769986D01*
X8215944Y7767269D01*
X8204366Y7759534D01*
X8196631Y7747956D01*
X8193914Y7734300D01*
X8196631Y7720644D01*
X8204366Y7709066D01*
X8210652Y7704867D01*
X8211474Y7704317D01*
X8206519Y7692354D01*
X8205713Y7692514D01*
X8199321Y7693786D01*
X8185664Y7691069D01*
X8174087Y7683334D01*
X8166351Y7671756D01*
X8164257Y7661226D01*
X8158393Y7657841D01*
X8155691Y7656855D01*
X8151287Y7656164D01*
X8141656Y7662599D01*
X8128000Y7665315D01*
X8114344Y7662599D01*
X8102766Y7654863D01*
X8095031Y7643286D01*
X8092314Y7629630D01*
X8095031Y7615973D01*
X8102766Y7604396D01*
X8114344Y7596660D01*
X8128000Y7593944D01*
X8141656Y7596660D01*
X8153234Y7604396D01*
X8160969Y7615973D01*
X8163064Y7626504D01*
X8168928Y7629889D01*
X8171629Y7630875D01*
X8176034Y7631565D01*
X8185664Y7625131D01*
X8199321Y7622414D01*
X8212977Y7625131D01*
X8224554Y7632866D01*
X8227789Y7637708D01*
X8268279D01*
X8276083Y7639260D01*
X8282698Y7643681D01*
X8383719Y7744701D01*
X8383719Y7744702D01*
X8388140Y7751317D01*
X8389692Y7759121D01*
Y7949609D01*
X8409119Y7969036D01*
X8409119Y7969037D01*
X8413540Y7975653D01*
X8415092Y7983456D01*
Y8119387D01*
X8427255Y8131550D01*
X8432966Y8130414D01*
X8446623Y8133131D01*
X8458200Y8140866D01*
X8465936Y8152444D01*
X8468652Y8166100D01*
X8465936Y8179756D01*
X8458200Y8191334D01*
X8446623Y8199069D01*
X8432966Y8201786D01*
D02*
G37*
G36*
X9902040Y8189862D02*
X9888384Y8187145D01*
X9876807Y8179410D01*
X9869071Y8167832D01*
X9866355Y8154176D01*
X9869071Y8140520D01*
X9876807Y8128942D01*
X9888384Y8121207D01*
X9902040Y8118490D01*
X9915697Y8121207D01*
X9927274Y8128942D01*
X9935010Y8140520D01*
X9937726Y8154176D01*
X9935010Y8167832D01*
X9927274Y8179410D01*
X9915697Y8187145D01*
X9902040Y8189862D01*
D02*
G37*
G36*
X7950200Y8189086D02*
X7936544Y8186369D01*
X7924966Y8178634D01*
X7917231Y8167056D01*
X7914514Y8153400D01*
X7917231Y8139744D01*
X7924966Y8128166D01*
X7936544Y8120431D01*
X7950200Y8117714D01*
X7963856Y8120431D01*
X7975434Y8128166D01*
X7983169Y8139744D01*
X7985886Y8153400D01*
X7983169Y8167056D01*
X7975434Y8178634D01*
X7963856Y8186369D01*
X7950200Y8189086D01*
D02*
G37*
G36*
X8859226Y8128800D02*
X8835406D01*
Y8104980D01*
X8836404Y8105179D01*
X8849966Y8114241D01*
X8859027Y8127802D01*
X8859226Y8128800D01*
D02*
G37*
G36*
X8805406D02*
X8781587D01*
X8781785Y8127802D01*
X8790847Y8114241D01*
X8804409Y8105179D01*
X8805406Y8104980D01*
Y8128800D01*
D02*
G37*
G36*
X11635500Y8128719D02*
Y8104900D01*
X11659319D01*
X11659121Y8105897D01*
X11650059Y8119459D01*
X11636497Y8128521D01*
X11635500Y8128719D01*
D02*
G37*
G36*
X11605500D02*
X11604503Y8128521D01*
X11590941Y8119459D01*
X11581879Y8105897D01*
X11581681Y8104900D01*
X11605500D01*
Y8128719D01*
D02*
G37*
G36*
X10701758Y8102281D02*
X10677939D01*
Y8078462D01*
X10678936Y8078660D01*
X10692498Y8087722D01*
X10701560Y8101284D01*
X10701758Y8102281D01*
D02*
G37*
G36*
X10647939D02*
X10624119D01*
X10624318Y8101284D01*
X10633380Y8087722D01*
X10646941Y8078660D01*
X10647939Y8078462D01*
Y8102281D01*
D02*
G37*
G36*
X12115800Y8144636D02*
X12102144Y8141919D01*
X12090566Y8134184D01*
X12082831Y8122606D01*
X12080114Y8108950D01*
X12082831Y8095294D01*
X12090566Y8083716D01*
X12102144Y8075981D01*
X12115800Y8073264D01*
X12129456Y8075981D01*
X12141034Y8083716D01*
X12148769Y8095294D01*
X12151486Y8108950D01*
X12148769Y8122606D01*
X12141034Y8134184D01*
X12129456Y8141919D01*
X12115800Y8144636D01*
D02*
G37*
G36*
X7493000Y8084186D02*
X7479344Y8081469D01*
X7467766Y8073734D01*
X7460031Y8062157D01*
X7459035Y8057151D01*
X7445553Y8054469D01*
X7441634Y8060334D01*
X7430057Y8068069D01*
X7416400Y8070786D01*
X7402744Y8068069D01*
X7391167Y8060334D01*
X7383431Y8048756D01*
X7380714Y8035100D01*
X7383431Y8021444D01*
X7391167Y8009866D01*
X7402744Y8002131D01*
X7416400Y7999414D01*
X7430057Y8002131D01*
X7441634Y8009866D01*
X7449369Y8021444D01*
X7450365Y8026450D01*
X7463848Y8029132D01*
X7467766Y8023267D01*
X7476489Y8017438D01*
X7476833Y8008839D01*
X7476585Y8006389D01*
X7475800Y8003787D01*
X7463441Y7995530D01*
X7454379Y7981968D01*
X7454181Y7980970D01*
X7531819D01*
X7531621Y7981968D01*
X7522559Y7995530D01*
X7510200Y8003787D01*
X7509415Y8006389D01*
X7509167Y8008839D01*
X7509511Y8017438D01*
X7518234Y8023267D01*
X7525969Y8034844D01*
X7528686Y8048500D01*
X7525969Y8062157D01*
X7518234Y8073734D01*
X7506656Y8081469D01*
X7493000Y8084186D01*
D02*
G37*
G36*
X11659319Y8074900D02*
X11635500D01*
Y8051081D01*
X11636497Y8051279D01*
X11650059Y8060341D01*
X11659121Y8073903D01*
X11659319Y8074900D01*
D02*
G37*
G36*
X11605500D02*
X11581681D01*
X11581879Y8073903D01*
X11590941Y8060341D01*
X11604503Y8051279D01*
X11605500Y8051081D01*
Y8074900D01*
D02*
G37*
G36*
X7838200Y8065219D02*
Y8041400D01*
X7862019D01*
X7861821Y8042397D01*
X7852759Y8055959D01*
X7839197Y8065021D01*
X7838200Y8065219D01*
D02*
G37*
G36*
X7808200D02*
X7807203Y8065021D01*
X7793641Y8055959D01*
X7784579Y8042397D01*
X7784381Y8041400D01*
X7808200D01*
Y8065219D01*
D02*
G37*
G36*
X10425200Y8039819D02*
Y8016000D01*
X10449019D01*
X10448821Y8016997D01*
X10439759Y8030559D01*
X10426197Y8039621D01*
X10425200Y8039819D01*
D02*
G37*
G36*
X10395200D02*
X10394202Y8039621D01*
X10380641Y8030559D01*
X10371579Y8016997D01*
X10371381Y8016000D01*
X10395200D01*
Y8039819D01*
D02*
G37*
G36*
X10810000Y8026119D02*
Y8002300D01*
X10833819D01*
X10833621Y8003297D01*
X10824559Y8016859D01*
X10810997Y8025921D01*
X10810000Y8026119D01*
D02*
G37*
G36*
X10780000D02*
X10779003Y8025921D01*
X10765441Y8016859D01*
X10756379Y8003297D01*
X10756181Y8002300D01*
X10780000D01*
Y8026119D01*
D02*
G37*
G36*
X12054600Y8017489D02*
Y7993670D01*
X12078419D01*
X12078221Y7994667D01*
X12069159Y8008229D01*
X12055597Y8017291D01*
X12054600Y8017489D01*
D02*
G37*
G36*
X12024600D02*
X12023603Y8017291D01*
X12010041Y8008229D01*
X12000979Y7994667D01*
X12000781Y7993670D01*
X12024600D01*
Y8017489D01*
D02*
G37*
G36*
X7950200Y8062086D02*
X7936544Y8059369D01*
X7924966Y8051634D01*
X7917231Y8040056D01*
X7914514Y8026400D01*
X7917231Y8012744D01*
X7924966Y8001166D01*
X7936544Y7993431D01*
X7950200Y7990714D01*
X7963856Y7993431D01*
X7975434Y8001166D01*
X7983169Y8012744D01*
X7985886Y8026400D01*
X7983169Y8040056D01*
X7975434Y8051634D01*
X7963856Y8059369D01*
X7950200Y8062086D01*
D02*
G37*
G36*
X7862019Y8011400D02*
X7838200D01*
Y7987581D01*
X7839197Y7987779D01*
X7852759Y7996841D01*
X7861821Y8010403D01*
X7862019Y8011400D01*
D02*
G37*
G36*
X7808200D02*
X7784381D01*
X7784579Y8010403D01*
X7793641Y7996841D01*
X7807203Y7987779D01*
X7808200Y7987581D01*
Y8011400D01*
D02*
G37*
G36*
X7076200Y7989019D02*
Y7965200D01*
X7100019D01*
X7099821Y7966197D01*
X7090759Y7979759D01*
X7077197Y7988821D01*
X7076200Y7989019D01*
D02*
G37*
G36*
X7046200D02*
X7045203Y7988821D01*
X7031641Y7979759D01*
X7022579Y7966197D01*
X7022381Y7965200D01*
X7046200D01*
Y7989019D01*
D02*
G37*
G36*
X10449019Y7986000D02*
X10425200D01*
Y7962181D01*
X10426197Y7962379D01*
X10439759Y7971441D01*
X10448821Y7985003D01*
X10449019Y7986000D01*
D02*
G37*
G36*
X10395200D02*
X10371381D01*
X10371579Y7985003D01*
X10380641Y7971441D01*
X10394202Y7962379D01*
X10395200Y7962181D01*
Y7986000D01*
D02*
G37*
G36*
X9837750Y7983250D02*
Y7959431D01*
X9861569D01*
X9861371Y7960429D01*
X9852309Y7973990D01*
X9838747Y7983052D01*
X9837750Y7983250D01*
D02*
G37*
G36*
X9807750D02*
X9806753Y7983052D01*
X9793191Y7973990D01*
X9784129Y7960429D01*
X9783931Y7959431D01*
X9807750D01*
Y7983250D01*
D02*
G37*
G36*
X12283200Y7972319D02*
Y7948500D01*
X12307019D01*
X12306821Y7949497D01*
X12297759Y7963059D01*
X12284197Y7972121D01*
X12283200Y7972319D01*
D02*
G37*
G36*
X12253200D02*
X12252203Y7972121D01*
X12238641Y7963059D01*
X12229579Y7949497D01*
X12229381Y7948500D01*
X12253200D01*
Y7972319D01*
D02*
G37*
G36*
X10833819Y7972300D02*
X10810000D01*
Y7948481D01*
X10810997Y7948679D01*
X10824559Y7957741D01*
X10833621Y7971303D01*
X10833819Y7972300D01*
D02*
G37*
G36*
X10780000D02*
X10756181D01*
X10756379Y7971303D01*
X10765441Y7957741D01*
X10779003Y7948679D01*
X10780000Y7948481D01*
Y7972300D01*
D02*
G37*
G36*
X12078419Y7963670D02*
X12054600D01*
Y7939850D01*
X12055597Y7940049D01*
X12069159Y7949110D01*
X12078221Y7962672D01*
X12078419Y7963670D01*
D02*
G37*
G36*
X12024600D02*
X12000781D01*
X12000979Y7962672D01*
X12010041Y7949110D01*
X12023603Y7940049D01*
X12024600Y7939850D01*
Y7963670D01*
D02*
G37*
G36*
X9641600Y7963619D02*
Y7939800D01*
X9665419D01*
X9665221Y7940797D01*
X9656159Y7954359D01*
X9642597Y7963421D01*
X9641600Y7963619D01*
D02*
G37*
G36*
X9611600D02*
X9610603Y7963421D01*
X9597041Y7954359D01*
X9587979Y7940797D01*
X9587781Y7939800D01*
X9611600D01*
Y7963619D01*
D02*
G37*
G36*
X9114397Y8144636D02*
X9100740Y8141919D01*
X9089163Y8134184D01*
X9081427Y8122606D01*
X9078711Y8108950D01*
X9081427Y8095294D01*
X9089163Y8083716D01*
X9100740Y8075981D01*
X9107385Y8074659D01*
Y7945947D01*
X9093409Y7931971D01*
X8905769D01*
X8902534Y7936813D01*
X8890956Y7944548D01*
X8877300Y7947265D01*
X8867510Y7945317D01*
X8859140Y7955650D01*
X8859469Y7956144D01*
X8862186Y7969800D01*
X8859469Y7983456D01*
X8854447Y7990972D01*
X8857932Y8003135D01*
X8859266Y8004880D01*
X8865556Y8006131D01*
X8877134Y8013866D01*
X8884869Y8025444D01*
X8887586Y8039100D01*
X8884869Y8052756D01*
X8877134Y8064334D01*
X8865556Y8072069D01*
X8851900Y8074786D01*
X8838244Y8072069D01*
X8826666Y8064334D01*
X8818931Y8052756D01*
X8816214Y8039100D01*
X8818931Y8025444D01*
X8823953Y8017928D01*
X8820468Y8005765D01*
X8819134Y8004020D01*
X8812844Y8002769D01*
X8801266Y7995034D01*
X8793531Y7983456D01*
X8790814Y7969800D01*
X8793531Y7956144D01*
X8801266Y7944566D01*
X8812844Y7936831D01*
X8826500Y7934114D01*
X8836290Y7936062D01*
X8844660Y7925729D01*
X8844331Y7925235D01*
X8841614Y7911579D01*
X8844331Y7897923D01*
X8852066Y7886345D01*
X8863644Y7878610D01*
X8877300Y7875893D01*
X8883748Y7864227D01*
X8882431Y7862256D01*
X8879714Y7848600D01*
X8882431Y7834944D01*
X8890166Y7823366D01*
X8901744Y7815631D01*
X8915400Y7812914D01*
X8929056Y7815631D01*
X8940634Y7823366D01*
X8948369Y7834944D01*
X8951086Y7848600D01*
X8948369Y7862256D01*
X8940634Y7873834D01*
X8933669Y7878487D01*
X8937522Y7891187D01*
X9101856D01*
X9109659Y7892739D01*
X9116275Y7897160D01*
X9142196Y7923081D01*
X9146616Y7929696D01*
X9148169Y7937500D01*
X9148169Y7937501D01*
Y8095569D01*
X9148169Y8095570D01*
X9147795Y8097450D01*
X9150082Y8108950D01*
X9147366Y8122606D01*
X9139630Y8134184D01*
X9128053Y8141919D01*
X9114397Y8144636D01*
D02*
G37*
G36*
X7531819Y7950970D02*
X7508000D01*
Y7927151D01*
X7508997Y7927349D01*
X7522559Y7936411D01*
X7531621Y7949973D01*
X7531819Y7950970D01*
D02*
G37*
G36*
X7478000D02*
X7454181D01*
X7454379Y7949973D01*
X7463441Y7936411D01*
X7477003Y7927349D01*
X7478000Y7927151D01*
Y7950970D01*
D02*
G37*
G36*
X11546600Y7950919D02*
Y7927100D01*
X11570419D01*
X11570221Y7928097D01*
X11561159Y7941659D01*
X11547597Y7950721D01*
X11546600Y7950919D01*
D02*
G37*
G36*
X11516600D02*
X11515603Y7950721D01*
X11502041Y7941659D01*
X11492979Y7928097D01*
X11492781Y7927100D01*
X11516600D01*
Y7950919D01*
D02*
G37*
G36*
X7100019Y7935200D02*
X7076200D01*
Y7911381D01*
X7077197Y7911579D01*
X7090759Y7920641D01*
X7099821Y7934203D01*
X7100019Y7935200D01*
D02*
G37*
G36*
X7046200D02*
X7022381D01*
X7022579Y7934203D01*
X7031641Y7920641D01*
X7045203Y7911579D01*
X7046200Y7911381D01*
Y7935200D01*
D02*
G37*
G36*
X9861569Y7929431D02*
X9837750D01*
Y7905612D01*
X9838747Y7905810D01*
X9852309Y7914872D01*
X9861371Y7928434D01*
X9861569Y7929431D01*
D02*
G37*
G36*
X9807750D02*
X9783931D01*
X9784129Y7928434D01*
X9793191Y7914872D01*
X9806753Y7905810D01*
X9807750Y7905612D01*
Y7929431D01*
D02*
G37*
G36*
X11874500Y7973186D02*
X11860844Y7970469D01*
X11849266Y7962734D01*
X11841531Y7951156D01*
X11838814Y7937500D01*
X11841531Y7923844D01*
X11849266Y7912266D01*
X11860844Y7904531D01*
X11874500Y7901814D01*
X11888156Y7904531D01*
X11899734Y7912266D01*
X11907469Y7923844D01*
X11910186Y7937500D01*
X11907469Y7951156D01*
X11899734Y7962734D01*
X11888156Y7970469D01*
X11874500Y7973186D01*
D02*
G37*
G36*
X9501900Y7925519D02*
Y7901700D01*
X9525719D01*
X9525521Y7902697D01*
X9516459Y7916259D01*
X9502897Y7925321D01*
X9501900Y7925519D01*
D02*
G37*
G36*
X9471900D02*
X9470903Y7925321D01*
X9457341Y7916259D01*
X9448279Y7902697D01*
X9448081Y7901700D01*
X9471900D01*
Y7925519D01*
D02*
G37*
G36*
X12307019Y7918500D02*
X12283200D01*
Y7894681D01*
X12284197Y7894879D01*
X12297759Y7903941D01*
X12306821Y7917503D01*
X12307019Y7918500D01*
D02*
G37*
G36*
X12253200D02*
X12229381D01*
X12229579Y7917503D01*
X12238641Y7903941D01*
X12252203Y7894879D01*
X12253200Y7894681D01*
Y7918500D01*
D02*
G37*
G36*
X9665419Y7909800D02*
X9641600D01*
Y7885981D01*
X9642597Y7886179D01*
X9656159Y7895241D01*
X9665221Y7908803D01*
X9665419Y7909800D01*
D02*
G37*
G36*
X9611600D02*
X9587781D01*
X9587979Y7908803D01*
X9597041Y7895241D01*
X9610603Y7886179D01*
X9611600Y7885981D01*
Y7909800D01*
D02*
G37*
G36*
X9321800Y7922386D02*
X9308144Y7919669D01*
X9296566Y7911934D01*
X9288831Y7900356D01*
X9286114Y7886700D01*
X9286164Y7886449D01*
X9274201Y7881494D01*
X9270834Y7886534D01*
X9259256Y7894269D01*
X9245600Y7896986D01*
X9231944Y7894269D01*
X9220366Y7886534D01*
X9212631Y7874956D01*
X9209914Y7861300D01*
X9212631Y7847644D01*
X9220366Y7836067D01*
X9220671Y7832970D01*
X9188853Y7801152D01*
X9183687Y7802719D01*
X9175979Y7806239D01*
X9169234Y7816334D01*
X9157656Y7824069D01*
X9144000Y7826786D01*
X9130344Y7824069D01*
X9128254Y7822673D01*
X9127640Y7822700D01*
X9115012Y7829099D01*
X9113469Y7836856D01*
X9105734Y7848434D01*
X9094156Y7856169D01*
X9080500Y7858886D01*
X9066844Y7856169D01*
X9055266Y7848434D01*
X9047531Y7836856D01*
X9044814Y7823200D01*
X9047531Y7809544D01*
X9055266Y7797966D01*
X9066844Y7790231D01*
X9080500Y7787514D01*
X9094156Y7790231D01*
X9096246Y7791627D01*
X9096860Y7791600D01*
X9109488Y7785201D01*
X9111031Y7777444D01*
X9118766Y7765866D01*
X9128861Y7759121D01*
X9131162Y7754084D01*
X9127777Y7747125D01*
X9122262Y7741992D01*
X9108969D01*
X9105734Y7746834D01*
X9094156Y7754569D01*
X9080500Y7757286D01*
X9066844Y7754569D01*
X9055266Y7746834D01*
X9047531Y7735256D01*
X9044814Y7721600D01*
X9047531Y7707944D01*
X9050238Y7703892D01*
X9043450Y7691192D01*
X9013674D01*
X9013673Y7691192D01*
X9005869Y7689640D01*
X8999253Y7685219D01*
X8870311Y7556277D01*
X8864600Y7557413D01*
X8850944Y7554697D01*
X8839366Y7546961D01*
X8831631Y7535384D01*
X8828914Y7521727D01*
X8831631Y7508071D01*
X8839366Y7496494D01*
X8850944Y7488758D01*
X8864600Y7486042D01*
X8878256Y7488758D01*
X8889834Y7496494D01*
X8897569Y7508071D01*
X8900286Y7521727D01*
X8899150Y7527438D01*
X9022119Y7650408D01*
X9134462D01*
X9146414Y7645400D01*
X9149131Y7631744D01*
X9156866Y7620166D01*
X9168444Y7612431D01*
X9182100Y7609714D01*
X9195756Y7612431D01*
X9207334Y7620166D01*
X9215069Y7631744D01*
X9217786Y7645400D01*
X9216650Y7651111D01*
X9266747Y7701208D01*
X9344275D01*
X9345526Y7688508D01*
X9339396Y7687289D01*
X9332781Y7682868D01*
X9332780Y7682868D01*
X9321444Y7671532D01*
X9307589D01*
X9297356Y7678369D01*
X9283700Y7681086D01*
X9270044Y7678369D01*
X9258466Y7670634D01*
X9250731Y7659056D01*
X9248014Y7645400D01*
X9250731Y7631744D01*
X9258466Y7620166D01*
X9270044Y7612431D01*
X9283700Y7609714D01*
X9297356Y7612431D01*
X9308934Y7620166D01*
X9316004Y7630748D01*
X9329891D01*
X9337695Y7632300D01*
X9344310Y7636721D01*
X9355647Y7648057D01*
X9383728D01*
X9385837Y7641392D01*
X9385841Y7635357D01*
X9375837Y7628673D01*
X9368101Y7617096D01*
X9365385Y7603439D01*
X9368101Y7589783D01*
X9375837Y7578206D01*
X9387414Y7570470D01*
X9401071Y7567753D01*
X9414727Y7570470D01*
X9426304Y7578206D01*
X9434040Y7589783D01*
X9436756Y7603439D01*
X9434040Y7617096D01*
X9426304Y7628673D01*
X9416300Y7635357D01*
X9416304Y7641392D01*
X9418413Y7648057D01*
X9473202D01*
X9474200Y7647858D01*
X9475460Y7646020D01*
X9472596Y7629542D01*
X9471296Y7628673D01*
X9463560Y7617096D01*
X9460844Y7603439D01*
X9463560Y7589783D01*
X9471296Y7578206D01*
X9482873Y7570470D01*
X9496529Y7567753D01*
X9510186Y7570470D01*
X9521763Y7578206D01*
X9529499Y7589783D01*
X9532215Y7603439D01*
X9529499Y7617096D01*
X9528641Y7618379D01*
X9537600Y7627830D01*
X9540857Y7625898D01*
X9542831Y7615973D01*
X9550566Y7604396D01*
X9562144Y7596660D01*
X9575800Y7593944D01*
X9589456Y7596660D01*
X9601034Y7604396D01*
X9608769Y7615973D01*
X9611486Y7629630D01*
X9608769Y7643286D01*
X9601034Y7654863D01*
X9589456Y7662599D01*
X9575800Y7665315D01*
X9562855Y7662740D01*
X9542925Y7682670D01*
X9536309Y7687090D01*
X9528506Y7688642D01*
X9528830Y7701208D01*
X9730500D01*
X9738304Y7702760D01*
X9744919Y7707181D01*
X9876807Y7839069D01*
X9880600Y7838314D01*
X9894256Y7841031D01*
X9905834Y7848766D01*
X9913569Y7860344D01*
X9916286Y7874000D01*
X9913569Y7887656D01*
X9905834Y7899234D01*
X9894256Y7906969D01*
X9880600Y7909686D01*
X9866944Y7906969D01*
X9855366Y7899234D01*
X9847631Y7887656D01*
X9844914Y7874000D01*
X9846432Y7866370D01*
X9722053Y7741992D01*
X9280365D01*
X9275505Y7753725D01*
X9336219Y7814440D01*
X9340640Y7821055D01*
X9342192Y7828859D01*
Y7858231D01*
X9347034Y7861466D01*
X9354769Y7873044D01*
X9357486Y7886700D01*
X9354769Y7900356D01*
X9347034Y7911934D01*
X9335456Y7919669D01*
X9321800Y7922386D01*
D02*
G37*
G36*
X11570419Y7897100D02*
X11546600D01*
Y7873281D01*
X11547597Y7873479D01*
X11561159Y7882541D01*
X11570221Y7896103D01*
X11570419Y7897100D01*
D02*
G37*
G36*
X11516600D02*
X11492781D01*
X11492979Y7896103D01*
X11502041Y7882541D01*
X11515603Y7873479D01*
X11516600Y7873281D01*
Y7897100D01*
D02*
G37*
G36*
X9525719Y7871700D02*
X9501900D01*
Y7847881D01*
X9502897Y7848079D01*
X9516459Y7857141D01*
X9525521Y7870703D01*
X9525719Y7871700D01*
D02*
G37*
G36*
X9471900D02*
X9448081D01*
X9448279Y7870703D01*
X9457341Y7857141D01*
X9470903Y7848079D01*
X9471900Y7847881D01*
Y7871700D01*
D02*
G37*
G36*
X10098800Y7829919D02*
Y7806100D01*
X10122619D01*
X10122421Y7807097D01*
X10113359Y7820659D01*
X10099797Y7829721D01*
X10098800Y7829919D01*
D02*
G37*
G36*
X10068800D02*
X10067803Y7829721D01*
X10054241Y7820659D01*
X10045179Y7807097D01*
X10044981Y7806100D01*
X10068800D01*
Y7829919D01*
D02*
G37*
G36*
X11087100Y7867967D02*
X11073444Y7865250D01*
X11061866Y7857515D01*
X11054131Y7845937D01*
X11051414Y7832281D01*
X11054131Y7818625D01*
X11061866Y7807047D01*
X11073444Y7799312D01*
X11087100Y7796595D01*
X11100756Y7799312D01*
X11112334Y7807047D01*
X11120069Y7818625D01*
X11122786Y7832281D01*
X11120069Y7845937D01*
X11112334Y7857515D01*
X11100756Y7865250D01*
X11087100Y7867967D01*
D02*
G37*
G36*
X9601200Y7858886D02*
X9587544Y7856169D01*
X9575966Y7848434D01*
X9568231Y7836856D01*
X9565514Y7823200D01*
X9568231Y7809544D01*
X9575966Y7797966D01*
X9587544Y7790231D01*
X9601200Y7787514D01*
X9614856Y7790231D01*
X9626434Y7797966D01*
X9634169Y7809544D01*
X9636886Y7823200D01*
X9634169Y7836856D01*
X9626434Y7848434D01*
X9614856Y7856169D01*
X9601200Y7858886D01*
D02*
G37*
G36*
X7747000D02*
X7733344Y7856169D01*
X7721766Y7848434D01*
X7714031Y7836856D01*
X7711314Y7823200D01*
X7714031Y7809544D01*
X7721766Y7797966D01*
X7733344Y7790231D01*
X7747000Y7787514D01*
X7760656Y7790231D01*
X7772234Y7797966D01*
X7779969Y7809544D01*
X7782686Y7823200D01*
X7779969Y7836856D01*
X7772234Y7848434D01*
X7760656Y7856169D01*
X7747000Y7858886D01*
D02*
G37*
G36*
X8178800Y7846186D02*
X8165144Y7843469D01*
X8153566Y7835734D01*
X8145831Y7824156D01*
X8143114Y7810500D01*
X8145831Y7796844D01*
X8153566Y7785266D01*
X8165144Y7777531D01*
X8178800Y7774814D01*
X8192456Y7777531D01*
X8204034Y7785266D01*
X8211769Y7796844D01*
X8214486Y7810500D01*
X8211769Y7824156D01*
X8204034Y7835734D01*
X8192456Y7843469D01*
X8178800Y7846186D01*
D02*
G37*
G36*
X10122619Y7776100D02*
X10098800D01*
Y7752281D01*
X10099797Y7752479D01*
X10113359Y7761541D01*
X10122421Y7775103D01*
X10122619Y7776100D01*
D02*
G37*
G36*
X10068800D02*
X10044981D01*
X10045179Y7775103D01*
X10054241Y7761541D01*
X10067803Y7752479D01*
X10068800Y7752281D01*
Y7776100D01*
D02*
G37*
G36*
X8978900Y7808086D02*
X8965244Y7805369D01*
X8953666Y7797634D01*
X8945931Y7786056D01*
X8943214Y7772400D01*
X8945931Y7758744D01*
X8953666Y7747166D01*
X8965244Y7739431D01*
X8978900Y7736714D01*
X8992556Y7739431D01*
X9004134Y7747166D01*
X9011869Y7758744D01*
X9014586Y7772400D01*
X9011869Y7786056D01*
X9004134Y7797634D01*
X8992556Y7805369D01*
X8978900Y7808086D01*
D02*
G37*
G36*
X10690330Y7796342D02*
X10676673Y7793626D01*
X10665096Y7785890D01*
X10657360Y7774313D01*
X10654644Y7760656D01*
X10657360Y7747000D01*
X10665096Y7735423D01*
X10676673Y7727687D01*
X10690330Y7724971D01*
X10703986Y7727687D01*
X10715563Y7735423D01*
X10723299Y7747000D01*
X10726015Y7760656D01*
X10723299Y7774313D01*
X10715563Y7785890D01*
X10703986Y7793626D01*
X10690330Y7796342D01*
D02*
G37*
G36*
X10312470Y7782686D02*
X10298814Y7779969D01*
X10287236Y7772234D01*
X10279501Y7760656D01*
X10276784Y7747000D01*
X10279501Y7733344D01*
X10287236Y7721766D01*
X10298814Y7714031D01*
X10312470Y7711314D01*
X10326126Y7714031D01*
X10337703Y7721766D01*
X10345439Y7733344D01*
X10348156Y7747000D01*
X10345439Y7760656D01*
X10337703Y7772234D01*
X10326126Y7779969D01*
X10312470Y7782686D01*
D02*
G37*
G36*
X10771900Y7735019D02*
Y7711200D01*
X10795719D01*
X10795521Y7712197D01*
X10786459Y7725759D01*
X10772897Y7734821D01*
X10771900Y7735019D01*
D02*
G37*
G36*
X10741900D02*
X10740903Y7734821D01*
X10727341Y7725759D01*
X10718279Y7712197D01*
X10718081Y7711200D01*
X10741900D01*
Y7735019D01*
D02*
G37*
G36*
X8648700Y7760583D02*
X8635044Y7757867D01*
X8623466Y7750131D01*
X8615731Y7738554D01*
X8613014Y7724897D01*
X8615731Y7711241D01*
X8623466Y7699664D01*
X8635044Y7691928D01*
X8648700Y7689212D01*
X8662356Y7691928D01*
X8673934Y7699664D01*
X8681669Y7711241D01*
X8684386Y7724897D01*
X8681669Y7738554D01*
X8673934Y7750131D01*
X8662356Y7757867D01*
X8648700Y7760583D01*
D02*
G37*
G36*
X10185400Y7744586D02*
X10171744Y7741869D01*
X10160166Y7734134D01*
X10152431Y7722556D01*
X10149714Y7708900D01*
X10152431Y7695244D01*
X10160166Y7683666D01*
X10171744Y7675931D01*
X10185400Y7673214D01*
X10199056Y7675931D01*
X10210634Y7683666D01*
X10218369Y7695244D01*
X10221086Y7708900D01*
X10218369Y7722556D01*
X10210634Y7734134D01*
X10199056Y7741869D01*
X10185400Y7744586D01*
D02*
G37*
G36*
X9931427D02*
X9917771Y7741869D01*
X9906194Y7734134D01*
X9898458Y7722556D01*
X9895742Y7708900D01*
X9898458Y7695244D01*
X9906194Y7683666D01*
X9917771Y7675931D01*
X9931427Y7673214D01*
X9945084Y7675931D01*
X9956661Y7683666D01*
X9964397Y7695244D01*
X9967113Y7708900D01*
X9964397Y7722556D01*
X9956661Y7734134D01*
X9945084Y7741869D01*
X9931427Y7744586D01*
D02*
G37*
G36*
X9842500D02*
X9828844Y7741869D01*
X9817266Y7734134D01*
X9809531Y7722556D01*
X9806814Y7708900D01*
X9809531Y7695244D01*
X9817266Y7683666D01*
X9828844Y7675931D01*
X9842500Y7673214D01*
X9856156Y7675931D01*
X9867734Y7683666D01*
X9875469Y7695244D01*
X9878186Y7708900D01*
X9875469Y7722556D01*
X9867734Y7734134D01*
X9856156Y7741869D01*
X9842500Y7744586D01*
D02*
G37*
G36*
X7366000D02*
X7352344Y7741869D01*
X7340766Y7734134D01*
X7333031Y7722556D01*
X7330314Y7708900D01*
X7333031Y7695244D01*
X7340766Y7683666D01*
X7352344Y7675931D01*
X7366000Y7673214D01*
X7379656Y7675931D01*
X7391234Y7683666D01*
X7398969Y7695244D01*
X7401686Y7708900D01*
X7398969Y7722556D01*
X7391234Y7734134D01*
X7379656Y7741869D01*
X7366000Y7744586D01*
D02*
G37*
G36*
X10795719Y7681200D02*
X10771900D01*
Y7657381D01*
X10772897Y7657579D01*
X10786459Y7666641D01*
X10795521Y7680203D01*
X10795719Y7681200D01*
D02*
G37*
G36*
X10741900D02*
X10718081D01*
X10718279Y7680203D01*
X10727341Y7666641D01*
X10740903Y7657579D01*
X10741900Y7657381D01*
Y7681200D01*
D02*
G37*
G36*
X7607300Y7727513D02*
X7593644Y7724797D01*
X7582066Y7717061D01*
X7574331Y7705484D01*
X7571614Y7691827D01*
X7574331Y7678171D01*
X7582066Y7666594D01*
X7593644Y7658858D01*
X7607300Y7656142D01*
X7620956Y7658858D01*
X7632534Y7666594D01*
X7640269Y7678171D01*
X7642986Y7691827D01*
X7640269Y7705484D01*
X7632534Y7717061D01*
X7620956Y7724797D01*
X7607300Y7727513D01*
D02*
G37*
G36*
X11305300Y7668449D02*
Y7644630D01*
X11329119D01*
X11328921Y7645627D01*
X11319859Y7659189D01*
X11306297Y7668251D01*
X11305300Y7668449D01*
D02*
G37*
G36*
X11275300D02*
X11274302Y7668251D01*
X11260740Y7659189D01*
X11251679Y7645627D01*
X11251480Y7644630D01*
X11275300D01*
Y7668449D01*
D02*
G37*
G36*
X9768353D02*
Y7644630D01*
X9792172D01*
X9791974Y7645627D01*
X9782912Y7659189D01*
X9769351Y7668251D01*
X9768353Y7668449D01*
D02*
G37*
G36*
X9738353D02*
X9737356Y7668251D01*
X9723794Y7659189D01*
X9714732Y7645627D01*
X9714534Y7644630D01*
X9738353D01*
Y7668449D01*
D02*
G37*
G36*
X10551627Y7633419D02*
Y7609600D01*
X10575446D01*
X10575248Y7610597D01*
X10566186Y7624159D01*
X10552624Y7633221D01*
X10551627Y7633419D01*
D02*
G37*
G36*
X10521627D02*
X10520629Y7633221D01*
X10507068Y7624159D01*
X10498006Y7610597D01*
X10497808Y7609600D01*
X10521627D01*
Y7633419D01*
D02*
G37*
G36*
X8763000Y7668386D02*
X8749344Y7665669D01*
X8737766Y7657934D01*
X8730031Y7646356D01*
X8727314Y7632700D01*
X8730031Y7619044D01*
X8737766Y7607466D01*
X8749344Y7599731D01*
X8763000Y7597014D01*
X8776656Y7599731D01*
X8788234Y7607466D01*
X8795969Y7619044D01*
X8798686Y7632700D01*
X8795969Y7646356D01*
X8788234Y7657934D01*
X8776656Y7665669D01*
X8763000Y7668386D01*
D02*
G37*
G36*
X10677358Y7667416D02*
X10663702Y7664699D01*
X10652124Y7656964D01*
X10644389Y7645387D01*
X10641672Y7631730D01*
X10644389Y7618074D01*
X10652124Y7606497D01*
X10663702Y7598761D01*
X10677358Y7596044D01*
X10691014Y7598761D01*
X10702592Y7606497D01*
X10710327Y7618074D01*
X10713044Y7631730D01*
X10710327Y7645387D01*
X10702592Y7656964D01*
X10691014Y7664699D01*
X10677358Y7667416D01*
D02*
G37*
G36*
X11329119Y7614630D02*
X11305300D01*
Y7590810D01*
X11306297Y7591009D01*
X11319859Y7600070D01*
X11328921Y7613632D01*
X11329119Y7614630D01*
D02*
G37*
G36*
X11275300D02*
X11251480D01*
X11251679Y7613632D01*
X11260740Y7600070D01*
X11274302Y7591009D01*
X11275300Y7590810D01*
Y7614630D01*
D02*
G37*
G36*
X9792172D02*
X9768353D01*
Y7590810D01*
X9769351Y7591009D01*
X9782912Y7600070D01*
X9791974Y7613632D01*
X9792172Y7614630D01*
D02*
G37*
G36*
X9738353D02*
X9714534D01*
X9714732Y7613632D01*
X9723794Y7600070D01*
X9737356Y7591009D01*
X9738353Y7590810D01*
Y7614630D01*
D02*
G37*
G36*
X9678200Y7608019D02*
Y7584200D01*
X9702019D01*
X9701821Y7585197D01*
X9692759Y7598759D01*
X9679197Y7607821D01*
X9678200Y7608019D01*
D02*
G37*
G36*
X9648200D02*
X9647202Y7607821D01*
X9633641Y7598759D01*
X9624579Y7585197D01*
X9624381Y7584200D01*
X9648200D01*
Y7608019D01*
D02*
G37*
G36*
X12003250Y7610569D02*
X11963250D01*
Y7559001D01*
X12067845D01*
X12067551Y7561229D01*
X12060901Y7577285D01*
X12050322Y7591071D01*
X12036535Y7601651D01*
X12020479Y7608301D01*
X12003250Y7610569D01*
D02*
G37*
G36*
X12406250D02*
X12381250D01*
Y7559000D01*
X12470844D01*
X12470551Y7561229D01*
X12463900Y7577285D01*
X12453321Y7591071D01*
X12439534Y7601651D01*
X12423479Y7608301D01*
X12406250Y7610569D01*
D02*
G37*
G36*
X12351250D02*
X12326250D01*
X12309021Y7608301D01*
X12292965Y7601651D01*
X12279178Y7591071D01*
X12268599Y7577285D01*
X12261949Y7561229D01*
X12261655Y7559000D01*
X12351250D01*
Y7610569D01*
D02*
G37*
G36*
X10575446Y7579600D02*
X10551627D01*
Y7555781D01*
X10552624Y7555979D01*
X10566186Y7565041D01*
X10575248Y7578603D01*
X10575446Y7579600D01*
D02*
G37*
G36*
X10521627D02*
X10497808D01*
X10498006Y7578603D01*
X10507068Y7565041D01*
X10520629Y7555979D01*
X10521627Y7555781D01*
Y7579600D01*
D02*
G37*
G36*
X10261600Y7678015D02*
X10247944Y7675299D01*
X10236366Y7667563D01*
X10228631Y7655986D01*
X10225914Y7642330D01*
X10228631Y7628673D01*
X10236366Y7617096D01*
X10247944Y7609360D01*
X10261600Y7606644D01*
X10268359Y7607988D01*
X10278192Y7597210D01*
X10276714Y7589783D01*
X10279431Y7576127D01*
X10287166Y7564549D01*
X10298744Y7556814D01*
X10312400Y7554097D01*
X10326056Y7556814D01*
X10337634Y7564549D01*
X10345369Y7576127D01*
X10348086Y7589783D01*
X10345369Y7603439D01*
X10337634Y7615017D01*
X10326056Y7622752D01*
X10312400Y7625469D01*
X10305641Y7624124D01*
X10295808Y7634902D01*
X10297286Y7642330D01*
X10294569Y7655986D01*
X10286834Y7667563D01*
X10275256Y7675299D01*
X10261600Y7678015D01*
D02*
G37*
G36*
X9702019Y7554200D02*
X9678200D01*
Y7530381D01*
X9679197Y7530579D01*
X9692759Y7539641D01*
X9701821Y7553203D01*
X9702019Y7554200D01*
D02*
G37*
G36*
X9648200D02*
X9624381D01*
X9624579Y7553203D01*
X9633641Y7539641D01*
X9647202Y7530579D01*
X9648200Y7530381D01*
Y7554200D01*
D02*
G37*
G36*
X11933250Y7610569D02*
X11893250D01*
X11876020Y7608301D01*
X11859965Y7601651D01*
X11846178Y7591071D01*
X11835599Y7577285D01*
X11828949Y7561229D01*
X11826680Y7544000D01*
X11827729Y7536035D01*
X11815888Y7528673D01*
X11814297Y7529736D01*
X11813300Y7529934D01*
Y7491115D01*
Y7452295D01*
X11814297Y7452494D01*
X11827859Y7461556D01*
X11836921Y7475117D01*
X11839148Y7486314D01*
X11850655Y7492088D01*
X11852290Y7492239D01*
X11859965Y7486349D01*
X11876020Y7479699D01*
X11893250Y7477431D01*
X11933250D01*
Y7544001D01*
Y7610569D01*
D02*
G37*
G36*
X9511529Y7545547D02*
Y7521727D01*
X9535349D01*
X9535150Y7522725D01*
X9526089Y7536287D01*
X9512527Y7545348D01*
X9511529Y7545547D01*
D02*
G37*
G36*
X9481529D02*
X9480532Y7545348D01*
X9466970Y7536287D01*
X9457908Y7522725D01*
X9457710Y7521727D01*
X9481529D01*
Y7545547D01*
D02*
G37*
G36*
X11783300Y7529934D02*
X11782303Y7529736D01*
X11768741Y7520674D01*
X11759679Y7507112D01*
X11759481Y7506115D01*
X11783300D01*
Y7529934D01*
D02*
G37*
G36*
X11303000Y7566786D02*
X11289344Y7564069D01*
X11277766Y7556334D01*
X11270031Y7544756D01*
X11267314Y7531100D01*
X11270031Y7517444D01*
X11277766Y7505866D01*
X11289344Y7498131D01*
X11303000Y7495414D01*
X11316656Y7498131D01*
X11328234Y7505866D01*
X11335969Y7517444D01*
X11338686Y7531100D01*
X11335969Y7544756D01*
X11328234Y7556334D01*
X11316656Y7564069D01*
X11303000Y7566786D01*
D02*
G37*
G36*
X7431800Y7519119D02*
Y7495300D01*
X7455619D01*
X7455421Y7496297D01*
X7446359Y7509859D01*
X7432797Y7518921D01*
X7431800Y7519119D01*
D02*
G37*
G36*
X7401800D02*
X7400803Y7518921D01*
X7387241Y7509859D01*
X7378179Y7496297D01*
X7377981Y7495300D01*
X7401800D01*
Y7519119D01*
D02*
G37*
G36*
X10134600Y7565123D02*
X10120944Y7562406D01*
X10109366Y7554670D01*
X10101631Y7543093D01*
X10098914Y7529437D01*
X10101631Y7515780D01*
X10109366Y7504203D01*
X10120944Y7496468D01*
X10134600Y7493751D01*
X10148256Y7496468D01*
X10159834Y7504203D01*
X10167569Y7515780D01*
X10170286Y7529437D01*
X10167569Y7543093D01*
X10159834Y7554670D01*
X10148256Y7562406D01*
X10134600Y7565123D01*
D02*
G37*
G36*
X12470844Y7529000D02*
X12381250D01*
Y7477431D01*
X12406250D01*
X12423479Y7479699D01*
X12439534Y7486349D01*
X12453321Y7496928D01*
X12463900Y7510715D01*
X12470551Y7526771D01*
X12470844Y7529000D01*
D02*
G37*
G36*
X12351250D02*
X12261655D01*
X12261949Y7526771D01*
X12268599Y7510715D01*
X12279178Y7496928D01*
X12292965Y7486349D01*
X12309021Y7479699D01*
X12326250Y7477431D01*
X12351250D01*
Y7529000D01*
D02*
G37*
G36*
X12067845Y7529001D02*
X11963250D01*
Y7477431D01*
X12003250D01*
X12020479Y7479699D01*
X12036535Y7486349D01*
X12050322Y7496928D01*
X12060901Y7510715D01*
X12067551Y7526771D01*
X12067845Y7529001D01*
D02*
G37*
G36*
X9535349Y7491727D02*
X9511529D01*
Y7467908D01*
X9512527Y7468106D01*
X9526089Y7477168D01*
X9535150Y7490730D01*
X9535349Y7491727D01*
D02*
G37*
G36*
X9481529D02*
X9457710D01*
X9457908Y7490730D01*
X9466970Y7477168D01*
X9480532Y7468106D01*
X9481529Y7467908D01*
Y7491727D01*
D02*
G37*
G36*
X10210800Y7528686D02*
X10197144Y7525969D01*
X10185566Y7518234D01*
X10177831Y7506656D01*
X10175114Y7493000D01*
X10177831Y7479344D01*
X10185566Y7467766D01*
X10197144Y7460031D01*
X10210800Y7457314D01*
X10224456Y7460031D01*
X10236034Y7467766D01*
X10243769Y7479344D01*
X10246486Y7493000D01*
X10243769Y7506656D01*
X10236034Y7518234D01*
X10224456Y7525969D01*
X10210800Y7528686D01*
D02*
G37*
G36*
X11783300Y7476115D02*
X11759481D01*
X11759679Y7475117D01*
X11768741Y7461556D01*
X11782303Y7452494D01*
X11783300Y7452295D01*
Y7476115D01*
D02*
G37*
G36*
X7455619Y7465300D02*
X7431800D01*
Y7441481D01*
X7432797Y7441679D01*
X7446359Y7450741D01*
X7455421Y7464303D01*
X7455619Y7465300D01*
D02*
G37*
G36*
X7401800D02*
X7377981D01*
X7378179Y7464303D01*
X7387241Y7450741D01*
X7400803Y7441679D01*
X7401800Y7441481D01*
Y7465300D01*
D02*
G37*
G36*
X7848600Y7497413D02*
X7834944Y7494697D01*
X7823366Y7486961D01*
X7815631Y7475384D01*
X7812914Y7461728D01*
X7815631Y7448071D01*
X7823366Y7436494D01*
X7834944Y7428758D01*
X7848600Y7426042D01*
X7862256Y7428758D01*
X7873834Y7436494D01*
X7881569Y7448071D01*
X7884286Y7461728D01*
X7881569Y7475384D01*
X7873834Y7486961D01*
X7862256Y7494697D01*
X7848600Y7497413D01*
D02*
G37*
G36*
X7950200Y7490586D02*
X7936544Y7487869D01*
X7924966Y7480134D01*
X7917231Y7468556D01*
X7914514Y7454900D01*
X7917231Y7441244D01*
X7924966Y7429666D01*
X7936544Y7421931D01*
X7950200Y7419214D01*
X7963856Y7421931D01*
X7975434Y7429666D01*
X7983169Y7441244D01*
X7985886Y7454900D01*
X7983169Y7468556D01*
X7975434Y7480134D01*
X7963856Y7487869D01*
X7950200Y7490586D01*
D02*
G37*
G36*
X9283700Y7477886D02*
X9270044Y7475169D01*
X9258466Y7467434D01*
X9250731Y7455856D01*
X9248014Y7442200D01*
X9250731Y7428544D01*
X9258466Y7416966D01*
X9270044Y7409231D01*
X9283700Y7406514D01*
X9297356Y7409231D01*
X9308934Y7416966D01*
X9316669Y7428544D01*
X9319386Y7442200D01*
X9316669Y7455856D01*
X9308934Y7467434D01*
X9297356Y7475169D01*
X9283700Y7477886D01*
D02*
G37*
G36*
X10796630Y7444670D02*
X10782973Y7441954D01*
X10771396Y7434218D01*
X10763660Y7422641D01*
X10760944Y7408985D01*
X10763660Y7395328D01*
X10771396Y7383751D01*
X10782973Y7376015D01*
X10796630Y7373299D01*
X10810286Y7376015D01*
X10821863Y7383751D01*
X10829599Y7395328D01*
X10832315Y7408985D01*
X10829599Y7422641D01*
X10821863Y7434218D01*
X10810286Y7441954D01*
X10796630Y7444670D01*
D02*
G37*
G36*
X7177800Y7394771D02*
Y7370952D01*
X7201619D01*
X7201421Y7371949D01*
X7192359Y7385511D01*
X7178797Y7394573D01*
X7177800Y7394771D01*
D02*
G37*
G36*
X7147800D02*
X7146803Y7394573D01*
X7133241Y7385511D01*
X7124179Y7371949D01*
X7123981Y7370952D01*
X7147800D01*
Y7394771D01*
D02*
G37*
G36*
X11998250Y7444333D02*
X11981667Y7441034D01*
X11967609Y7431641D01*
X11958216Y7417583D01*
X11954917Y7401000D01*
X11958216Y7384417D01*
X11967609Y7370359D01*
X11981667Y7360966D01*
X11998250Y7357667D01*
X12014832Y7360966D01*
X12028891Y7370359D01*
X12038284Y7384417D01*
X12041582Y7401000D01*
X12038284Y7417583D01*
X12028891Y7431641D01*
X12014832Y7441034D01*
X11998250Y7444333D01*
D02*
G37*
G36*
X11606300Y7426993D02*
X11592644Y7424276D01*
X11581066Y7416541D01*
X11573331Y7404963D01*
X11570614Y7391307D01*
X11573331Y7377651D01*
X11581066Y7366073D01*
X11592644Y7358338D01*
X11606300Y7355621D01*
X11619956Y7358338D01*
X11631534Y7366073D01*
X11639269Y7377651D01*
X11641986Y7391307D01*
X11639269Y7404963D01*
X11631534Y7416541D01*
X11619956Y7424276D01*
X11606300Y7426993D01*
D02*
G37*
G36*
X10107900D02*
X10094244Y7424276D01*
X10082666Y7416541D01*
X10074931Y7404963D01*
X10072214Y7391307D01*
X10074931Y7377651D01*
X10082666Y7366073D01*
X10094244Y7358338D01*
X10107900Y7355621D01*
X10121556Y7358338D01*
X10133134Y7366073D01*
X10140869Y7377651D01*
X10143586Y7391307D01*
X10140869Y7404963D01*
X10133134Y7416541D01*
X10121556Y7424276D01*
X10107900Y7426993D01*
D02*
G37*
G36*
X10337800Y7414386D02*
X10324144Y7411669D01*
X10312566Y7403934D01*
X10304831Y7392356D01*
X10302114Y7378700D01*
X10304831Y7365044D01*
X10312566Y7353466D01*
X10324144Y7345731D01*
X10337800Y7343014D01*
X10351456Y7345731D01*
X10363034Y7353466D01*
X10370769Y7365044D01*
X10373486Y7378700D01*
X10370769Y7392356D01*
X10363034Y7403934D01*
X10351456Y7411669D01*
X10337800Y7414386D01*
D02*
G37*
G36*
X9537700D02*
X9524044Y7411669D01*
X9512466Y7403934D01*
X9504731Y7392356D01*
X9502014Y7378700D01*
X9504731Y7365044D01*
X9512466Y7353466D01*
X9524044Y7345731D01*
X9537700Y7343014D01*
X9551356Y7345731D01*
X9562934Y7353466D01*
X9570669Y7365044D01*
X9573386Y7378700D01*
X9570669Y7392356D01*
X9562934Y7403934D01*
X9551356Y7411669D01*
X9537700Y7414386D01*
D02*
G37*
G36*
X7810500D02*
X7796844Y7411669D01*
X7785266Y7403934D01*
X7777531Y7392356D01*
X7774814Y7378700D01*
X7777531Y7365044D01*
X7785266Y7353466D01*
X7796844Y7345731D01*
X7810500Y7343014D01*
X7824156Y7345731D01*
X7835734Y7353466D01*
X7843469Y7365044D01*
X7846186Y7378700D01*
X7843469Y7392356D01*
X7835734Y7403934D01*
X7824156Y7411669D01*
X7810500Y7414386D01*
D02*
G37*
G36*
X8155691Y7398388D02*
X8142035Y7395672D01*
X8130458Y7387936D01*
X8122722Y7376359D01*
X8120006Y7362703D01*
X8122722Y7349046D01*
X8130458Y7337469D01*
X8142035Y7329733D01*
X8155691Y7327017D01*
X8169348Y7329733D01*
X8180925Y7337469D01*
X8188661Y7349046D01*
X8191377Y7362703D01*
X8188661Y7376359D01*
X8180925Y7387936D01*
X8169348Y7395672D01*
X8155691Y7398388D01*
D02*
G37*
G36*
X7201619Y7340952D02*
X7177800D01*
Y7317132D01*
X7178797Y7317331D01*
X7192359Y7326393D01*
X7201421Y7339954D01*
X7201619Y7340952D01*
D02*
G37*
G36*
X7147800D02*
X7123981D01*
X7124179Y7339954D01*
X7133241Y7326393D01*
X7146803Y7317331D01*
X7147800Y7317132D01*
Y7340952D01*
D02*
G37*
G36*
X9906000Y7362686D02*
X9892344Y7359969D01*
X9880766Y7352234D01*
X9873031Y7340656D01*
X9870314Y7327000D01*
X9873031Y7313344D01*
X9880766Y7301766D01*
X9892344Y7294031D01*
X9906000Y7291314D01*
X9919656Y7294031D01*
X9931234Y7301766D01*
X9938969Y7313344D01*
X9941686Y7327000D01*
X9938969Y7340656D01*
X9931234Y7352234D01*
X9919656Y7359969D01*
X9906000Y7362686D01*
D02*
G37*
G36*
X9604678Y7356282D02*
X9591021Y7353566D01*
X9579444Y7345830D01*
X9571708Y7334253D01*
X9568992Y7320596D01*
X9571708Y7306940D01*
X9579444Y7295363D01*
X9591021Y7287627D01*
X9604678Y7284911D01*
X9618334Y7287627D01*
X9629911Y7295363D01*
X9637647Y7306940D01*
X9640363Y7320596D01*
X9637647Y7334253D01*
X9629911Y7345830D01*
X9618334Y7353566D01*
X9604678Y7356282D01*
D02*
G37*
G36*
X9042400D02*
X9028744Y7353566D01*
X9017166Y7345830D01*
X9009431Y7334253D01*
X9006714Y7320596D01*
X9009431Y7306940D01*
X9017166Y7295363D01*
X9028744Y7287627D01*
X9042400Y7284911D01*
X9056056Y7287627D01*
X9067634Y7295363D01*
X9075369Y7306940D01*
X9078086Y7320596D01*
X9075369Y7334253D01*
X9067634Y7345830D01*
X9056056Y7353566D01*
X9042400Y7356282D01*
D02*
G37*
G36*
X7442200Y7706486D02*
X7428544Y7703769D01*
X7416966Y7696034D01*
X7409231Y7684456D01*
X7406514Y7670800D01*
X7409231Y7657144D01*
X7416966Y7645566D01*
X7421808Y7642331D01*
Y7599996D01*
X7423360Y7592193D01*
X7427781Y7585577D01*
X7687050Y7326307D01*
X7685914Y7320596D01*
X7688631Y7306940D01*
X7696366Y7295363D01*
X7707944Y7287627D01*
X7721600Y7284911D01*
X7735256Y7287627D01*
X7746834Y7295363D01*
X7754569Y7306940D01*
X7757286Y7320596D01*
X7754569Y7334253D01*
X7746834Y7345830D01*
X7735256Y7353566D01*
X7721600Y7356282D01*
X7715889Y7355146D01*
X7462592Y7608443D01*
Y7642331D01*
X7467434Y7645566D01*
X7475169Y7657144D01*
X7477886Y7670800D01*
X7475169Y7684456D01*
X7467434Y7696034D01*
X7455856Y7703769D01*
X7442200Y7706486D01*
D02*
G37*
G36*
X7063500Y7301719D02*
Y7277900D01*
X7087319D01*
X7087121Y7278898D01*
X7078059Y7292459D01*
X7064497Y7301521D01*
X7063500Y7301719D01*
D02*
G37*
G36*
X7033500D02*
X7032503Y7301521D01*
X7018941Y7292459D01*
X7009879Y7278898D01*
X7009681Y7277900D01*
X7033500D01*
Y7301719D01*
D02*
G37*
G36*
X12103100Y7312786D02*
X12089444Y7310069D01*
X12077866Y7302334D01*
X12070131Y7290756D01*
X12067414Y7277100D01*
X12070131Y7263444D01*
X12077866Y7251866D01*
X12089444Y7244131D01*
X12103100Y7241414D01*
X12116756Y7244131D01*
X12128334Y7251866D01*
X12136069Y7263444D01*
X12138786Y7277100D01*
X12136069Y7290756D01*
X12128334Y7302334D01*
X12116756Y7310069D01*
X12103100Y7312786D01*
D02*
G37*
G36*
X9118600Y7298586D02*
X9104944Y7295869D01*
X9093366Y7288134D01*
X9085631Y7276556D01*
X9082914Y7262900D01*
X9085631Y7249244D01*
X9093366Y7237667D01*
X9104944Y7229931D01*
X9118600Y7227214D01*
X9132256Y7229931D01*
X9143834Y7237667D01*
X9151569Y7249244D01*
X9154286Y7262900D01*
X9151569Y7276556D01*
X9143834Y7288134D01*
X9132256Y7295869D01*
X9118600Y7298586D01*
D02*
G37*
G36*
X7087319Y7247900D02*
X7063500D01*
Y7224081D01*
X7064497Y7224279D01*
X7078059Y7233341D01*
X7087121Y7246903D01*
X7087319Y7247900D01*
D02*
G37*
G36*
X7033500D02*
X7009681D01*
X7009879Y7246903D01*
X7018941Y7233341D01*
X7032503Y7224279D01*
X7033500Y7224081D01*
Y7247900D01*
D02*
G37*
G36*
X7937500Y7290712D02*
X7923844Y7287995D01*
X7912266Y7280260D01*
X7904531Y7268682D01*
X7901814Y7255026D01*
X7904531Y7241370D01*
X7912266Y7229792D01*
X7923844Y7222057D01*
X7937500Y7219340D01*
X7951156Y7222057D01*
X7962734Y7229792D01*
X7970469Y7241370D01*
X7973186Y7255026D01*
X7970469Y7268682D01*
X7962734Y7280260D01*
X7951156Y7287995D01*
X7937500Y7290712D01*
D02*
G37*
G36*
X7645400Y7287386D02*
X7631744Y7284669D01*
X7620166Y7276934D01*
X7612431Y7265356D01*
X7609714Y7251700D01*
X7612431Y7238044D01*
X7620166Y7226466D01*
X7631744Y7218731D01*
X7645400Y7216014D01*
X7659056Y7218731D01*
X7670634Y7226466D01*
X7678369Y7238044D01*
X7681086Y7251700D01*
X7678369Y7265356D01*
X7670634Y7276934D01*
X7659056Y7284669D01*
X7645400Y7287386D01*
D02*
G37*
G36*
X7302500Y7274686D02*
X7288844Y7271969D01*
X7277266Y7264234D01*
X7269531Y7252656D01*
X7266814Y7239000D01*
X7269531Y7225344D01*
X7277266Y7213766D01*
X7288844Y7206031D01*
X7302500Y7203314D01*
X7316156Y7206031D01*
X7327734Y7213766D01*
X7335469Y7225344D01*
X7338186Y7239000D01*
X7335469Y7252656D01*
X7327734Y7264234D01*
X7316156Y7271969D01*
X7302500Y7274686D01*
D02*
G37*
G36*
X9677400Y7261986D02*
X9663744Y7259269D01*
X9652166Y7251534D01*
X9644431Y7239956D01*
X9641714Y7226300D01*
X9644431Y7212644D01*
X9652166Y7201066D01*
X9663744Y7193331D01*
X9677400Y7190614D01*
X9691056Y7193331D01*
X9702634Y7201066D01*
X9710369Y7212644D01*
X9713086Y7226300D01*
X9710369Y7239956D01*
X9702634Y7251534D01*
X9691056Y7259269D01*
X9677400Y7261986D01*
D02*
G37*
G36*
X9760019Y7249286D02*
X9746363Y7246569D01*
X9734785Y7238834D01*
X9727050Y7227256D01*
X9724333Y7213600D01*
X9727050Y7199944D01*
X9734785Y7188366D01*
X9746363Y7180631D01*
X9760019Y7177914D01*
X9773675Y7180631D01*
X9785253Y7188366D01*
X9792988Y7199944D01*
X9795705Y7213600D01*
X9792988Y7227256D01*
X9785253Y7238834D01*
X9773675Y7246569D01*
X9760019Y7249286D01*
D02*
G37*
G36*
X9512300D02*
X9498644Y7246569D01*
X9487066Y7238834D01*
X9479331Y7227256D01*
X9476614Y7213600D01*
X9479331Y7199944D01*
X9487066Y7188366D01*
X9498644Y7180631D01*
X9512300Y7177914D01*
X9525956Y7180631D01*
X9537534Y7188366D01*
X9545269Y7199944D01*
X9547986Y7213600D01*
X9545269Y7227256D01*
X9537534Y7238834D01*
X9525956Y7246569D01*
X9512300Y7249286D01*
D02*
G37*
G36*
X12306300Y7238086D02*
X12292644Y7235369D01*
X12281066Y7227634D01*
X12273331Y7216056D01*
X12270614Y7202400D01*
X12273331Y7188744D01*
X12281066Y7177166D01*
X12292644Y7169431D01*
X12306300Y7166714D01*
X12319956Y7169431D01*
X12331534Y7177166D01*
X12339269Y7188744D01*
X12341986Y7202400D01*
X12339269Y7216056D01*
X12331534Y7227634D01*
X12319956Y7235369D01*
X12306300Y7238086D01*
D02*
G37*
G36*
X9182100Y7236586D02*
X9168444Y7233869D01*
X9156866Y7226134D01*
X9149131Y7214556D01*
X9146414Y7200900D01*
X9149131Y7187244D01*
X9156866Y7175666D01*
X9168444Y7167931D01*
X9182100Y7165214D01*
X9195756Y7167931D01*
X9207334Y7175666D01*
X9215069Y7187244D01*
X9217786Y7200900D01*
X9215069Y7214556D01*
X9207334Y7226134D01*
X9195756Y7233869D01*
X9182100Y7236586D01*
D02*
G37*
G36*
X10604500Y7223886D02*
X10590844Y7221169D01*
X10579266Y7213434D01*
X10571531Y7201856D01*
X10568814Y7188200D01*
X10571531Y7174544D01*
X10579266Y7162966D01*
X10590844Y7155231D01*
X10604500Y7152514D01*
X10618156Y7155231D01*
X10629734Y7162966D01*
X10637469Y7174544D01*
X10640186Y7188200D01*
X10637469Y7201856D01*
X10629734Y7213434D01*
X10618156Y7221169D01*
X10604500Y7223886D01*
D02*
G37*
G36*
X11078574Y7211352D02*
X11064918Y7208636D01*
X11053341Y7200900D01*
X11045605Y7189323D01*
X11042889Y7175666D01*
X11045605Y7162010D01*
X11053341Y7150433D01*
X11064918Y7142697D01*
X11078574Y7139981D01*
X11092231Y7142697D01*
X11103808Y7150433D01*
X11111543Y7162010D01*
X11114260Y7175666D01*
X11111543Y7189323D01*
X11103808Y7200900D01*
X11092231Y7208636D01*
X11078574Y7211352D01*
D02*
G37*
G36*
X12366250Y7148611D02*
X12352594Y7145894D01*
X12341016Y7138159D01*
X12333281Y7126581D01*
X12330564Y7112925D01*
X12333281Y7099269D01*
X12341016Y7087691D01*
X12352594Y7079956D01*
X12366250Y7077239D01*
X12379906Y7079956D01*
X12391483Y7087691D01*
X12399219Y7099269D01*
X12401936Y7112925D01*
X12399219Y7126581D01*
X12391483Y7138159D01*
X12379906Y7145894D01*
X12366250Y7148611D01*
D02*
G37*
G36*
X12026900Y7084186D02*
X12013244Y7081469D01*
X12001666Y7073734D01*
X11993931Y7062156D01*
X11991214Y7048500D01*
X11993931Y7034844D01*
X12001666Y7023266D01*
X12013244Y7015531D01*
X12026900Y7012814D01*
X12040556Y7015531D01*
X12052134Y7023266D01*
X12059869Y7034844D01*
X12062586Y7048500D01*
X12059869Y7062156D01*
X12052134Y7073734D01*
X12040556Y7081469D01*
X12026900Y7084186D01*
D02*
G37*
G36*
X11125200D02*
X11111544Y7081469D01*
X11099966Y7073734D01*
X11092231Y7062156D01*
X11089514Y7048500D01*
X11092231Y7034844D01*
X11099966Y7023266D01*
X11111544Y7015531D01*
X11125200Y7012814D01*
X11138856Y7015531D01*
X11150434Y7023266D01*
X11158169Y7034844D01*
X11160886Y7048500D01*
X11158169Y7062156D01*
X11150434Y7073734D01*
X11138856Y7081469D01*
X11125200Y7084186D01*
D02*
G37*
G36*
X7549941Y7082371D02*
X7536284Y7079654D01*
X7524707Y7071919D01*
X7516972Y7060341D01*
X7514255Y7046685D01*
X7516972Y7033029D01*
X7524707Y7021452D01*
X7536284Y7013716D01*
X7549941Y7010999D01*
X7563597Y7013716D01*
X7575174Y7021452D01*
X7582910Y7033029D01*
X7585626Y7046685D01*
X7582910Y7060341D01*
X7575174Y7071919D01*
X7563597Y7079654D01*
X7549941Y7082371D01*
D02*
G37*
G36*
X11725030Y7025819D02*
Y7002000D01*
X11748849D01*
X11748651Y7002997D01*
X11739589Y7016559D01*
X11726027Y7025621D01*
X11725030Y7025819D01*
D02*
G37*
G36*
X11695030D02*
X11694032Y7025621D01*
X11680470Y7016559D01*
X11671409Y7002997D01*
X11671210Y7002000D01*
X11695030D01*
Y7025819D01*
D02*
G37*
G36*
X8961321Y7312786D02*
X8947664Y7310069D01*
X8936087Y7302334D01*
X8928351Y7290756D01*
X8925635Y7277100D01*
X8928351Y7263444D01*
X8936087Y7251866D01*
X8947664Y7244131D01*
X8960922Y7241494D01*
Y7089284D01*
X8962475Y7081480D01*
X8966895Y7074864D01*
X9007678Y7034081D01*
X9007679Y7034081D01*
X9014294Y7029660D01*
X9022098Y7028108D01*
X9022099Y7028108D01*
X9043450D01*
X9050238Y7015408D01*
X9047531Y7011356D01*
X9044814Y6997700D01*
X9047531Y6984044D01*
X9055266Y6972466D01*
X9066844Y6964731D01*
X9080500Y6962014D01*
X9094156Y6964731D01*
X9105734Y6972466D01*
X9113469Y6984044D01*
X9116186Y6997700D01*
X9113469Y7011356D01*
X9110762Y7015408D01*
X9117550Y7028108D01*
X9189317D01*
X9192552Y7023266D01*
X9204129Y7015531D01*
X9217786Y7012814D01*
X9231442Y7015531D01*
X9243019Y7023266D01*
X9250755Y7034844D01*
X9253471Y7048500D01*
X9250755Y7062156D01*
X9243019Y7073734D01*
X9233891Y7079833D01*
X9235936Y7092371D01*
X9236003Y7092533D01*
X9374625D01*
X9424582Y7042576D01*
X9423445Y7036865D01*
X9426162Y7023209D01*
X9433898Y7011632D01*
X9445475Y7003896D01*
X9459131Y7001180D01*
X9472788Y7003896D01*
X9484365Y7011632D01*
X9492100Y7023209D01*
X9494817Y7036865D01*
X9492100Y7050522D01*
X9484365Y7062099D01*
X9472788Y7069834D01*
X9459131Y7072551D01*
X9453420Y7071415D01*
X9397491Y7127344D01*
X9390875Y7131765D01*
X9383071Y7133317D01*
X9083569D01*
X9080334Y7138159D01*
X9068756Y7145894D01*
X9055100Y7148611D01*
X9041444Y7145894D01*
X9029866Y7138159D01*
X9022131Y7126581D01*
X9019414Y7112925D01*
X9022131Y7099269D01*
X9028930Y7089093D01*
X9028062Y7081387D01*
X9026198Y7074869D01*
X9024965Y7074471D01*
X9001706Y7097731D01*
Y7257105D01*
X9001706Y7257106D01*
X9000154Y7264910D01*
X8995860Y7271337D01*
X8997006Y7277100D01*
X8994290Y7290756D01*
X8986554Y7302334D01*
X8974977Y7310069D01*
X8961321Y7312786D01*
D02*
G37*
G36*
X10033000Y7255026D02*
X10019344Y7252309D01*
X10007766Y7244574D01*
X10000031Y7232996D01*
X9997314Y7219340D01*
X10000031Y7205684D01*
X10007766Y7194107D01*
X10019344Y7186371D01*
X10033000Y7183654D01*
X10046656Y7186371D01*
X10050708Y7189078D01*
X10063408Y7182290D01*
Y7064269D01*
X10058566Y7061034D01*
X10050831Y7049456D01*
X10048114Y7035800D01*
X10050831Y7022144D01*
X10058566Y7010566D01*
X10070144Y7002831D01*
X10083800Y7000114D01*
X10097456Y7002831D01*
X10109034Y7010566D01*
X10116769Y7022144D01*
X10119486Y7035800D01*
X10116769Y7049456D01*
X10109034Y7061034D01*
X10104192Y7064269D01*
Y7199944D01*
X10102640Y7207747D01*
X10098219Y7214363D01*
X10084563Y7228019D01*
X10077947Y7232440D01*
X10070144Y7233992D01*
X10065304D01*
X10058234Y7244574D01*
X10046656Y7252309D01*
X10033000Y7255026D01*
D02*
G37*
G36*
X7277100Y7071486D02*
X7263444Y7068769D01*
X7251866Y7061034D01*
X7244131Y7049456D01*
X7241414Y7035800D01*
X7244131Y7022144D01*
X7251866Y7010566D01*
X7263444Y7002831D01*
X7277100Y7000114D01*
X7290756Y7002831D01*
X7302334Y7010566D01*
X7310069Y7022144D01*
X7312786Y7035800D01*
X7310069Y7049456D01*
X7302334Y7061034D01*
X7290756Y7068769D01*
X7277100Y7071486D01*
D02*
G37*
G36*
X11748849Y6972000D02*
X11725030D01*
Y6948181D01*
X11726027Y6948379D01*
X11739589Y6957441D01*
X11748651Y6971003D01*
X11748849Y6972000D01*
D02*
G37*
G36*
X11695030D02*
X11671210D01*
X11671409Y6971003D01*
X11680470Y6957441D01*
X11694032Y6948379D01*
X11695030Y6948181D01*
Y6972000D01*
D02*
G37*
G36*
X10111500Y6959900D02*
Y6936081D01*
X10135319D01*
X10135121Y6937079D01*
X10126059Y6950640D01*
X10112497Y6959702D01*
X10111500Y6959900D01*
D02*
G37*
G36*
X10081500D02*
X10080503Y6959702D01*
X10066941Y6950640D01*
X10057879Y6937079D01*
X10057681Y6936081D01*
X10081500D01*
Y6959900D01*
D02*
G37*
G36*
X7035800Y7007986D02*
X7022144Y7005269D01*
X7010566Y6997534D01*
X7002831Y6985956D01*
X7000114Y6972300D01*
X7002831Y6958644D01*
X7010566Y6947066D01*
X7022144Y6939331D01*
X7035800Y6936614D01*
X7049456Y6939331D01*
X7061034Y6947066D01*
X7063886Y6951336D01*
X7121631D01*
X7124866Y6946494D01*
X7136444Y6938759D01*
X7150100Y6936042D01*
X7163756Y6938759D01*
X7175334Y6946494D01*
X7183069Y6958071D01*
X7185786Y6971728D01*
X7183069Y6985384D01*
X7175334Y6996961D01*
X7163756Y7004697D01*
X7150100Y7007413D01*
X7136444Y7004697D01*
X7124866Y6996961D01*
X7121631Y6992120D01*
X7064651D01*
X7061034Y6997534D01*
X7049456Y7005269D01*
X7035800Y7007986D01*
D02*
G37*
G36*
X7254000Y6952829D02*
Y6929010D01*
X7277819D01*
X7277621Y6930007D01*
X7268559Y6943569D01*
X7254997Y6952631D01*
X7254000Y6952829D01*
D02*
G37*
G36*
X7224000D02*
X7223003Y6952631D01*
X7209441Y6943569D01*
X7200379Y6930007D01*
X7200181Y6929010D01*
X7224000D01*
Y6952829D01*
D02*
G37*
G36*
X7663840Y6996681D02*
X7650184Y6993965D01*
X7638607Y6986229D01*
X7630871Y6974652D01*
X7628154Y6960996D01*
X7630871Y6947339D01*
X7638607Y6935762D01*
X7650184Y6928027D01*
X7663840Y6925310D01*
X7677496Y6928027D01*
X7689074Y6935762D01*
X7696809Y6947339D01*
X7699526Y6960996D01*
X7696809Y6974652D01*
X7689074Y6986229D01*
X7677496Y6993965D01*
X7663840Y6996681D01*
D02*
G37*
G36*
X10327470Y6935819D02*
Y6912000D01*
X10351289D01*
X10351091Y6912997D01*
X10342029Y6926559D01*
X10328467Y6935621D01*
X10327470Y6935819D01*
D02*
G37*
G36*
X10297470D02*
X10296472Y6935621D01*
X10282911Y6926559D01*
X10273849Y6912997D01*
X10273651Y6912000D01*
X10297470D01*
Y6935819D01*
D02*
G37*
G36*
X9882900Y6935052D02*
Y6911233D01*
X9906719D01*
X9906521Y6912230D01*
X9897459Y6925792D01*
X9883897Y6934854D01*
X9882900Y6935052D01*
D02*
G37*
G36*
X9852900D02*
X9851903Y6934854D01*
X9838341Y6925792D01*
X9829279Y6912230D01*
X9829081Y6911233D01*
X9852900D01*
Y6935052D01*
D02*
G37*
G36*
X8978900Y6982586D02*
X8965244Y6979869D01*
X8953666Y6972134D01*
X8945931Y6960556D01*
X8943214Y6946900D01*
X8945931Y6933244D01*
X8953666Y6921666D01*
X8965244Y6913931D01*
X8978900Y6911214D01*
X8992556Y6913931D01*
X9004134Y6921666D01*
X9011869Y6933244D01*
X9014586Y6946900D01*
X9011869Y6960556D01*
X9004134Y6972134D01*
X8992556Y6979869D01*
X8978900Y6982586D01*
D02*
G37*
G36*
X9550400Y6974444D02*
X9536744Y6971728D01*
X9525166Y6963992D01*
X9517431Y6952415D01*
X9514714Y6938759D01*
X9517431Y6925102D01*
X9525166Y6913525D01*
X9536744Y6905789D01*
X9550400Y6903073D01*
X9564056Y6905789D01*
X9575634Y6913525D01*
X9583369Y6925102D01*
X9586086Y6938759D01*
X9583369Y6952415D01*
X9575634Y6963992D01*
X9564056Y6971728D01*
X9550400Y6974444D01*
D02*
G37*
G36*
X12118800Y6969886D02*
X12105144Y6967169D01*
X12093566Y6959434D01*
X12085831Y6947856D01*
X12083114Y6934200D01*
X12085831Y6920544D01*
X12093566Y6908966D01*
X12105144Y6901231D01*
X12118800Y6898514D01*
X12132456Y6901231D01*
X12144034Y6908966D01*
X12151769Y6920544D01*
X12154486Y6934200D01*
X12151769Y6947856D01*
X12144034Y6959434D01*
X12132456Y6967169D01*
X12118800Y6969886D01*
D02*
G37*
G36*
X10135319Y6906081D02*
X10111500D01*
Y6882262D01*
X10112497Y6882460D01*
X10126059Y6891522D01*
X10135121Y6905084D01*
X10135319Y6906081D01*
D02*
G37*
G36*
X10081500D02*
X10057681D01*
X10057879Y6905084D01*
X10066941Y6891522D01*
X10080503Y6882460D01*
X10081500Y6882262D01*
Y6906081D01*
D02*
G37*
G36*
X7277819Y6899010D02*
X7254000D01*
Y6875190D01*
X7254997Y6875389D01*
X7268559Y6884451D01*
X7277621Y6898012D01*
X7277819Y6899010D01*
D02*
G37*
G36*
X7224000D02*
X7200181D01*
X7200379Y6898012D01*
X7209441Y6884451D01*
X7223003Y6875389D01*
X7224000Y6875190D01*
Y6899010D01*
D02*
G37*
G36*
X10351289Y6882000D02*
X10327470D01*
Y6858181D01*
X10328467Y6858379D01*
X10342029Y6867441D01*
X10351091Y6881002D01*
X10351289Y6882000D01*
D02*
G37*
G36*
X10297470D02*
X10273651D01*
X10273849Y6881002D01*
X10282911Y6867441D01*
X10296472Y6858379D01*
X10297470Y6858181D01*
Y6882000D01*
D02*
G37*
G36*
X9906719Y6881233D02*
X9882900D01*
Y6857413D01*
X9883897Y6857612D01*
X9897459Y6866673D01*
X9906521Y6880235D01*
X9906719Y6881233D01*
D02*
G37*
G36*
X9852900D02*
X9829081D01*
X9829279Y6880235D01*
X9838341Y6866673D01*
X9851903Y6857612D01*
X9852900Y6857413D01*
Y6881233D01*
D02*
G37*
G36*
X9017000Y6906386D02*
X9003344Y6903669D01*
X8991766Y6895934D01*
X8984031Y6884356D01*
X8981314Y6870700D01*
X8983360Y6860417D01*
X8974472Y6852664D01*
X8973067Y6852020D01*
X8967156Y6855969D01*
X8953500Y6858686D01*
X8939844Y6855969D01*
X8928266Y6848234D01*
X8920531Y6836656D01*
X8917814Y6823000D01*
X8920531Y6809344D01*
X8928266Y6797766D01*
X8939844Y6790031D01*
X8953500Y6787314D01*
X8967156Y6790031D01*
X8978734Y6797766D01*
X8986469Y6809344D01*
X8989186Y6823000D01*
X8987140Y6833283D01*
X8996028Y6841036D01*
X8997433Y6841680D01*
X9003344Y6837731D01*
X9017000Y6835014D01*
X9030656Y6837731D01*
X9042234Y6845466D01*
X9049969Y6857044D01*
X9052686Y6870700D01*
X9049969Y6884356D01*
X9042234Y6895934D01*
X9030656Y6903669D01*
X9017000Y6906386D01*
D02*
G37*
G36*
X11800600Y6830819D02*
Y6807000D01*
X11824419D01*
X11824221Y6807998D01*
X11815159Y6821559D01*
X11801597Y6830621D01*
X11800600Y6830819D01*
D02*
G37*
G36*
X11770600D02*
X11769603Y6830621D01*
X11756041Y6821559D01*
X11746979Y6807998D01*
X11746781Y6807000D01*
X11770600D01*
Y6830819D01*
D02*
G37*
G36*
X7802173Y6858686D02*
X7788516Y6855969D01*
X7776939Y6848234D01*
X7769203Y6836656D01*
X7766487Y6823000D01*
X7769203Y6809344D01*
X7776939Y6797766D01*
X7788516Y6790031D01*
X7802173Y6787314D01*
X7815829Y6790031D01*
X7827406Y6797766D01*
X7835142Y6809344D01*
X7837858Y6823000D01*
X7835142Y6836656D01*
X7827406Y6848234D01*
X7815829Y6855969D01*
X7802173Y6858686D01*
D02*
G37*
G36*
X11998250Y6866333D02*
X11981667Y6863034D01*
X11967609Y6853641D01*
X11958216Y6839583D01*
X11954917Y6823000D01*
X11958216Y6806417D01*
X11967609Y6792359D01*
X11981667Y6782966D01*
X11998250Y6779667D01*
X12014832Y6782966D01*
X12028891Y6792359D01*
X12038284Y6806417D01*
X12041582Y6823000D01*
X12038284Y6839583D01*
X12028891Y6853641D01*
X12014832Y6863034D01*
X11998250Y6866333D01*
D02*
G37*
G36*
X11824419Y6777000D02*
X11800600D01*
Y6753181D01*
X11801597Y6753379D01*
X11815159Y6762441D01*
X11824221Y6776003D01*
X11824419Y6777000D01*
D02*
G37*
G36*
X11770600D02*
X11746781D01*
X11746979Y6776003D01*
X11756041Y6762441D01*
X11769603Y6753379D01*
X11770600Y6753181D01*
Y6777000D01*
D02*
G37*
G36*
X11413639Y6765446D02*
Y6741627D01*
X11437458D01*
X11437260Y6742624D01*
X11428198Y6756186D01*
X11414636Y6765248D01*
X11413639Y6765446D01*
D02*
G37*
G36*
X11383639D02*
X11382641Y6765248D01*
X11369080Y6756186D01*
X11360018Y6742624D01*
X11359820Y6741627D01*
X11383639D01*
Y6765446D01*
D02*
G37*
G36*
X9476500D02*
Y6741627D01*
X9500319D01*
X9500121Y6742624D01*
X9491059Y6756186D01*
X9477497Y6765248D01*
X9476500Y6765446D01*
D02*
G37*
G36*
X9446500D02*
X9445503Y6765248D01*
X9431941Y6756186D01*
X9422879Y6742624D01*
X9422681Y6741627D01*
X9446500D01*
Y6765446D01*
D02*
G37*
G36*
X10210800Y6807856D02*
X10197144Y6805140D01*
X10185566Y6797404D01*
X10177831Y6785827D01*
X10175114Y6772170D01*
X10177831Y6758514D01*
X10185566Y6746937D01*
X10197144Y6739201D01*
X10210800Y6736485D01*
X10224456Y6739201D01*
X10236034Y6746937D01*
X10243769Y6758514D01*
X10246486Y6772170D01*
X10243769Y6785827D01*
X10236034Y6797404D01*
X10224456Y6805140D01*
X10210800Y6807856D01*
D02*
G37*
G36*
X9906000D02*
X9892344Y6805140D01*
X9880766Y6797404D01*
X9873031Y6785827D01*
X9870314Y6772170D01*
X9873031Y6758514D01*
X9880766Y6746937D01*
X9892344Y6739201D01*
X9906000Y6736485D01*
X9919656Y6739201D01*
X9931234Y6746937D01*
X9938969Y6758514D01*
X9941686Y6772170D01*
X9938969Y6785827D01*
X9931234Y6797404D01*
X9919656Y6805140D01*
X9906000Y6807856D01*
D02*
G37*
G36*
X8890000Y6792086D02*
X8876344Y6789369D01*
X8864766Y6781634D01*
X8857031Y6770056D01*
X8854314Y6756400D01*
X8857031Y6742744D01*
X8864766Y6731166D01*
X8876344Y6723431D01*
X8890000Y6720714D01*
X8903656Y6723431D01*
X8915234Y6731166D01*
X8922969Y6742744D01*
X8925686Y6756400D01*
X8922969Y6770056D01*
X8915234Y6781634D01*
X8903656Y6789369D01*
X8890000Y6792086D01*
D02*
G37*
G36*
X7899400Y6842886D02*
X7885744Y6840169D01*
X7874166Y6832434D01*
X7866431Y6820856D01*
X7863714Y6807200D01*
X7866431Y6793544D01*
X7874166Y6781966D01*
X7885744Y6774231D01*
X7899400Y6771514D01*
X7913056Y6774231D01*
X7920986Y6779529D01*
X7930142Y6770373D01*
X7929931Y6770056D01*
X7927214Y6756400D01*
X7929931Y6742744D01*
X7937666Y6731166D01*
X7949244Y6723431D01*
X7962900Y6720714D01*
X7976556Y6723431D01*
X7988134Y6731166D01*
X7995869Y6742744D01*
X7998586Y6756400D01*
X7995869Y6770056D01*
X7988134Y6781634D01*
X7976556Y6789369D01*
X7962900Y6792086D01*
X7949244Y6789369D01*
X7941314Y6784071D01*
X7932158Y6793227D01*
X7932369Y6793544D01*
X7935086Y6807200D01*
X7932369Y6820856D01*
X7924634Y6832434D01*
X7913056Y6840169D01*
X7899400Y6842886D01*
D02*
G37*
G36*
X12003250Y6746569D02*
X11963249D01*
Y6695000D01*
X12067845D01*
X12067551Y6697229D01*
X12060901Y6713285D01*
X12050322Y6727072D01*
X12036535Y6737651D01*
X12020479Y6744301D01*
X12003250Y6746569D01*
D02*
G37*
G36*
X11933249D02*
X11893250D01*
X11876020Y6744301D01*
X11859965Y6737651D01*
X11846178Y6727072D01*
X11835599Y6713285D01*
X11828949Y6697229D01*
X11828655Y6695000D01*
X11933249D01*
Y6746569D01*
D02*
G37*
G36*
X12406250D02*
X12381250D01*
Y6695000D01*
X12470845D01*
X12470551Y6697229D01*
X12463900Y6713285D01*
X12453321Y6727072D01*
X12439534Y6737651D01*
X12423479Y6744301D01*
X12406250Y6746569D01*
D02*
G37*
G36*
X12351250D02*
X12326250D01*
X12309021Y6744301D01*
X12292965Y6737651D01*
X12279178Y6727072D01*
X12268599Y6713285D01*
X12261949Y6697229D01*
X12261655Y6695000D01*
X12351250D01*
Y6746569D01*
D02*
G37*
G36*
X11437458Y6711627D02*
X11413639D01*
Y6687807D01*
X11414636Y6688006D01*
X11428198Y6697067D01*
X11437260Y6710629D01*
X11437458Y6711627D01*
D02*
G37*
G36*
X11383639D02*
X11359820D01*
X11360018Y6710629D01*
X11369080Y6697067D01*
X11382641Y6688006D01*
X11383639Y6687807D01*
Y6711627D01*
D02*
G37*
G36*
X9500319D02*
X9476500D01*
Y6687807D01*
X9477497Y6688006D01*
X9491059Y6697067D01*
X9500121Y6710629D01*
X9500319Y6711627D01*
D02*
G37*
G36*
X9446500D02*
X9422681D01*
X9422879Y6710629D01*
X9431941Y6697067D01*
X9445503Y6688006D01*
X9446500Y6687807D01*
Y6711627D01*
D02*
G37*
G36*
X11462006Y7392682D02*
X11448349Y7389966D01*
X11436772Y7382230D01*
X11429037Y7370653D01*
X11426320Y7356997D01*
X11429037Y7343340D01*
X11436772Y7331763D01*
X11445294Y7326069D01*
Y6972300D01*
X11446846Y6964496D01*
X11451266Y6957881D01*
X11690078Y6719069D01*
Y6689023D01*
X11678345Y6684162D01*
X11308539Y7053969D01*
X11307272Y7060341D01*
X11299536Y7071919D01*
X11287959Y7079654D01*
X11274302Y7082371D01*
X11260646Y7079654D01*
X11249069Y7071919D01*
X11241333Y7060341D01*
X11238617Y7046685D01*
X11241333Y7033029D01*
X11249069Y7021452D01*
X11260646Y7013716D01*
X11274302Y7010999D01*
X11287959Y7013716D01*
X11289850Y7014980D01*
X11660079Y6644752D01*
Y6006834D01*
X11647379Y6005584D01*
X11646421Y6010397D01*
X11637359Y6023959D01*
X11623797Y6033021D01*
X11622800Y6033219D01*
Y5994400D01*
X11592800D01*
Y6036305D01*
X11585308Y6040628D01*
X11583499Y6042747D01*
X11583400Y6044312D01*
X11587820Y6050927D01*
X11589373Y6058731D01*
Y6143731D01*
X11594214Y6146966D01*
X11601950Y6158544D01*
X11604666Y6172200D01*
X11601950Y6185856D01*
X11594214Y6197434D01*
X11582637Y6205169D01*
X11568981Y6207886D01*
X11555324Y6205169D01*
X11543747Y6197434D01*
X11536011Y6185856D01*
X11533295Y6172200D01*
X11536011Y6158544D01*
X11543747Y6146966D01*
X11548589Y6143731D01*
Y6067178D01*
X11511214Y6029804D01*
X11506794Y6023188D01*
X11505242Y6015384D01*
Y5998816D01*
X11506794Y5991012D01*
X11511214Y5984396D01*
X11791589Y5704023D01*
Y5665628D01*
X11786747Y5662393D01*
X11779011Y5650816D01*
X11778773Y5649619D01*
X11765194Y5646453D01*
X11755321Y5659321D01*
X11734431Y5675350D01*
X11710105Y5685426D01*
X11684000Y5688863D01*
X11657895Y5685426D01*
X11633569Y5675350D01*
X11612679Y5659321D01*
X11596650Y5638431D01*
X11590092Y5622598D01*
X11577392Y5625124D01*
Y5854532D01*
X11577392Y5854533D01*
X11575840Y5862337D01*
X11571419Y5868953D01*
X11571419Y5868953D01*
X11329953Y6110419D01*
X11324837Y6113838D01*
X11322717Y6117383D01*
X11320021Y6128448D01*
X11323269Y6133310D01*
X11325985Y6146966D01*
X11324849Y6152678D01*
X11380919Y6208747D01*
X11380919Y6208747D01*
X11385340Y6215363D01*
X11386892Y6223167D01*
Y6311136D01*
X11465793Y6390038D01*
X11525461D01*
X11528696Y6385196D01*
X11540273Y6377460D01*
X11553930Y6374744D01*
X11567586Y6377460D01*
X11579163Y6385196D01*
X11586899Y6396773D01*
X11589615Y6410430D01*
X11586899Y6424086D01*
X11579163Y6435663D01*
X11567586Y6443399D01*
X11553930Y6446115D01*
X11540273Y6443399D01*
X11528696Y6435663D01*
X11525461Y6430822D01*
X11457348D01*
X11457346Y6430822D01*
X11449543Y6429269D01*
X11442927Y6424849D01*
X11352081Y6334003D01*
X11347660Y6327387D01*
X11346108Y6319583D01*
Y6231613D01*
X11296011Y6181516D01*
X11290300Y6182652D01*
X11276643Y6179936D01*
X11265066Y6172200D01*
X11257331Y6160623D01*
X11254614Y6146966D01*
X11257331Y6133310D01*
X11260149Y6129092D01*
X11253361Y6116392D01*
X10755365D01*
X10448251Y6423505D01*
X10441636Y6427926D01*
X10433832Y6429478D01*
X10324144D01*
X10316340Y6427926D01*
X10309724Y6423505D01*
X10240614Y6354394D01*
X9832412D01*
X9816117Y6370690D01*
X9824213Y6380555D01*
X9828844Y6377460D01*
X9842500Y6374744D01*
X9856156Y6377460D01*
X9867734Y6385196D01*
X9875469Y6396773D01*
X9878186Y6410430D01*
X9875469Y6424086D01*
X9867734Y6435663D01*
X9856156Y6443399D01*
X9842500Y6446115D01*
X9828844Y6443399D01*
X9817266Y6435663D01*
X9814436Y6431426D01*
X9809921Y6430951D01*
X9800011Y6432698D01*
X9797332Y6436707D01*
X9762750Y6471289D01*
X9763886Y6477000D01*
X9761169Y6490656D01*
X9753434Y6502234D01*
X9741856Y6509969D01*
X9728200Y6512686D01*
X9714544Y6509969D01*
X9702966Y6502234D01*
X9695231Y6490656D01*
X9694633Y6487649D01*
X9682633Y6484511D01*
X9673430Y6492480D01*
Y6813825D01*
X9680060Y6820455D01*
X9692854Y6823000D01*
X9704431Y6830736D01*
X9712167Y6842313D01*
X9714883Y6855969D01*
X9712167Y6869626D01*
X9704431Y6881203D01*
X9692854Y6888938D01*
X9679197Y6891655D01*
X9665541Y6888938D01*
X9653964Y6881203D01*
X9646228Y6869626D01*
X9643512Y6855969D01*
X9645898Y6843971D01*
X9638619Y6836691D01*
X9634198Y6830075D01*
X9632646Y6822272D01*
Y6490355D01*
X9627804Y6487119D01*
X9620069Y6475542D01*
X9617352Y6461886D01*
X9620069Y6448229D01*
X9627804Y6436652D01*
X9639382Y6428917D01*
X9653038Y6426200D01*
X9666694Y6428917D01*
X9678272Y6436652D01*
X9686007Y6448229D01*
X9686936Y6452898D01*
X9700418Y6455580D01*
X9702966Y6451766D01*
X9714544Y6444031D01*
X9728200Y6441314D01*
X9733911Y6442450D01*
X9762520Y6413841D01*
Y6383515D01*
X9749821Y6382264D01*
X9749565Y6383548D01*
X9748469Y6389056D01*
X9740734Y6400634D01*
X9729156Y6408369D01*
X9715500Y6411086D01*
X9701844Y6408369D01*
X9690266Y6400634D01*
X9682531Y6389056D01*
X9679814Y6375400D01*
X9682531Y6361744D01*
X9690266Y6350166D01*
X9701844Y6342431D01*
X9715500Y6339714D01*
X9729156Y6342431D01*
X9740734Y6350166D01*
X9748469Y6361744D01*
X9750095Y6369919D01*
X9750345Y6371170D01*
X9763293D01*
X9763360Y6370836D01*
X9764073Y6367252D01*
X9768493Y6360637D01*
X9809546Y6319583D01*
X9816162Y6315163D01*
X9823966Y6313611D01*
X10249060D01*
X10256864Y6315163D01*
X10263480Y6319583D01*
X10332590Y6388694D01*
X10425385D01*
X10732498Y6081581D01*
X10732499Y6081581D01*
X10739114Y6077160D01*
X10746918Y6075608D01*
X10746919Y6075608D01*
X10815743D01*
X10817836Y6069026D01*
X10817856Y6062908D01*
X10807866Y6056234D01*
X10800131Y6044656D01*
X10797414Y6031000D01*
X10800131Y6017344D01*
X10807866Y6005766D01*
X10819444Y5998031D01*
X10833100Y5995314D01*
X10846756Y5998031D01*
X10858334Y6005766D01*
X10866069Y6017344D01*
X10868786Y6031000D01*
X10866069Y6044656D01*
X10858334Y6056234D01*
X10848344Y6062908D01*
X10848364Y6069026D01*
X10850457Y6075608D01*
X11004159D01*
X11008011Y6062908D01*
X11006741Y6062059D01*
X10997679Y6048497D01*
X10997481Y6047500D01*
X11075119D01*
X11074921Y6048497D01*
X11065859Y6062059D01*
X11064589Y6062908D01*
X11068441Y6075608D01*
X11235004D01*
X11238856Y6062908D01*
X11235341Y6060559D01*
X11226279Y6046997D01*
X11226081Y6046000D01*
X11303719D01*
X11303521Y6046997D01*
X11294459Y6060559D01*
X11290944Y6062908D01*
X11294796Y6075608D01*
X11307087D01*
X11536608Y5846087D01*
Y5625124D01*
X11523908Y5622598D01*
X11517350Y5638431D01*
X11501321Y5659321D01*
X11480431Y5675350D01*
X11456105Y5685426D01*
X11430000Y5688863D01*
X11403895Y5685426D01*
X11379569Y5675350D01*
X11358679Y5659321D01*
X11342650Y5638431D01*
X11332574Y5614105D01*
X11329137Y5588000D01*
X11332574Y5561895D01*
X11342650Y5537569D01*
X11358679Y5516679D01*
X11379569Y5500650D01*
X11403895Y5490574D01*
X11430000Y5487137D01*
X11456105Y5490574D01*
X11480431Y5500650D01*
X11501321Y5516679D01*
X11517350Y5537569D01*
X11523908Y5553402D01*
X11536608Y5550876D01*
Y5511095D01*
X11538160Y5503291D01*
X11542581Y5496676D01*
X11643475Y5395781D01*
X11643476Y5395781D01*
X11650091Y5391360D01*
X11657895Y5389808D01*
X11657896Y5389808D01*
X12245745D01*
X12246571Y5388571D01*
X12256495Y5381941D01*
X12268200Y5379612D01*
X12279905Y5381941D01*
X12289829Y5388571D01*
X12400051Y5498794D01*
X12419895Y5490574D01*
X12446000Y5487137D01*
X12472105Y5490574D01*
X12496431Y5500650D01*
X12517321Y5516679D01*
X12533350Y5537569D01*
X12543426Y5561895D01*
X12546863Y5588000D01*
X12543426Y5614105D01*
X12533350Y5638431D01*
X12517321Y5659321D01*
X12496431Y5675350D01*
X12472105Y5685426D01*
X12446000Y5688863D01*
X12419895Y5685426D01*
X12395569Y5675350D01*
X12374679Y5659321D01*
X12358650Y5638431D01*
X12348574Y5614105D01*
X12345137Y5588000D01*
X12348574Y5561895D01*
X12356794Y5542051D01*
X12246571Y5431829D01*
X12245745Y5430592D01*
X11666341D01*
X11577392Y5519542D01*
Y5550876D01*
X11590092Y5553402D01*
X11596650Y5537569D01*
X11612679Y5516679D01*
X11633569Y5500650D01*
X11657895Y5490574D01*
X11684000Y5487137D01*
X11710105Y5490574D01*
X11734431Y5500650D01*
X11755321Y5516679D01*
X11771350Y5537569D01*
X11781426Y5561895D01*
X11784863Y5588000D01*
X11783432Y5598866D01*
X11795272Y5606229D01*
X11798324Y5604190D01*
X11811980Y5601474D01*
X11825637Y5604190D01*
X11826538Y5604793D01*
X11838379Y5597430D01*
X11837137Y5588000D01*
X11840574Y5561895D01*
X11850650Y5537569D01*
X11866679Y5516679D01*
X11887569Y5500650D01*
X11911895Y5490574D01*
X11938000Y5487137D01*
X11964105Y5490574D01*
X11988431Y5500650D01*
X12009321Y5516679D01*
X12025350Y5537569D01*
X12035426Y5561895D01*
X12038863Y5588000D01*
X12035426Y5614105D01*
X12025350Y5638431D01*
X12009321Y5659321D01*
X11988431Y5675350D01*
X11964105Y5685426D01*
X11938000Y5688863D01*
X11911895Y5685426D01*
X11887569Y5675350D01*
X11866679Y5659321D01*
X11858363Y5648482D01*
X11844950Y5650816D01*
X11837214Y5662393D01*
X11832372Y5665628D01*
Y5712469D01*
X11830820Y5720273D01*
X11826400Y5726888D01*
X11826399Y5726889D01*
X11612671Y5940617D01*
X11616852Y5954397D01*
X11623797Y5955779D01*
X11632525Y5961611D01*
X11645816Y5956815D01*
X11646086Y5956560D01*
X11647501Y5949444D01*
X11655237Y5937866D01*
X11666814Y5930131D01*
X11680470Y5927414D01*
X11694127Y5930131D01*
X11705704Y5937866D01*
X11713440Y5949444D01*
X11716156Y5963100D01*
X11713440Y5976756D01*
X11705704Y5988334D01*
X11700862Y5991569D01*
Y6431958D01*
X11712596Y6436818D01*
X11790608Y6358805D01*
Y6184947D01*
X11792160Y6177144D01*
X11796581Y6170528D01*
X11963700Y6003408D01*
X11962564Y5997697D01*
X11965281Y5984041D01*
X11973016Y5972464D01*
X11984594Y5964728D01*
X11998250Y5962012D01*
X12011906Y5964728D01*
X12023483Y5972464D01*
X12031219Y5984041D01*
X12033936Y5997697D01*
X12031219Y6011354D01*
X12023483Y6022931D01*
X12011906Y6030667D01*
X11998250Y6033383D01*
X11992539Y6032247D01*
X11831392Y6193394D01*
Y6367251D01*
X11831392Y6367252D01*
X11829840Y6375056D01*
X11825419Y6381672D01*
X11730862Y6476229D01*
Y6727515D01*
X11729310Y6735319D01*
X11724890Y6741935D01*
X11724889Y6741935D01*
X11591417Y6875407D01*
X11597674Y6887111D01*
X11606300Y6885395D01*
X11619956Y6888112D01*
X11631534Y6895848D01*
X11639269Y6907425D01*
X11641986Y6921081D01*
X11639269Y6934737D01*
X11631534Y6946315D01*
X11619956Y6954050D01*
X11606300Y6956767D01*
X11592644Y6954050D01*
X11581066Y6946315D01*
X11573331Y6934737D01*
X11570614Y6921081D01*
X11572330Y6912455D01*
X11560626Y6906199D01*
X11486078Y6980747D01*
Y7330987D01*
X11487239Y7331763D01*
X11494975Y7343340D01*
X11497692Y7356997D01*
X11494975Y7370653D01*
X11487239Y7382230D01*
X11475662Y7389966D01*
X11462006Y7392682D01*
D02*
G37*
G36*
X8019500Y6728586D02*
X8005844Y6725869D01*
X7994266Y6718134D01*
X7986531Y6706556D01*
X7983814Y6692900D01*
X7986531Y6679244D01*
X7994266Y6667666D01*
X8005844Y6659931D01*
X8019500Y6657214D01*
X8033156Y6659931D01*
X8044734Y6667666D01*
X8052469Y6679244D01*
X8055186Y6692900D01*
X8052469Y6706556D01*
X8044734Y6718134D01*
X8033156Y6725869D01*
X8019500Y6728586D01*
D02*
G37*
G36*
X8826500Y6709279D02*
X8812844Y6706563D01*
X8801266Y6698827D01*
X8793531Y6687250D01*
X8790814Y6673594D01*
X8793531Y6659937D01*
X8801266Y6648360D01*
X8812844Y6640625D01*
X8826500Y6637908D01*
X8840156Y6640625D01*
X8851734Y6648360D01*
X8859469Y6659937D01*
X8862186Y6673594D01*
X8859469Y6687250D01*
X8851734Y6698827D01*
X8840156Y6706563D01*
X8826500Y6709279D01*
D02*
G37*
G36*
X11264900Y6690486D02*
X11251244Y6687769D01*
X11239666Y6680034D01*
X11231931Y6668456D01*
X11229214Y6654800D01*
X11231931Y6641144D01*
X11239666Y6629566D01*
X11251244Y6621831D01*
X11264900Y6619114D01*
X11278556Y6621831D01*
X11290134Y6629566D01*
X11297869Y6641144D01*
X11300586Y6654800D01*
X11297869Y6668456D01*
X11290134Y6680034D01*
X11278556Y6687769D01*
X11264900Y6690486D01*
D02*
G37*
G36*
X8128000Y6665086D02*
X8114344Y6662369D01*
X8102766Y6654634D01*
X8095031Y6643056D01*
X8092314Y6629400D01*
X8093764Y6622111D01*
X8082629Y6617657D01*
X8074893Y6629234D01*
X8063316Y6636969D01*
X8049660Y6639686D01*
X8036003Y6636969D01*
X8024426Y6629234D01*
X8016691Y6617656D01*
X8013974Y6604000D01*
X8016691Y6590344D01*
X8024426Y6578766D01*
X8036003Y6571031D01*
X8049660Y6568314D01*
X8063316Y6571031D01*
X8074893Y6578766D01*
X8082629Y6590344D01*
X8085346Y6604000D01*
X8083896Y6611289D01*
X8095031Y6615743D01*
X8102766Y6604166D01*
X8114344Y6596431D01*
X8128000Y6593714D01*
X8140192Y6596139D01*
X8143941Y6592943D01*
X8148588Y6585846D01*
X8143784Y6578656D01*
X8141068Y6565000D01*
X8143784Y6551344D01*
X8151520Y6539766D01*
X8163097Y6532031D01*
X8176754Y6529314D01*
X8185170Y6530988D01*
X8197161Y6524411D01*
X8198911Y6522437D01*
X8199397Y6518108D01*
X7975481Y6294192D01*
X7915169D01*
X7911934Y6299034D01*
X7900356Y6306769D01*
X7886700Y6309486D01*
X7873044Y6306769D01*
X7861466Y6299034D01*
X7853731Y6287456D01*
X7851014Y6273800D01*
X7853731Y6260144D01*
X7861466Y6248566D01*
X7869091Y6243472D01*
X7874424Y6228593D01*
X7873479Y6227179D01*
X7873281Y6226182D01*
X7950919D01*
X7950721Y6227179D01*
X7941659Y6240741D01*
X7945561Y6253408D01*
X7983927D01*
X7991731Y6254960D01*
X7998347Y6259381D01*
X8169858Y6430892D01*
X8183639Y6426712D01*
X8183931Y6425244D01*
X8191666Y6413666D01*
X8203244Y6405931D01*
X8216900Y6403214D01*
X8217798Y6403393D01*
X8232385Y6393586D01*
X8232855Y6391199D01*
X8062781Y6221125D01*
X8058360Y6214510D01*
X8056808Y6206706D01*
Y6014792D01*
X8051939D01*
X8044136Y6013240D01*
X8033969Y6020757D01*
X8026234Y6032334D01*
X8014656Y6040069D01*
X8001000Y6042786D01*
X7987344Y6040069D01*
X7975766Y6032334D01*
X7968031Y6020756D01*
X7965314Y6007100D01*
X7967683Y5995192D01*
X7964722Y5987253D01*
X7962177Y5982492D01*
X7894066D01*
X7884220Y5994069D01*
X7884286Y5994400D01*
X7881569Y6008056D01*
X7873834Y6019634D01*
X7862256Y6027369D01*
X7848600Y6030086D01*
X7834944Y6027369D01*
X7823366Y6019634D01*
X7815631Y6008056D01*
X7812914Y5994400D01*
X7815631Y5980744D01*
X7823366Y5969166D01*
X7834944Y5961431D01*
X7848600Y5958714D01*
X7852297Y5959450D01*
X7864066Y5947682D01*
X7864066Y5947681D01*
X7870682Y5943260D01*
X7878486Y5941708D01*
X8019640D01*
X8027443Y5943260D01*
X8034059Y5947681D01*
X8060386Y5974008D01*
X8077200D01*
X8085004Y5975560D01*
X8091619Y5979981D01*
X8096040Y5986596D01*
X8097592Y5994400D01*
Y6198259D01*
X8290889Y6391557D01*
X8296600Y6390421D01*
X8308508Y6392789D01*
X8316447Y6389828D01*
X8321208Y6387283D01*
Y6361278D01*
X8146550Y6186619D01*
X8142130Y6180004D01*
X8140577Y6172200D01*
Y5951581D01*
X8142130Y5943777D01*
X8146550Y5937162D01*
X8281531Y5802181D01*
X8288146Y5797760D01*
X8295950Y5796208D01*
X8295951Y5796208D01*
X8646140D01*
X8752879Y5689470D01*
X8752714Y5688644D01*
X8755431Y5674987D01*
X8763166Y5663410D01*
X8774744Y5655674D01*
X8788400Y5652958D01*
X8799480Y5655162D01*
X8805755Y5648339D01*
X8807539Y5644802D01*
X8802650Y5638431D01*
X8792574Y5614105D01*
X8789137Y5588000D01*
X8792574Y5561895D01*
X8802650Y5537569D01*
X8818679Y5516679D01*
X8839569Y5500650D01*
X8863895Y5490574D01*
X8890000Y5487137D01*
X8916105Y5490574D01*
X8940431Y5500650D01*
X8961321Y5516679D01*
X8977350Y5537569D01*
X8984864Y5555711D01*
X8997564Y5553185D01*
Y5463704D01*
X8999117Y5455900D01*
X9003537Y5449284D01*
X9082441Y5370381D01*
X9089056Y5365960D01*
X9096860Y5364408D01*
X9096861Y5364408D01*
X9855919D01*
X9863723Y5365960D01*
X9870339Y5370381D01*
X9904541Y5404583D01*
X9906000Y5404293D01*
X9917705Y5406621D01*
X9927629Y5413252D01*
X9934259Y5423175D01*
X9936588Y5434881D01*
Y5492431D01*
X9956431Y5500650D01*
X9977321Y5516679D01*
X9984614Y5526184D01*
X9997314Y5521873D01*
Y5412281D01*
X9891218Y5306186D01*
X8206282D01*
X7965318Y5547149D01*
X7971426Y5561895D01*
X7974863Y5588000D01*
X7971426Y5614105D01*
X7961350Y5638431D01*
X7945321Y5659321D01*
X7924431Y5675350D01*
X7900105Y5685426D01*
X7874000Y5688863D01*
X7847895Y5685426D01*
X7823569Y5675350D01*
X7802679Y5659321D01*
X7786650Y5638431D01*
X7776574Y5614105D01*
X7773137Y5588000D01*
X7776574Y5561895D01*
X7786650Y5537569D01*
X7802679Y5516679D01*
X7823569Y5500650D01*
X7847895Y5490574D01*
X7874000Y5487137D01*
X7900105Y5490574D01*
X7914851Y5496682D01*
X8166266Y5245266D01*
X8177844Y5237531D01*
X8191500Y5234814D01*
X9906000D01*
X9919656Y5237531D01*
X9931234Y5245266D01*
X10058233Y5372266D01*
X10065969Y5383843D01*
X10068685Y5397500D01*
Y5521874D01*
X10081385Y5526185D01*
X10088679Y5516679D01*
X10109569Y5500650D01*
X10133895Y5490574D01*
X10160000Y5487137D01*
X10186105Y5490574D01*
X10210431Y5500650D01*
X10231321Y5516679D01*
X10247350Y5537569D01*
X10257426Y5561895D01*
X10260863Y5588000D01*
X10257426Y5614105D01*
X10247350Y5638431D01*
X10231321Y5659321D01*
X10210431Y5675350D01*
X10186105Y5685426D01*
X10160000Y5688863D01*
X10133895Y5685426D01*
X10109569Y5675350D01*
X10088679Y5659321D01*
X10081385Y5649815D01*
X10068685Y5654126D01*
Y5970216D01*
X10236034Y6137564D01*
X10243769Y6149141D01*
X10246486Y6162797D01*
Y6260144D01*
X10243769Y6273800D01*
X10236034Y6285377D01*
X10224456Y6293113D01*
X10210800Y6295829D01*
X10197144Y6293113D01*
X10185566Y6285377D01*
X10177831Y6273800D01*
X10175114Y6260144D01*
Y6177579D01*
X10007766Y6010231D01*
X10000031Y5998653D01*
X9997314Y5984997D01*
Y5654127D01*
X9984614Y5649816D01*
X9977321Y5659321D01*
X9956431Y5675350D01*
X9932105Y5685426D01*
X9906000Y5688863D01*
X9879895Y5685426D01*
X9855569Y5675350D01*
X9834679Y5659321D01*
X9818650Y5638431D01*
X9808574Y5614105D01*
X9805137Y5588000D01*
X9808544Y5562128D01*
X9808019Y5561460D01*
X9798194Y5553769D01*
X9792656Y5557469D01*
X9779000Y5560186D01*
X9765344Y5557469D01*
X9759806Y5553769D01*
X9749981Y5561460D01*
X9749456Y5562128D01*
X9752863Y5588000D01*
X9749426Y5614105D01*
X9739350Y5638431D01*
X9723321Y5659321D01*
X9702431Y5675350D01*
X9678105Y5685426D01*
X9652000Y5688863D01*
X9625895Y5685426D01*
X9601569Y5675350D01*
X9580679Y5659321D01*
X9564650Y5638431D01*
X9554574Y5614105D01*
X9551137Y5588000D01*
X9554574Y5561895D01*
X9564650Y5537569D01*
X9580679Y5516679D01*
X9587961Y5511092D01*
X9583650Y5498392D01*
X9466350D01*
X9462039Y5511092D01*
X9469321Y5516679D01*
X9485350Y5537569D01*
X9495426Y5561895D01*
X9498863Y5588000D01*
X9495426Y5614105D01*
X9485350Y5638431D01*
X9469321Y5659321D01*
X9448431Y5675350D01*
X9424105Y5685426D01*
X9398000Y5688863D01*
X9371895Y5685426D01*
X9347569Y5675350D01*
X9326679Y5659321D01*
X9318490Y5648647D01*
X9317402Y5648304D01*
X9303495Y5649969D01*
X9302419Y5651579D01*
X9237279Y5716719D01*
X9230663Y5721140D01*
X9222859Y5722692D01*
X9063713D01*
X8853786Y5932619D01*
X8847170Y5937040D01*
X8839366Y5938592D01*
X8520975D01*
X8412647Y6046919D01*
X8406031Y6051340D01*
X8398228Y6052892D01*
X8312685D01*
X8309449Y6057734D01*
X8297872Y6065469D01*
X8284216Y6068186D01*
X8272308Y6065817D01*
X8264369Y6068778D01*
X8259608Y6071323D01*
Y6165677D01*
X8401019Y6307088D01*
X8401019Y6307089D01*
X8405440Y6313704D01*
X8406992Y6321508D01*
Y6516773D01*
X8405440Y6524577D01*
X8401019Y6531192D01*
X8401019Y6531193D01*
X8382664Y6549547D01*
X8384002Y6556270D01*
X8381285Y6569927D01*
X8373549Y6581504D01*
X8361972Y6589240D01*
X8348316Y6591956D01*
X8334659Y6589240D01*
X8323082Y6581504D01*
X8315347Y6569927D01*
X8312630Y6556270D01*
X8315347Y6542614D01*
X8319774Y6535988D01*
X8318173Y6524535D01*
X8315596Y6521121D01*
X8306335Y6514934D01*
X8298600Y6503356D01*
X8295883Y6489700D01*
X8298600Y6476044D01*
X8299910Y6474083D01*
X8298797Y6469949D01*
X8293288Y6461133D01*
X8282944Y6459075D01*
X8271366Y6451340D01*
X8264966Y6441760D01*
X8256795Y6441684D01*
X8251750Y6443101D01*
X8249869Y6452556D01*
X8242134Y6464134D01*
X8230556Y6471869D01*
X8229088Y6472161D01*
X8224908Y6485942D01*
X8236589Y6497623D01*
X8242300Y6496487D01*
X8255956Y6499203D01*
X8267534Y6506939D01*
X8275269Y6518516D01*
X8277986Y6532173D01*
X8275269Y6545829D01*
X8267534Y6557406D01*
X8255956Y6565142D01*
X8242300Y6567858D01*
X8228644Y6565142D01*
X8224875Y6562624D01*
X8221430Y6563282D01*
X8211634Y6569050D01*
X8209723Y6578656D01*
X8201987Y6590234D01*
X8190410Y6597969D01*
X8176754Y6600686D01*
X8164562Y6598261D01*
X8160813Y6601457D01*
X8156165Y6608554D01*
X8160969Y6615744D01*
X8163686Y6629400D01*
X8160969Y6643056D01*
X8153234Y6654634D01*
X8141656Y6662369D01*
X8128000Y6665086D01*
D02*
G37*
G36*
X12470844Y6665000D02*
X12381250D01*
Y6613431D01*
X12406250D01*
X12423479Y6615699D01*
X12439534Y6622349D01*
X12453321Y6632929D01*
X12463900Y6646715D01*
X12470551Y6662771D01*
X12470844Y6665000D01*
D02*
G37*
G36*
X12351250D02*
X12261655D01*
X12261949Y6662771D01*
X12268599Y6646715D01*
X12279178Y6632929D01*
X12292965Y6622349D01*
X12309021Y6615699D01*
X12326250Y6613431D01*
X12351250D01*
Y6665000D01*
D02*
G37*
G36*
X12067845Y6665000D02*
X11963249D01*
Y6613431D01*
X12003250D01*
X12020479Y6615699D01*
X12036535Y6622349D01*
X12050322Y6632929D01*
X12060901Y6646715D01*
X12067551Y6662771D01*
X12067845Y6665000D01*
D02*
G37*
G36*
X11933249D02*
X11828655D01*
X11828949Y6662771D01*
X11835599Y6646715D01*
X11846178Y6632929D01*
X11859965Y6622349D01*
X11876020Y6615699D01*
X11893250Y6613431D01*
X11933249D01*
Y6665000D01*
D02*
G37*
G36*
X10556000Y6630119D02*
Y6606300D01*
X10579819D01*
X10579621Y6607297D01*
X10570559Y6620859D01*
X10556997Y6629921D01*
X10556000Y6630119D01*
D02*
G37*
G36*
X10526000D02*
X10525003Y6629921D01*
X10511441Y6620859D01*
X10502379Y6607297D01*
X10502181Y6606300D01*
X10526000D01*
Y6630119D01*
D02*
G37*
G36*
X10210800Y6673924D02*
X10197144Y6671208D01*
X10185566Y6663472D01*
X10177831Y6651895D01*
X10175114Y6638238D01*
X10177831Y6624582D01*
X10185566Y6613005D01*
X10197144Y6605269D01*
X10210800Y6602553D01*
X10224456Y6605269D01*
X10236034Y6613005D01*
X10243769Y6624582D01*
X10246486Y6638238D01*
X10243769Y6651895D01*
X10236034Y6663472D01*
X10224456Y6671208D01*
X10210800Y6673924D01*
D02*
G37*
G36*
X9906000D02*
X9892344Y6671208D01*
X9880766Y6663472D01*
X9873031Y6651895D01*
X9870314Y6638238D01*
X9873031Y6624582D01*
X9880766Y6613005D01*
X9892344Y6605269D01*
X9906000Y6602553D01*
X9919656Y6605269D01*
X9931234Y6613005D01*
X9938969Y6624582D01*
X9941686Y6638238D01*
X9938969Y6651895D01*
X9931234Y6663472D01*
X9919656Y6671208D01*
X9906000Y6673924D01*
D02*
G37*
G36*
X7448619Y6738786D02*
X7434963Y6736069D01*
X7423385Y6728334D01*
X7415650Y6716756D01*
X7412933Y6703100D01*
X7415650Y6689444D01*
X7423385Y6677867D01*
X7434963Y6670131D01*
X7440925Y6668945D01*
X7443607Y6655462D01*
X7442366Y6654634D01*
X7434631Y6643056D01*
X7431914Y6629400D01*
X7434631Y6615744D01*
X7442366Y6604166D01*
X7453944Y6596431D01*
X7467600Y6593714D01*
X7481256Y6596431D01*
X7492834Y6604166D01*
X7500569Y6615744D01*
X7503286Y6629400D01*
X7500569Y6643056D01*
X7492834Y6654634D01*
X7481256Y6662369D01*
X7475294Y6663555D01*
X7472612Y6677038D01*
X7473853Y6677867D01*
X7481588Y6689444D01*
X7484305Y6703100D01*
X7481588Y6716756D01*
X7473853Y6728334D01*
X7462275Y6736069D01*
X7448619Y6738786D01*
D02*
G37*
G36*
X8750300Y6652386D02*
X8736644Y6649669D01*
X8725066Y6641934D01*
X8717331Y6630356D01*
X8714614Y6616700D01*
X8717331Y6603044D01*
X8725066Y6591466D01*
X8736644Y6583731D01*
X8750300Y6581014D01*
X8763956Y6583731D01*
X8775534Y6591466D01*
X8783269Y6603044D01*
X8785986Y6616700D01*
X8783269Y6630356D01*
X8775534Y6641934D01*
X8763956Y6649669D01*
X8750300Y6652386D01*
D02*
G37*
G36*
X10934700Y7719186D02*
X10921044Y7716469D01*
X10909466Y7708734D01*
X10901731Y7697156D01*
X10899014Y7683500D01*
Y6591300D01*
X10900222Y6585227D01*
X10888518Y6578971D01*
X10823933Y6643556D01*
Y6832078D01*
X10828774Y6835313D01*
X10836510Y6846891D01*
X10839226Y6860547D01*
X10836510Y6874203D01*
X10828774Y6885780D01*
X10817197Y6893516D01*
X10803541Y6896233D01*
X10789884Y6893516D01*
X10778307Y6885780D01*
X10770572Y6874203D01*
X10767855Y6860547D01*
X10770572Y6846891D01*
X10778307Y6835313D01*
X10783149Y6832078D01*
Y6635110D01*
X10784701Y6627306D01*
X10789121Y6620690D01*
X11027652Y6382160D01*
Y6343439D01*
X11022810Y6340204D01*
X11015074Y6328627D01*
X11012358Y6314970D01*
X11015074Y6301314D01*
X11022810Y6289737D01*
X11034387Y6282001D01*
X11048044Y6279285D01*
X11061700Y6282001D01*
X11073277Y6289737D01*
X11081013Y6301314D01*
X11083729Y6314970D01*
X11081013Y6328627D01*
X11073277Y6340204D01*
X11068436Y6343439D01*
Y6390607D01*
X11066883Y6398410D01*
X11062463Y6405026D01*
X10922371Y6545118D01*
X10928627Y6556822D01*
X10934700Y6555614D01*
X10948356Y6558331D01*
X10959934Y6566066D01*
X10967669Y6577644D01*
X10970386Y6591300D01*
Y7683500D01*
X10967669Y7697156D01*
X10959934Y7708734D01*
X10948356Y7716469D01*
X10934700Y7719186D01*
D02*
G37*
G36*
X10579819Y6576300D02*
X10556000D01*
Y6552481D01*
X10556997Y6552679D01*
X10570559Y6561741D01*
X10579621Y6575303D01*
X10579819Y6576300D01*
D02*
G37*
G36*
X10526000D02*
X10502181D01*
X10502379Y6575303D01*
X10511441Y6561741D01*
X10525003Y6552679D01*
X10526000Y6552481D01*
Y6576300D01*
D02*
G37*
G36*
X8677550Y6601586D02*
X8663894Y6598869D01*
X8652316Y6591134D01*
X8644581Y6579556D01*
X8641864Y6565900D01*
X8644581Y6552244D01*
X8652316Y6540666D01*
X8663894Y6532931D01*
X8677550Y6530214D01*
X8691206Y6532931D01*
X8702784Y6540666D01*
X8710519Y6552244D01*
X8713236Y6565900D01*
X8710519Y6579556D01*
X8702784Y6591134D01*
X8691206Y6598869D01*
X8677550Y6601586D01*
D02*
G37*
G36*
X7531100Y6563486D02*
X7517444Y6560769D01*
X7505866Y6553034D01*
X7498131Y6541456D01*
X7495414Y6527800D01*
X7495854Y6525589D01*
X7484424Y6517952D01*
X7481256Y6520069D01*
X7467600Y6522786D01*
X7453944Y6520069D01*
X7442366Y6512333D01*
X7434631Y6500756D01*
X7431914Y6487100D01*
X7434631Y6473443D01*
X7442366Y6461866D01*
X7453944Y6454131D01*
X7467600Y6451414D01*
X7481256Y6454131D01*
X7492834Y6461866D01*
X7500569Y6473443D01*
X7503286Y6487100D01*
X7502846Y6489310D01*
X7514276Y6496947D01*
X7517444Y6494831D01*
X7531100Y6492114D01*
X7534393Y6492769D01*
X7546214Y6487100D01*
X7548931Y6473443D01*
X7556666Y6461866D01*
X7568244Y6454131D01*
X7581900Y6451414D01*
X7595556Y6454131D01*
X7607134Y6461866D01*
X7614869Y6473443D01*
X7617586Y6487100D01*
X7614869Y6500756D01*
X7607134Y6512333D01*
X7595556Y6520069D01*
X7581900Y6522786D01*
X7578607Y6522130D01*
X7566786Y6527800D01*
X7564069Y6541456D01*
X7556334Y6553034D01*
X7544756Y6560769D01*
X7531100Y6563486D01*
D02*
G37*
G36*
X9259100Y6530240D02*
Y6506421D01*
X9282919D01*
X9282721Y6507419D01*
X9273659Y6520980D01*
X9260098Y6530042D01*
X9259100Y6530240D01*
D02*
G37*
G36*
X9229100D02*
X9228103Y6530042D01*
X9214541Y6520980D01*
X9205479Y6507419D01*
X9205281Y6506421D01*
X9229100D01*
Y6530240D01*
D02*
G37*
G36*
X10109200Y6567858D02*
X10095544Y6565142D01*
X10083966Y6557406D01*
X10076231Y6545829D01*
X10073514Y6532173D01*
X10076231Y6518516D01*
X10083966Y6506939D01*
X10095544Y6499203D01*
X10109200Y6496487D01*
X10122856Y6499203D01*
X10134434Y6506939D01*
X10142169Y6518516D01*
X10144886Y6532173D01*
X10142169Y6545829D01*
X10134434Y6557406D01*
X10122856Y6565142D01*
X10109200Y6567858D01*
D02*
G37*
G36*
X10020300D02*
X10006644Y6565142D01*
X9995066Y6557406D01*
X9987331Y6545829D01*
X9984614Y6532173D01*
X9987331Y6518516D01*
X9995066Y6506939D01*
X10006644Y6499203D01*
X10020300Y6496487D01*
X10033956Y6499203D01*
X10045534Y6506939D01*
X10053269Y6518516D01*
X10055986Y6532173D01*
X10053269Y6545829D01*
X10045534Y6557406D01*
X10033956Y6565142D01*
X10020300Y6567858D01*
D02*
G37*
G36*
X9931400D02*
X9917744Y6565142D01*
X9906166Y6557406D01*
X9898431Y6545829D01*
X9895714Y6532173D01*
X9898431Y6518516D01*
X9906166Y6506939D01*
X9917744Y6499203D01*
X9931400Y6496487D01*
X9945056Y6499203D01*
X9956634Y6506939D01*
X9964369Y6518516D01*
X9967086Y6532173D01*
X9964369Y6545829D01*
X9956634Y6557406D01*
X9945056Y6565142D01*
X9931400Y6567858D01*
D02*
G37*
G36*
X10198100Y6563486D02*
X10184444Y6560769D01*
X10172866Y6553034D01*
X10165131Y6541456D01*
X10162414Y6527800D01*
X10165131Y6514144D01*
X10172866Y6502566D01*
X10184444Y6494831D01*
X10198100Y6492114D01*
X10211756Y6494831D01*
X10223334Y6502566D01*
X10231069Y6514144D01*
X10233786Y6527800D01*
X10231069Y6541456D01*
X10223334Y6553034D01*
X10211756Y6560769D01*
X10198100Y6563486D01*
D02*
G37*
G36*
X11413639Y6527800D02*
X11399983Y6525083D01*
X11388405Y6517348D01*
X11380670Y6505771D01*
X11377953Y6492114D01*
X11380670Y6478458D01*
X11388405Y6466881D01*
X11399983Y6459145D01*
X11413639Y6456429D01*
X11427295Y6459145D01*
X11438872Y6466881D01*
X11446608Y6478458D01*
X11449325Y6492114D01*
X11446608Y6505771D01*
X11438872Y6517348D01*
X11427295Y6525083D01*
X11413639Y6527800D01*
D02*
G37*
G36*
X8610600Y6522786D02*
X8596944Y6520069D01*
X8585366Y6512333D01*
X8577631Y6500756D01*
X8574914Y6487100D01*
X8577631Y6473443D01*
X8585366Y6461866D01*
X8596944Y6454131D01*
X8610600Y6451414D01*
X8624256Y6454131D01*
X8635834Y6461866D01*
X8643569Y6473443D01*
X8646286Y6487100D01*
X8643569Y6500756D01*
X8635834Y6512333D01*
X8624256Y6520069D01*
X8610600Y6522786D01*
D02*
G37*
G36*
X12475200Y6464926D02*
Y6441106D01*
X12499019D01*
X12498821Y6442104D01*
X12489759Y6455666D01*
X12476197Y6464727D01*
X12475200Y6464926D01*
D02*
G37*
G36*
X12445200D02*
X12444202Y6464727D01*
X12430641Y6455666D01*
X12421579Y6442104D01*
X12421381Y6441106D01*
X12445200D01*
Y6464926D01*
D02*
G37*
G36*
X11305300Y6504961D02*
X11291643Y6502244D01*
X11280066Y6494509D01*
X11272331Y6482931D01*
X11269614Y6469275D01*
X11272331Y6455619D01*
X11280066Y6444041D01*
X11291643Y6436306D01*
X11305300Y6433589D01*
X11318956Y6436306D01*
X11330533Y6444041D01*
X11338269Y6455619D01*
X11340985Y6469275D01*
X11338269Y6482931D01*
X11330533Y6494509D01*
X11318956Y6502244D01*
X11305300Y6504961D01*
D02*
G37*
G36*
X10341808Y7327000D02*
X10328152Y7324284D01*
X10316574Y7316548D01*
X10308839Y7304971D01*
X10306122Y7291314D01*
X10308839Y7277658D01*
X10316574Y7266081D01*
X10328152Y7258345D01*
X10330108Y7257956D01*
Y6968141D01*
X10331660Y6960337D01*
X10336081Y6953721D01*
X10736508Y6553294D01*
Y6469431D01*
X10738060Y6461627D01*
X10742481Y6455011D01*
X10767779Y6429714D01*
X10759683Y6419849D01*
X10757856Y6421069D01*
X10744200Y6423786D01*
X10730544Y6421069D01*
X10718966Y6413334D01*
X10711231Y6401756D01*
X10708514Y6388100D01*
X10711231Y6374444D01*
X10718966Y6362866D01*
X10730544Y6355131D01*
X10744200Y6352414D01*
X10757856Y6355131D01*
X10769434Y6362866D01*
X10777169Y6374444D01*
X10779886Y6388100D01*
X10777169Y6401756D01*
X10775949Y6403583D01*
X10785814Y6411679D01*
X11019581Y6177911D01*
X11018445Y6172200D01*
X11021162Y6158544D01*
X11028897Y6146966D01*
X11040474Y6139231D01*
X11054131Y6136514D01*
X11067787Y6139231D01*
X11079364Y6146966D01*
X11087100Y6158544D01*
X11089817Y6172200D01*
X11087100Y6185856D01*
X11079364Y6197434D01*
X11067787Y6205169D01*
X11054131Y6207886D01*
X11048420Y6206750D01*
X10777292Y6477878D01*
Y6561739D01*
X10777292Y6561741D01*
X10775740Y6569544D01*
X10771319Y6576160D01*
X10771319Y6576161D01*
X10370892Y6976588D01*
Y7271843D01*
X10374777Y7277658D01*
X10377494Y7291314D01*
X10374777Y7304971D01*
X10367041Y7316548D01*
X10355464Y7324284D01*
X10341808Y7327000D01*
D02*
G37*
G36*
X10096500Y6446115D02*
X10082844Y6443399D01*
X10071266Y6435663D01*
X10063531Y6424086D01*
X10061474Y6413749D01*
X10048526D01*
X10046469Y6424086D01*
X10038734Y6435663D01*
X10027156Y6443399D01*
X10013500Y6446115D01*
X9999844Y6443399D01*
X9988266Y6435663D01*
X9980531Y6424086D01*
X9979207Y6417431D01*
X9978924Y6416011D01*
X9965976D01*
X9965693Y6417431D01*
X9964369Y6424086D01*
X9956634Y6435663D01*
X9945056Y6443399D01*
X9931400Y6446115D01*
X9917744Y6443399D01*
X9906166Y6435663D01*
X9898431Y6424086D01*
X9895714Y6410430D01*
X9898431Y6396773D01*
X9906166Y6385196D01*
X9917744Y6377460D01*
X9931400Y6374744D01*
X9945056Y6377460D01*
X9956634Y6385196D01*
X9964369Y6396773D01*
X9965693Y6403428D01*
X9965976Y6404848D01*
X9978924D01*
X9979207Y6403428D01*
X9980531Y6396773D01*
X9988266Y6385196D01*
X9999844Y6377460D01*
X10013500Y6374744D01*
X10027156Y6377460D01*
X10038734Y6385196D01*
X10046469Y6396773D01*
X10048526Y6407111D01*
X10061474D01*
X10063531Y6396773D01*
X10071266Y6385196D01*
X10082844Y6377460D01*
X10096500Y6374744D01*
X10110156Y6377460D01*
X10121734Y6385196D01*
X10129469Y6396773D01*
X10132186Y6410430D01*
X10129469Y6424086D01*
X10121734Y6435663D01*
X10110156Y6443399D01*
X10096500Y6446115D01*
D02*
G37*
G36*
X12140025Y6429570D02*
Y6405751D01*
X12163844D01*
X12163646Y6406748D01*
X12154584Y6420310D01*
X12141022Y6429372D01*
X12140025Y6429570D01*
D02*
G37*
G36*
X12110025D02*
X12109027Y6429372D01*
X12095466Y6420310D01*
X12086404Y6406748D01*
X12086205Y6405751D01*
X12110025D01*
Y6429570D01*
D02*
G37*
G36*
X9004300Y6461792D02*
X8990644Y6459075D01*
X8979066Y6451340D01*
X8971331Y6439763D01*
X8968614Y6426106D01*
X8971331Y6412450D01*
X8979066Y6400873D01*
X8990644Y6393137D01*
X9004300Y6390421D01*
X9017956Y6393137D01*
X9029534Y6400873D01*
X9037269Y6412450D01*
X9039986Y6426106D01*
X9037269Y6439763D01*
X9029534Y6451340D01*
X9017956Y6459075D01*
X9004300Y6461792D01*
D02*
G37*
G36*
X12499019Y6411106D02*
X12475200D01*
Y6387287D01*
X12476197Y6387485D01*
X12489759Y6396547D01*
X12498821Y6410109D01*
X12499019Y6411106D01*
D02*
G37*
G36*
X12445200D02*
X12421381D01*
X12421579Y6410109D01*
X12430641Y6396547D01*
X12444202Y6387485D01*
X12445200Y6387287D01*
Y6411106D01*
D02*
G37*
G36*
X9282919Y6476421D02*
X9205281D01*
X9205479Y6475424D01*
X9214541Y6461862D01*
X9228103Y6452800D01*
X9244100Y6449618D01*
X9249173Y6450627D01*
X9254138Y6438956D01*
X9254195Y6438677D01*
X9246497Y6427156D01*
X9243781Y6413500D01*
X9246497Y6399844D01*
X9254233Y6388266D01*
X9265810Y6380531D01*
X9279466Y6377814D01*
X9293123Y6380531D01*
X9304700Y6388266D01*
X9312436Y6399844D01*
X9315152Y6413500D01*
X9312436Y6427156D01*
X9304700Y6438734D01*
X9293123Y6446469D01*
X9279466Y6449186D01*
X9276734Y6448642D01*
X9271779Y6460606D01*
X9273659Y6461862D01*
X9282721Y6475424D01*
X9282919Y6476421D01*
D02*
G37*
G36*
X7660400Y6388819D02*
Y6365000D01*
X7684219D01*
X7684021Y6365997D01*
X7674959Y6379559D01*
X7661397Y6388621D01*
X7660400Y6388819D01*
D02*
G37*
G36*
X7630400D02*
X7629403Y6388621D01*
X7615841Y6379559D01*
X7606779Y6365997D01*
X7606581Y6365000D01*
X7630400D01*
Y6388819D01*
D02*
G37*
G36*
X12163844Y6375751D02*
X12140025D01*
Y6351932D01*
X12141022Y6352130D01*
X12154584Y6361192D01*
X12163646Y6374754D01*
X12163844Y6375751D01*
D02*
G37*
G36*
X12110025D02*
X12086205D01*
X12086404Y6374754D01*
X12095466Y6361192D01*
X12109027Y6352130D01*
X12110025Y6351932D01*
Y6375751D01*
D02*
G37*
G36*
X8910800Y6411086D02*
X8897144Y6408369D01*
X8885566Y6400634D01*
X8877831Y6389056D01*
X8875114Y6375400D01*
X8877831Y6361744D01*
X8885566Y6350166D01*
X8897144Y6342431D01*
X8910800Y6339714D01*
X8924456Y6342431D01*
X8936034Y6350166D01*
X8943769Y6361744D01*
X8946486Y6375400D01*
X8943769Y6389056D01*
X8936034Y6400634D01*
X8924456Y6408369D01*
X8910800Y6411086D01*
D02*
G37*
G36*
X8525150Y6461886D02*
X8511494Y6459169D01*
X8499916Y6451434D01*
X8492181Y6439856D01*
X8489464Y6426200D01*
X8492181Y6412544D01*
X8493563Y6410476D01*
X8487717Y6396364D01*
X8484225Y6395669D01*
X8472648Y6387934D01*
X8464912Y6376356D01*
X8462196Y6362700D01*
X8464912Y6349044D01*
X8472648Y6337466D01*
X8484225Y6329731D01*
X8497881Y6327014D01*
X8511538Y6329731D01*
X8523115Y6337466D01*
X8530851Y6349044D01*
X8533567Y6362700D01*
X8530851Y6376356D01*
X8529469Y6378424D01*
X8535314Y6392536D01*
X8538806Y6393231D01*
X8550384Y6400966D01*
X8558119Y6412544D01*
X8560836Y6426200D01*
X8558119Y6439856D01*
X8550384Y6451434D01*
X8538806Y6459169D01*
X8525150Y6461886D01*
D02*
G37*
G36*
X9613900Y6385686D02*
X9600244Y6382969D01*
X9588666Y6375234D01*
X9580931Y6363656D01*
X9578214Y6350000D01*
X9580931Y6336344D01*
X9588666Y6324766D01*
X9600244Y6317031D01*
X9613900Y6314314D01*
X9627556Y6317031D01*
X9639134Y6324766D01*
X9646869Y6336344D01*
X9649586Y6350000D01*
X9646869Y6363656D01*
X9639134Y6375234D01*
X9627556Y6382969D01*
X9613900Y6385686D01*
D02*
G37*
G36*
X9525000D02*
X9511344Y6382969D01*
X9499766Y6375234D01*
X9492031Y6363656D01*
X9489314Y6350000D01*
X9492031Y6336344D01*
X9499766Y6324766D01*
X9511344Y6317031D01*
X9525000Y6314314D01*
X9538656Y6317031D01*
X9550234Y6324766D01*
X9557969Y6336344D01*
X9560686Y6350000D01*
X9557969Y6363656D01*
X9550234Y6375234D01*
X9538656Y6382969D01*
X9525000Y6385686D01*
D02*
G37*
G36*
X7684219Y6335000D02*
X7660400D01*
Y6311181D01*
X7661397Y6311379D01*
X7674959Y6320441D01*
X7684021Y6334003D01*
X7684219Y6335000D01*
D02*
G37*
G36*
X7630400D02*
X7606581D01*
X7606779Y6334003D01*
X7615841Y6320441D01*
X7629403Y6311379D01*
X7630400Y6311181D01*
Y6335000D01*
D02*
G37*
G36*
X12292100Y6372986D02*
X12278444Y6370269D01*
X12266866Y6362534D01*
X12259131Y6350956D01*
X12256414Y6337300D01*
X12259131Y6323644D01*
X12266866Y6312066D01*
X12278444Y6304331D01*
X12292100Y6301614D01*
X12305756Y6304331D01*
X12317334Y6312066D01*
X12325069Y6323644D01*
X12327786Y6337300D01*
X12325069Y6350956D01*
X12317334Y6362534D01*
X12305756Y6370269D01*
X12292100Y6372986D01*
D02*
G37*
G36*
X9715500Y6309486D02*
X9701844Y6306769D01*
X9690266Y6299034D01*
X9682531Y6287456D01*
X9679814Y6273800D01*
X9682531Y6260144D01*
X9690266Y6248566D01*
X9701844Y6240831D01*
X9715500Y6238114D01*
X9729156Y6240831D01*
X9740734Y6248566D01*
X9748469Y6260144D01*
X9751186Y6273800D01*
X9748469Y6287456D01*
X9740734Y6299034D01*
X9729156Y6306769D01*
X9715500Y6309486D01*
D02*
G37*
G36*
X7638096Y6296791D02*
X7638095Y6296786D01*
X7624439Y6294069D01*
X7612862Y6286334D01*
X7605127Y6274756D01*
X7602410Y6261100D01*
X7605127Y6247444D01*
X7612862Y6235866D01*
X7624439Y6228131D01*
X7638096Y6225414D01*
X7651752Y6228131D01*
X7663329Y6235866D01*
X7671065Y6247444D01*
X7673781Y6261100D01*
X7671065Y6274756D01*
X7663329Y6286334D01*
X7651752Y6294069D01*
X7643136Y6295784D01*
X7643137Y6295788D01*
X7638096Y6296791D01*
D02*
G37*
G36*
X10096500Y6249660D02*
X10082844Y6246944D01*
X10071266Y6239208D01*
X10063531Y6227631D01*
X10061474Y6217293D01*
X10048526D01*
X10046469Y6227631D01*
X10038734Y6239208D01*
X10027156Y6246944D01*
X10013500Y6249660D01*
X9999844Y6246944D01*
X9988266Y6239208D01*
X9980531Y6227631D01*
X9977814Y6213974D01*
X9980531Y6200318D01*
X9988266Y6188741D01*
X9999844Y6181005D01*
X10013500Y6178289D01*
X10027156Y6181005D01*
X10038734Y6188741D01*
X10046469Y6200318D01*
X10048526Y6210655D01*
X10061474D01*
X10063531Y6200318D01*
X10071266Y6188741D01*
X10082844Y6181005D01*
X10096500Y6178289D01*
X10110156Y6181005D01*
X10121734Y6188741D01*
X10129469Y6200318D01*
X10132186Y6213974D01*
X10129469Y6227631D01*
X10121734Y6239208D01*
X10110156Y6246944D01*
X10096500Y6249660D01*
D02*
G37*
G36*
X8864600Y6273149D02*
X8850944Y6270433D01*
X8839366Y6262697D01*
X8831631Y6251120D01*
X8828914Y6237464D01*
X8831631Y6223807D01*
X8839366Y6212230D01*
X8850944Y6204494D01*
X8864600Y6201778D01*
X8878256Y6204494D01*
X8889834Y6212230D01*
X8897569Y6223807D01*
X8900286Y6237464D01*
X8897569Y6251120D01*
X8889834Y6262697D01*
X8878256Y6270433D01*
X8864600Y6273149D01*
D02*
G37*
G36*
X7950919Y6196182D02*
X7927100D01*
Y6172362D01*
X7928097Y6172561D01*
X7941659Y6181622D01*
X7950721Y6195184D01*
X7950919Y6196182D01*
D02*
G37*
G36*
X7897100D02*
X7873281D01*
X7873479Y6195184D01*
X7882541Y6181622D01*
X7896103Y6172561D01*
X7897100Y6172362D01*
Y6196182D01*
D02*
G37*
G36*
X9775019Y6160219D02*
Y6136400D01*
X9798838D01*
X9798640Y6137397D01*
X9789578Y6150959D01*
X9776017Y6160021D01*
X9775019Y6160219D01*
D02*
G37*
G36*
X9745019D02*
X9744022Y6160021D01*
X9730460Y6150959D01*
X9721398Y6137397D01*
X9721200Y6136400D01*
X9745019D01*
Y6160219D01*
D02*
G37*
G36*
X9474407D02*
Y6136400D01*
X9498226D01*
X9498028Y6137397D01*
X9488966Y6150959D01*
X9475404Y6160021D01*
X9474407Y6160219D01*
D02*
G37*
G36*
X9444407D02*
X9443410Y6160021D01*
X9429848Y6150959D01*
X9420786Y6137397D01*
X9417604Y6121400D01*
X9419459Y6112072D01*
X9407496Y6107117D01*
X9403659Y6112859D01*
X9390098Y6121921D01*
X9389100Y6122119D01*
Y6083300D01*
Y6044481D01*
X9390098Y6044679D01*
X9403659Y6053741D01*
X9407496Y6059483D01*
X9419459Y6054528D01*
X9417604Y6045200D01*
X9420786Y6029203D01*
X9429848Y6015641D01*
X9443410Y6006579D01*
X9444407Y6006381D01*
Y6045200D01*
X9459407D01*
Y6060200D01*
X9498226D01*
X9498028Y6061197D01*
X9488966Y6074759D01*
X9485688Y6076950D01*
Y6089650D01*
X9488966Y6091841D01*
X9498028Y6105403D01*
X9498226Y6106400D01*
X9459407D01*
Y6121400D01*
X9444407D01*
Y6160219D01*
D02*
G37*
G36*
X9359100Y6122119D02*
X9358103Y6121921D01*
X9344541Y6112859D01*
X9335479Y6099297D01*
X9335281Y6098300D01*
X9359100D01*
Y6122119D01*
D02*
G37*
G36*
X10657600Y6111919D02*
Y6088100D01*
X10681419D01*
X10681221Y6089098D01*
X10672159Y6102659D01*
X10658597Y6111721D01*
X10657600Y6111919D01*
D02*
G37*
G36*
X10627600D02*
X10626603Y6111721D01*
X10613041Y6102659D01*
X10603979Y6089098D01*
X10603781Y6088100D01*
X10627600D01*
Y6111919D01*
D02*
G37*
G36*
X8724900Y6157086D02*
X8711244Y6154369D01*
X8699666Y6146634D01*
X8691931Y6135056D01*
X8689214Y6121400D01*
X8691931Y6107744D01*
X8699666Y6096166D01*
X8711244Y6088431D01*
X8724900Y6085714D01*
X8738556Y6088431D01*
X8750134Y6096166D01*
X8757869Y6107744D01*
X8760586Y6121400D01*
X8757869Y6135056D01*
X8750134Y6146634D01*
X8738556Y6154369D01*
X8724900Y6157086D01*
D02*
G37*
G36*
X9798838Y6106400D02*
X9716695D01*
X9715755Y6103549D01*
X9710169Y6101713D01*
X9699503Y6099591D01*
X9685941Y6090530D01*
X9676879Y6076968D01*
X9676681Y6075970D01*
X9758824D01*
X9759764Y6078822D01*
X9765350Y6080657D01*
X9776017Y6082779D01*
X9789578Y6091841D01*
X9798640Y6105403D01*
X9798838Y6106400D01*
D02*
G37*
G36*
X8820406Y6131686D02*
X8806750Y6128969D01*
X8795173Y6121234D01*
X8787437Y6109656D01*
X8784721Y6096000D01*
X8787437Y6082344D01*
X8795173Y6070766D01*
X8806750Y6063031D01*
X8820406Y6060314D01*
X8834063Y6063031D01*
X8845640Y6070766D01*
X8853375Y6082344D01*
X8856092Y6096000D01*
X8853375Y6109656D01*
X8845640Y6121234D01*
X8834063Y6128969D01*
X8820406Y6131686D01*
D02*
G37*
G36*
X9359100Y6068300D02*
X9335281D01*
X9335479Y6067303D01*
X9344541Y6053741D01*
X9358103Y6044679D01*
X9359100Y6044481D01*
Y6068300D01*
D02*
G37*
G36*
X9498226Y6030200D02*
X9474407D01*
Y6006381D01*
X9475404Y6006579D01*
X9488966Y6015641D01*
X9498028Y6029203D01*
X9498226Y6030200D01*
D02*
G37*
G36*
X9754319Y6045970D02*
X9676681D01*
X9676879Y6044973D01*
X9685941Y6031411D01*
X9689591Y6028972D01*
Y6013698D01*
X9685941Y6011259D01*
X9676879Y5997697D01*
X9676681Y5996700D01*
X9754319D01*
X9754121Y5997697D01*
X9745059Y6011259D01*
X9741409Y6013698D01*
Y6028972D01*
X9745059Y6031411D01*
X9754121Y6044973D01*
X9754319Y6045970D01*
D02*
G37*
G36*
X11075119Y6017500D02*
X11051300D01*
Y5993681D01*
X11052297Y5993879D01*
X11065859Y6002941D01*
X11074921Y6016503D01*
X11075119Y6017500D01*
D02*
G37*
G36*
X11021300D02*
X10997481D01*
X10997679Y6016503D01*
X11006741Y6002941D01*
X11020303Y5993879D01*
X11021300Y5993681D01*
Y6017500D01*
D02*
G37*
G36*
X11303719Y6016000D02*
X11279900D01*
Y5992181D01*
X11280897Y5992379D01*
X11294459Y6001441D01*
X11303521Y6015002D01*
X11303719Y6016000D01*
D02*
G37*
G36*
X11249900D02*
X11226081D01*
X11226279Y6015002D01*
X11235341Y6001441D01*
X11248903Y5992379D01*
X11249900Y5992181D01*
Y6016000D01*
D02*
G37*
G36*
X11910750Y5995119D02*
Y5971300D01*
X11934569D01*
X11934371Y5972297D01*
X11925309Y5985859D01*
X11911747Y5994921D01*
X11910750Y5995119D01*
D02*
G37*
G36*
X11880750D02*
X11879752Y5994921D01*
X11866191Y5985859D01*
X11857129Y5972297D01*
X11856931Y5971300D01*
X11880750D01*
Y5995119D01*
D02*
G37*
G36*
X10579819Y5966700D02*
X10556000D01*
Y5942881D01*
X10556997Y5943079D01*
X10570559Y5952141D01*
X10579621Y5965703D01*
X10579819Y5966700D01*
D02*
G37*
G36*
X10526000D02*
X10502181D01*
X10502379Y5965703D01*
X10511441Y5952141D01*
X10525003Y5943079D01*
X10526000Y5942881D01*
Y5966700D01*
D02*
G37*
G36*
X9754319D02*
X9730500D01*
Y5942881D01*
X9731497Y5943079D01*
X9745059Y5952141D01*
X9754121Y5965703D01*
X9754319Y5966700D01*
D02*
G37*
G36*
X9700500D02*
X9676681D01*
X9676879Y5965703D01*
X9685941Y5952141D01*
X9699503Y5943079D01*
X9700500Y5942881D01*
Y5966700D01*
D02*
G37*
G36*
X11934569Y5941300D02*
X11910750D01*
Y5917481D01*
X11911747Y5917679D01*
X11925309Y5926741D01*
X11934371Y5940303D01*
X11934569Y5941300D01*
D02*
G37*
G36*
X11880750D02*
X11856931D01*
X11857129Y5940303D01*
X11866191Y5926741D01*
X11879752Y5917679D01*
X11880750Y5917481D01*
Y5941300D01*
D02*
G37*
G36*
X6619000Y5692940D02*
Y5603000D01*
X6708940D01*
X6707271Y5615672D01*
X6696591Y5641457D01*
X6679600Y5663600D01*
X6657457Y5680591D01*
X6631672Y5691271D01*
X6619000Y5692940D01*
D02*
G37*
G36*
X6873000D02*
Y5603000D01*
X6962940D01*
X6961271Y5615672D01*
X6950591Y5641457D01*
X6933600Y5663600D01*
X6911457Y5680591D01*
X6885672Y5691271D01*
X6873000Y5692940D01*
D02*
G37*
G36*
X6365000D02*
Y5603000D01*
X6454940D01*
X6453271Y5615672D01*
X6442591Y5641457D01*
X6425600Y5663600D01*
X6403457Y5680591D01*
X6377672Y5691271D01*
X6365000Y5692940D01*
D02*
G37*
G36*
X6589000D02*
X6576328Y5691271D01*
X6550543Y5680591D01*
X6528400Y5663600D01*
X6511409Y5641457D01*
X6500729Y5615672D01*
X6499060Y5603000D01*
X6589000D01*
Y5692940D01*
D02*
G37*
G36*
X6843000D02*
X6830328Y5691271D01*
X6804543Y5680591D01*
X6782400Y5663600D01*
X6765409Y5641457D01*
X6754729Y5615672D01*
X6753060Y5603000D01*
X6843000D01*
Y5692940D01*
D02*
G37*
G36*
X6335000D02*
X6322328Y5691271D01*
X6296543Y5680591D01*
X6274400Y5663600D01*
X6257409Y5641457D01*
X6246729Y5615672D01*
X6245060Y5603000D01*
X6335000D01*
Y5692940D01*
D02*
G37*
G36*
X12192000Y5688863D02*
X12165895Y5685426D01*
X12141569Y5675350D01*
X12120679Y5659321D01*
X12104650Y5638431D01*
X12094574Y5614105D01*
X12091137Y5588000D01*
X12094574Y5561895D01*
X12104650Y5537569D01*
X12120679Y5516679D01*
X12141569Y5500650D01*
X12165895Y5490574D01*
X12192000Y5487137D01*
X12218105Y5490574D01*
X12242431Y5500650D01*
X12263321Y5516679D01*
X12279350Y5537569D01*
X12289426Y5561895D01*
X12292863Y5588000D01*
X12289426Y5614105D01*
X12279350Y5638431D01*
X12263321Y5659321D01*
X12242431Y5675350D01*
X12218105Y5685426D01*
X12192000Y5688863D01*
D02*
G37*
G36*
X10316574Y6296786D02*
X10302918Y6294069D01*
X10291341Y6286334D01*
X10283605Y6274756D01*
X10280889Y6261100D01*
X10283605Y6247444D01*
X10291341Y6235866D01*
X10302918Y6228131D01*
X10316574Y6225414D01*
X10322285Y6226550D01*
X10517954Y6030882D01*
X10516341Y6014534D01*
X10511441Y6011259D01*
X10502379Y5997697D01*
X10502181Y5996700D01*
X10582271D01*
X10587979Y6006308D01*
X10703453D01*
X11027150Y5682611D01*
X11026014Y5676900D01*
X11028731Y5663244D01*
X11036466Y5651666D01*
X11048044Y5643931D01*
X11061700Y5641214D01*
X11075356Y5643931D01*
X11087505Y5638349D01*
X11088140Y5637198D01*
X11078574Y5614105D01*
X11075137Y5588000D01*
X11078574Y5561895D01*
X11088650Y5537569D01*
X11104679Y5516679D01*
X11125569Y5500650D01*
X11149895Y5490574D01*
X11176000Y5487137D01*
X11202105Y5490574D01*
X11226431Y5500650D01*
X11247321Y5516679D01*
X11263350Y5537569D01*
X11273426Y5561895D01*
X11276863Y5588000D01*
X11273426Y5614105D01*
X11263350Y5638431D01*
X11247321Y5659321D01*
X11226431Y5675350D01*
X11202105Y5685426D01*
X11176000Y5688863D01*
X11149895Y5685426D01*
X11125569Y5675350D01*
X11107226Y5661275D01*
X11097878Y5665469D01*
X11095534Y5667589D01*
X11097386Y5676900D01*
X11094669Y5690556D01*
X11086934Y5702134D01*
X11075356Y5709869D01*
X11061700Y5712586D01*
X11055989Y5711450D01*
X10726319Y6041119D01*
X10719704Y6045540D01*
X10711900Y6047092D01*
X10688644D01*
X10682673Y6058100D01*
X10602527D01*
X10596556Y6047092D01*
X10559421D01*
X10351124Y6255389D01*
X10352260Y6261100D01*
X10349543Y6274756D01*
X10341808Y6286334D01*
X10330231Y6294069D01*
X10316574Y6296786D01*
D02*
G37*
G36*
X10922000Y5688863D02*
X10895895Y5685426D01*
X10871569Y5675350D01*
X10850679Y5659321D01*
X10834650Y5638431D01*
X10824574Y5614105D01*
X10821137Y5588000D01*
X10824574Y5561895D01*
X10834650Y5537569D01*
X10850679Y5516679D01*
X10871569Y5500650D01*
X10895895Y5490574D01*
X10922000Y5487137D01*
X10948105Y5490574D01*
X10972431Y5500650D01*
X10993321Y5516679D01*
X11009350Y5537569D01*
X11019426Y5561895D01*
X11022863Y5588000D01*
X11019426Y5614105D01*
X11009350Y5638431D01*
X10993321Y5659321D01*
X10972431Y5675350D01*
X10948105Y5685426D01*
X10922000Y5688863D01*
D02*
G37*
G36*
X10668000D02*
X10641895Y5685426D01*
X10617569Y5675350D01*
X10596679Y5659321D01*
X10580650Y5638431D01*
X10570574Y5614105D01*
X10567137Y5588000D01*
X10570574Y5561895D01*
X10580650Y5537569D01*
X10596679Y5516679D01*
X10617569Y5500650D01*
X10641895Y5490574D01*
X10668000Y5487137D01*
X10694105Y5490574D01*
X10718431Y5500650D01*
X10739321Y5516679D01*
X10755350Y5537569D01*
X10765426Y5561895D01*
X10768863Y5588000D01*
X10765426Y5614105D01*
X10755350Y5638431D01*
X10739321Y5659321D01*
X10718431Y5675350D01*
X10694105Y5685426D01*
X10668000Y5688863D01*
D02*
G37*
G36*
X10414000D02*
X10387895Y5685426D01*
X10363569Y5675350D01*
X10342679Y5659321D01*
X10326650Y5638431D01*
X10316574Y5614105D01*
X10313137Y5588000D01*
X10316574Y5561895D01*
X10326650Y5537569D01*
X10342679Y5516679D01*
X10363569Y5500650D01*
X10387895Y5490574D01*
X10414000Y5487137D01*
X10440105Y5490574D01*
X10464431Y5500650D01*
X10485321Y5516679D01*
X10501350Y5537569D01*
X10511426Y5561895D01*
X10514863Y5588000D01*
X10511426Y5614105D01*
X10501350Y5638431D01*
X10485321Y5659321D01*
X10464431Y5675350D01*
X10440105Y5685426D01*
X10414000Y5688863D01*
D02*
G37*
G36*
X8636000D02*
X8609895Y5685426D01*
X8585569Y5675350D01*
X8564679Y5659321D01*
X8548650Y5638431D01*
X8538574Y5614105D01*
X8535137Y5588000D01*
X8538574Y5561895D01*
X8548650Y5537569D01*
X8564679Y5516679D01*
X8585569Y5500650D01*
X8609895Y5490574D01*
X8636000Y5487137D01*
X8662105Y5490574D01*
X8686431Y5500650D01*
X8707321Y5516679D01*
X8723350Y5537569D01*
X8733426Y5561895D01*
X8736863Y5588000D01*
X8733426Y5614105D01*
X8723350Y5638431D01*
X8707321Y5659321D01*
X8686431Y5675350D01*
X8662105Y5685426D01*
X8636000Y5688863D01*
D02*
G37*
G36*
X8382000D02*
X8355895Y5685426D01*
X8331569Y5675350D01*
X8310679Y5659321D01*
X8294650Y5638431D01*
X8284574Y5614105D01*
X8281137Y5588000D01*
X8284574Y5561895D01*
X8294650Y5537569D01*
X8310679Y5516679D01*
X8331569Y5500650D01*
X8355895Y5490574D01*
X8382000Y5487137D01*
X8408105Y5490574D01*
X8432431Y5500650D01*
X8453321Y5516679D01*
X8469350Y5537569D01*
X8479426Y5561895D01*
X8482863Y5588000D01*
X8479426Y5614105D01*
X8469350Y5638431D01*
X8453321Y5659321D01*
X8432431Y5675350D01*
X8408105Y5685426D01*
X8382000Y5688863D01*
D02*
G37*
G36*
X8128000D02*
X8101895Y5685426D01*
X8077569Y5675350D01*
X8056679Y5659321D01*
X8040650Y5638431D01*
X8030574Y5614105D01*
X8027137Y5588000D01*
X8030574Y5561895D01*
X8040650Y5537569D01*
X8056679Y5516679D01*
X8077569Y5500650D01*
X8101895Y5490574D01*
X8128000Y5487137D01*
X8154105Y5490574D01*
X8178431Y5500650D01*
X8199321Y5516679D01*
X8215350Y5537569D01*
X8225426Y5561895D01*
X8228863Y5588000D01*
X8225426Y5614105D01*
X8215350Y5638431D01*
X8199321Y5659321D01*
X8178431Y5675350D01*
X8154105Y5685426D01*
X8128000Y5688863D01*
D02*
G37*
G36*
X7620000D02*
X7593895Y5685426D01*
X7569569Y5675350D01*
X7548679Y5659321D01*
X7532650Y5638431D01*
X7522574Y5614105D01*
X7519137Y5588000D01*
X7522574Y5561895D01*
X7532650Y5537569D01*
X7548679Y5516679D01*
X7569569Y5500650D01*
X7593895Y5490574D01*
X7620000Y5487137D01*
X7646105Y5490574D01*
X7670431Y5500650D01*
X7691321Y5516679D01*
X7707350Y5537569D01*
X7717426Y5561895D01*
X7720863Y5588000D01*
X7717426Y5614105D01*
X7707350Y5638431D01*
X7691321Y5659321D01*
X7670431Y5675350D01*
X7646105Y5685426D01*
X7620000Y5688863D01*
D02*
G37*
G36*
X7366000D02*
X7339895Y5685426D01*
X7315569Y5675350D01*
X7294679Y5659321D01*
X7278650Y5638431D01*
X7268574Y5614105D01*
X7265137Y5588000D01*
X7268574Y5561895D01*
X7278650Y5537569D01*
X7294679Y5516679D01*
X7315569Y5500650D01*
X7339895Y5490574D01*
X7366000Y5487137D01*
X7392105Y5490574D01*
X7416431Y5500650D01*
X7437321Y5516679D01*
X7453350Y5537569D01*
X7463426Y5561895D01*
X7466863Y5588000D01*
X7463426Y5614105D01*
X7453350Y5638431D01*
X7437321Y5659321D01*
X7416431Y5675350D01*
X7392105Y5685426D01*
X7366000Y5688863D01*
D02*
G37*
G36*
X7112000D02*
X7085895Y5685426D01*
X7061569Y5675350D01*
X7040679Y5659321D01*
X7024650Y5638431D01*
X7014574Y5614105D01*
X7011137Y5588000D01*
X7014574Y5561895D01*
X7024650Y5537569D01*
X7040679Y5516679D01*
X7061569Y5500650D01*
X7085895Y5490574D01*
X7112000Y5487137D01*
X7138105Y5490574D01*
X7162431Y5500650D01*
X7183321Y5516679D01*
X7199350Y5537569D01*
X7209426Y5561895D01*
X7212863Y5588000D01*
X7209426Y5614105D01*
X7199350Y5638431D01*
X7183321Y5659321D01*
X7162431Y5675350D01*
X7138105Y5685426D01*
X7112000Y5688863D01*
D02*
G37*
G36*
X6962940Y5573000D02*
X6873000D01*
Y5483060D01*
X6885672Y5484729D01*
X6911457Y5495409D01*
X6933600Y5512400D01*
X6950591Y5534543D01*
X6961271Y5560328D01*
X6962940Y5573000D01*
D02*
G37*
G36*
X6708940D02*
X6619000D01*
Y5483060D01*
X6631672Y5484729D01*
X6657457Y5495409D01*
X6679600Y5512400D01*
X6696591Y5534543D01*
X6707271Y5560328D01*
X6708940Y5573000D01*
D02*
G37*
G36*
X6454940D02*
X6365000D01*
Y5483060D01*
X6377672Y5484729D01*
X6403457Y5495409D01*
X6425600Y5512400D01*
X6442591Y5534543D01*
X6453271Y5560328D01*
X6454940Y5573000D01*
D02*
G37*
G36*
X6843000D02*
X6753060D01*
X6754729Y5560328D01*
X6765409Y5534543D01*
X6782400Y5512400D01*
X6804543Y5495409D01*
X6830328Y5484729D01*
X6843000Y5483060D01*
Y5573000D01*
D02*
G37*
G36*
X6589000D02*
X6499060D01*
X6500729Y5560328D01*
X6511409Y5534543D01*
X6528400Y5512400D01*
X6550543Y5495409D01*
X6576328Y5484729D01*
X6589000Y5483060D01*
Y5573000D01*
D02*
G37*
G36*
X6335000D02*
X6245060D01*
X6246729Y5560328D01*
X6257409Y5534543D01*
X6274400Y5512400D01*
X6296543Y5495409D01*
X6322328Y5484729D01*
X6335000Y5483060D01*
Y5573000D01*
D02*
G37*
G36*
X6619000Y5184940D02*
Y5095000D01*
X6708940D01*
X6707271Y5107672D01*
X6696591Y5133457D01*
X6679600Y5155600D01*
X6657457Y5172591D01*
X6631672Y5183271D01*
X6619000Y5184940D01*
D02*
G37*
G36*
X6873000D02*
Y5095000D01*
X6962940D01*
X6961271Y5107672D01*
X6950591Y5133457D01*
X6933600Y5155600D01*
X6911457Y5172591D01*
X6885672Y5183271D01*
X6873000Y5184940D01*
D02*
G37*
G36*
X6365000D02*
Y5095000D01*
X6454940D01*
X6453271Y5107672D01*
X6442591Y5133457D01*
X6425600Y5155600D01*
X6403457Y5172591D01*
X6377672Y5183271D01*
X6365000Y5184940D01*
D02*
G37*
G36*
X6589000D02*
X6576328Y5183271D01*
X6550543Y5172591D01*
X6528400Y5155600D01*
X6511409Y5133457D01*
X6500729Y5107672D01*
X6499060Y5095000D01*
X6589000D01*
Y5184940D01*
D02*
G37*
G36*
X6843000D02*
X6830328Y5183271D01*
X6804543Y5172591D01*
X6782400Y5155600D01*
X6765409Y5133457D01*
X6754729Y5107672D01*
X6753060Y5095000D01*
X6843000D01*
Y5184940D01*
D02*
G37*
G36*
X6335000D02*
X6322328Y5183271D01*
X6296543Y5172591D01*
X6274400Y5155600D01*
X6257409Y5133457D01*
X6246729Y5107672D01*
X6245060Y5095000D01*
X6335000D01*
Y5184940D01*
D02*
G37*
G36*
X12446000Y5180863D02*
X12419895Y5177426D01*
X12395569Y5167350D01*
X12374679Y5151321D01*
X12358650Y5130431D01*
X12348574Y5106105D01*
X12345137Y5080000D01*
X12348574Y5053895D01*
X12358650Y5029569D01*
X12374679Y5008679D01*
X12395569Y4992650D01*
X12419895Y4982574D01*
X12446000Y4979137D01*
X12472105Y4982574D01*
X12496431Y4992650D01*
X12517321Y5008679D01*
X12533350Y5029569D01*
X12543426Y5053895D01*
X12546863Y5080000D01*
X12543426Y5106105D01*
X12533350Y5130431D01*
X12517321Y5151321D01*
X12496431Y5167350D01*
X12472105Y5177426D01*
X12446000Y5180863D01*
D02*
G37*
G36*
X12192000D02*
X12165895Y5177426D01*
X12141569Y5167350D01*
X12120679Y5151321D01*
X12104650Y5130431D01*
X12094574Y5106105D01*
X12091137Y5080000D01*
X12094574Y5053895D01*
X12104650Y5029569D01*
X12120679Y5008679D01*
X12141569Y4992650D01*
X12165895Y4982574D01*
X12192000Y4979137D01*
X12218105Y4982574D01*
X12242431Y4992650D01*
X12263321Y5008679D01*
X12279350Y5029569D01*
X12289426Y5053895D01*
X12292863Y5080000D01*
X12289426Y5106105D01*
X12279350Y5130431D01*
X12263321Y5151321D01*
X12242431Y5167350D01*
X12218105Y5177426D01*
X12192000Y5180863D01*
D02*
G37*
G36*
X11938000D02*
X11911895Y5177426D01*
X11887569Y5167350D01*
X11866679Y5151321D01*
X11850650Y5130431D01*
X11840574Y5106105D01*
X11837137Y5080000D01*
X11840574Y5053895D01*
X11850650Y5029569D01*
X11866679Y5008679D01*
X11887569Y4992650D01*
X11911895Y4982574D01*
X11938000Y4979137D01*
X11964105Y4982574D01*
X11988431Y4992650D01*
X12009321Y5008679D01*
X12025350Y5029569D01*
X12035426Y5053895D01*
X12038863Y5080000D01*
X12035426Y5106105D01*
X12025350Y5130431D01*
X12009321Y5151321D01*
X11988431Y5167350D01*
X11964105Y5177426D01*
X11938000Y5180863D01*
D02*
G37*
G36*
X11684000D02*
X11657895Y5177426D01*
X11633569Y5167350D01*
X11612679Y5151321D01*
X11596650Y5130431D01*
X11586574Y5106105D01*
X11583137Y5080000D01*
X11586574Y5053895D01*
X11596650Y5029569D01*
X11612679Y5008679D01*
X11633569Y4992650D01*
X11657895Y4982574D01*
X11684000Y4979137D01*
X11710105Y4982574D01*
X11734431Y4992650D01*
X11755321Y5008679D01*
X11771350Y5029569D01*
X11781426Y5053895D01*
X11784863Y5080000D01*
X11781426Y5106105D01*
X11771350Y5130431D01*
X11755321Y5151321D01*
X11734431Y5167350D01*
X11710105Y5177426D01*
X11684000Y5180863D01*
D02*
G37*
G36*
X11430000D02*
X11403895Y5177426D01*
X11379569Y5167350D01*
X11358679Y5151321D01*
X11342650Y5130431D01*
X11332574Y5106105D01*
X11329137Y5080000D01*
X11332574Y5053895D01*
X11342650Y5029569D01*
X11358679Y5008679D01*
X11379569Y4992650D01*
X11403895Y4982574D01*
X11430000Y4979137D01*
X11456105Y4982574D01*
X11480431Y4992650D01*
X11501321Y5008679D01*
X11517350Y5029569D01*
X11527426Y5053895D01*
X11530863Y5080000D01*
X11527426Y5106105D01*
X11517350Y5130431D01*
X11501321Y5151321D01*
X11480431Y5167350D01*
X11456105Y5177426D01*
X11430000Y5180863D01*
D02*
G37*
G36*
X11176000D02*
X11149895Y5177426D01*
X11125569Y5167350D01*
X11104679Y5151321D01*
X11088650Y5130431D01*
X11078574Y5106105D01*
X11075137Y5080000D01*
X11078574Y5053895D01*
X11088650Y5029569D01*
X11104679Y5008679D01*
X11125569Y4992650D01*
X11149895Y4982574D01*
X11176000Y4979137D01*
X11202105Y4982574D01*
X11226431Y4992650D01*
X11247321Y5008679D01*
X11263350Y5029569D01*
X11273426Y5053895D01*
X11276863Y5080000D01*
X11273426Y5106105D01*
X11263350Y5130431D01*
X11247321Y5151321D01*
X11226431Y5167350D01*
X11202105Y5177426D01*
X11176000Y5180863D01*
D02*
G37*
G36*
X10922000D02*
X10895895Y5177426D01*
X10871569Y5167350D01*
X10850679Y5151321D01*
X10834650Y5130431D01*
X10824574Y5106105D01*
X10821137Y5080000D01*
X10824574Y5053895D01*
X10834650Y5029569D01*
X10850679Y5008679D01*
X10871569Y4992650D01*
X10895895Y4982574D01*
X10922000Y4979137D01*
X10948105Y4982574D01*
X10972431Y4992650D01*
X10993321Y5008679D01*
X11009350Y5029569D01*
X11019426Y5053895D01*
X11022863Y5080000D01*
X11019426Y5106105D01*
X11009350Y5130431D01*
X10993321Y5151321D01*
X10972431Y5167350D01*
X10948105Y5177426D01*
X10922000Y5180863D01*
D02*
G37*
G36*
X10668000D02*
X10641895Y5177426D01*
X10617569Y5167350D01*
X10596679Y5151321D01*
X10580650Y5130431D01*
X10570574Y5106105D01*
X10567137Y5080000D01*
X10570574Y5053895D01*
X10580650Y5029569D01*
X10596679Y5008679D01*
X10617569Y4992650D01*
X10641895Y4982574D01*
X10668000Y4979137D01*
X10694105Y4982574D01*
X10718431Y4992650D01*
X10739321Y5008679D01*
X10755350Y5029569D01*
X10765426Y5053895D01*
X10768863Y5080000D01*
X10765426Y5106105D01*
X10755350Y5130431D01*
X10739321Y5151321D01*
X10718431Y5167350D01*
X10694105Y5177426D01*
X10668000Y5180863D01*
D02*
G37*
G36*
X10414000D02*
X10387895Y5177426D01*
X10363569Y5167350D01*
X10342679Y5151321D01*
X10326650Y5130431D01*
X10316574Y5106105D01*
X10313137Y5080000D01*
X10316574Y5053895D01*
X10326650Y5029569D01*
X10342679Y5008679D01*
X10363569Y4992650D01*
X10387895Y4982574D01*
X10414000Y4979137D01*
X10440105Y4982574D01*
X10464431Y4992650D01*
X10485321Y5008679D01*
X10501350Y5029569D01*
X10511426Y5053895D01*
X10514863Y5080000D01*
X10511426Y5106105D01*
X10501350Y5130431D01*
X10485321Y5151321D01*
X10464431Y5167350D01*
X10440105Y5177426D01*
X10414000Y5180863D01*
D02*
G37*
G36*
X10160000D02*
X10133895Y5177426D01*
X10109569Y5167350D01*
X10088679Y5151321D01*
X10072650Y5130431D01*
X10062574Y5106105D01*
X10059137Y5080000D01*
X10062574Y5053895D01*
X10072650Y5029569D01*
X10088679Y5008679D01*
X10109569Y4992650D01*
X10133895Y4982574D01*
X10160000Y4979137D01*
X10186105Y4982574D01*
X10210431Y4992650D01*
X10231321Y5008679D01*
X10247350Y5029569D01*
X10257426Y5053895D01*
X10260863Y5080000D01*
X10257426Y5106105D01*
X10247350Y5130431D01*
X10231321Y5151321D01*
X10210431Y5167350D01*
X10186105Y5177426D01*
X10160000Y5180863D01*
D02*
G37*
G36*
X9906000D02*
X9879895Y5177426D01*
X9855569Y5167350D01*
X9834679Y5151321D01*
X9818650Y5130431D01*
X9808574Y5106105D01*
X9805137Y5080000D01*
X9808574Y5053895D01*
X9818650Y5029569D01*
X9834679Y5008679D01*
X9855569Y4992650D01*
X9879895Y4982574D01*
X9906000Y4979137D01*
X9932105Y4982574D01*
X9956431Y4992650D01*
X9977321Y5008679D01*
X9993350Y5029569D01*
X10003426Y5053895D01*
X10006863Y5080000D01*
X10003426Y5106105D01*
X9993350Y5130431D01*
X9977321Y5151321D01*
X9956431Y5167350D01*
X9932105Y5177426D01*
X9906000Y5180863D01*
D02*
G37*
G36*
X9652000D02*
X9625895Y5177426D01*
X9601569Y5167350D01*
X9580679Y5151321D01*
X9564650Y5130431D01*
X9554574Y5106105D01*
X9551137Y5080000D01*
X9554574Y5053895D01*
X9564650Y5029569D01*
X9580679Y5008679D01*
X9601569Y4992650D01*
X9625895Y4982574D01*
X9652000Y4979137D01*
X9678105Y4982574D01*
X9702431Y4992650D01*
X9723321Y5008679D01*
X9739350Y5029569D01*
X9749426Y5053895D01*
X9752863Y5080000D01*
X9749426Y5106105D01*
X9739350Y5130431D01*
X9723321Y5151321D01*
X9702431Y5167350D01*
X9678105Y5177426D01*
X9652000Y5180863D01*
D02*
G37*
G36*
X9398000D02*
X9371895Y5177426D01*
X9347569Y5167350D01*
X9326679Y5151321D01*
X9310650Y5130431D01*
X9300574Y5106105D01*
X9297137Y5080000D01*
X9300574Y5053895D01*
X9310650Y5029569D01*
X9326679Y5008679D01*
X9347569Y4992650D01*
X9371895Y4982574D01*
X9398000Y4979137D01*
X9424105Y4982574D01*
X9448431Y4992650D01*
X9469321Y5008679D01*
X9485350Y5029569D01*
X9495426Y5053895D01*
X9498863Y5080000D01*
X9495426Y5106105D01*
X9485350Y5130431D01*
X9469321Y5151321D01*
X9448431Y5167350D01*
X9424105Y5177426D01*
X9398000Y5180863D01*
D02*
G37*
G36*
X9144000D02*
X9117895Y5177426D01*
X9093569Y5167350D01*
X9072679Y5151321D01*
X9056650Y5130431D01*
X9046574Y5106105D01*
X9043137Y5080000D01*
X9046574Y5053895D01*
X9056650Y5029569D01*
X9072679Y5008679D01*
X9093569Y4992650D01*
X9117895Y4982574D01*
X9144000Y4979137D01*
X9170105Y4982574D01*
X9194431Y4992650D01*
X9215321Y5008679D01*
X9231350Y5029569D01*
X9241426Y5053895D01*
X9244863Y5080000D01*
X9241426Y5106105D01*
X9231350Y5130431D01*
X9215321Y5151321D01*
X9194431Y5167350D01*
X9170105Y5177426D01*
X9144000Y5180863D01*
D02*
G37*
G36*
X8890000D02*
X8863895Y5177426D01*
X8839569Y5167350D01*
X8818679Y5151321D01*
X8802650Y5130431D01*
X8792574Y5106105D01*
X8789137Y5080000D01*
X8792574Y5053895D01*
X8802650Y5029569D01*
X8818679Y5008679D01*
X8839569Y4992650D01*
X8863895Y4982574D01*
X8890000Y4979137D01*
X8916105Y4982574D01*
X8940431Y4992650D01*
X8961321Y5008679D01*
X8977350Y5029569D01*
X8987426Y5053895D01*
X8990863Y5080000D01*
X8987426Y5106105D01*
X8977350Y5130431D01*
X8961321Y5151321D01*
X8940431Y5167350D01*
X8916105Y5177426D01*
X8890000Y5180863D01*
D02*
G37*
G36*
X8636000D02*
X8609895Y5177426D01*
X8585569Y5167350D01*
X8564679Y5151321D01*
X8548650Y5130431D01*
X8538574Y5106105D01*
X8535137Y5080000D01*
X8538574Y5053895D01*
X8548650Y5029569D01*
X8564679Y5008679D01*
X8585569Y4992650D01*
X8609895Y4982574D01*
X8636000Y4979137D01*
X8662105Y4982574D01*
X8686431Y4992650D01*
X8707321Y5008679D01*
X8723350Y5029569D01*
X8733426Y5053895D01*
X8736863Y5080000D01*
X8733426Y5106105D01*
X8723350Y5130431D01*
X8707321Y5151321D01*
X8686431Y5167350D01*
X8662105Y5177426D01*
X8636000Y5180863D01*
D02*
G37*
G36*
X8382000D02*
X8355895Y5177426D01*
X8331569Y5167350D01*
X8310679Y5151321D01*
X8294650Y5130431D01*
X8284574Y5106105D01*
X8281137Y5080000D01*
X8284574Y5053895D01*
X8294650Y5029569D01*
X8310679Y5008679D01*
X8331569Y4992650D01*
X8355895Y4982574D01*
X8382000Y4979137D01*
X8408105Y4982574D01*
X8432431Y4992650D01*
X8453321Y5008679D01*
X8469350Y5029569D01*
X8479426Y5053895D01*
X8482863Y5080000D01*
X8479426Y5106105D01*
X8469350Y5130431D01*
X8453321Y5151321D01*
X8432431Y5167350D01*
X8408105Y5177426D01*
X8382000Y5180863D01*
D02*
G37*
G36*
X8128000D02*
X8101895Y5177426D01*
X8077569Y5167350D01*
X8056679Y5151321D01*
X8040650Y5130431D01*
X8030574Y5106105D01*
X8027137Y5080000D01*
X8030574Y5053895D01*
X8040650Y5029569D01*
X8056679Y5008679D01*
X8077569Y4992650D01*
X8101895Y4982574D01*
X8128000Y4979137D01*
X8154105Y4982574D01*
X8178431Y4992650D01*
X8199321Y5008679D01*
X8215350Y5029569D01*
X8225426Y5053895D01*
X8228863Y5080000D01*
X8225426Y5106105D01*
X8215350Y5130431D01*
X8199321Y5151321D01*
X8178431Y5167350D01*
X8154105Y5177426D01*
X8128000Y5180863D01*
D02*
G37*
G36*
X7874000D02*
X7847895Y5177426D01*
X7823569Y5167350D01*
X7802679Y5151321D01*
X7786650Y5130431D01*
X7776574Y5106105D01*
X7773137Y5080000D01*
X7776574Y5053895D01*
X7786650Y5029569D01*
X7802679Y5008679D01*
X7823569Y4992650D01*
X7847895Y4982574D01*
X7874000Y4979137D01*
X7900105Y4982574D01*
X7924431Y4992650D01*
X7945321Y5008679D01*
X7961350Y5029569D01*
X7971426Y5053895D01*
X7974863Y5080000D01*
X7971426Y5106105D01*
X7961350Y5130431D01*
X7945321Y5151321D01*
X7924431Y5167350D01*
X7900105Y5177426D01*
X7874000Y5180863D01*
D02*
G37*
G36*
X7620000D02*
X7593895Y5177426D01*
X7569569Y5167350D01*
X7548679Y5151321D01*
X7532650Y5130431D01*
X7522574Y5106105D01*
X7519137Y5080000D01*
X7522574Y5053895D01*
X7532650Y5029569D01*
X7548679Y5008679D01*
X7569569Y4992650D01*
X7593895Y4982574D01*
X7620000Y4979137D01*
X7646105Y4982574D01*
X7670431Y4992650D01*
X7691321Y5008679D01*
X7707350Y5029569D01*
X7717426Y5053895D01*
X7720863Y5080000D01*
X7717426Y5106105D01*
X7707350Y5130431D01*
X7691321Y5151321D01*
X7670431Y5167350D01*
X7646105Y5177426D01*
X7620000Y5180863D01*
D02*
G37*
G36*
X7366000D02*
X7339895Y5177426D01*
X7315569Y5167350D01*
X7294679Y5151321D01*
X7278650Y5130431D01*
X7268574Y5106105D01*
X7265137Y5080000D01*
X7268574Y5053895D01*
X7278650Y5029569D01*
X7294679Y5008679D01*
X7315569Y4992650D01*
X7339895Y4982574D01*
X7366000Y4979137D01*
X7392105Y4982574D01*
X7416431Y4992650D01*
X7437321Y5008679D01*
X7453350Y5029569D01*
X7463426Y5053895D01*
X7466863Y5080000D01*
X7463426Y5106105D01*
X7453350Y5130431D01*
X7437321Y5151321D01*
X7416431Y5167350D01*
X7392105Y5177426D01*
X7366000Y5180863D01*
D02*
G37*
G36*
X7112000D02*
X7085895Y5177426D01*
X7061569Y5167350D01*
X7040679Y5151321D01*
X7024650Y5130431D01*
X7014574Y5106105D01*
X7011137Y5080000D01*
X7014574Y5053895D01*
X7024650Y5029569D01*
X7040679Y5008679D01*
X7061569Y4992650D01*
X7085895Y4982574D01*
X7112000Y4979137D01*
X7138105Y4982574D01*
X7162431Y4992650D01*
X7183321Y5008679D01*
X7199350Y5029569D01*
X7209426Y5053895D01*
X7212863Y5080000D01*
X7209426Y5106105D01*
X7199350Y5130431D01*
X7183321Y5151321D01*
X7162431Y5167350D01*
X7138105Y5177426D01*
X7112000Y5180863D01*
D02*
G37*
G36*
X6962940Y5065000D02*
X6873000D01*
Y4975060D01*
X6885672Y4976729D01*
X6911457Y4987409D01*
X6933600Y5004400D01*
X6950591Y5026543D01*
X6961271Y5052328D01*
X6962940Y5065000D01*
D02*
G37*
G36*
X6708940D02*
X6619000D01*
Y4975060D01*
X6631672Y4976729D01*
X6657457Y4987409D01*
X6679600Y5004400D01*
X6696591Y5026543D01*
X6707271Y5052328D01*
X6708940Y5065000D01*
D02*
G37*
G36*
X6454940D02*
X6365000D01*
Y4975060D01*
X6377672Y4976729D01*
X6403457Y4987409D01*
X6425600Y5004400D01*
X6442591Y5026543D01*
X6453271Y5052328D01*
X6454940Y5065000D01*
D02*
G37*
G36*
X6843000D02*
X6753060D01*
X6754729Y5052328D01*
X6765409Y5026543D01*
X6782400Y5004400D01*
X6804543Y4987409D01*
X6830328Y4976729D01*
X6843000Y4975060D01*
Y5065000D01*
D02*
G37*
G36*
X6589000D02*
X6499060D01*
X6500729Y5052328D01*
X6511409Y5026543D01*
X6528400Y5004400D01*
X6550543Y4987409D01*
X6576328Y4976729D01*
X6589000Y4975060D01*
Y5065000D01*
D02*
G37*
G36*
X6335000D02*
X6245060D01*
X6246729Y5052328D01*
X6257409Y5026543D01*
X6274400Y5004400D01*
X6296543Y4987409D01*
X6322328Y4976729D01*
X6335000Y4975060D01*
Y5065000D01*
D02*
G37*
%LPD*%
G36*
X8498108Y5903781D02*
X8504724Y5899360D01*
X8512528Y5897808D01*
X8830920D01*
X9040847Y5687881D01*
X9040847Y5687881D01*
X9047463Y5683460D01*
X9055266Y5681908D01*
X9055268Y5681908D01*
X9081254D01*
X9085565Y5669208D01*
X9072679Y5659321D01*
X9056650Y5638431D01*
X9055453Y5635540D01*
X9040069Y5631587D01*
X9038348Y5632965D01*
X9036796Y5640768D01*
X9032376Y5647384D01*
X8818740Y5861019D01*
X8812124Y5865440D01*
X8804321Y5866992D01*
X8373313D01*
X8259608Y5980697D01*
Y5993677D01*
X8264369Y5996222D01*
X8272308Y5999183D01*
X8284216Y5996814D01*
X8297872Y5999531D01*
X8309449Y6007266D01*
X8312685Y6012108D01*
X8389781D01*
X8498108Y5903781D01*
D02*
G37*
G36*
X8927722Y5694360D02*
X8920527Y5683594D01*
X8916105Y5685426D01*
X8890000Y5688863D01*
X8863895Y5685426D01*
X8839569Y5675350D01*
X8832294Y5669768D01*
X8829743Y5670987D01*
X8821934Y5677826D01*
X8824086Y5688644D01*
X8821369Y5702300D01*
X8813634Y5713877D01*
X8802056Y5721613D01*
X8788400Y5724329D01*
X8777804Y5722222D01*
X8685551Y5814475D01*
X8690411Y5826208D01*
X8795874D01*
X8927722Y5694360D01*
D02*
G37*
G36*
X9267608Y5628713D02*
Y5542437D01*
X9269160Y5534633D01*
X9273581Y5528017D01*
X9338017Y5463581D01*
X9344633Y5459160D01*
X9352437Y5457608D01*
X9761812D01*
X9769616Y5459160D01*
X9776232Y5463581D01*
X9797332Y5484681D01*
X9801752Y5491296D01*
X9803200Y5498576D01*
X9804234Y5499266D01*
X9811969Y5510844D01*
X9814271Y5522414D01*
X9820666Y5525514D01*
X9827067Y5526600D01*
X9834679Y5516679D01*
X9855569Y5500650D01*
X9875412Y5492431D01*
Y5434881D01*
X9875703Y5433422D01*
X9847473Y5405192D01*
X9105307D01*
X9038348Y5472150D01*
Y5548568D01*
X9051048Y5551094D01*
X9056650Y5537569D01*
X9072679Y5516679D01*
X9093569Y5500650D01*
X9117895Y5490574D01*
X9144000Y5487137D01*
X9170105Y5490574D01*
X9194431Y5500650D01*
X9215321Y5516679D01*
X9231350Y5537569D01*
X9241426Y5561895D01*
X9244863Y5588000D01*
X9241426Y5614105D01*
X9231350Y5638431D01*
X9215321Y5659321D01*
X9210133Y5663301D01*
X9213480Y5676741D01*
X9218702Y5677619D01*
X9267608Y5628713D01*
D02*
G37*
D34*
X7874000Y5588000D02*
X8191500Y5270500D01*
X9906000D01*
X10033000Y5397500D01*
Y5984997D01*
X10210800Y6162797D01*
Y6260144D01*
X10934700Y6591300D02*
Y7683500D01*
D35*
X9022098Y7048500D02*
X9217786D01*
X8981314Y7089284D02*
X9022098Y7048500D01*
X8981314Y7089284D02*
Y7257106D01*
X8610600Y7870448D02*
X8635834Y7845214D01*
X8610600Y7870448D02*
Y8242300D01*
X8635834Y7816518D02*
Y7845214D01*
X8572500Y7753184D02*
X8635834Y7816518D01*
X8481931Y7753184D02*
X8572500D01*
X8444884Y7790231D02*
X8481931Y7753184D01*
X8441196Y7790231D02*
X8444884D01*
X8369300Y7759121D02*
Y7958056D01*
X8394700Y7983456D01*
X8268279Y7658100D02*
X8369300Y7759121D01*
X8199321Y7658100D02*
X8268279D01*
X8961321Y7277100D02*
X8981314Y7257106D01*
X9653038Y6822272D02*
X9679197Y6848431D01*
Y6855969D01*
X9653038Y6461886D02*
Y6822272D01*
X9055100Y7112925D02*
X9383071D01*
X9459131Y7036865D01*
X10341808Y7291314D02*
X10350500Y7282622D01*
Y6968141D02*
Y7282622D01*
Y6968141D02*
X10756900Y6561741D01*
Y6469431D02*
Y6561741D01*
Y6469431D02*
X11054131Y6172200D01*
X10803541Y6635110D02*
Y6860547D01*
Y6635110D02*
X11048044Y6390607D01*
Y6314970D02*
Y6390607D01*
X11462006Y7356997D02*
X11465686Y7353317D01*
Y6972300D02*
Y7353317D01*
Y6972300D02*
X11710470Y6727515D01*
Y6467782D02*
Y6727515D01*
Y6467782D02*
X11811000Y6367252D01*
Y6184947D02*
Y6367252D01*
Y6184947D02*
X11998250Y5997697D01*
X11274302Y7046685D02*
X11286984D01*
X11680470Y6653199D01*
Y5963100D02*
Y6653199D01*
X11457346Y6410430D02*
X11553930D01*
X11366500Y6319583D02*
X11457346Y6410430D01*
X11366500Y6223167D02*
Y6319583D01*
X11290300Y6146966D02*
X11366500Y6223167D01*
X11315533Y6096000D02*
X11557000Y5854533D01*
X10746918Y6096000D02*
X11315533D01*
X10433832Y6409086D02*
X10746918Y6096000D01*
X11557000Y5511095D02*
Y5854533D01*
X11657895Y5410200D02*
X12268200D01*
X11557000Y5511095D02*
X11657895Y5410200D01*
X10324144Y6409086D02*
X10433832D01*
X10249060Y6334003D02*
X10324144Y6409086D01*
X9823966Y6334003D02*
X10249060D01*
X9782912Y6375056D02*
X9823966Y6334003D01*
X9782912Y6375056D02*
Y6422288D01*
X9728200Y6477000D02*
X9782912Y6422288D01*
X11811980Y5637159D02*
Y5712469D01*
X11525634Y5998816D02*
X11811980Y5712469D01*
X11525634Y5998816D02*
Y6015384D01*
X11568981Y6058731D01*
Y6172200D01*
X10711900Y6026700D02*
X11061700Y5676900D01*
X10550974Y6026700D02*
X10711900D01*
X10316574Y6261100D02*
X10550974Y6026700D01*
X7848600Y5991986D02*
Y5994400D01*
Y5991986D02*
X7878486Y5962100D01*
X8019640D01*
X8051939Y5994400D01*
X8077200D01*
Y6206706D01*
X8296600Y6426106D01*
X9782912Y5499100D02*
Y5520588D01*
X9779000Y5524500D02*
X9782912Y5520588D01*
X9761812Y5478000D02*
X9782912Y5499100D01*
X9352437Y5478000D02*
X9761812D01*
X9288000Y5542437D02*
X9352437Y5478000D01*
X9288000Y5542437D02*
Y5637159D01*
X9222859Y5702300D02*
X9288000Y5637159D01*
X9055266Y5702300D02*
X9222859D01*
X8839366Y5918200D02*
X9055266Y5702300D01*
X8512528Y5918200D02*
X8839366D01*
X8398228Y6032500D02*
X8512528Y5918200D01*
X8284216Y6032500D02*
X8398228D01*
X8239216Y5972250D02*
X8364866Y5846600D01*
X8239216Y6174124D02*
X8386600Y6321508D01*
X8239216Y5972250D02*
Y6174124D01*
X9855919Y5384800D02*
X9906000Y5434881D01*
X9096860Y5384800D02*
X9855919D01*
X9017956Y5463704D02*
X9096860Y5384800D01*
X9017956Y5463704D02*
Y5632964D01*
X8804321Y5846600D02*
X9017956Y5632964D01*
X8364866Y5846600D02*
X8804321D01*
X8386600Y6321508D02*
Y6516773D01*
X8348316Y6555057D02*
X8386600Y6516773D01*
X8348316Y6555057D02*
Y6556270D01*
X8787444Y5689600D02*
X8788400Y5688644D01*
X8781587Y5689600D02*
X8787444D01*
X8654587Y5816600D02*
X8781587Y5689600D01*
X8295950Y5816600D02*
X8654587D01*
X8160969Y5951581D02*
X8295950Y5816600D01*
X8160969Y5951581D02*
Y6172200D01*
X8341600Y6352831D01*
Y6409086D01*
X8356600Y6424086D01*
X7983927Y6273800D02*
X8242300Y6532173D01*
X8331569Y6481582D02*
Y6489700D01*
Y6481582D02*
X8356600Y6456551D01*
X7886700Y6273800D02*
X7983927D01*
X8356600Y6424086D02*
Y6456551D01*
X7035800Y6972300D02*
X7040679D01*
X7041252Y6971728D01*
X7150100D01*
X7442200Y7599996D02*
Y7670800D01*
Y7599996D02*
X7721600Y7320596D01*
X7658100Y7845214D02*
X7747000Y7934114D01*
X7658100Y7772400D02*
Y7845214D01*
X8509000Y8852856D02*
X8636000Y8979856D01*
X8509000Y8547100D02*
Y8852856D01*
X8356600Y8394700D02*
X8509000Y8547100D01*
X8204200Y8394700D02*
X8356600D01*
X8115300Y8305800D02*
X8204200Y8394700D01*
X8115300Y8161535D02*
Y8305800D01*
X8064500Y8110735D02*
X8115300Y8161535D01*
X8064500Y7966469D02*
Y8110735D01*
X8032145Y7934114D02*
X8064500Y7966469D01*
X7747000Y7934114D02*
X8032145D01*
X8394700Y8127834D02*
X8432966Y8166100D01*
X8394700Y7983456D02*
Y8127834D01*
X8610600Y8242300D02*
X8666886D01*
X8707769Y8201417D01*
X9115012Y8394700D02*
X9144000Y8423688D01*
X8864368Y8394700D02*
X9115012D01*
X8826268Y8356600D02*
X8864368Y8394700D01*
X8586156Y8356600D02*
X8826268D01*
X8484556Y8255000D02*
X8586156Y8356600D01*
X8178800Y8255000D02*
X8484556D01*
X9525000Y8885826D02*
X9652000Y9012826D01*
X9525000Y8420100D02*
Y8885826D01*
X9486900Y8382000D02*
X9525000Y8420100D01*
X9175482Y8382000D02*
X9486900D01*
X9150082Y8356600D02*
X9175482Y8382000D01*
X8868694Y8356600D02*
X9150082D01*
X8817894Y8305800D02*
X8868694Y8356600D01*
X8592769Y8305800D02*
X8817894D01*
X8559800Y8272831D02*
X8592769Y8305800D01*
X8559800Y8173359D02*
Y8272831D01*
X9198381Y8305800D02*
X9223781Y8331200D01*
X8860320Y8305800D02*
X9198381D01*
X8755937Y8201417D02*
X8860320Y8305800D01*
X9223781Y8331200D02*
X9544741D01*
X9652000Y8438459D01*
X8707769Y8201417D02*
X8755937D01*
X9114397Y8108950D02*
X9127777Y8095570D01*
Y7937500D02*
Y8095570D01*
X9551356Y7645400D02*
X9551912D01*
X9567682Y7629630D01*
X9575800D01*
X9528506Y7668251D02*
X9551356Y7645400D01*
X9474200Y7668251D02*
X9528506D01*
X9474002Y7668449D02*
X9474200Y7668251D01*
X9347200Y7668449D02*
X9474002D01*
X9329891Y7651140D02*
X9347200Y7668449D01*
X9289440Y7651140D02*
X9329891D01*
X9283700Y7645400D02*
X9289440Y7651140D01*
X9258300Y7721600D02*
X9730500D01*
X9182100Y7645400D02*
X9258300Y7721600D01*
X9192054D02*
X9214541D01*
X9141254Y7670800D02*
X9192054Y7721600D01*
X9013673Y7670800D02*
X9141254D01*
X9080500Y7721600D02*
X9138139D01*
X9214541D02*
X9321800Y7828859D01*
Y7886700D01*
X9730500Y7721600D02*
X9880600Y7871700D01*
X9138139Y7721600D02*
X9248014Y7831475D01*
X8877300Y7911579D02*
X9101856D01*
X9127777Y7937500D01*
X9245600Y7861300D02*
X9248014Y7858886D01*
Y7831475D02*
Y7858886D01*
X8864600Y7521727D02*
X9013673Y7670800D01*
X10070144Y7213600D02*
X10083800Y7199944D01*
X10038740Y7213600D02*
X10070144D01*
X10033000Y7219340D02*
X10038740Y7213600D01*
X10083800Y7035800D02*
Y7199944D01*
X9880600Y7871700D02*
Y7874000D01*
D37*
X12268200Y5410200D02*
X12446000Y5588000D01*
X9906000Y5434881D02*
Y5588000D01*
X8636000Y8979856D02*
Y9144000D01*
X9144000Y8423688D02*
Y8636000D01*
X9652000Y9012826D02*
Y9144000D01*
Y8438459D02*
Y8636000D01*
D39*
X7112000D02*
D03*
X6604000D02*
D03*
X6858000D02*
D03*
X6350000D02*
D03*
X7366000D02*
D03*
X7874000D02*
D03*
X7620000D02*
D03*
X9652000D02*
D03*
X9398000D02*
D03*
X9906000D02*
D03*
X10160000D02*
D03*
X9144000D02*
D03*
X8890000D02*
D03*
X8382000D02*
D03*
X8636000D02*
D03*
X8128000D02*
D03*
X10414000D02*
D03*
X10922000D02*
D03*
X10668000D02*
D03*
X11176000D02*
D03*
X11430000D02*
D03*
X12446000D02*
D03*
X12192000D02*
D03*
X11684000D02*
D03*
X11938000D02*
D03*
X7112000Y5080000D02*
D03*
X6604000D02*
D03*
X6858000D02*
D03*
X6350000D02*
D03*
X7366000D02*
D03*
X7874000D02*
D03*
X7620000D02*
D03*
X9652000D02*
D03*
X9398000D02*
D03*
X9906000D02*
D03*
X10160000D02*
D03*
X9144000D02*
D03*
X8890000D02*
D03*
X8382000D02*
D03*
X8636000D02*
D03*
X8128000D02*
D03*
X10414000D02*
D03*
X10922000D02*
D03*
X10668000D02*
D03*
X11176000D02*
D03*
X11430000D02*
D03*
X12446000D02*
D03*
X12192000D02*
D03*
X11684000D02*
D03*
X11938000D02*
D03*
X7112000Y9144000D02*
D03*
X6604000D02*
D03*
X6858000D02*
D03*
X6350000D02*
D03*
X7366000D02*
D03*
X7874000D02*
D03*
X7620000D02*
D03*
X9652000D02*
D03*
X9398000D02*
D03*
X9906000D02*
D03*
X10160000D02*
D03*
X9144000D02*
D03*
X8890000D02*
D03*
X8382000D02*
D03*
X8636000D02*
D03*
X8128000D02*
D03*
X10414000D02*
D03*
X10922000D02*
D03*
X10668000D02*
D03*
X11176000D02*
D03*
X11430000D02*
D03*
X12446000D02*
D03*
X12192000D02*
D03*
X11684000D02*
D03*
X11938000D02*
D03*
X7112000Y5588000D02*
D03*
X6604000D02*
D03*
X6858000D02*
D03*
X6350000D02*
D03*
X7366000D02*
D03*
X7874000D02*
D03*
X7620000D02*
D03*
X9652000D02*
D03*
X9398000D02*
D03*
X9906000D02*
D03*
X10160000D02*
D03*
X9144000D02*
D03*
X8890000D02*
D03*
X8382000D02*
D03*
X8636000D02*
D03*
X8128000D02*
D03*
X10414000D02*
D03*
X10922000D02*
D03*
X10668000D02*
D03*
X11176000D02*
D03*
X11430000D02*
D03*
X12446000D02*
D03*
X12192000D02*
D03*
X11684000D02*
D03*
X11938000D02*
D03*
D40*
X12366250Y7544000D02*
D03*
Y6680000D02*
D03*
D41*
X11948250Y7544000D02*
D03*
Y6680000D02*
D03*
D42*
X7937500Y7255026D02*
D03*
X7848600Y7461728D02*
D03*
X7810500Y7378700D02*
D03*
X8155691Y7362703D02*
D03*
X7416400Y8035100D02*
D03*
X10210800Y6260144D02*
D03*
X9604678Y7320596D02*
D03*
X8559800Y7823200D02*
D03*
X8458200Y7933500D02*
D03*
X8496300Y7861300D02*
D03*
X8441196Y7790231D02*
D03*
X8293100Y7868604D02*
D03*
X8267700Y7797200D02*
D03*
X8229600Y7734300D02*
D03*
X8199321Y7658100D02*
D03*
X8961321Y7277100D02*
D03*
X9217786Y7048500D02*
D03*
X9679197Y6855969D02*
D03*
X8953500Y6823000D02*
D03*
X8890000Y6756400D02*
D03*
X8826500Y6673594D02*
D03*
X8750300Y6616700D02*
D03*
X9017000Y6870700D02*
D03*
X9653038Y6461886D02*
D03*
X9055100Y7112925D02*
D03*
X9459131Y7036865D02*
D03*
X10690330Y7760656D02*
D03*
X10756900Y7696200D02*
D03*
X9902040Y8154176D02*
D03*
X10341808Y7291314D02*
D03*
X11054131Y6172200D02*
D03*
X10796630Y7408985D02*
D03*
X10803541Y6860547D02*
D03*
X11048044Y6314970D02*
D03*
X10677358Y7631730D02*
D03*
X11078574Y7175666D02*
D03*
X12366250Y7112925D02*
D03*
X11305300Y6469275D02*
D03*
X11413639Y6492114D02*
D03*
X11462006Y7356997D02*
D03*
X11998250Y5997697D02*
D03*
X11274302Y7046685D02*
D03*
X11680470Y5963100D02*
D03*
X11290300Y6146966D02*
D03*
X11531600Y7912100D02*
D03*
X8978900Y6946900D02*
D03*
X9728200Y6477000D02*
D03*
X11811980Y5637159D02*
D03*
X11568981Y6172200D02*
D03*
X11061700Y5676900D02*
D03*
X10316574Y6261100D02*
D03*
X9279466Y6413500D02*
D03*
X9715500Y6375400D02*
D03*
Y6273800D02*
D03*
X9760019Y6121400D02*
D03*
X9525000Y6350000D02*
D03*
X9004300Y6426106D02*
D03*
X9715500Y5981700D02*
D03*
X8910800Y6375400D02*
D03*
X9715500Y6060970D02*
D03*
X8677550Y6565900D02*
D03*
X8610600Y6487100D02*
D03*
X8864600Y6237464D02*
D03*
X8525150Y6426200D02*
D03*
X7848600Y5994400D02*
D03*
X8497881Y6362700D02*
D03*
X8820406Y6096000D02*
D03*
X8724900Y6121400D02*
D03*
X9779000Y5524500D02*
D03*
X8284216Y6032500D02*
D03*
X8348316Y6556270D02*
D03*
X8788400Y5688644D02*
D03*
X8216900Y6438900D02*
D03*
X8331569Y6489700D02*
D03*
X8296600Y6426106D02*
D03*
X7886700Y6273800D02*
D03*
X8242300Y6532173D02*
D03*
X8176754Y6565000D02*
D03*
X8128000Y6629400D02*
D03*
X8049660Y6604000D02*
D03*
X8019500Y6692900D02*
D03*
X7962900Y6756400D02*
D03*
X7899400Y6807200D02*
D03*
X7802173Y6823000D02*
D03*
X7638096Y6261100D02*
D03*
X7645400Y6350000D02*
D03*
X7581900Y6487100D02*
D03*
X7531100Y6527800D02*
D03*
X7467600Y6487100D02*
D03*
X7035800Y6972300D02*
D03*
X7150100Y6971728D02*
D03*
X7277100Y7035800D02*
D03*
X7467600Y6629400D02*
D03*
X7448619Y6703100D02*
D03*
X7663840Y6960996D02*
D03*
X7549941Y7046685D02*
D03*
X7239000Y6914010D02*
D03*
X7302500Y7239000D02*
D03*
X7493000Y8048500D02*
D03*
X7442200Y7670800D02*
D03*
X7721600Y7320596D02*
D03*
X7645400Y8242300D02*
D03*
Y7251700D02*
D03*
X7416800Y7480300D02*
D03*
X7747000Y7823200D02*
D03*
X7658100Y7772400D02*
D03*
X7607300Y7691827D02*
D03*
X7721600Y7727950D02*
D03*
X8128000Y7629630D02*
D03*
X7950200Y7454900D02*
D03*
X9017956Y8559800D02*
D03*
X8432966Y8166100D02*
D03*
X8610600Y8242300D02*
D03*
X8293100Y7944431D02*
D03*
X8178800Y8255000D02*
D03*
X8280400Y8204200D02*
D03*
X8178800Y7810500D02*
D03*
X7950200Y8026400D02*
D03*
X8559800Y8173359D02*
D03*
X8820406Y8143800D02*
D03*
X8851900Y8039100D02*
D03*
X8737298Y8246417D02*
D03*
X8826500Y7969800D02*
D03*
X8928100Y8255000D02*
D03*
X9004300Y8193000D02*
D03*
X9114397Y8108950D02*
D03*
X9575800Y7629630D02*
D03*
X9283700Y7645400D02*
D03*
X9182100D02*
D03*
X9401071Y7603439D02*
D03*
X9080500Y7721600D02*
D03*
X8978900Y7772400D02*
D03*
X8915400Y7848600D02*
D03*
X9080500Y7823200D02*
D03*
X9496529Y7603439D02*
D03*
X9537700Y7378700D02*
D03*
X9144000Y7791100D02*
D03*
X8877300Y7911579D02*
D03*
X8648700Y7724897D02*
D03*
X10156062Y8255000D02*
D03*
X8763000Y7632700D02*
D03*
X9245600Y7861300D02*
D03*
X9321800Y7886700D02*
D03*
X10464800Y8253110D02*
D03*
X8864600Y7521727D02*
D03*
X10617200Y8253110D02*
D03*
X9601200Y7823200D02*
D03*
X10693400Y8216900D02*
D03*
X10083800Y7791100D02*
D03*
X10541000Y5981700D02*
D03*
X10642600Y6073100D02*
D03*
X10833100Y6031000D02*
D03*
X11036300Y6032500D02*
D03*
X11264900Y6031000D02*
D03*
X11607800Y5994400D02*
D03*
X11895750Y5956300D02*
D03*
X12292100Y6337300D02*
D03*
X12460200Y6426106D02*
D03*
X12125025Y6390751D02*
D03*
X11710030Y6987000D02*
D03*
X12460200Y8254721D02*
D03*
X12268200Y7933500D02*
D03*
X12039600Y7978670D02*
D03*
X11796980Y8175730D02*
D03*
X11620500Y8089900D02*
D03*
X11290300Y8193753D02*
D03*
X10795000Y7987300D02*
D03*
X10662939Y8117281D02*
D03*
X10410200Y8001000D02*
D03*
X9822750Y7944431D02*
D03*
X9753353Y7629630D02*
D03*
X9663200Y7569200D02*
D03*
X9867900Y6896233D02*
D03*
X10312470Y6897000D02*
D03*
X10096500Y6921081D02*
D03*
X10033000Y7219340D02*
D03*
X10083800Y7035800D02*
D03*
X10107900Y7391307D02*
D03*
X9880600Y7874000D02*
D03*
X9496529Y7506727D02*
D03*
X10312470Y7747000D02*
D03*
X9842500Y7708900D02*
D03*
X9042400Y7320596D02*
D03*
X10185400Y7708900D02*
D03*
X9931427D02*
D03*
X11430000Y8254721D02*
D03*
X10261600Y7642330D02*
D03*
X10134600Y7529437D02*
D03*
X10312400Y7589783D02*
D03*
X10210800Y7493000D02*
D03*
X9283700Y7442200D02*
D03*
X9262600Y8246417D02*
D03*
X9626600Y7924800D02*
D03*
X9486900Y7886700D02*
D03*
X11506200Y8216900D02*
D03*
X9906000Y7327000D02*
D03*
X9760019Y7213600D02*
D03*
X9118600Y7262900D02*
D03*
X10337800Y7378700D02*
D03*
X9182100Y7200900D02*
D03*
X11938000Y8255000D02*
D03*
X9080500Y6997700D02*
D03*
X7912100Y6211182D02*
D03*
X8001000Y6007100D02*
D03*
X10198100Y6527800D02*
D03*
X10109200Y6532173D02*
D03*
X10020300D02*
D03*
X9931400D02*
D03*
X10096500Y6410430D02*
D03*
X10013500D02*
D03*
X9931400D02*
D03*
X9842500D02*
D03*
X9374100Y6083300D02*
D03*
X9459407Y6045200D02*
D03*
Y6121400D02*
D03*
X9613900Y6350000D02*
D03*
X9244100Y6491421D02*
D03*
X9461500Y6726627D02*
D03*
X9550400Y6938759D02*
D03*
X7048500Y7262900D02*
D03*
X7162800Y7355952D02*
D03*
X7366000Y7708900D02*
D03*
X7061200Y7950200D02*
D03*
X7493000Y7965970D02*
D03*
X7823200Y8026400D02*
D03*
X7950200Y8153400D02*
D03*
X8049660Y8246417D02*
D03*
X11303000Y7531100D02*
D03*
X11606300Y7391307D02*
D03*
X11125200Y7048500D02*
D03*
X11264900Y6654800D02*
D03*
X12103100Y7277100D02*
D03*
X12306300Y7202400D02*
D03*
X12026900Y7048500D02*
D03*
X12118800Y6934200D02*
D03*
X10536627Y7594600D02*
D03*
X11553930Y6410430D02*
D03*
X10604500Y7188200D02*
D03*
X9512300Y7213600D02*
D03*
X9677400Y7226300D02*
D03*
X10096500Y6213974D02*
D03*
X10013500D02*
D03*
X10210800Y6638238D02*
D03*
Y6772170D02*
D03*
X9906000D02*
D03*
Y6638238D02*
D03*
X10934700Y6591300D02*
D03*
X11874500Y7937500D02*
D03*
X10934700Y7683500D02*
D03*
X12039600Y8175730D02*
D03*
X12115800Y8108950D02*
D03*
X12204700Y8216900D02*
D03*
X12331700D02*
D03*
X11798300Y7491115D02*
D03*
X11785600Y6792000D02*
D03*
X11398639Y6726627D02*
D03*
X11606300Y6921081D02*
D03*
X10541000Y6591300D02*
D03*
X10744200Y6388100D02*
D03*
X11087100Y7832281D02*
D03*
X11290300Y7629630D02*
D03*
%TF.MD5,0c97748a9996a19c2e34decf5f576587*%
M02*
