%TF.GenerationSoftware,Altium Limited,Altium Designer,19.0.15 (446)*%
G04 Layer_Color=255*
%FSLAX45Y45*%
%MOMM*%
%TF.FileFunction,Pads,Bot*%
%TF.Part,Single*%
G01*
G75*
%TA.AperFunction,ComponentPad*%
%ADD39C,1.80000*%
G04:AMPARAMS|DCode=40|XSize=1mm|YSize=1.8mm|CornerRadius=0.5mm|HoleSize=0mm|Usage=FLASHONLY|Rotation=90.000|XOffset=0mm|YOffset=0mm|HoleType=Round|Shape=RoundedRectangle|*
%AMROUNDEDRECTD40*
21,1,1.00000,0.80000,0,0,90.0*
21,1,0.00000,1.80000,0,0,90.0*
1,1,1.00000,0.40000,0.00000*
1,1,1.00000,0.40000,0.00000*
1,1,1.00000,-0.40000,0.00000*
1,1,1.00000,-0.40000,0.00000*
%
%ADD40ROUNDEDRECTD40*%
G04:AMPARAMS|DCode=41|XSize=1mm|YSize=2.1mm|CornerRadius=0.5mm|HoleSize=0mm|Usage=FLASHONLY|Rotation=90.000|XOffset=0mm|YOffset=0mm|HoleType=Round|Shape=RoundedRectangle|*
%AMROUNDEDRECTD41*
21,1,1.00000,1.10000,0,0,90.0*
21,1,0.00000,2.10000,0,0,90.0*
1,1,1.00000,0.55000,0.00000*
1,1,1.00000,0.55000,0.00000*
1,1,1.00000,-0.55000,0.00000*
1,1,1.00000,-0.55000,0.00000*
%
%ADD41ROUNDEDRECTD41*%
%TA.AperFunction,SMDPad,CuDef*%
%ADD43C,1.40000*%
D39*
X7112000Y8636000D02*
D03*
X6604000D02*
D03*
X6858000D02*
D03*
X6350000D02*
D03*
X7366000D02*
D03*
X7874000D02*
D03*
X7620000D02*
D03*
X9652000D02*
D03*
X9398000D02*
D03*
X9906000D02*
D03*
X10160000D02*
D03*
X9144000D02*
D03*
X8890000D02*
D03*
X8382000D02*
D03*
X8636000D02*
D03*
X8128000D02*
D03*
X10414000D02*
D03*
X10922000D02*
D03*
X10668000D02*
D03*
X11176000D02*
D03*
X11430000D02*
D03*
X12446000D02*
D03*
X12192000D02*
D03*
X11684000D02*
D03*
X11938000D02*
D03*
X7112000Y5080000D02*
D03*
X6604000D02*
D03*
X6858000D02*
D03*
X6350000D02*
D03*
X7366000D02*
D03*
X7874000D02*
D03*
X7620000D02*
D03*
X9652000D02*
D03*
X9398000D02*
D03*
X9906000D02*
D03*
X10160000D02*
D03*
X9144000D02*
D03*
X8890000D02*
D03*
X8382000D02*
D03*
X8636000D02*
D03*
X8128000D02*
D03*
X10414000D02*
D03*
X10922000D02*
D03*
X10668000D02*
D03*
X11176000D02*
D03*
X11430000D02*
D03*
X12446000D02*
D03*
X12192000D02*
D03*
X11684000D02*
D03*
X11938000D02*
D03*
X7112000Y9144000D02*
D03*
X6604000D02*
D03*
X6858000D02*
D03*
X6350000D02*
D03*
X7366000D02*
D03*
X7874000D02*
D03*
X7620000D02*
D03*
X9652000D02*
D03*
X9398000D02*
D03*
X9906000D02*
D03*
X10160000D02*
D03*
X9144000D02*
D03*
X8890000D02*
D03*
X8382000D02*
D03*
X8636000D02*
D03*
X8128000D02*
D03*
X10414000D02*
D03*
X10922000D02*
D03*
X10668000D02*
D03*
X11176000D02*
D03*
X11430000D02*
D03*
X12446000D02*
D03*
X12192000D02*
D03*
X11684000D02*
D03*
X11938000D02*
D03*
X7112000Y5588000D02*
D03*
X6604000D02*
D03*
X6858000D02*
D03*
X6350000D02*
D03*
X7366000D02*
D03*
X7874000D02*
D03*
X7620000D02*
D03*
X9652000D02*
D03*
X9398000D02*
D03*
X9906000D02*
D03*
X10160000D02*
D03*
X9144000D02*
D03*
X8890000D02*
D03*
X8382000D02*
D03*
X8636000D02*
D03*
X8128000D02*
D03*
X10414000D02*
D03*
X10922000D02*
D03*
X10668000D02*
D03*
X11176000D02*
D03*
X11430000D02*
D03*
X12446000D02*
D03*
X12192000D02*
D03*
X11684000D02*
D03*
X11938000D02*
D03*
D40*
X12366250Y7544000D02*
D03*
Y6680000D02*
D03*
D41*
X11948250Y7544000D02*
D03*
Y6680000D02*
D03*
D43*
X12192000Y6096000D02*
D03*
X11938000D02*
D03*
X11684000D02*
D03*
X11430000D02*
D03*
X11443656Y7565790D02*
D03*
%TF.MD5,3db7a53fc3608b9c80a5db8d3905fd2f*%
M02*
