%TF.GenerationSoftware,Altium Limited,Altium Designer,19.0.15 (446)*%
G04 Layer_Physical_Order=3*
G04 Layer_Color=6711008*
%FSLAX45Y45*%
%MOMM*%
%TF.FileFunction,Copper,L3,Inr,Signal*%
%TF.Part,Single*%
G01*
G75*
%TA.AperFunction,Conductor*%
%ADD34C,0.50000*%
%ADD35C,0.20000*%
%TA.AperFunction,ComponentPad*%
%ADD39C,1.80000*%
G04:AMPARAMS|DCode=40|XSize=1mm|YSize=1.8mm|CornerRadius=0.5mm|HoleSize=0mm|Usage=FLASHONLY|Rotation=90.000|XOffset=0mm|YOffset=0mm|HoleType=Round|Shape=RoundedRectangle|*
%AMROUNDEDRECTD40*
21,1,1.00000,0.80000,0,0,90.0*
21,1,0.00000,1.80000,0,0,90.0*
1,1,1.00000,0.40000,0.00000*
1,1,1.00000,0.40000,0.00000*
1,1,1.00000,-0.40000,0.00000*
1,1,1.00000,-0.40000,0.00000*
%
%ADD40ROUNDEDRECTD40*%
G04:AMPARAMS|DCode=41|XSize=1mm|YSize=2.1mm|CornerRadius=0.5mm|HoleSize=0mm|Usage=FLASHONLY|Rotation=90.000|XOffset=0mm|YOffset=0mm|HoleType=Round|Shape=RoundedRectangle|*
%AMROUNDEDRECTD41*
21,1,1.00000,1.10000,0,0,90.0*
21,1,0.00000,2.10000,0,0,90.0*
1,1,1.00000,0.55000,0.00000*
1,1,1.00000,0.55000,0.00000*
1,1,1.00000,-0.55000,0.00000*
1,1,1.00000,-0.55000,0.00000*
%
%ADD41ROUNDEDRECTD41*%
%TA.AperFunction,ViaPad*%
%ADD42C,0.50000*%
G36*
X10274300Y7685499D02*
X10264483Y7677442D01*
X10261600Y7678015D01*
X10247944Y7675299D01*
X10236366Y7667563D01*
X10228631Y7655986D01*
X10225914Y7642330D01*
X10228631Y7628673D01*
X10236366Y7617096D01*
X10247944Y7609360D01*
X10261600Y7606644D01*
X10264483Y7607217D01*
X10274300Y7599161D01*
Y4953000D01*
X6223000D01*
Y9271000D01*
X10274300D01*
Y7685499D01*
D02*
G37*
G36*
X12573000Y4953000D02*
X10299700D01*
Y6216169D01*
X10312400Y6226245D01*
X10316574Y6225414D01*
X10330231Y6228131D01*
X10341808Y6235866D01*
X10349543Y6247444D01*
X10352260Y6261100D01*
X10349543Y6274756D01*
X10341808Y6286334D01*
X10330231Y6294069D01*
X10316574Y6296786D01*
X10312400Y6295955D01*
X10299700Y6306031D01*
Y6853845D01*
X10309517Y6861901D01*
X10312470Y6861314D01*
X10326126Y6864031D01*
X10337703Y6871766D01*
X10345439Y6883344D01*
X10348156Y6897000D01*
X10345439Y6910656D01*
X10337703Y6922234D01*
X10326126Y6929969D01*
X10312470Y6932686D01*
X10309517Y6932098D01*
X10299700Y6940155D01*
Y7268475D01*
X10312400Y7272328D01*
X10316574Y7266081D01*
X10328152Y7258345D01*
X10341808Y7255629D01*
X10355464Y7258345D01*
X10367041Y7266081D01*
X10374777Y7277658D01*
X10377494Y7291314D01*
X10374777Y7304971D01*
X10367041Y7316548D01*
X10355464Y7324284D01*
X10347476Y7325873D01*
Y7338821D01*
X10353797Y7340079D01*
X10367359Y7349141D01*
X10376421Y7362703D01*
X10376619Y7363700D01*
X10337800D01*
Y7378700D01*
X10322800D01*
Y7417519D01*
X10321803Y7417321D01*
X10312400Y7411039D01*
X10299700Y7416597D01*
Y7546614D01*
X10309517Y7554671D01*
X10312400Y7554097D01*
X10326056Y7556814D01*
X10337634Y7564549D01*
X10345369Y7576127D01*
X10348086Y7589783D01*
X10345369Y7603439D01*
X10337634Y7615017D01*
X10326056Y7622752D01*
X10312400Y7625469D01*
X10309517Y7624895D01*
X10299700Y7632952D01*
Y7703845D01*
X10309517Y7711902D01*
X10312470Y7711314D01*
X10326126Y7714031D01*
X10337703Y7721766D01*
X10345439Y7733344D01*
X10348156Y7747000D01*
X10345439Y7760656D01*
X10337703Y7772234D01*
X10326126Y7779969D01*
X10312470Y7782686D01*
X10309517Y7782098D01*
X10299700Y7790155D01*
Y9271000D01*
X12573000D01*
Y4953000D01*
D02*
G37*
%LPC*%
G36*
X6873000Y9248940D02*
Y9159000D01*
X6962940D01*
X6961271Y9171672D01*
X6950591Y9197457D01*
X6933600Y9219600D01*
X6911457Y9236591D01*
X6885672Y9247271D01*
X6873000Y9248940D01*
D02*
G37*
G36*
X6843000D02*
X6830328Y9247271D01*
X6804543Y9236591D01*
X6782400Y9219600D01*
X6765409Y9197457D01*
X6754729Y9171672D01*
X6753060Y9159000D01*
X6843000D01*
Y9248940D01*
D02*
G37*
G36*
X10160000Y9244863D02*
X10133895Y9241426D01*
X10109569Y9231350D01*
X10088679Y9215321D01*
X10072650Y9194431D01*
X10062574Y9170105D01*
X10059137Y9144000D01*
X10062574Y9117895D01*
X10072650Y9093569D01*
X10088679Y9072679D01*
X10109569Y9056650D01*
X10133895Y9046574D01*
X10160000Y9043137D01*
X10186105Y9046574D01*
X10210431Y9056650D01*
X10231321Y9072679D01*
X10247350Y9093569D01*
X10257426Y9117895D01*
X10260863Y9144000D01*
X10257426Y9170105D01*
X10247350Y9194431D01*
X10231321Y9215321D01*
X10210431Y9231350D01*
X10186105Y9241426D01*
X10160000Y9244863D01*
D02*
G37*
G36*
X9906000D02*
X9879895Y9241426D01*
X9855569Y9231350D01*
X9834679Y9215321D01*
X9818650Y9194431D01*
X9808574Y9170105D01*
X9805137Y9144000D01*
X9808574Y9117895D01*
X9818650Y9093569D01*
X9834679Y9072679D01*
X9855569Y9056650D01*
X9879895Y9046574D01*
X9906000Y9043137D01*
X9932105Y9046574D01*
X9956431Y9056650D01*
X9977321Y9072679D01*
X9993350Y9093569D01*
X10003426Y9117895D01*
X10006863Y9144000D01*
X10003426Y9170105D01*
X9993350Y9194431D01*
X9977321Y9215321D01*
X9956431Y9231350D01*
X9932105Y9241426D01*
X9906000Y9244863D01*
D02*
G37*
G36*
X9652000D02*
X9625895Y9241426D01*
X9601569Y9231350D01*
X9580679Y9215321D01*
X9564650Y9194431D01*
X9554574Y9170105D01*
X9551137Y9144000D01*
X9554574Y9117895D01*
X9564650Y9093569D01*
X9580679Y9072679D01*
X9601569Y9056650D01*
X9625895Y9046574D01*
X9652000Y9043137D01*
X9678105Y9046574D01*
X9702431Y9056650D01*
X9723321Y9072679D01*
X9739350Y9093569D01*
X9749426Y9117895D01*
X9752863Y9144000D01*
X9749426Y9170105D01*
X9739350Y9194431D01*
X9723321Y9215321D01*
X9702431Y9231350D01*
X9678105Y9241426D01*
X9652000Y9244863D01*
D02*
G37*
G36*
X9398000D02*
X9371895Y9241426D01*
X9347569Y9231350D01*
X9326679Y9215321D01*
X9310650Y9194431D01*
X9300574Y9170105D01*
X9297137Y9144000D01*
X9300574Y9117895D01*
X9310650Y9093569D01*
X9326679Y9072679D01*
X9347569Y9056650D01*
X9371895Y9046574D01*
X9398000Y9043137D01*
X9424105Y9046574D01*
X9448431Y9056650D01*
X9469321Y9072679D01*
X9485350Y9093569D01*
X9495426Y9117895D01*
X9498863Y9144000D01*
X9495426Y9170105D01*
X9485350Y9194431D01*
X9469321Y9215321D01*
X9448431Y9231350D01*
X9424105Y9241426D01*
X9398000Y9244863D01*
D02*
G37*
G36*
X9144000D02*
X9117895Y9241426D01*
X9093569Y9231350D01*
X9072679Y9215321D01*
X9056650Y9194431D01*
X9046574Y9170105D01*
X9043137Y9144000D01*
X9046574Y9117895D01*
X9056650Y9093569D01*
X9072679Y9072679D01*
X9093569Y9056650D01*
X9117895Y9046574D01*
X9144000Y9043137D01*
X9170105Y9046574D01*
X9194431Y9056650D01*
X9215321Y9072679D01*
X9231350Y9093569D01*
X9241426Y9117895D01*
X9244863Y9144000D01*
X9241426Y9170105D01*
X9231350Y9194431D01*
X9215321Y9215321D01*
X9194431Y9231350D01*
X9170105Y9241426D01*
X9144000Y9244863D01*
D02*
G37*
G36*
X8890000D02*
X8863895Y9241426D01*
X8839569Y9231350D01*
X8818679Y9215321D01*
X8802650Y9194431D01*
X8792574Y9170105D01*
X8789137Y9144000D01*
X8792574Y9117895D01*
X8802650Y9093569D01*
X8818679Y9072679D01*
X8839569Y9056650D01*
X8863895Y9046574D01*
X8890000Y9043137D01*
X8916105Y9046574D01*
X8940431Y9056650D01*
X8961321Y9072679D01*
X8977350Y9093569D01*
X8987426Y9117895D01*
X8990863Y9144000D01*
X8987426Y9170105D01*
X8977350Y9194431D01*
X8961321Y9215321D01*
X8940431Y9231350D01*
X8916105Y9241426D01*
X8890000Y9244863D01*
D02*
G37*
G36*
X8636000D02*
X8609895Y9241426D01*
X8585569Y9231350D01*
X8564679Y9215321D01*
X8548650Y9194431D01*
X8538574Y9170105D01*
X8535137Y9144000D01*
X8538574Y9117895D01*
X8548650Y9093569D01*
X8564679Y9072679D01*
X8585569Y9056650D01*
X8609895Y9046574D01*
X8636000Y9043137D01*
X8662105Y9046574D01*
X8686431Y9056650D01*
X8707321Y9072679D01*
X8723350Y9093569D01*
X8733426Y9117895D01*
X8736863Y9144000D01*
X8733426Y9170105D01*
X8723350Y9194431D01*
X8707321Y9215321D01*
X8686431Y9231350D01*
X8662105Y9241426D01*
X8636000Y9244863D01*
D02*
G37*
G36*
X8382000D02*
X8355895Y9241426D01*
X8331569Y9231350D01*
X8310679Y9215321D01*
X8294650Y9194431D01*
X8284574Y9170105D01*
X8281137Y9144000D01*
X8284574Y9117895D01*
X8294650Y9093569D01*
X8310679Y9072679D01*
X8331569Y9056650D01*
X8355895Y9046574D01*
X8382000Y9043137D01*
X8408105Y9046574D01*
X8432431Y9056650D01*
X8453321Y9072679D01*
X8469350Y9093569D01*
X8479426Y9117895D01*
X8482863Y9144000D01*
X8479426Y9170105D01*
X8469350Y9194431D01*
X8453321Y9215321D01*
X8432431Y9231350D01*
X8408105Y9241426D01*
X8382000Y9244863D01*
D02*
G37*
G36*
X8128000D02*
X8101895Y9241426D01*
X8077569Y9231350D01*
X8056679Y9215321D01*
X8040650Y9194431D01*
X8030574Y9170105D01*
X8027137Y9144000D01*
X8030574Y9117895D01*
X8040650Y9093569D01*
X8056679Y9072679D01*
X8077569Y9056650D01*
X8101895Y9046574D01*
X8128000Y9043137D01*
X8154105Y9046574D01*
X8178431Y9056650D01*
X8199321Y9072679D01*
X8215350Y9093569D01*
X8225426Y9117895D01*
X8228863Y9144000D01*
X8225426Y9170105D01*
X8215350Y9194431D01*
X8199321Y9215321D01*
X8178431Y9231350D01*
X8154105Y9241426D01*
X8128000Y9244863D01*
D02*
G37*
G36*
X7874000D02*
X7847895Y9241426D01*
X7823569Y9231350D01*
X7802679Y9215321D01*
X7786650Y9194431D01*
X7776574Y9170105D01*
X7773137Y9144000D01*
X7776574Y9117895D01*
X7786650Y9093569D01*
X7802679Y9072679D01*
X7823569Y9056650D01*
X7847895Y9046574D01*
X7874000Y9043137D01*
X7900105Y9046574D01*
X7924431Y9056650D01*
X7945321Y9072679D01*
X7961350Y9093569D01*
X7971426Y9117895D01*
X7974863Y9144000D01*
X7971426Y9170105D01*
X7961350Y9194431D01*
X7945321Y9215321D01*
X7924431Y9231350D01*
X7900105Y9241426D01*
X7874000Y9244863D01*
D02*
G37*
G36*
X7620000D02*
X7593895Y9241426D01*
X7569569Y9231350D01*
X7548679Y9215321D01*
X7532650Y9194431D01*
X7522574Y9170105D01*
X7519137Y9144000D01*
X7522574Y9117895D01*
X7532650Y9093569D01*
X7548679Y9072679D01*
X7569569Y9056650D01*
X7593895Y9046574D01*
X7620000Y9043137D01*
X7646105Y9046574D01*
X7670431Y9056650D01*
X7691321Y9072679D01*
X7707350Y9093569D01*
X7717426Y9117895D01*
X7720863Y9144000D01*
X7717426Y9170105D01*
X7707350Y9194431D01*
X7691321Y9215321D01*
X7670431Y9231350D01*
X7646105Y9241426D01*
X7620000Y9244863D01*
D02*
G37*
G36*
X7366000D02*
X7339895Y9241426D01*
X7315569Y9231350D01*
X7294679Y9215321D01*
X7278650Y9194431D01*
X7268574Y9170105D01*
X7265137Y9144000D01*
X7268574Y9117895D01*
X7278650Y9093569D01*
X7294679Y9072679D01*
X7315569Y9056650D01*
X7339895Y9046574D01*
X7366000Y9043137D01*
X7392105Y9046574D01*
X7416431Y9056650D01*
X7437321Y9072679D01*
X7453350Y9093569D01*
X7463426Y9117895D01*
X7466863Y9144000D01*
X7463426Y9170105D01*
X7453350Y9194431D01*
X7437321Y9215321D01*
X7416431Y9231350D01*
X7392105Y9241426D01*
X7366000Y9244863D01*
D02*
G37*
G36*
X7112000D02*
X7085895Y9241426D01*
X7061569Y9231350D01*
X7040679Y9215321D01*
X7024650Y9194431D01*
X7014574Y9170105D01*
X7011137Y9144000D01*
X7014574Y9117895D01*
X7024650Y9093569D01*
X7040679Y9072679D01*
X7061569Y9056650D01*
X7085895Y9046574D01*
X7112000Y9043137D01*
X7138105Y9046574D01*
X7162431Y9056650D01*
X7183321Y9072679D01*
X7199350Y9093569D01*
X7209426Y9117895D01*
X7212863Y9144000D01*
X7209426Y9170105D01*
X7199350Y9194431D01*
X7183321Y9215321D01*
X7162431Y9231350D01*
X7138105Y9241426D01*
X7112000Y9244863D01*
D02*
G37*
G36*
X6604000D02*
X6577895Y9241426D01*
X6553569Y9231350D01*
X6532679Y9215321D01*
X6516650Y9194431D01*
X6506574Y9170105D01*
X6503137Y9144000D01*
X6506574Y9117895D01*
X6516650Y9093569D01*
X6532679Y9072679D01*
X6553569Y9056650D01*
X6577895Y9046574D01*
X6604000Y9043137D01*
X6630105Y9046574D01*
X6654431Y9056650D01*
X6675321Y9072679D01*
X6691350Y9093569D01*
X6701426Y9117895D01*
X6704863Y9144000D01*
X6701426Y9170105D01*
X6691350Y9194431D01*
X6675321Y9215321D01*
X6654431Y9231350D01*
X6630105Y9241426D01*
X6604000Y9244863D01*
D02*
G37*
G36*
X6350000D02*
X6323895Y9241426D01*
X6299569Y9231350D01*
X6278679Y9215321D01*
X6262650Y9194431D01*
X6252574Y9170105D01*
X6249137Y9144000D01*
X6252574Y9117895D01*
X6262650Y9093569D01*
X6278679Y9072679D01*
X6299569Y9056650D01*
X6323895Y9046574D01*
X6350000Y9043137D01*
X6376105Y9046574D01*
X6400431Y9056650D01*
X6421321Y9072679D01*
X6437350Y9093569D01*
X6447426Y9117895D01*
X6450863Y9144000D01*
X6447426Y9170105D01*
X6437350Y9194431D01*
X6421321Y9215321D01*
X6400431Y9231350D01*
X6376105Y9241426D01*
X6350000Y9244863D01*
D02*
G37*
G36*
X6962940Y9129000D02*
X6873000D01*
Y9039060D01*
X6885672Y9040729D01*
X6911457Y9051409D01*
X6933600Y9068400D01*
X6950591Y9090543D01*
X6961271Y9116328D01*
X6962940Y9129000D01*
D02*
G37*
G36*
X6843000D02*
X6753060D01*
X6754729Y9116328D01*
X6765409Y9090543D01*
X6782400Y9068400D01*
X6804543Y9051409D01*
X6830328Y9040729D01*
X6843000Y9039060D01*
Y9129000D01*
D02*
G37*
G36*
X6873000Y8740940D02*
Y8651000D01*
X6962940D01*
X6961271Y8663672D01*
X6950591Y8689457D01*
X6933600Y8711600D01*
X6911457Y8728591D01*
X6885672Y8739271D01*
X6873000Y8740940D01*
D02*
G37*
G36*
X6843000D02*
X6830328Y8739271D01*
X6804543Y8728591D01*
X6782400Y8711600D01*
X6765409Y8689457D01*
X6754729Y8663672D01*
X6753060Y8651000D01*
X6843000D01*
Y8740940D01*
D02*
G37*
G36*
X9144000Y8736863D02*
X9117895Y8733426D01*
X9093569Y8723350D01*
X9072679Y8707321D01*
X9056650Y8686431D01*
X9046574Y8662105D01*
X9043137Y8636000D01*
X9046574Y8609895D01*
X9054276Y8591302D01*
X9043190Y8585034D01*
X9031613Y8592769D01*
X9017956Y8595486D01*
X9004300Y8592769D01*
X8992723Y8585034D01*
X8984987Y8573456D01*
X8982271Y8559800D01*
X8984987Y8546144D01*
X8992723Y8534566D01*
X8997564Y8531331D01*
Y8467603D01*
X8868853Y8338892D01*
X8585366D01*
X8577563Y8337340D01*
X8570947Y8332919D01*
X8438677Y8200650D01*
X8432966Y8201786D01*
X8419310Y8199069D01*
X8407733Y8191334D01*
X8399997Y8179756D01*
X8397281Y8166100D01*
X8399997Y8152444D01*
X8407733Y8140866D01*
X8419310Y8133131D01*
X8432966Y8130414D01*
X8446623Y8133131D01*
X8458200Y8140866D01*
X8465936Y8152444D01*
X8468652Y8166100D01*
X8467516Y8171811D01*
X8593813Y8298108D01*
X8721911D01*
X8723162Y8285408D01*
X8721300Y8285038D01*
X8707738Y8275976D01*
X8698677Y8262414D01*
X8698478Y8261417D01*
X8776117D01*
X8775919Y8262414D01*
X8766857Y8275976D01*
X8753295Y8285038D01*
X8751434Y8285408D01*
X8752684Y8298108D01*
X8877300D01*
X8885104Y8299660D01*
X8891719Y8304081D01*
X9032376Y8444737D01*
X9036796Y8451353D01*
X9038348Y8459156D01*
X9038348Y8459158D01*
Y8531331D01*
X9043190Y8534566D01*
X9050926Y8546144D01*
X9053642Y8559800D01*
X9063751Y8574074D01*
X9065276Y8574328D01*
X9072679Y8564679D01*
X9093569Y8548650D01*
X9117895Y8538574D01*
X9144000Y8535137D01*
X9170105Y8538574D01*
X9194431Y8548650D01*
X9215321Y8564679D01*
X9231350Y8585569D01*
X9241426Y8609895D01*
X9244863Y8636000D01*
X9241426Y8662105D01*
X9231350Y8686431D01*
X9215321Y8707321D01*
X9194431Y8723350D01*
X9170105Y8733426D01*
X9144000Y8736863D01*
D02*
G37*
G36*
X10160000D02*
X10133895Y8733426D01*
X10109569Y8723350D01*
X10088679Y8707321D01*
X10072650Y8686431D01*
X10062574Y8662105D01*
X10059137Y8636000D01*
X10062574Y8609895D01*
X10072650Y8585569D01*
X10088679Y8564679D01*
X10109569Y8548650D01*
X10133895Y8538574D01*
X10160000Y8535137D01*
X10186105Y8538574D01*
X10210431Y8548650D01*
X10231321Y8564679D01*
X10247350Y8585569D01*
X10257426Y8609895D01*
X10260863Y8636000D01*
X10257426Y8662105D01*
X10247350Y8686431D01*
X10231321Y8707321D01*
X10210431Y8723350D01*
X10186105Y8733426D01*
X10160000Y8736863D01*
D02*
G37*
G36*
X9906000D02*
X9879895Y8733426D01*
X9855569Y8723350D01*
X9834679Y8707321D01*
X9818650Y8686431D01*
X9808574Y8662105D01*
X9805137Y8636000D01*
X9808574Y8609895D01*
X9818650Y8585569D01*
X9834679Y8564679D01*
X9855569Y8548650D01*
X9879895Y8538574D01*
X9906000Y8535137D01*
X9932105Y8538574D01*
X9956431Y8548650D01*
X9977321Y8564679D01*
X9993350Y8585569D01*
X10003426Y8609895D01*
X10006863Y8636000D01*
X10003426Y8662105D01*
X9993350Y8686431D01*
X9977321Y8707321D01*
X9956431Y8723350D01*
X9932105Y8733426D01*
X9906000Y8736863D01*
D02*
G37*
G36*
X9652000D02*
X9625895Y8733426D01*
X9601569Y8723350D01*
X9580679Y8707321D01*
X9564650Y8686431D01*
X9554574Y8662105D01*
X9551137Y8636000D01*
X9554574Y8609895D01*
X9564650Y8585569D01*
X9580679Y8564679D01*
X9601569Y8548650D01*
X9625895Y8538574D01*
X9652000Y8535137D01*
X9678105Y8538574D01*
X9702431Y8548650D01*
X9723321Y8564679D01*
X9739350Y8585569D01*
X9749426Y8609895D01*
X9752863Y8636000D01*
X9749426Y8662105D01*
X9739350Y8686431D01*
X9723321Y8707321D01*
X9702431Y8723350D01*
X9678105Y8733426D01*
X9652000Y8736863D01*
D02*
G37*
G36*
X9398000D02*
X9371895Y8733426D01*
X9347569Y8723350D01*
X9326679Y8707321D01*
X9310650Y8686431D01*
X9300574Y8662105D01*
X9297137Y8636000D01*
X9300574Y8609895D01*
X9310650Y8585569D01*
X9326679Y8564679D01*
X9347569Y8548650D01*
X9371895Y8538574D01*
X9398000Y8535137D01*
X9424105Y8538574D01*
X9448431Y8548650D01*
X9469321Y8564679D01*
X9485350Y8585569D01*
X9495426Y8609895D01*
X9498863Y8636000D01*
X9495426Y8662105D01*
X9485350Y8686431D01*
X9469321Y8707321D01*
X9448431Y8723350D01*
X9424105Y8733426D01*
X9398000Y8736863D01*
D02*
G37*
G36*
X8890000D02*
X8863895Y8733426D01*
X8839569Y8723350D01*
X8818679Y8707321D01*
X8802650Y8686431D01*
X8792574Y8662105D01*
X8789137Y8636000D01*
X8792574Y8609895D01*
X8802650Y8585569D01*
X8818679Y8564679D01*
X8839569Y8548650D01*
X8863895Y8538574D01*
X8890000Y8535137D01*
X8916105Y8538574D01*
X8940431Y8548650D01*
X8961321Y8564679D01*
X8977350Y8585569D01*
X8987426Y8609895D01*
X8990863Y8636000D01*
X8987426Y8662105D01*
X8977350Y8686431D01*
X8961321Y8707321D01*
X8940431Y8723350D01*
X8916105Y8733426D01*
X8890000Y8736863D01*
D02*
G37*
G36*
X8636000D02*
X8609895Y8733426D01*
X8585569Y8723350D01*
X8564679Y8707321D01*
X8548650Y8686431D01*
X8538574Y8662105D01*
X8535137Y8636000D01*
X8538574Y8609895D01*
X8548650Y8585569D01*
X8564679Y8564679D01*
X8585569Y8548650D01*
X8609895Y8538574D01*
X8636000Y8535137D01*
X8662105Y8538574D01*
X8686431Y8548650D01*
X8707321Y8564679D01*
X8723350Y8585569D01*
X8733426Y8609895D01*
X8736863Y8636000D01*
X8733426Y8662105D01*
X8723350Y8686431D01*
X8707321Y8707321D01*
X8686431Y8723350D01*
X8662105Y8733426D01*
X8636000Y8736863D01*
D02*
G37*
G36*
X8382000D02*
X8355895Y8733426D01*
X8331569Y8723350D01*
X8310679Y8707321D01*
X8294650Y8686431D01*
X8284574Y8662105D01*
X8281137Y8636000D01*
X8284574Y8609895D01*
X8294650Y8585569D01*
X8310679Y8564679D01*
X8331569Y8548650D01*
X8355895Y8538574D01*
X8382000Y8535137D01*
X8408105Y8538574D01*
X8432431Y8548650D01*
X8453321Y8564679D01*
X8469350Y8585569D01*
X8479426Y8609895D01*
X8482863Y8636000D01*
X8479426Y8662105D01*
X8469350Y8686431D01*
X8453321Y8707321D01*
X8432431Y8723350D01*
X8408105Y8733426D01*
X8382000Y8736863D01*
D02*
G37*
G36*
X8128000D02*
X8101895Y8733426D01*
X8077569Y8723350D01*
X8056679Y8707321D01*
X8040650Y8686431D01*
X8030574Y8662105D01*
X8027137Y8636000D01*
X8030574Y8609895D01*
X8040650Y8585569D01*
X8056679Y8564679D01*
X8077569Y8548650D01*
X8101895Y8538574D01*
X8128000Y8535137D01*
X8154105Y8538574D01*
X8178431Y8548650D01*
X8199321Y8564679D01*
X8215350Y8585569D01*
X8225426Y8609895D01*
X8228863Y8636000D01*
X8225426Y8662105D01*
X8215350Y8686431D01*
X8199321Y8707321D01*
X8178431Y8723350D01*
X8154105Y8733426D01*
X8128000Y8736863D01*
D02*
G37*
G36*
X7874000D02*
X7847895Y8733426D01*
X7823569Y8723350D01*
X7802679Y8707321D01*
X7786650Y8686431D01*
X7776574Y8662105D01*
X7773137Y8636000D01*
X7776574Y8609895D01*
X7786650Y8585569D01*
X7802679Y8564679D01*
X7823569Y8548650D01*
X7847895Y8538574D01*
X7874000Y8535137D01*
X7900105Y8538574D01*
X7924431Y8548650D01*
X7945321Y8564679D01*
X7961350Y8585569D01*
X7971426Y8609895D01*
X7974863Y8636000D01*
X7971426Y8662105D01*
X7961350Y8686431D01*
X7945321Y8707321D01*
X7924431Y8723350D01*
X7900105Y8733426D01*
X7874000Y8736863D01*
D02*
G37*
G36*
X7620000D02*
X7593895Y8733426D01*
X7569569Y8723350D01*
X7548679Y8707321D01*
X7532650Y8686431D01*
X7522574Y8662105D01*
X7519137Y8636000D01*
X7522574Y8609895D01*
X7532650Y8585569D01*
X7548679Y8564679D01*
X7569569Y8548650D01*
X7593895Y8538574D01*
X7620000Y8535137D01*
X7646105Y8538574D01*
X7670431Y8548650D01*
X7691321Y8564679D01*
X7707350Y8585569D01*
X7717426Y8609895D01*
X7720863Y8636000D01*
X7717426Y8662105D01*
X7707350Y8686431D01*
X7691321Y8707321D01*
X7670431Y8723350D01*
X7646105Y8733426D01*
X7620000Y8736863D01*
D02*
G37*
G36*
X7366000D02*
X7339895Y8733426D01*
X7315569Y8723350D01*
X7294679Y8707321D01*
X7278650Y8686431D01*
X7268574Y8662105D01*
X7265137Y8636000D01*
X7268574Y8609895D01*
X7278650Y8585569D01*
X7294679Y8564679D01*
X7315569Y8548650D01*
X7339895Y8538574D01*
X7366000Y8535137D01*
X7392105Y8538574D01*
X7416431Y8548650D01*
X7437321Y8564679D01*
X7453350Y8585569D01*
X7463426Y8609895D01*
X7466863Y8636000D01*
X7463426Y8662105D01*
X7453350Y8686431D01*
X7437321Y8707321D01*
X7416431Y8723350D01*
X7392105Y8733426D01*
X7366000Y8736863D01*
D02*
G37*
G36*
X7112000D02*
X7085895Y8733426D01*
X7061569Y8723350D01*
X7040679Y8707321D01*
X7024650Y8686431D01*
X7014574Y8662105D01*
X7011137Y8636000D01*
X7014574Y8609895D01*
X7024650Y8585569D01*
X7040679Y8564679D01*
X7061569Y8548650D01*
X7085895Y8538574D01*
X7112000Y8535137D01*
X7138105Y8538574D01*
X7162431Y8548650D01*
X7183321Y8564679D01*
X7199350Y8585569D01*
X7209426Y8609895D01*
X7212863Y8636000D01*
X7209426Y8662105D01*
X7199350Y8686431D01*
X7183321Y8707321D01*
X7162431Y8723350D01*
X7138105Y8733426D01*
X7112000Y8736863D01*
D02*
G37*
G36*
X6604000D02*
X6577895Y8733426D01*
X6553569Y8723350D01*
X6532679Y8707321D01*
X6516650Y8686431D01*
X6506574Y8662105D01*
X6503137Y8636000D01*
X6506574Y8609895D01*
X6516650Y8585569D01*
X6532679Y8564679D01*
X6553569Y8548650D01*
X6577895Y8538574D01*
X6604000Y8535137D01*
X6630105Y8538574D01*
X6654431Y8548650D01*
X6675321Y8564679D01*
X6691350Y8585569D01*
X6701426Y8609895D01*
X6704863Y8636000D01*
X6701426Y8662105D01*
X6691350Y8686431D01*
X6675321Y8707321D01*
X6654431Y8723350D01*
X6630105Y8733426D01*
X6604000Y8736863D01*
D02*
G37*
G36*
X6350000D02*
X6323895Y8733426D01*
X6299569Y8723350D01*
X6278679Y8707321D01*
X6262650Y8686431D01*
X6252574Y8662105D01*
X6249137Y8636000D01*
X6252574Y8609895D01*
X6262650Y8585569D01*
X6278679Y8564679D01*
X6299569Y8548650D01*
X6323895Y8538574D01*
X6350000Y8535137D01*
X6376105Y8538574D01*
X6400431Y8548650D01*
X6421321Y8564679D01*
X6437350Y8585569D01*
X6447426Y8609895D01*
X6450863Y8636000D01*
X6447426Y8662105D01*
X6437350Y8686431D01*
X6421321Y8707321D01*
X6400431Y8723350D01*
X6376105Y8733426D01*
X6350000Y8736863D01*
D02*
G37*
G36*
X6962940Y8621000D02*
X6873000D01*
Y8531060D01*
X6885672Y8532729D01*
X6911457Y8543409D01*
X6933600Y8560400D01*
X6950591Y8582543D01*
X6961271Y8608328D01*
X6962940Y8621000D01*
D02*
G37*
G36*
X6843000D02*
X6753060D01*
X6754729Y8608328D01*
X6765409Y8582543D01*
X6782400Y8560400D01*
X6804543Y8543409D01*
X6830328Y8532729D01*
X6843000Y8531060D01*
Y8621000D01*
D02*
G37*
G36*
X10156062Y8290686D02*
X10142406Y8287969D01*
X10130829Y8280234D01*
X10123093Y8268656D01*
X10120377Y8255000D01*
X10123093Y8241344D01*
X10130829Y8229766D01*
X10142406Y8222031D01*
X10156062Y8219314D01*
X10169719Y8222031D01*
X10181296Y8229766D01*
X10189032Y8241344D01*
X10191748Y8255000D01*
X10189032Y8268656D01*
X10181296Y8280234D01*
X10169719Y8287969D01*
X10156062Y8290686D01*
D02*
G37*
G36*
X8928100D02*
X8914444Y8287969D01*
X8902866Y8280234D01*
X8895131Y8268656D01*
X8892414Y8255000D01*
X8895131Y8241344D01*
X8902866Y8229766D01*
X8914444Y8222031D01*
X8928100Y8219314D01*
X8941756Y8222031D01*
X8953334Y8229766D01*
X8961069Y8241344D01*
X8963786Y8255000D01*
X8961069Y8268656D01*
X8953334Y8280234D01*
X8941756Y8287969D01*
X8928100Y8290686D01*
D02*
G37*
G36*
X8178800D02*
X8165144Y8287969D01*
X8153566Y8280234D01*
X8145831Y8268656D01*
X8143114Y8255000D01*
X8145831Y8241344D01*
X8153566Y8229766D01*
X8165144Y8222031D01*
X8178800Y8219314D01*
X8192456Y8222031D01*
X8204034Y8229766D01*
X8211769Y8241344D01*
X8214486Y8255000D01*
X8211769Y8268656D01*
X8204034Y8280234D01*
X8192456Y8287969D01*
X8178800Y8290686D01*
D02*
G37*
G36*
X9262600Y8282103D02*
X9248944Y8279386D01*
X9237366Y8271650D01*
X9229631Y8260073D01*
X9226914Y8246417D01*
X9229631Y8232761D01*
X9237366Y8221183D01*
X9248944Y8213448D01*
X9262600Y8210731D01*
X9276256Y8213448D01*
X9287834Y8221183D01*
X9295569Y8232761D01*
X9298286Y8246417D01*
X9295569Y8260073D01*
X9287834Y8271650D01*
X9276256Y8279386D01*
X9262600Y8282103D01*
D02*
G37*
G36*
X8049660D02*
X8036003Y8279386D01*
X8024426Y8271650D01*
X8016691Y8260073D01*
X8013974Y8246417D01*
X8016691Y8232761D01*
X8024426Y8221183D01*
X8036003Y8213448D01*
X8049660Y8210731D01*
X8063316Y8213448D01*
X8074893Y8221183D01*
X8082629Y8232761D01*
X8085346Y8246417D01*
X8082629Y8260073D01*
X8074893Y8271650D01*
X8063316Y8279386D01*
X8049660Y8282103D01*
D02*
G37*
G36*
X8776117Y8231417D02*
X8752298D01*
Y8207598D01*
X8753295Y8207796D01*
X8766857Y8216858D01*
X8775919Y8230419D01*
X8776117Y8231417D01*
D02*
G37*
G36*
X8722298D02*
X8698478D01*
X8698677Y8230419D01*
X8707738Y8216858D01*
X8721300Y8207796D01*
X8722298Y8207598D01*
Y8231417D01*
D02*
G37*
G36*
X8610600Y8277986D02*
X8596944Y8275269D01*
X8585366Y8267534D01*
X8577631Y8255956D01*
X8574914Y8242300D01*
X8577631Y8228644D01*
X8585366Y8217066D01*
X8596944Y8209331D01*
X8610600Y8206614D01*
X8624256Y8209331D01*
X8635834Y8217066D01*
X8643569Y8228644D01*
X8646286Y8242300D01*
X8643569Y8255956D01*
X8635834Y8267534D01*
X8624256Y8275269D01*
X8610600Y8277986D01*
D02*
G37*
G36*
X9917040Y8192995D02*
Y8169176D01*
X9940860D01*
X9940661Y8170173D01*
X9931600Y8183735D01*
X9918038Y8192797D01*
X9917040Y8192995D01*
D02*
G37*
G36*
X9887040D02*
X9886043Y8192797D01*
X9872481Y8183735D01*
X9863419Y8170173D01*
X9863221Y8169176D01*
X9887040D01*
Y8192995D01*
D02*
G37*
G36*
X8230556Y8402392D02*
X7721461D01*
X7713657Y8400840D01*
X7707041Y8396419D01*
X7415081Y8104459D01*
X7410660Y8097843D01*
X7409108Y8090039D01*
Y8069335D01*
X7402744Y8068069D01*
X7391167Y8060334D01*
X7383431Y8048756D01*
X7380714Y8035100D01*
X7383431Y8021444D01*
X7391167Y8009866D01*
X7402744Y8002131D01*
X7416400Y7999414D01*
X7430057Y8002131D01*
X7441634Y8009866D01*
X7449369Y8021444D01*
X7450365Y8026450D01*
X7463848Y8029132D01*
X7467766Y8023267D01*
X7479344Y8015531D01*
X7485082Y8014390D01*
X7488499Y8013709D01*
Y8000761D01*
X7485082Y8000081D01*
X7479344Y7998940D01*
X7467766Y7991204D01*
X7460031Y7979627D01*
X7457314Y7965970D01*
X7460031Y7952314D01*
X7467766Y7940737D01*
X7479344Y7933001D01*
X7493000Y7930285D01*
X7506656Y7933001D01*
X7518234Y7940737D01*
X7525969Y7952314D01*
X7528686Y7965970D01*
X7525969Y7979627D01*
X7518234Y7991204D01*
X7506656Y7998940D01*
X7500918Y8000081D01*
X7497501Y8000761D01*
Y8013709D01*
X7500918Y8014390D01*
X7506656Y8015531D01*
X7518234Y8023267D01*
X7525969Y8034844D01*
X7528686Y8048500D01*
X7525969Y8062157D01*
X7518234Y8073734D01*
X7506656Y8081469D01*
X7493000Y8084186D01*
X7479344Y8081469D01*
X7467766Y8073734D01*
X7462592Y8065990D01*
X7451215Y8069441D01*
X7449936Y8081637D01*
X7600547Y8232248D01*
X7605711Y8230682D01*
X7613421Y8227161D01*
X7620166Y8217066D01*
X7631744Y8209331D01*
X7645400Y8206614D01*
X7659056Y8209331D01*
X7670634Y8217066D01*
X7678369Y8228644D01*
X7681086Y8242300D01*
X7678369Y8255956D01*
X7670634Y8267534D01*
X7660539Y8274279D01*
X7657018Y8281989D01*
X7655452Y8287153D01*
X7729907Y8361608D01*
X8222110D01*
X8260008Y8323710D01*
Y8232669D01*
X8255166Y8229434D01*
X8247431Y8217856D01*
X8244714Y8204200D01*
X8247431Y8190544D01*
X8255166Y8178966D01*
X8266744Y8171231D01*
X8280400Y8168514D01*
X8294056Y8171231D01*
X8305634Y8178966D01*
X8313369Y8190544D01*
X8316086Y8204200D01*
X8313369Y8217856D01*
X8305634Y8229434D01*
X8300792Y8232669D01*
Y8332156D01*
X8299240Y8339960D01*
X8294819Y8346576D01*
X8244976Y8396419D01*
X8238360Y8400840D01*
X8230556Y8402392D01*
D02*
G37*
G36*
X7965200Y8192219D02*
Y8168400D01*
X7989019D01*
X7988821Y8169397D01*
X7979759Y8182959D01*
X7966197Y8192021D01*
X7965200Y8192219D01*
D02*
G37*
G36*
X7935200D02*
X7934203Y8192021D01*
X7920641Y8182959D01*
X7911579Y8169397D01*
X7911381Y8168400D01*
X7935200D01*
Y8192219D01*
D02*
G37*
G36*
X9004300Y8228686D02*
X8990644Y8225969D01*
X8979066Y8218233D01*
X8971331Y8206656D01*
X8968614Y8193000D01*
X8971331Y8179344D01*
X8979066Y8167766D01*
X8990644Y8160031D01*
X9004300Y8157314D01*
X9017956Y8160031D01*
X9029534Y8167766D01*
X9037269Y8179344D01*
X9039986Y8193000D01*
X9037269Y8206656D01*
X9029534Y8218233D01*
X9017956Y8225969D01*
X9004300Y8228686D01*
D02*
G37*
G36*
X8559800Y8209045D02*
X8546144Y8206328D01*
X8534566Y8198593D01*
X8526831Y8187015D01*
X8524114Y8173359D01*
X8526831Y8159703D01*
X8534566Y8148125D01*
X8546144Y8140390D01*
X8559800Y8137673D01*
X8573456Y8140390D01*
X8585034Y8148125D01*
X8592769Y8159703D01*
X8595486Y8173359D01*
X8592769Y8187015D01*
X8585034Y8198593D01*
X8573456Y8206328D01*
X8559800Y8209045D01*
D02*
G37*
G36*
X9940860Y8139176D02*
X9917040D01*
Y8115357D01*
X9918038Y8115555D01*
X9931600Y8124617D01*
X9940661Y8138179D01*
X9940860Y8139176D01*
D02*
G37*
G36*
X9887040D02*
X9863221D01*
X9863419Y8138179D01*
X9872481Y8124617D01*
X9886043Y8115555D01*
X9887040Y8115357D01*
Y8139176D01*
D02*
G37*
G36*
X7989019Y8138400D02*
X7965200D01*
Y8114581D01*
X7966197Y8114779D01*
X7979759Y8123841D01*
X7988821Y8137403D01*
X7989019Y8138400D01*
D02*
G37*
G36*
X7935200D02*
X7911381D01*
X7911579Y8137403D01*
X7920641Y8123841D01*
X7934203Y8114779D01*
X7935200Y8114581D01*
Y8138400D01*
D02*
G37*
G36*
X8820406Y8179486D02*
X8806750Y8176769D01*
X8795173Y8169033D01*
X8787437Y8157456D01*
X8784721Y8143800D01*
X8787437Y8130144D01*
X8795173Y8118566D01*
X8806750Y8110831D01*
X8820406Y8108114D01*
X8834063Y8110831D01*
X8845640Y8118566D01*
X8853375Y8130144D01*
X8856092Y8143800D01*
X8853375Y8157456D01*
X8845640Y8169033D01*
X8834063Y8176769D01*
X8820406Y8179486D01*
D02*
G37*
G36*
X9114397Y8144636D02*
X9100740Y8141919D01*
X9089163Y8134184D01*
X9081427Y8122606D01*
X9078711Y8108950D01*
X9081427Y8095294D01*
X9089163Y8083716D01*
X9100740Y8075981D01*
X9114397Y8073264D01*
X9128053Y8075981D01*
X9139630Y8083716D01*
X9147366Y8095294D01*
X9150082Y8108950D01*
X9147366Y8122606D01*
X9139630Y8134184D01*
X9128053Y8141919D01*
X9114397Y8144636D01*
D02*
G37*
G36*
X7950200Y8062086D02*
X7936544Y8059369D01*
X7924966Y8051634D01*
X7917231Y8040056D01*
X7914514Y8026400D01*
X7917231Y8012744D01*
X7924966Y8001166D01*
X7936544Y7993431D01*
X7950200Y7990714D01*
X7963856Y7993431D01*
X7975434Y8001166D01*
X7983169Y8012744D01*
X7985886Y8026400D01*
X7983169Y8040056D01*
X7975434Y8051634D01*
X7963856Y8059369D01*
X7950200Y8062086D01*
D02*
G37*
G36*
X7823200D02*
X7809544Y8059369D01*
X7797966Y8051634D01*
X7790231Y8040056D01*
X7787514Y8026400D01*
X7790231Y8012744D01*
X7797966Y8001166D01*
X7809544Y7993431D01*
X7823200Y7990714D01*
X7836856Y7993431D01*
X7848434Y8001166D01*
X7856169Y8012744D01*
X7858886Y8026400D01*
X7856169Y8040056D01*
X7848434Y8051634D01*
X7836856Y8059369D01*
X7823200Y8062086D01*
D02*
G37*
G36*
X7061200Y7985886D02*
X7047544Y7983169D01*
X7035966Y7975434D01*
X7028231Y7963856D01*
X7025514Y7950200D01*
X7028231Y7936544D01*
X7035966Y7924966D01*
X7047544Y7917231D01*
X7061200Y7914514D01*
X7074856Y7917231D01*
X7086434Y7924966D01*
X7094169Y7936544D01*
X7096886Y7950200D01*
X7094169Y7963856D01*
X7086434Y7975434D01*
X7074856Y7983169D01*
X7061200Y7985886D01*
D02*
G37*
G36*
X9822750Y7980117D02*
X9809094Y7977400D01*
X9797516Y7969665D01*
X9789781Y7958087D01*
X9787064Y7944431D01*
X9789781Y7930775D01*
X9797516Y7919198D01*
X9809094Y7911462D01*
X9822750Y7908745D01*
X9836406Y7911462D01*
X9847984Y7919198D01*
X9855719Y7930775D01*
X9858436Y7944431D01*
X9855719Y7958087D01*
X9847984Y7969665D01*
X9836406Y7977400D01*
X9822750Y7980117D01*
D02*
G37*
G36*
X9626600Y7960486D02*
X9612944Y7957769D01*
X9601366Y7950034D01*
X9593631Y7938456D01*
X9590914Y7924800D01*
X9593631Y7911144D01*
X9601366Y7899566D01*
X9612944Y7891831D01*
X9626600Y7889114D01*
X9640256Y7891831D01*
X9651834Y7899566D01*
X9659569Y7911144D01*
X9662286Y7924800D01*
X9659569Y7938456D01*
X9651834Y7950034D01*
X9640256Y7957769D01*
X9626600Y7960486D01*
D02*
G37*
G36*
X9321800Y7922386D02*
X9308144Y7919669D01*
X9296566Y7911934D01*
X9288831Y7900356D01*
X9286114Y7886700D01*
X9286164Y7886449D01*
X9274201Y7881494D01*
X9270834Y7886534D01*
X9259256Y7894269D01*
X9245600Y7896986D01*
X9231944Y7894269D01*
X9220366Y7886534D01*
X9212631Y7874956D01*
X9209914Y7861300D01*
X9212631Y7847644D01*
X9220366Y7836066D01*
X9231944Y7828331D01*
X9245600Y7825614D01*
X9259256Y7828331D01*
X9270834Y7836066D01*
X9278569Y7847644D01*
X9281286Y7861300D01*
X9281236Y7861551D01*
X9293199Y7866506D01*
X9296566Y7861466D01*
X9308144Y7853731D01*
X9321800Y7851014D01*
X9335456Y7853731D01*
X9347034Y7861466D01*
X9354769Y7873044D01*
X9357486Y7886700D01*
X9354769Y7900356D01*
X9347034Y7911934D01*
X9335456Y7919669D01*
X9321800Y7922386D01*
D02*
G37*
G36*
X9486900D02*
X9473244Y7919669D01*
X9461666Y7911934D01*
X9453931Y7900356D01*
X9451214Y7886700D01*
X9453931Y7873044D01*
X9461666Y7861466D01*
X9473244Y7853731D01*
X9486900Y7851014D01*
X9500556Y7853731D01*
X9512134Y7861466D01*
X9519869Y7873044D01*
X9522586Y7886700D01*
X9519869Y7900356D01*
X9512134Y7911934D01*
X9500556Y7919669D01*
X9486900Y7922386D01*
D02*
G37*
G36*
X9880600Y7909686D02*
X9866944Y7906969D01*
X9855366Y7899234D01*
X9847631Y7887656D01*
X9844914Y7874000D01*
X9847631Y7860344D01*
X9855366Y7848766D01*
X9866944Y7841031D01*
X9880600Y7838314D01*
X9894256Y7841031D01*
X9905834Y7848766D01*
X9913569Y7860344D01*
X9916286Y7874000D01*
X9913569Y7887656D01*
X9905834Y7899234D01*
X9894256Y7906969D01*
X9880600Y7909686D01*
D02*
G37*
G36*
X7762000Y7862019D02*
Y7838200D01*
X7785819D01*
X7785621Y7839197D01*
X7776559Y7852759D01*
X7762997Y7861821D01*
X7762000Y7862019D01*
D02*
G37*
G36*
X7732000D02*
X7731003Y7861821D01*
X7717441Y7852759D01*
X7708379Y7839197D01*
X7708181Y7838200D01*
X7732000D01*
Y7862019D01*
D02*
G37*
G36*
X8851900Y8074786D02*
X8838244Y8072069D01*
X8826666Y8064334D01*
X8818931Y8052756D01*
X8816214Y8039100D01*
X8818931Y8025444D01*
X8823953Y8017928D01*
X8820468Y8005765D01*
X8819134Y8004020D01*
X8812844Y8002769D01*
X8801266Y7995034D01*
X8793531Y7983456D01*
X8790814Y7969800D01*
X8793531Y7956144D01*
X8801266Y7944566D01*
X8812844Y7936831D01*
X8826500Y7934114D01*
X8836290Y7936062D01*
X8844660Y7925729D01*
X8844331Y7925235D01*
X8841614Y7911579D01*
X8844331Y7897923D01*
X8852066Y7886345D01*
X8863644Y7878610D01*
X8877300Y7875893D01*
X8883748Y7864227D01*
X8882431Y7862256D01*
X8879714Y7848600D01*
X8882431Y7834944D01*
X8890166Y7823366D01*
X8901744Y7815631D01*
X8915400Y7812914D01*
X8929056Y7815631D01*
X8940634Y7823366D01*
X8948369Y7834944D01*
X8951086Y7848600D01*
X8948369Y7862256D01*
X8940634Y7873834D01*
X8929056Y7881569D01*
X8915400Y7884286D01*
X8908952Y7895952D01*
X8910269Y7897923D01*
X8912986Y7911579D01*
X8910269Y7925235D01*
X8902534Y7936813D01*
X8890956Y7944548D01*
X8877300Y7947265D01*
X8867510Y7945317D01*
X8859140Y7955650D01*
X8859469Y7956144D01*
X8862186Y7969800D01*
X8859469Y7983456D01*
X8854447Y7990972D01*
X8857932Y8003135D01*
X8859266Y8004880D01*
X8865556Y8006131D01*
X8877134Y8013866D01*
X8884869Y8025444D01*
X8887586Y8039100D01*
X8884869Y8052756D01*
X8877134Y8064334D01*
X8865556Y8072069D01*
X8851900Y8074786D01*
D02*
G37*
G36*
X9601200Y7858886D02*
X9587544Y7856169D01*
X9575966Y7848434D01*
X9568231Y7836856D01*
X9565514Y7823200D01*
X9568231Y7809544D01*
X9575966Y7797966D01*
X9587544Y7790231D01*
X9601200Y7787514D01*
X9614856Y7790231D01*
X9626434Y7797966D01*
X9634169Y7809544D01*
X9636886Y7823200D01*
X9634169Y7836856D01*
X9626434Y7848434D01*
X9614856Y7856169D01*
X9601200Y7858886D01*
D02*
G37*
G36*
X8458200Y7969186D02*
X8444544Y7966469D01*
X8432966Y7958734D01*
X8425231Y7947156D01*
X8422514Y7933500D01*
X8423650Y7927789D01*
X8367581Y7871719D01*
X8363160Y7865104D01*
X8361608Y7857300D01*
Y7708492D01*
X8141272Y7488156D01*
X8136852Y7481541D01*
X8135299Y7473737D01*
Y7391171D01*
X8130458Y7387936D01*
X8122722Y7376359D01*
X8120006Y7362703D01*
X8122722Y7349046D01*
X8130458Y7337469D01*
X8142035Y7329733D01*
X8155691Y7327017D01*
X8169348Y7329733D01*
X8180925Y7337469D01*
X8188661Y7349046D01*
X8191377Y7362703D01*
X8188661Y7376359D01*
X8180925Y7387936D01*
X8176083Y7391171D01*
Y7465290D01*
X8396419Y7685626D01*
X8396419Y7685626D01*
X8400840Y7692242D01*
X8402392Y7700046D01*
X8402392Y7700047D01*
Y7762448D01*
X8415092Y7766300D01*
X8415963Y7764997D01*
X8427540Y7757262D01*
X8441196Y7754545D01*
X8454853Y7757262D01*
X8463208Y7762844D01*
X8474008Y7758778D01*
X8475908Y7757219D01*
Y7682846D01*
X8278681Y7485619D01*
X8274260Y7479003D01*
X8272708Y7471199D01*
Y7285003D01*
X8214128Y7226423D01*
X7994942D01*
X7972050Y7249315D01*
X7973186Y7255026D01*
X7970469Y7268682D01*
X7962734Y7280260D01*
X7951156Y7287995D01*
X7937500Y7290712D01*
X7923844Y7287995D01*
X7912266Y7280260D01*
X7904531Y7268682D01*
X7901814Y7255026D01*
X7904531Y7241370D01*
X7912266Y7229792D01*
X7923844Y7222057D01*
X7937500Y7219340D01*
X7943211Y7220476D01*
X7972075Y7191612D01*
X7972076Y7191611D01*
X7978691Y7187191D01*
X7986495Y7185639D01*
X8222574D01*
X8230378Y7187191D01*
X8236994Y7191611D01*
X8307519Y7262137D01*
X8307519Y7262137D01*
X8311940Y7268753D01*
X8313492Y7276556D01*
X8313492Y7276558D01*
Y7462752D01*
X8510719Y7659980D01*
X8515140Y7666596D01*
X8516692Y7674399D01*
X8516692Y7674400D01*
Y7801858D01*
X8529392Y7805711D01*
X8534566Y7797966D01*
X8546144Y7790231D01*
X8559800Y7787514D01*
X8573456Y7790231D01*
X8585034Y7797966D01*
X8592769Y7809544D01*
X8595486Y7823200D01*
X8592769Y7836856D01*
X8585034Y7848434D01*
X8573456Y7856169D01*
X8559800Y7858886D01*
X8546144Y7856169D01*
X8543572Y7854451D01*
X8531986Y7861300D01*
X8529269Y7874956D01*
X8521534Y7886534D01*
X8509956Y7894269D01*
X8496300Y7896986D01*
X8486490Y7895034D01*
X8481534Y7906997D01*
X8483434Y7908266D01*
X8491169Y7919844D01*
X8493886Y7933500D01*
X8491169Y7947156D01*
X8483434Y7958734D01*
X8471856Y7966469D01*
X8458200Y7969186D01*
D02*
G37*
G36*
X7785819Y7808200D02*
X7762000D01*
Y7784381D01*
X7762997Y7784579D01*
X7776559Y7793641D01*
X7785621Y7807203D01*
X7785819Y7808200D01*
D02*
G37*
G36*
X7732000D02*
X7708181D01*
X7708379Y7807203D01*
X7717441Y7793641D01*
X7731003Y7784579D01*
X7732000Y7784381D01*
Y7808200D01*
D02*
G37*
G36*
X8178800Y7846186D02*
X8165144Y7843469D01*
X8153566Y7835734D01*
X8145831Y7824156D01*
X8143114Y7810500D01*
X8145831Y7796844D01*
X8153566Y7785266D01*
X8165144Y7777531D01*
X8178800Y7774814D01*
X8192456Y7777531D01*
X8204034Y7785266D01*
X8211769Y7796844D01*
X8214486Y7810500D01*
X8211769Y7824156D01*
X8204034Y7835734D01*
X8192456Y7843469D01*
X8178800Y7846186D01*
D02*
G37*
G36*
X10083800Y7826786D02*
X10070144Y7824069D01*
X10058566Y7816334D01*
X10050831Y7804756D01*
X10048114Y7791100D01*
X10050831Y7777444D01*
X10058566Y7765866D01*
X10070144Y7758131D01*
X10083800Y7755414D01*
X10097456Y7758131D01*
X10109034Y7765866D01*
X10116769Y7777444D01*
X10119486Y7791100D01*
X10116769Y7804756D01*
X10109034Y7816334D01*
X10097456Y7824069D01*
X10083800Y7826786D01*
D02*
G37*
G36*
X9080500Y7858886D02*
X9066844Y7856169D01*
X9055266Y7848434D01*
X9047531Y7836856D01*
X9044814Y7823200D01*
X9047531Y7809544D01*
X9055266Y7797966D01*
X9066844Y7790231D01*
X9080500Y7787514D01*
X9094156Y7790231D01*
X9096246Y7791627D01*
X9096860Y7791600D01*
X9109488Y7785201D01*
X9111031Y7777444D01*
X9118766Y7765866D01*
X9130344Y7758131D01*
X9144000Y7755414D01*
X9157656Y7758131D01*
X9169234Y7765866D01*
X9176969Y7777444D01*
X9179686Y7791100D01*
X9176969Y7804756D01*
X9169234Y7816334D01*
X9157656Y7824069D01*
X9144000Y7826786D01*
X9130344Y7824069D01*
X9128254Y7822673D01*
X9127640Y7822700D01*
X9115012Y7829099D01*
X9113469Y7836856D01*
X9105734Y7848434D01*
X9094156Y7856169D01*
X9080500Y7858886D01*
D02*
G37*
G36*
X8978900Y7808086D02*
X8965244Y7805369D01*
X8953666Y7797634D01*
X8945931Y7786056D01*
X8943214Y7772400D01*
X8945931Y7758744D01*
X8953666Y7747166D01*
X8965244Y7739431D01*
X8978900Y7736714D01*
X8992556Y7739431D01*
X9004134Y7747166D01*
X9011869Y7758744D01*
X9014586Y7772400D01*
X9011869Y7786056D01*
X9004134Y7797634D01*
X8992556Y7805369D01*
X8978900Y7808086D01*
D02*
G37*
G36*
X7351000Y7747719D02*
X7350003Y7747521D01*
X7336441Y7738459D01*
X7327379Y7724897D01*
X7327181Y7723900D01*
X7351000D01*
Y7747719D01*
D02*
G37*
G36*
X7622300Y7730647D02*
Y7706827D01*
X7646119D01*
X7645921Y7707825D01*
X7636859Y7721387D01*
X7623297Y7730448D01*
X7622300Y7730647D01*
D02*
G37*
G36*
X7592300D02*
X7591303Y7730448D01*
X7577741Y7721387D01*
X7568679Y7707825D01*
X7568481Y7706827D01*
X7592300D01*
Y7730647D01*
D02*
G37*
G36*
X7658100Y7808086D02*
X7644444Y7805369D01*
X7632866Y7797634D01*
X7625131Y7786056D01*
X7622414Y7772400D01*
X7625131Y7758744D01*
X7632866Y7747166D01*
X7644444Y7739431D01*
X7658100Y7736714D01*
X7671756Y7739431D01*
X7675784Y7742122D01*
X7687214Y7734485D01*
X7685914Y7727950D01*
X7688631Y7714294D01*
X7696366Y7702717D01*
X7707944Y7694981D01*
X7721600Y7692265D01*
X7735256Y7694981D01*
X7746834Y7702717D01*
X7754569Y7714294D01*
X7757286Y7727950D01*
X7754569Y7741607D01*
X7746834Y7753184D01*
X7735256Y7760919D01*
X7721600Y7763636D01*
X7707944Y7760919D01*
X7703916Y7758228D01*
X7692486Y7765865D01*
X7693786Y7772400D01*
X7691069Y7786056D01*
X7683334Y7797634D01*
X7671756Y7805369D01*
X7658100Y7808086D01*
D02*
G37*
G36*
X8648700Y7760583D02*
X8635044Y7757867D01*
X8623466Y7750131D01*
X8615731Y7738554D01*
X8613014Y7724897D01*
X8615731Y7711241D01*
X8623466Y7699664D01*
X8635044Y7691928D01*
X8648700Y7689212D01*
X8662356Y7691928D01*
X8673934Y7699664D01*
X8681669Y7711241D01*
X8684386Y7724897D01*
X8681669Y7738554D01*
X8673934Y7750131D01*
X8662356Y7757867D01*
X8648700Y7760583D01*
D02*
G37*
G36*
X9080500Y7757286D02*
X9066844Y7754569D01*
X9055266Y7746834D01*
X9047531Y7735256D01*
X9044814Y7721600D01*
X9047531Y7707944D01*
X9055266Y7696366D01*
X9066844Y7688631D01*
X9080500Y7685914D01*
X9094156Y7688631D01*
X9105734Y7696366D01*
X9113469Y7707944D01*
X9116186Y7721600D01*
X9113469Y7735256D01*
X9105734Y7746834D01*
X9094156Y7754569D01*
X9080500Y7757286D01*
D02*
G37*
G36*
X10185400Y7744586D02*
X10171744Y7741869D01*
X10160166Y7734134D01*
X10152431Y7722556D01*
X10149714Y7708900D01*
X10152431Y7695244D01*
X10160166Y7683666D01*
X10171744Y7675931D01*
X10185400Y7673214D01*
X10199056Y7675931D01*
X10210634Y7683666D01*
X10218369Y7695244D01*
X10221086Y7708900D01*
X10218369Y7722556D01*
X10210634Y7734134D01*
X10199056Y7741869D01*
X10185400Y7744586D01*
D02*
G37*
G36*
X9931427D02*
X9917771Y7741869D01*
X9906194Y7734134D01*
X9898458Y7722556D01*
X9895742Y7708900D01*
X9898458Y7695244D01*
X9906194Y7683666D01*
X9917771Y7675931D01*
X9931427Y7673214D01*
X9945084Y7675931D01*
X9956661Y7683666D01*
X9964397Y7695244D01*
X9967113Y7708900D01*
X9964397Y7722556D01*
X9956661Y7734134D01*
X9945084Y7741869D01*
X9931427Y7744586D01*
D02*
G37*
G36*
X9842500D02*
X9828844Y7741869D01*
X9817266Y7734134D01*
X9809531Y7722556D01*
X9806814Y7708900D01*
X9809531Y7695244D01*
X9817266Y7683666D01*
X9828844Y7675931D01*
X9842500Y7673214D01*
X9856156Y7675931D01*
X9867734Y7683666D01*
X9875469Y7695244D01*
X9878186Y7708900D01*
X9875469Y7722556D01*
X9867734Y7734134D01*
X9856156Y7741869D01*
X9842500Y7744586D01*
D02*
G37*
G36*
X7351000Y7693900D02*
X7327181D01*
X7327379Y7692903D01*
X7336441Y7679341D01*
X7350003Y7670279D01*
X7351000Y7670081D01*
Y7693900D01*
D02*
G37*
G36*
X7646119Y7676827D02*
X7622300D01*
Y7653008D01*
X7623297Y7653206D01*
X7636859Y7662268D01*
X7645921Y7675830D01*
X7646119Y7676827D01*
D02*
G37*
G36*
X7592300D02*
X7568481D01*
X7568679Y7675830D01*
X7577741Y7662268D01*
X7591303Y7653206D01*
X7592300Y7653008D01*
Y7676827D01*
D02*
G37*
G36*
X7381000Y7747719D02*
Y7708900D01*
Y7670081D01*
X7381997Y7670279D01*
X7395219Y7679113D01*
X7396779Y7678751D01*
X7407103Y7673757D01*
X7406514Y7670800D01*
X7409231Y7657144D01*
X7416966Y7645566D01*
X7428544Y7637831D01*
X7442200Y7635114D01*
X7455856Y7637831D01*
X7467434Y7645566D01*
X7475169Y7657144D01*
X7477886Y7670800D01*
X7475169Y7684456D01*
X7467434Y7696034D01*
X7455856Y7703769D01*
X7442200Y7706486D01*
X7428544Y7703769D01*
X7418381Y7696979D01*
X7413024Y7698810D01*
X7406684Y7703275D01*
X7407803Y7708900D01*
X7404621Y7724897D01*
X7395559Y7738459D01*
X7381997Y7747521D01*
X7381000Y7747719D01*
D02*
G37*
G36*
X9416071Y7642259D02*
Y7618439D01*
X9439890D01*
X9439692Y7619437D01*
X9430630Y7632998D01*
X9417068Y7642060D01*
X9416071Y7642259D01*
D02*
G37*
G36*
X9386071D02*
X9385073Y7642060D01*
X9371511Y7632998D01*
X9362450Y7619437D01*
X9362251Y7618439D01*
X9386071D01*
Y7642259D01*
D02*
G37*
G36*
X9283700Y7681086D02*
X9270044Y7678369D01*
X9258466Y7670634D01*
X9250731Y7659056D01*
X9248014Y7645400D01*
X9250731Y7631744D01*
X9258466Y7620166D01*
X9270044Y7612431D01*
X9283700Y7609714D01*
X9297356Y7612431D01*
X9308934Y7620166D01*
X9316669Y7631744D01*
X9319386Y7645400D01*
X9316669Y7659056D01*
X9308934Y7670634D01*
X9297356Y7678369D01*
X9283700Y7681086D01*
D02*
G37*
G36*
X9182100D02*
X9168444Y7678369D01*
X9156866Y7670634D01*
X9149131Y7659056D01*
X9146414Y7645400D01*
X9149131Y7631744D01*
X9156866Y7620166D01*
X9168444Y7612431D01*
X9182100Y7609714D01*
X9195756Y7612431D01*
X9207334Y7620166D01*
X9215069Y7631744D01*
X9217786Y7645400D01*
X9215069Y7659056D01*
X9207334Y7670634D01*
X9195756Y7678369D01*
X9182100Y7681086D01*
D02*
G37*
G36*
X8763000Y7668386D02*
X8749344Y7665669D01*
X8737766Y7657934D01*
X8730031Y7646356D01*
X8727314Y7632700D01*
X8730031Y7619044D01*
X8737766Y7607466D01*
X8749344Y7599731D01*
X8763000Y7597014D01*
X8776656Y7599731D01*
X8788234Y7607466D01*
X8795969Y7619044D01*
X8798686Y7632700D01*
X8795969Y7646356D01*
X8788234Y7657934D01*
X8776656Y7665669D01*
X8763000Y7668386D01*
D02*
G37*
G36*
X9753353Y7665315D02*
X9739697Y7662599D01*
X9728119Y7654863D01*
X9720384Y7643286D01*
X9717667Y7629630D01*
X9720384Y7615973D01*
X9728119Y7604396D01*
X9739697Y7596660D01*
X9753353Y7593944D01*
X9767009Y7596660D01*
X9778587Y7604396D01*
X9786322Y7615973D01*
X9789039Y7629630D01*
X9786322Y7643286D01*
X9778587Y7654863D01*
X9767009Y7662599D01*
X9753353Y7665315D01*
D02*
G37*
G36*
X9575800D02*
X9562144Y7662599D01*
X9550566Y7654863D01*
X9542831Y7643286D01*
X9540114Y7629630D01*
X9542831Y7615973D01*
X9550566Y7604396D01*
X9562144Y7596660D01*
X9575800Y7593944D01*
X9589456Y7596660D01*
X9601034Y7604396D01*
X9608769Y7615973D01*
X9611486Y7629630D01*
X9608769Y7643286D01*
X9601034Y7654863D01*
X9589456Y7662599D01*
X9575800Y7665315D01*
D02*
G37*
G36*
X9496529Y7639125D02*
X9482873Y7636408D01*
X9471296Y7628673D01*
X9463560Y7617096D01*
X9460844Y7603439D01*
X9463560Y7589783D01*
X9471296Y7578206D01*
X9482873Y7570470D01*
X9496529Y7567753D01*
X9510186Y7570470D01*
X9521763Y7578206D01*
X9529499Y7589783D01*
X9532215Y7603439D01*
X9529499Y7617096D01*
X9521763Y7628673D01*
X9510186Y7636408D01*
X9496529Y7639125D01*
D02*
G37*
G36*
X9439890Y7588439D02*
X9416071D01*
Y7564620D01*
X9417068Y7564818D01*
X9430630Y7573880D01*
X9439692Y7587442D01*
X9439890Y7588439D01*
D02*
G37*
G36*
X9386071D02*
X9362251D01*
X9362450Y7587442D01*
X9371511Y7573880D01*
X9385073Y7564818D01*
X9386071Y7564620D01*
Y7588439D01*
D02*
G37*
G36*
X9663200Y7604886D02*
X9649544Y7602169D01*
X9637966Y7594434D01*
X9630231Y7582856D01*
X9627514Y7569200D01*
X9630231Y7555544D01*
X9637966Y7543966D01*
X9649544Y7536231D01*
X9663200Y7533514D01*
X9676856Y7536231D01*
X9688434Y7543966D01*
X9696169Y7555544D01*
X9698886Y7569200D01*
X9696169Y7582856D01*
X9688434Y7594434D01*
X9676856Y7602169D01*
X9663200Y7604886D01*
D02*
G37*
G36*
X10134600Y7565123D02*
X10120944Y7562406D01*
X10109366Y7554670D01*
X10101631Y7543093D01*
X10098914Y7529437D01*
X10101631Y7515780D01*
X10109366Y7504203D01*
X10120944Y7496468D01*
X10134600Y7493751D01*
X10148256Y7496468D01*
X10159834Y7504203D01*
X10167569Y7515780D01*
X10170286Y7529437D01*
X10167569Y7543093D01*
X10159834Y7554670D01*
X10148256Y7562406D01*
X10134600Y7565123D01*
D02*
G37*
G36*
X8864600Y7557413D02*
X8850944Y7554697D01*
X8839366Y7546961D01*
X8831631Y7535384D01*
X8828914Y7521727D01*
X8831631Y7508071D01*
X8839366Y7496494D01*
X8850944Y7488758D01*
X8864600Y7486042D01*
X8878256Y7488758D01*
X8889834Y7496494D01*
X8897569Y7508071D01*
X8900286Y7521727D01*
X8897569Y7535384D01*
X8889834Y7546961D01*
X8878256Y7554697D01*
X8864600Y7557413D01*
D02*
G37*
G36*
X9496529Y7542413D02*
X9482873Y7539697D01*
X9471296Y7531961D01*
X9463560Y7520384D01*
X9460844Y7506727D01*
X9463560Y7493071D01*
X9471296Y7481494D01*
X9482873Y7473758D01*
X9496529Y7471042D01*
X9510186Y7473758D01*
X9521763Y7481494D01*
X9529499Y7493071D01*
X9532215Y7506727D01*
X9529499Y7520384D01*
X9521763Y7531961D01*
X9510186Y7539697D01*
X9496529Y7542413D01*
D02*
G37*
G36*
X10210800Y7528686D02*
X10197144Y7525969D01*
X10185566Y7518234D01*
X10177831Y7506656D01*
X10175114Y7493000D01*
X10177831Y7479344D01*
X10185566Y7467766D01*
X10197144Y7460031D01*
X10210800Y7457314D01*
X10224456Y7460031D01*
X10236034Y7467766D01*
X10243769Y7479344D01*
X10246486Y7493000D01*
X10243769Y7506656D01*
X10236034Y7518234D01*
X10224456Y7525969D01*
X10210800Y7528686D01*
D02*
G37*
G36*
X7416800Y7515986D02*
X7403144Y7513269D01*
X7391566Y7505534D01*
X7383831Y7493956D01*
X7381114Y7480300D01*
X7383831Y7466644D01*
X7391566Y7455066D01*
X7403144Y7447331D01*
X7416800Y7444614D01*
X7430456Y7447331D01*
X7442034Y7455066D01*
X7449769Y7466644D01*
X7452486Y7480300D01*
X7449769Y7493956D01*
X7442034Y7505534D01*
X7430456Y7513269D01*
X7416800Y7515986D01*
D02*
G37*
G36*
X7848600Y7497413D02*
X7834944Y7494697D01*
X7823366Y7486961D01*
X7815631Y7475384D01*
X7812914Y7461728D01*
X7815631Y7448071D01*
X7823366Y7436494D01*
X7834944Y7428758D01*
X7848600Y7426042D01*
X7862256Y7428758D01*
X7873834Y7436494D01*
X7881569Y7448071D01*
X7884286Y7461728D01*
X7881569Y7475384D01*
X7873834Y7486961D01*
X7862256Y7494697D01*
X7848600Y7497413D01*
D02*
G37*
G36*
X7950200Y7490586D02*
X7936544Y7487869D01*
X7924966Y7480134D01*
X7917231Y7468556D01*
X7914514Y7454900D01*
X7917231Y7441244D01*
X7924966Y7429666D01*
X7936544Y7421931D01*
X7950200Y7419214D01*
X7963856Y7421931D01*
X7975434Y7429666D01*
X7983169Y7441244D01*
X7985886Y7454900D01*
X7983169Y7468556D01*
X7975434Y7480134D01*
X7963856Y7487869D01*
X7950200Y7490586D01*
D02*
G37*
G36*
X9283700Y7477886D02*
X9270044Y7475169D01*
X9258466Y7467434D01*
X9250731Y7455856D01*
X9248014Y7442200D01*
X9250731Y7428544D01*
X9258466Y7416966D01*
X9270044Y7409231D01*
X9283700Y7406514D01*
X9297356Y7409231D01*
X9308934Y7416966D01*
X9316669Y7428544D01*
X9319386Y7442200D01*
X9316669Y7455856D01*
X9308934Y7467434D01*
X9297356Y7475169D01*
X9283700Y7477886D01*
D02*
G37*
G36*
X10122900Y7430126D02*
Y7406307D01*
X10146719D01*
X10146521Y7407304D01*
X10137459Y7420866D01*
X10123897Y7429928D01*
X10122900Y7430126D01*
D02*
G37*
G36*
X10092900D02*
X10091903Y7429928D01*
X10078341Y7420866D01*
X10069279Y7407304D01*
X10069081Y7406307D01*
X10092900D01*
Y7430126D01*
D02*
G37*
G36*
X10146719Y7376307D02*
X10122900D01*
Y7352488D01*
X10123897Y7352686D01*
X10137459Y7361748D01*
X10146521Y7375310D01*
X10146719Y7376307D01*
D02*
G37*
G36*
X10092900D02*
X10069081D01*
X10069279Y7375310D01*
X10078341Y7361748D01*
X10091903Y7352686D01*
X10092900Y7352488D01*
Y7376307D01*
D02*
G37*
G36*
X7810500Y7414386D02*
X7796844Y7411669D01*
X7785266Y7403934D01*
X7777531Y7392356D01*
X7774814Y7378700D01*
X7777531Y7365044D01*
X7785266Y7353466D01*
X7796844Y7345731D01*
X7810500Y7343014D01*
X7824156Y7345731D01*
X7835734Y7353466D01*
X7843469Y7365044D01*
X7846186Y7378700D01*
X7843469Y7392356D01*
X7835734Y7403934D01*
X7824156Y7411669D01*
X7810500Y7414386D01*
D02*
G37*
G36*
X7162800Y7391637D02*
X7149144Y7388921D01*
X7137566Y7381185D01*
X7129831Y7369608D01*
X7127114Y7355952D01*
X7129831Y7342295D01*
X7137566Y7330718D01*
X7149144Y7322983D01*
X7162800Y7320266D01*
X7176456Y7322983D01*
X7188034Y7330718D01*
X7195769Y7342295D01*
X7198486Y7355952D01*
X7195769Y7369608D01*
X7188034Y7381185D01*
X7176456Y7388921D01*
X7162800Y7391637D01*
D02*
G37*
G36*
X9906000Y7362686D02*
X9892344Y7359969D01*
X9880766Y7352234D01*
X9873031Y7340656D01*
X9870314Y7327000D01*
X9873031Y7313344D01*
X9880766Y7301766D01*
X9892344Y7294031D01*
X9906000Y7291314D01*
X9919656Y7294031D01*
X9931234Y7301766D01*
X9938969Y7313344D01*
X9941686Y7327000D01*
X9938969Y7340656D01*
X9931234Y7352234D01*
X9919656Y7359969D01*
X9906000Y7362686D01*
D02*
G37*
G36*
X8566872Y8032926D02*
X8411364D01*
X8403561Y8031373D01*
X8396945Y8026953D01*
X8396945Y8026952D01*
X8367581Y7997589D01*
X8363160Y7990973D01*
X8361608Y7983169D01*
Y7965951D01*
X8340913Y7945256D01*
X8327681Y7949985D01*
X8326069Y7958087D01*
X8318334Y7969665D01*
X8306756Y7977400D01*
X8293100Y7980117D01*
X8279444Y7977400D01*
X8267866Y7969665D01*
X8260131Y7958087D01*
X8257414Y7944431D01*
X8260131Y7930775D01*
X8267866Y7919198D01*
X8276283Y7913573D01*
X8277051Y7910659D01*
Y7902376D01*
X8276283Y7899462D01*
X8267866Y7893838D01*
X8260131Y7882261D01*
X8257414Y7868604D01*
X8260131Y7854948D01*
X8266753Y7845037D01*
X8264850Y7837102D01*
X8262305Y7831813D01*
X8254044Y7830169D01*
X8242466Y7822434D01*
X8234731Y7810856D01*
X8232014Y7797200D01*
X8234731Y7783544D01*
X8235987Y7781664D01*
X8229600Y7769986D01*
X8215944Y7767269D01*
X8204366Y7759534D01*
X8196631Y7747956D01*
X8193914Y7734300D01*
X8196631Y7720644D01*
X8204366Y7709066D01*
X8210652Y7704867D01*
X8211474Y7704317D01*
X8206519Y7692354D01*
X8205713Y7692514D01*
X8199321Y7693786D01*
X8185664Y7691069D01*
X8174087Y7683334D01*
X8166351Y7671756D01*
X8164257Y7661226D01*
X8158393Y7657841D01*
X8155691Y7656855D01*
X8151287Y7656164D01*
X8141656Y7662599D01*
X8128000Y7665315D01*
X8114344Y7662599D01*
X8102766Y7654863D01*
X8095031Y7643286D01*
X8092314Y7629630D01*
X8095031Y7615973D01*
X8102766Y7604396D01*
X8114344Y7596660D01*
X8128000Y7593944D01*
X8141656Y7596660D01*
X8153234Y7604396D01*
X8160969Y7615973D01*
X8163064Y7626504D01*
X8168928Y7629889D01*
X8171629Y7630875D01*
X8176034Y7631565D01*
X8185664Y7625131D01*
X8199321Y7622414D01*
X8212977Y7625131D01*
X8224554Y7632866D01*
X8232290Y7644444D01*
X8235006Y7658100D01*
X8232290Y7671756D01*
X8224554Y7683334D01*
X8218269Y7687533D01*
X8217447Y7688083D01*
X8222402Y7700046D01*
X8223208Y7699886D01*
X8229600Y7698614D01*
X8243256Y7701331D01*
X8254834Y7709066D01*
X8262569Y7720644D01*
X8265286Y7734300D01*
X8262569Y7747956D01*
X8261313Y7749836D01*
X8267700Y7761514D01*
X8281356Y7764231D01*
X8292934Y7771966D01*
X8300669Y7783544D01*
X8303386Y7797200D01*
X8300669Y7810856D01*
X8294047Y7820767D01*
X8295950Y7828702D01*
X8298495Y7833992D01*
X8306756Y7835635D01*
X8318334Y7843371D01*
X8326069Y7854948D01*
X8328786Y7868604D01*
X8327650Y7874315D01*
X8396419Y7943084D01*
X8396419Y7943085D01*
X8400840Y7949701D01*
X8402392Y7957504D01*
X8402392Y7957506D01*
Y7974722D01*
X8419811Y7992142D01*
X8558425D01*
X9244390Y7306177D01*
X9251005Y7301757D01*
X9258809Y7300204D01*
X9258810Y7300205D01*
X9576209D01*
X9579444Y7295363D01*
X9591021Y7287627D01*
X9604678Y7284911D01*
X9618334Y7287627D01*
X9629911Y7295363D01*
X9637647Y7306940D01*
X9640363Y7320596D01*
X9637647Y7334253D01*
X9629911Y7345830D01*
X9618334Y7353566D01*
X9604678Y7356282D01*
X9591021Y7353566D01*
X9579444Y7345830D01*
X9579075Y7345278D01*
X9572568Y7345793D01*
X9566632Y7359001D01*
X9570669Y7365044D01*
X9573386Y7378700D01*
X9570669Y7392356D01*
X9562934Y7403934D01*
X9551356Y7411669D01*
X9537700Y7414386D01*
X9524044Y7411669D01*
X9512466Y7403934D01*
X9504731Y7392356D01*
X9502014Y7378700D01*
X9504731Y7365044D01*
X9512466Y7353467D01*
X9508281Y7340988D01*
X9267256D01*
X8581291Y8026953D01*
X8574676Y8031373D01*
X8566872Y8032926D01*
D02*
G37*
G36*
X9042400Y7356282D02*
X9028744Y7353566D01*
X9017166Y7345830D01*
X9009431Y7334253D01*
X9006714Y7320596D01*
X9009431Y7306940D01*
X9017166Y7295363D01*
X9028744Y7287627D01*
X9042400Y7284911D01*
X9056056Y7287627D01*
X9067634Y7295363D01*
X9075369Y7306940D01*
X9078086Y7320596D01*
X9075369Y7334253D01*
X9067634Y7345830D01*
X9056056Y7353566D01*
X9042400Y7356282D01*
D02*
G37*
G36*
X7721600D02*
X7707944Y7353566D01*
X7696366Y7345830D01*
X7688631Y7334253D01*
X7685914Y7320596D01*
X7688631Y7306940D01*
X7696366Y7295363D01*
X7707944Y7287627D01*
X7721600Y7284911D01*
X7735256Y7287627D01*
X7746834Y7295363D01*
X7754569Y7306940D01*
X7757286Y7320596D01*
X7754569Y7334253D01*
X7746834Y7345830D01*
X7735256Y7353566D01*
X7721600Y7356282D01*
D02*
G37*
G36*
X8961321Y7312786D02*
X8947664Y7310069D01*
X8936087Y7302334D01*
X8928351Y7290756D01*
X8925635Y7277100D01*
X8928351Y7263444D01*
X8936087Y7251866D01*
X8947664Y7244131D01*
X8961321Y7241414D01*
X8974977Y7244131D01*
X8986554Y7251866D01*
X8994290Y7263444D01*
X8997006Y7277100D01*
X8994290Y7290756D01*
X8986554Y7302334D01*
X8974977Y7310069D01*
X8961321Y7312786D01*
D02*
G37*
G36*
X9118600Y7298586D02*
X9104944Y7295869D01*
X9093366Y7288134D01*
X9085631Y7276556D01*
X9082914Y7262900D01*
X9085631Y7249244D01*
X9093366Y7237667D01*
X9104944Y7229931D01*
X9118600Y7227214D01*
X9132256Y7229931D01*
X9143834Y7237667D01*
X9151569Y7249244D01*
X9154286Y7262900D01*
X9151569Y7276556D01*
X9143834Y7288134D01*
X9132256Y7295869D01*
X9118600Y7298586D01*
D02*
G37*
G36*
X7048500D02*
X7034844Y7295869D01*
X7023266Y7288134D01*
X7015531Y7276556D01*
X7012814Y7262900D01*
X7015531Y7249244D01*
X7023266Y7237667D01*
X7034844Y7229931D01*
X7048500Y7227214D01*
X7062156Y7229931D01*
X7073734Y7237667D01*
X7081469Y7249244D01*
X7084186Y7262900D01*
X7081469Y7276556D01*
X7073734Y7288134D01*
X7062156Y7295869D01*
X7048500Y7298586D01*
D02*
G37*
G36*
X7645400Y7287386D02*
X7631744Y7284669D01*
X7620166Y7276934D01*
X7612431Y7265356D01*
X7609714Y7251700D01*
X7612431Y7238044D01*
X7620166Y7226466D01*
X7631744Y7218731D01*
X7645400Y7216014D01*
X7659056Y7218731D01*
X7670634Y7226466D01*
X7678369Y7238044D01*
X7681086Y7251700D01*
X7678369Y7265356D01*
X7670634Y7276934D01*
X7659056Y7284669D01*
X7645400Y7287386D01*
D02*
G37*
G36*
X7302500Y7274686D02*
X7288844Y7271969D01*
X7277266Y7264234D01*
X7269531Y7252656D01*
X7266814Y7239000D01*
X7269531Y7225344D01*
X7277266Y7213766D01*
X7288844Y7206031D01*
X7302500Y7203314D01*
X7316156Y7206031D01*
X7327734Y7213766D01*
X7335469Y7225344D01*
X7338186Y7239000D01*
X7335469Y7252656D01*
X7327734Y7264234D01*
X7316156Y7271969D01*
X7302500Y7274686D01*
D02*
G37*
G36*
X9677400Y7261986D02*
X9663744Y7259269D01*
X9652166Y7251534D01*
X9644431Y7239956D01*
X9641714Y7226300D01*
X9644431Y7212644D01*
X9652166Y7201066D01*
X9663744Y7193331D01*
X9677400Y7190614D01*
X9691056Y7193331D01*
X9702634Y7201066D01*
X9710369Y7212644D01*
X9713086Y7226300D01*
X9710369Y7239956D01*
X9702634Y7251534D01*
X9691056Y7259269D01*
X9677400Y7261986D01*
D02*
G37*
G36*
X10033000Y7255026D02*
X10019344Y7252309D01*
X10007766Y7244574D01*
X10000031Y7232996D01*
X9997314Y7219340D01*
X10000031Y7205684D01*
X10007766Y7194107D01*
X10019344Y7186371D01*
X10033000Y7183654D01*
X10046656Y7186371D01*
X10058234Y7194107D01*
X10065969Y7205684D01*
X10068686Y7219340D01*
X10065969Y7232996D01*
X10058234Y7244574D01*
X10046656Y7252309D01*
X10033000Y7255026D01*
D02*
G37*
G36*
X9760019Y7249286D02*
X9746363Y7246569D01*
X9734785Y7238834D01*
X9727050Y7227256D01*
X9724333Y7213600D01*
X9727050Y7199944D01*
X9734785Y7188366D01*
X9746363Y7180631D01*
X9760019Y7177914D01*
X9773675Y7180631D01*
X9785253Y7188366D01*
X9792988Y7199944D01*
X9795705Y7213600D01*
X9792988Y7227256D01*
X9785253Y7238834D01*
X9773675Y7246569D01*
X9760019Y7249286D01*
D02*
G37*
G36*
X9512300D02*
X9498644Y7246569D01*
X9487066Y7238834D01*
X9479331Y7227256D01*
X9476614Y7213600D01*
X9479331Y7199944D01*
X9487066Y7188366D01*
X9498644Y7180631D01*
X9512300Y7177914D01*
X9525956Y7180631D01*
X9537534Y7188366D01*
X9545269Y7199944D01*
X9547986Y7213600D01*
X9545269Y7227256D01*
X9537534Y7238834D01*
X9525956Y7246569D01*
X9512300Y7249286D01*
D02*
G37*
G36*
X9182100Y7236586D02*
X9168444Y7233869D01*
X9156866Y7226134D01*
X9149131Y7214556D01*
X9146414Y7200900D01*
X9149131Y7187244D01*
X9156866Y7175666D01*
X9168444Y7167931D01*
X9182100Y7165214D01*
X9195756Y7167931D01*
X9207334Y7175666D01*
X9215069Y7187244D01*
X9217786Y7200900D01*
X9215069Y7214556D01*
X9207334Y7226134D01*
X9195756Y7233869D01*
X9182100Y7236586D01*
D02*
G37*
G36*
X9055100Y7148611D02*
X9041444Y7145894D01*
X9029866Y7138159D01*
X9022131Y7126581D01*
X9019414Y7112925D01*
X9022131Y7099269D01*
X9029866Y7087691D01*
X9041444Y7079956D01*
X9055100Y7077239D01*
X9068756Y7079956D01*
X9080334Y7087691D01*
X9088069Y7099269D01*
X9090786Y7112925D01*
X9088069Y7126581D01*
X9080334Y7138159D01*
X9068756Y7145894D01*
X9055100Y7148611D01*
D02*
G37*
G36*
X9217786Y7084186D02*
X9204129Y7081469D01*
X9192552Y7073734D01*
X9184817Y7062156D01*
X9182100Y7048500D01*
X9184817Y7034844D01*
X9192552Y7023266D01*
X9204129Y7015531D01*
X9217786Y7012814D01*
X9231442Y7015531D01*
X9243019Y7023266D01*
X9250755Y7034844D01*
X9253471Y7048500D01*
X9250755Y7062156D01*
X9243019Y7073734D01*
X9231442Y7081469D01*
X9217786Y7084186D01*
D02*
G37*
G36*
X7549941Y7082371D02*
X7536284Y7079654D01*
X7524707Y7071919D01*
X7516972Y7060341D01*
X7514255Y7046685D01*
X7516972Y7033029D01*
X7524707Y7021452D01*
X7536284Y7013716D01*
X7549941Y7010999D01*
X7563597Y7013716D01*
X7575174Y7021452D01*
X7582910Y7033029D01*
X7585626Y7046685D01*
X7582910Y7060341D01*
X7575174Y7071919D01*
X7563597Y7079654D01*
X7549941Y7082371D01*
D02*
G37*
G36*
X9459131Y7072551D02*
X9445475Y7069834D01*
X9433898Y7062099D01*
X9426162Y7050522D01*
X9423445Y7036865D01*
X9426162Y7023209D01*
X9433898Y7011632D01*
X9445475Y7003896D01*
X9459131Y7001180D01*
X9472788Y7003896D01*
X9484365Y7011632D01*
X9492100Y7023209D01*
X9494817Y7036865D01*
X9492100Y7050522D01*
X9484365Y7062099D01*
X9472788Y7069834D01*
X9459131Y7072551D01*
D02*
G37*
G36*
X10083800Y7071486D02*
X10070144Y7068769D01*
X10058566Y7061034D01*
X10050831Y7049456D01*
X10048114Y7035800D01*
X10050831Y7022144D01*
X10058566Y7010566D01*
X10070144Y7002831D01*
X10083800Y7000114D01*
X10097456Y7002831D01*
X10109034Y7010566D01*
X10116769Y7022144D01*
X10119486Y7035800D01*
X10116769Y7049456D01*
X10109034Y7061034D01*
X10097456Y7068769D01*
X10083800Y7071486D01*
D02*
G37*
G36*
X7277100D02*
X7263444Y7068769D01*
X7251866Y7061034D01*
X7244131Y7049456D01*
X7241414Y7035800D01*
X7244131Y7022144D01*
X7251866Y7010566D01*
X7263444Y7002831D01*
X7277100Y7000114D01*
X7290756Y7002831D01*
X7302334Y7010566D01*
X7310069Y7022144D01*
X7312786Y7035800D01*
X7310069Y7049456D01*
X7302334Y7061034D01*
X7290756Y7068769D01*
X7277100Y7071486D01*
D02*
G37*
G36*
X9080500Y7033386D02*
X9066844Y7030669D01*
X9055266Y7022934D01*
X9047531Y7011356D01*
X9044814Y6997700D01*
X9047531Y6984044D01*
X9055266Y6972466D01*
X9066844Y6964731D01*
X9080500Y6962014D01*
X9094156Y6964731D01*
X9105734Y6972466D01*
X9113469Y6984044D01*
X9116186Y6997700D01*
X9113469Y7011356D01*
X9105734Y7022934D01*
X9094156Y7030669D01*
X9080500Y7033386D01*
D02*
G37*
G36*
X9565400Y6977578D02*
Y6953759D01*
X9589219D01*
X9589021Y6954756D01*
X9579959Y6968318D01*
X9566397Y6977379D01*
X9565400Y6977578D01*
D02*
G37*
G36*
X9535400D02*
X9534403Y6977379D01*
X9520841Y6968318D01*
X9511779Y6954756D01*
X9511581Y6953759D01*
X9535400D01*
Y6977578D01*
D02*
G37*
G36*
X7035800Y7007986D02*
X7022144Y7005269D01*
X7010566Y6997534D01*
X7002831Y6985956D01*
X7000114Y6972300D01*
X7002831Y6958644D01*
X7010566Y6947066D01*
X7022144Y6939331D01*
X7035800Y6936614D01*
X7049456Y6939331D01*
X7061034Y6947066D01*
X7068769Y6958644D01*
X7071486Y6972300D01*
X7068769Y6985956D01*
X7061034Y6997534D01*
X7049456Y7005269D01*
X7035800Y7007986D01*
D02*
G37*
G36*
X7150100Y7007413D02*
X7136444Y7004697D01*
X7124866Y6996961D01*
X7117131Y6985384D01*
X7114414Y6971728D01*
X7117131Y6958071D01*
X7124866Y6946494D01*
X7136444Y6938759D01*
X7150100Y6936042D01*
X7163756Y6938759D01*
X7175334Y6946494D01*
X7183069Y6958071D01*
X7185786Y6971728D01*
X7183069Y6985384D01*
X7175334Y6996961D01*
X7163756Y7004697D01*
X7150100Y7007413D01*
D02*
G37*
G36*
X7663840Y6996681D02*
X7650184Y6993965D01*
X7638607Y6986229D01*
X7630871Y6974652D01*
X7628154Y6960996D01*
X7630871Y6947339D01*
X7638607Y6935762D01*
X7650184Y6928027D01*
X7663840Y6925310D01*
X7677496Y6928027D01*
X7689074Y6935762D01*
X7696809Y6947339D01*
X7699526Y6960996D01*
X7696809Y6974652D01*
X7689074Y6986229D01*
X7677496Y6993965D01*
X7663840Y6996681D01*
D02*
G37*
G36*
X8978900Y6982586D02*
X8965244Y6979869D01*
X8953666Y6972134D01*
X8945931Y6960556D01*
X8943214Y6946900D01*
X8945931Y6933244D01*
X8953666Y6921666D01*
X8965244Y6913931D01*
X8978900Y6911214D01*
X8992556Y6913931D01*
X9004134Y6921666D01*
X9011869Y6933244D01*
X9014586Y6946900D01*
X9011869Y6960556D01*
X9004134Y6972134D01*
X8992556Y6979869D01*
X8978900Y6982586D01*
D02*
G37*
G36*
X9589219Y6923759D02*
X9565400D01*
Y6899939D01*
X9566397Y6900138D01*
X9579959Y6909199D01*
X9589021Y6922761D01*
X9589219Y6923759D01*
D02*
G37*
G36*
X9535400D02*
X9511581D01*
X9511779Y6922761D01*
X9520841Y6909199D01*
X9534403Y6900138D01*
X9535400Y6899939D01*
Y6923759D01*
D02*
G37*
G36*
X10096500Y6956767D02*
X10082844Y6954050D01*
X10071266Y6946315D01*
X10063531Y6934737D01*
X10060814Y6921081D01*
X10063531Y6907425D01*
X10071266Y6895848D01*
X10082844Y6888112D01*
X10096500Y6885395D01*
X10110156Y6888112D01*
X10121734Y6895848D01*
X10129469Y6907425D01*
X10132186Y6921081D01*
X10129469Y6934737D01*
X10121734Y6946315D01*
X10110156Y6954050D01*
X10096500Y6956767D01*
D02*
G37*
G36*
X7239000Y6949696D02*
X7225344Y6946979D01*
X7213766Y6939243D01*
X7206031Y6927666D01*
X7203314Y6914010D01*
X7206031Y6900353D01*
X7213766Y6888776D01*
X7225344Y6881041D01*
X7239000Y6878324D01*
X7252656Y6881041D01*
X7264234Y6888776D01*
X7271969Y6900353D01*
X7274686Y6914010D01*
X7271969Y6927666D01*
X7264234Y6939243D01*
X7252656Y6946979D01*
X7239000Y6949696D01*
D02*
G37*
G36*
X9867900Y6931918D02*
X9854244Y6929202D01*
X9842666Y6921466D01*
X9834931Y6909889D01*
X9832214Y6896233D01*
X9834931Y6882576D01*
X9842666Y6870999D01*
X9854244Y6863263D01*
X9867900Y6860547D01*
X9881556Y6863263D01*
X9893134Y6870999D01*
X9900869Y6882576D01*
X9903586Y6896233D01*
X9900869Y6909889D01*
X9893134Y6921466D01*
X9881556Y6929202D01*
X9867900Y6931918D01*
D02*
G37*
G36*
X9017000Y6906386D02*
X9003344Y6903669D01*
X8991766Y6895934D01*
X8984031Y6884356D01*
X8981314Y6870700D01*
X8983360Y6860417D01*
X8974472Y6852664D01*
X8973067Y6852020D01*
X8967156Y6855969D01*
X8953500Y6858686D01*
X8939844Y6855969D01*
X8928266Y6848234D01*
X8920531Y6836656D01*
X8917814Y6823000D01*
X8920531Y6809344D01*
X8928266Y6797766D01*
X8939844Y6790031D01*
X8953500Y6787314D01*
X8967156Y6790031D01*
X8978734Y6797766D01*
X8986469Y6809344D01*
X8989186Y6823000D01*
X8987140Y6833283D01*
X8996028Y6841036D01*
X8997433Y6841680D01*
X9003344Y6837731D01*
X9017000Y6835014D01*
X9030656Y6837731D01*
X9042234Y6845466D01*
X9049969Y6857044D01*
X9052686Y6870700D01*
X9049969Y6884356D01*
X9042234Y6895934D01*
X9030656Y6903669D01*
X9017000Y6906386D01*
D02*
G37*
G36*
X9679197Y6891655D02*
X9665541Y6888938D01*
X9653964Y6881203D01*
X9646228Y6869626D01*
X9643512Y6855969D01*
X9646228Y6842313D01*
X9653964Y6830736D01*
X9665541Y6823000D01*
X9679197Y6820284D01*
X9692854Y6823000D01*
X9704431Y6830736D01*
X9712167Y6842313D01*
X9714883Y6855969D01*
X9712167Y6869626D01*
X9704431Y6881203D01*
X9692854Y6888938D01*
X9679197Y6891655D01*
D02*
G37*
G36*
X7802173Y6858686D02*
X7788516Y6855969D01*
X7776939Y6848234D01*
X7769203Y6836656D01*
X7766487Y6823000D01*
X7769203Y6809344D01*
X7776939Y6797766D01*
X7788516Y6790031D01*
X7802173Y6787314D01*
X7815829Y6790031D01*
X7827406Y6797766D01*
X7835142Y6809344D01*
X7837858Y6823000D01*
X7835142Y6836656D01*
X7827406Y6848234D01*
X7815829Y6855969D01*
X7802173Y6858686D01*
D02*
G37*
G36*
X10225800Y6810990D02*
Y6787170D01*
X10249619D01*
X10249421Y6788168D01*
X10240359Y6801730D01*
X10226797Y6810791D01*
X10225800Y6810990D01*
D02*
G37*
G36*
X10195800D02*
X10194803Y6810791D01*
X10181241Y6801730D01*
X10172179Y6788168D01*
X10171981Y6787170D01*
X10195800D01*
Y6810990D01*
D02*
G37*
G36*
X9921000D02*
Y6787170D01*
X9944819D01*
X9944621Y6788168D01*
X9935559Y6801730D01*
X9921997Y6810791D01*
X9921000Y6810990D01*
D02*
G37*
G36*
X9891000D02*
X9890003Y6810791D01*
X9876441Y6801730D01*
X9867379Y6788168D01*
X9867181Y6787170D01*
X9891000D01*
Y6810990D01*
D02*
G37*
G36*
X10249619Y6757170D02*
X10225800D01*
Y6733351D01*
X10226797Y6733549D01*
X10240359Y6742611D01*
X10249421Y6756173D01*
X10249619Y6757170D01*
D02*
G37*
G36*
X10195800D02*
X10171981D01*
X10172179Y6756173D01*
X10181241Y6742611D01*
X10194803Y6733549D01*
X10195800Y6733351D01*
Y6757170D01*
D02*
G37*
G36*
X9944819D02*
X9921000D01*
Y6733351D01*
X9921997Y6733549D01*
X9935559Y6742611D01*
X9944621Y6756173D01*
X9944819Y6757170D01*
D02*
G37*
G36*
X9891000D02*
X9867181D01*
X9867379Y6756173D01*
X9876441Y6742611D01*
X9890003Y6733549D01*
X9891000Y6733351D01*
Y6757170D01*
D02*
G37*
G36*
X8890000Y6792086D02*
X8876344Y6789369D01*
X8864766Y6781634D01*
X8857031Y6770056D01*
X8854314Y6756400D01*
X8857031Y6742744D01*
X8864766Y6731166D01*
X8876344Y6723431D01*
X8890000Y6720714D01*
X8903656Y6723431D01*
X8915234Y6731166D01*
X8922969Y6742744D01*
X8925686Y6756400D01*
X8922969Y6770056D01*
X8915234Y6781634D01*
X8903656Y6789369D01*
X8890000Y6792086D01*
D02*
G37*
G36*
X7899400Y6842886D02*
X7885744Y6840169D01*
X7874166Y6832434D01*
X7866431Y6820856D01*
X7863714Y6807200D01*
X7866431Y6793544D01*
X7874166Y6781966D01*
X7885744Y6774231D01*
X7899400Y6771514D01*
X7913056Y6774231D01*
X7920986Y6779529D01*
X7930142Y6770373D01*
X7929931Y6770056D01*
X7927214Y6756400D01*
X7929931Y6742744D01*
X7937666Y6731166D01*
X7949244Y6723431D01*
X7962900Y6720714D01*
X7976556Y6723431D01*
X7988134Y6731166D01*
X7995869Y6742744D01*
X7998586Y6756400D01*
X7995869Y6770056D01*
X7988134Y6781634D01*
X7976556Y6789369D01*
X7962900Y6792086D01*
X7949244Y6789369D01*
X7941314Y6784071D01*
X7932158Y6793227D01*
X7932369Y6793544D01*
X7935086Y6807200D01*
X7932369Y6820856D01*
X7924634Y6832434D01*
X7913056Y6840169D01*
X7899400Y6842886D01*
D02*
G37*
G36*
X7463619Y6741919D02*
Y6718100D01*
X7487438D01*
X7487240Y6719098D01*
X7478178Y6732659D01*
X7464617Y6741721D01*
X7463619Y6741919D01*
D02*
G37*
G36*
X7433619D02*
X7432622Y6741721D01*
X7419060Y6732659D01*
X7409998Y6719098D01*
X7409800Y6718100D01*
X7433619D01*
Y6741919D01*
D02*
G37*
G36*
X9461500Y6762312D02*
X9447844Y6759596D01*
X9436266Y6751860D01*
X9428531Y6740283D01*
X9425814Y6726627D01*
X9428531Y6712970D01*
X9436266Y6701393D01*
X9447844Y6693657D01*
X9461500Y6690941D01*
X9475156Y6693657D01*
X9486734Y6701393D01*
X9494469Y6712970D01*
X9497186Y6726627D01*
X9494469Y6740283D01*
X9486734Y6751860D01*
X9475156Y6759596D01*
X9461500Y6762312D01*
D02*
G37*
G36*
X8019500Y6728586D02*
X8005844Y6725869D01*
X7994266Y6718134D01*
X7986531Y6706556D01*
X7983814Y6692900D01*
X7986531Y6679244D01*
X7994266Y6667666D01*
X8005844Y6659931D01*
X8019500Y6657214D01*
X8033156Y6659931D01*
X8044734Y6667666D01*
X8052469Y6679244D01*
X8055186Y6692900D01*
X8052469Y6706556D01*
X8044734Y6718134D01*
X8033156Y6725869D01*
X8019500Y6728586D01*
D02*
G37*
G36*
X10225800Y6677058D02*
Y6653238D01*
X10249619D01*
X10249421Y6654236D01*
X10240359Y6667798D01*
X10226797Y6676859D01*
X10225800Y6677058D01*
D02*
G37*
G36*
X10195800D02*
X10194803Y6676859D01*
X10181241Y6667798D01*
X10172179Y6654236D01*
X10171981Y6653238D01*
X10195800D01*
Y6677058D01*
D02*
G37*
G36*
X9921000D02*
Y6653238D01*
X9944819D01*
X9944621Y6654236D01*
X9935559Y6667798D01*
X9921997Y6676859D01*
X9921000Y6677058D01*
D02*
G37*
G36*
X9891000D02*
X9890003Y6676859D01*
X9876441Y6667798D01*
X9867379Y6654236D01*
X9867181Y6653238D01*
X9891000D01*
Y6677058D01*
D02*
G37*
G36*
X8826500Y6709279D02*
X8812844Y6706563D01*
X8801266Y6698827D01*
X8793531Y6687250D01*
X8790814Y6673594D01*
X8793531Y6659937D01*
X8801266Y6648360D01*
X8812844Y6640625D01*
X8826500Y6637908D01*
X8840156Y6640625D01*
X8851734Y6648360D01*
X8859469Y6659937D01*
X8862186Y6673594D01*
X8859469Y6687250D01*
X8851734Y6698827D01*
X8840156Y6706563D01*
X8826500Y6709279D01*
D02*
G37*
G36*
X8128000Y6665086D02*
X8114344Y6662369D01*
X8102766Y6654634D01*
X8095031Y6643056D01*
X8092314Y6629400D01*
X8093764Y6622111D01*
X8082629Y6617657D01*
X8074893Y6629234D01*
X8063316Y6636969D01*
X8049660Y6639686D01*
X8036003Y6636969D01*
X8024426Y6629234D01*
X8016691Y6617656D01*
X8013974Y6604000D01*
X8016691Y6590344D01*
X8024426Y6578766D01*
X8036003Y6571031D01*
X8049660Y6568314D01*
X8063316Y6571031D01*
X8074893Y6578766D01*
X8082629Y6590344D01*
X8085346Y6604000D01*
X8083896Y6611289D01*
X8095031Y6615743D01*
X8102766Y6604166D01*
X8114344Y6596431D01*
X8128000Y6593714D01*
X8140192Y6596139D01*
X8143941Y6592943D01*
X8148588Y6585846D01*
X8143784Y6578656D01*
X8141068Y6565000D01*
X8143784Y6551344D01*
X8151520Y6539766D01*
X8163097Y6532031D01*
X8176754Y6529314D01*
X8190410Y6532031D01*
X8194178Y6534549D01*
X8197624Y6533890D01*
X8207420Y6528122D01*
X8209331Y6518516D01*
X8217066Y6506939D01*
X8228644Y6499203D01*
X8242300Y6496487D01*
X8255956Y6499203D01*
X8267534Y6506939D01*
X8275269Y6518516D01*
X8277986Y6532173D01*
X8275269Y6545829D01*
X8267534Y6557406D01*
X8255956Y6565142D01*
X8242300Y6567858D01*
X8228644Y6565142D01*
X8224875Y6562624D01*
X8221430Y6563282D01*
X8211634Y6569050D01*
X8209723Y6578656D01*
X8201987Y6590234D01*
X8190410Y6597969D01*
X8176754Y6600686D01*
X8164562Y6598261D01*
X8160813Y6601457D01*
X8156165Y6608554D01*
X8160969Y6615744D01*
X8163686Y6629400D01*
X8160969Y6643056D01*
X8153234Y6654634D01*
X8141656Y6662369D01*
X8128000Y6665086D01*
D02*
G37*
G36*
X10249619Y6623238D02*
X10225800D01*
Y6599419D01*
X10226797Y6599617D01*
X10240359Y6608679D01*
X10249421Y6622241D01*
X10249619Y6623238D01*
D02*
G37*
G36*
X10195800D02*
X10171981D01*
X10172179Y6622241D01*
X10181241Y6608679D01*
X10194803Y6599617D01*
X10195800Y6599419D01*
Y6623238D01*
D02*
G37*
G36*
X9944819D02*
X9921000D01*
Y6599419D01*
X9921997Y6599617D01*
X9935559Y6608679D01*
X9944621Y6622241D01*
X9944819Y6623238D01*
D02*
G37*
G36*
X9891000D02*
X9867181D01*
X9867379Y6622241D01*
X9876441Y6608679D01*
X9890003Y6599617D01*
X9891000Y6599419D01*
Y6623238D01*
D02*
G37*
G36*
X7487438Y6688100D02*
X7409800D01*
X7409998Y6687103D01*
X7419060Y6673541D01*
X7432622Y6664479D01*
X7434574Y6664091D01*
X7435522Y6662941D01*
X7439393Y6650183D01*
X7434631Y6643056D01*
X7431914Y6629400D01*
X7434631Y6615744D01*
X7442366Y6604166D01*
X7453944Y6596431D01*
X7467600Y6593714D01*
X7481256Y6596431D01*
X7492834Y6604166D01*
X7500569Y6615744D01*
X7503286Y6629400D01*
X7500569Y6643056D01*
X7492834Y6654634D01*
X7482787Y6661346D01*
X7480945Y6666222D01*
X7480558Y6667931D01*
X7479588Y6675650D01*
X7487240Y6687103D01*
X7487438Y6688100D01*
D02*
G37*
G36*
X8750300Y6652386D02*
X8736644Y6649669D01*
X8725066Y6641934D01*
X8717331Y6630356D01*
X8714614Y6616700D01*
X8717331Y6603044D01*
X8725066Y6591466D01*
X8736644Y6583731D01*
X8750300Y6581014D01*
X8763956Y6583731D01*
X8775534Y6591466D01*
X8783269Y6603044D01*
X8785986Y6616700D01*
X8783269Y6630356D01*
X8775534Y6641934D01*
X8763956Y6649669D01*
X8750300Y6652386D01*
D02*
G37*
G36*
X10094200Y6570992D02*
X10093203Y6570794D01*
X10079641Y6561732D01*
X10071574Y6549659D01*
X10064750Y6548856D01*
X10057926Y6549659D01*
X10049859Y6561732D01*
X10036297Y6570794D01*
X10035300Y6570992D01*
Y6532173D01*
Y6493353D01*
X10036297Y6493552D01*
X10049859Y6502613D01*
X10057926Y6514686D01*
X10064750Y6515489D01*
X10071574Y6514686D01*
X10079641Y6502613D01*
X10093203Y6493552D01*
X10094200Y6493353D01*
Y6532173D01*
Y6570992D01*
D02*
G37*
G36*
X10005300D02*
X10004303Y6570794D01*
X9990741Y6561732D01*
X9982674Y6549659D01*
X9975850Y6548856D01*
X9969026Y6549659D01*
X9960959Y6561732D01*
X9947397Y6570794D01*
X9946400Y6570992D01*
Y6532173D01*
Y6493353D01*
X9947397Y6493552D01*
X9960959Y6502613D01*
X9969026Y6514686D01*
X9975850Y6515489D01*
X9982674Y6514686D01*
X9990741Y6502613D01*
X10004303Y6493552D01*
X10005300Y6493353D01*
Y6532173D01*
Y6570992D01*
D02*
G37*
G36*
X9916400D02*
X9915403Y6570794D01*
X9901841Y6561732D01*
X9892779Y6548170D01*
X9892581Y6547173D01*
X9916400D01*
Y6570992D01*
D02*
G37*
G36*
X10213100Y6566619D02*
Y6542800D01*
X10236919D01*
X10236721Y6543797D01*
X10227659Y6557359D01*
X10214097Y6566421D01*
X10213100Y6566619D01*
D02*
G37*
G36*
X8677550Y6601586D02*
X8663894Y6598869D01*
X8652316Y6591134D01*
X8644581Y6579556D01*
X8641864Y6565900D01*
X8644581Y6552244D01*
X8652316Y6540666D01*
X8663894Y6532931D01*
X8677550Y6530214D01*
X8691206Y6532931D01*
X8702784Y6540666D01*
X8710519Y6552244D01*
X8713236Y6565900D01*
X8710519Y6579556D01*
X8702784Y6591134D01*
X8691206Y6598869D01*
X8677550Y6601586D01*
D02*
G37*
G36*
X7531100Y6563486D02*
X7517444Y6560769D01*
X7505866Y6553034D01*
X7498131Y6541456D01*
X7495414Y6527800D01*
X7495854Y6525589D01*
X7484424Y6517952D01*
X7481256Y6520069D01*
X7467600Y6522786D01*
X7453944Y6520069D01*
X7442366Y6512333D01*
X7434631Y6500756D01*
X7431914Y6487100D01*
X7434631Y6473443D01*
X7442366Y6461866D01*
X7453944Y6454131D01*
X7467600Y6451414D01*
X7481256Y6454131D01*
X7492834Y6461866D01*
X7500569Y6473443D01*
X7503286Y6487100D01*
X7502846Y6489310D01*
X7514276Y6496947D01*
X7517444Y6494831D01*
X7531100Y6492114D01*
X7534393Y6492769D01*
X7546214Y6487100D01*
X7548931Y6473443D01*
X7556666Y6461866D01*
X7568244Y6454131D01*
X7581900Y6451414D01*
X7595556Y6454131D01*
X7607134Y6461866D01*
X7614869Y6473443D01*
X7617586Y6487100D01*
X7614869Y6500756D01*
X7607134Y6512333D01*
X7595556Y6520069D01*
X7581900Y6522786D01*
X7578607Y6522130D01*
X7566786Y6527800D01*
X7564069Y6541456D01*
X7556334Y6553034D01*
X7544756Y6560769D01*
X7531100Y6563486D01*
D02*
G37*
G36*
X9916400Y6517173D02*
X9892581D01*
X9892779Y6516175D01*
X9901841Y6502613D01*
X9915403Y6493552D01*
X9916400Y6493353D01*
Y6517173D01*
D02*
G37*
G36*
X10236919Y6512800D02*
X10213100D01*
Y6488981D01*
X10214097Y6489179D01*
X10227659Y6498241D01*
X10236721Y6511803D01*
X10236919Y6512800D01*
D02*
G37*
G36*
X10124200Y6570992D02*
Y6532173D01*
Y6493353D01*
X10125197Y6493552D01*
X10138759Y6502613D01*
X10146156Y6513683D01*
X10156425Y6513320D01*
X10159372Y6512343D01*
X10159479Y6511803D01*
X10168541Y6498241D01*
X10182103Y6489179D01*
X10183100Y6488981D01*
Y6527800D01*
Y6566619D01*
X10182103Y6566421D01*
X10168541Y6557359D01*
X10161144Y6546289D01*
X10150875Y6546653D01*
X10147928Y6547630D01*
X10147821Y6548170D01*
X10138759Y6561732D01*
X10125197Y6570794D01*
X10124200Y6570992D01*
D02*
G37*
G36*
X9728200Y6512686D02*
X9714544Y6509969D01*
X9702966Y6502234D01*
X9695231Y6490656D01*
X9694302Y6485988D01*
X9680820Y6483306D01*
X9678272Y6487119D01*
X9666694Y6494855D01*
X9653038Y6497571D01*
X9639382Y6494855D01*
X9627804Y6487119D01*
X9620069Y6475542D01*
X9617352Y6461886D01*
X9620069Y6448229D01*
X9627804Y6436652D01*
X9639382Y6428917D01*
X9653038Y6426200D01*
X9666694Y6428917D01*
X9678272Y6436652D01*
X9686007Y6448229D01*
X9686936Y6452898D01*
X9700418Y6455580D01*
X9702966Y6451766D01*
X9714544Y6444031D01*
X9728200Y6441314D01*
X9741856Y6444031D01*
X9753434Y6451766D01*
X9761169Y6463344D01*
X9763886Y6477000D01*
X9761169Y6490656D01*
X9753434Y6502234D01*
X9741856Y6509969D01*
X9728200Y6512686D01*
D02*
G37*
G36*
X9244100Y6527107D02*
X9230444Y6524390D01*
X9218866Y6516655D01*
X9211131Y6505077D01*
X9208414Y6491421D01*
X9211131Y6477765D01*
X9218866Y6466187D01*
X9230444Y6458452D01*
X9244100Y6455735D01*
X9257756Y6458452D01*
X9269334Y6466187D01*
X9277069Y6477765D01*
X9279786Y6491421D01*
X9277069Y6505077D01*
X9269334Y6516655D01*
X9257756Y6524390D01*
X9244100Y6527107D01*
D02*
G37*
G36*
X8610600Y6522786D02*
X8596944Y6520069D01*
X8585366Y6512333D01*
X8577631Y6500756D01*
X8574914Y6487100D01*
X8577631Y6473443D01*
X8585366Y6461866D01*
X8596944Y6454131D01*
X8610600Y6451414D01*
X8624256Y6454131D01*
X8635834Y6461866D01*
X8643569Y6473443D01*
X8646286Y6487100D01*
X8643569Y6500756D01*
X8635834Y6512333D01*
X8624256Y6520069D01*
X8610600Y6522786D01*
D02*
G37*
G36*
X8348316Y6591956D02*
X8334659Y6589240D01*
X8323082Y6581504D01*
X8315347Y6569927D01*
X8312630Y6556270D01*
X8315347Y6542614D01*
X8319774Y6535988D01*
X8318173Y6524535D01*
X8315596Y6521121D01*
X8306335Y6514934D01*
X8298600Y6503356D01*
X8295883Y6489700D01*
X8298600Y6476044D01*
X8299910Y6474083D01*
X8298797Y6469949D01*
X8293288Y6461133D01*
X8282944Y6459075D01*
X8271366Y6451340D01*
X8264966Y6441760D01*
X8256795Y6441684D01*
X8251750Y6443101D01*
X8249869Y6452556D01*
X8242134Y6464134D01*
X8230556Y6471869D01*
X8216900Y6474586D01*
X8203244Y6471869D01*
X8191666Y6464134D01*
X8183931Y6452556D01*
X8181214Y6438900D01*
X8183931Y6425244D01*
X8191666Y6413666D01*
X8203244Y6405931D01*
X8216900Y6403214D01*
X8230556Y6405931D01*
X8242134Y6413666D01*
X8248534Y6423246D01*
X8256705Y6423323D01*
X8261750Y6421905D01*
X8263631Y6412450D01*
X8271366Y6400873D01*
X8282944Y6393137D01*
X8296600Y6390421D01*
X8310256Y6393137D01*
X8321834Y6400873D01*
X8329569Y6412450D01*
X8332286Y6426106D01*
X8329569Y6439763D01*
X8328259Y6441724D01*
X8329372Y6445858D01*
X8334881Y6454673D01*
X8345225Y6456731D01*
X8356802Y6464466D01*
X8364538Y6476044D01*
X8367255Y6489700D01*
X8364538Y6503356D01*
X8360111Y6509982D01*
X8361711Y6521436D01*
X8364289Y6524849D01*
X8373549Y6531037D01*
X8381285Y6542614D01*
X8384002Y6556270D01*
X8381285Y6569927D01*
X8373549Y6581504D01*
X8361972Y6589240D01*
X8348316Y6591956D01*
D02*
G37*
G36*
X9998500Y6449249D02*
X9997502Y6449051D01*
X9983941Y6439989D01*
X9980087Y6434222D01*
X9964813D01*
X9960959Y6439989D01*
X9947397Y6449051D01*
X9946400Y6449249D01*
Y6410430D01*
Y6371610D01*
X9947397Y6371809D01*
X9960959Y6380870D01*
X9964813Y6386638D01*
X9980087D01*
X9983941Y6380870D01*
X9997502Y6371809D01*
X9998500Y6371610D01*
Y6410430D01*
Y6449249D01*
D02*
G37*
G36*
X10081500D02*
X10080503Y6449051D01*
X10066941Y6439989D01*
X10062637Y6433548D01*
X10047363D01*
X10043059Y6439989D01*
X10029497Y6449051D01*
X10028500Y6449249D01*
Y6410430D01*
Y6371610D01*
X10029497Y6371809D01*
X10043059Y6380870D01*
X10047363Y6387311D01*
X10062637D01*
X10066941Y6380870D01*
X10080503Y6371809D01*
X10081500Y6371610D01*
Y6410430D01*
Y6449249D01*
D02*
G37*
G36*
X9916400D02*
X9915403Y6449051D01*
X9901841Y6439989D01*
X9893774Y6427916D01*
X9886950Y6427113D01*
X9880126Y6427916D01*
X9872059Y6439989D01*
X9858497Y6449051D01*
X9857500Y6449249D01*
Y6410430D01*
Y6371610D01*
X9858497Y6371809D01*
X9872059Y6380870D01*
X9880126Y6392944D01*
X9886950Y6393746D01*
X9893774Y6392944D01*
X9901841Y6380870D01*
X9915403Y6371809D01*
X9916400Y6371610D01*
Y6410430D01*
Y6449249D01*
D02*
G37*
G36*
X10111500D02*
Y6425430D01*
X10135319D01*
X10135121Y6426427D01*
X10126059Y6439989D01*
X10112497Y6449051D01*
X10111500Y6449249D01*
D02*
G37*
G36*
X9827500D02*
X9826503Y6449051D01*
X9812941Y6439989D01*
X9803879Y6426427D01*
X9803681Y6425430D01*
X9827500D01*
Y6449249D01*
D02*
G37*
G36*
X9004300Y6461792D02*
X8990644Y6459075D01*
X8979066Y6451340D01*
X8971331Y6439763D01*
X8968614Y6426106D01*
X8971331Y6412450D01*
X8979066Y6400873D01*
X8990644Y6393137D01*
X9004300Y6390421D01*
X9017956Y6393137D01*
X9029534Y6400873D01*
X9037269Y6412450D01*
X9039986Y6426106D01*
X9037269Y6439763D01*
X9029534Y6451340D01*
X9017956Y6459075D01*
X9004300Y6461792D01*
D02*
G37*
G36*
X9730500Y6414219D02*
Y6390400D01*
X9754319D01*
X9754121Y6391397D01*
X9745059Y6404959D01*
X9731497Y6414021D01*
X9730500Y6414219D01*
D02*
G37*
G36*
X9700500D02*
X9699503Y6414021D01*
X9685941Y6404959D01*
X9676879Y6391397D01*
X9676681Y6390400D01*
X9700500D01*
Y6414219D01*
D02*
G37*
G36*
X9279466Y6449186D02*
X9265810Y6446469D01*
X9254233Y6438734D01*
X9246497Y6427156D01*
X9243781Y6413500D01*
X9246497Y6399844D01*
X9254233Y6388266D01*
X9265810Y6380531D01*
X9279466Y6377814D01*
X9293123Y6380531D01*
X9304700Y6388266D01*
X9312436Y6399844D01*
X9315152Y6413500D01*
X9312436Y6427156D01*
X9304700Y6438734D01*
X9293123Y6446469D01*
X9279466Y6449186D01*
D02*
G37*
G36*
X10135319Y6395430D02*
X10111500D01*
Y6371610D01*
X10112497Y6371809D01*
X10126059Y6380870D01*
X10135121Y6394432D01*
X10135319Y6395430D01*
D02*
G37*
G36*
X9827500D02*
X9803681D01*
X9803879Y6394432D01*
X9812941Y6380870D01*
X9826503Y6371809D01*
X9827500Y6371610D01*
Y6395430D01*
D02*
G37*
G36*
X9598900Y6388819D02*
X9597903Y6388621D01*
X9584341Y6379559D01*
X9576274Y6367486D01*
X9569450Y6366683D01*
X9562626Y6367486D01*
X9554559Y6379559D01*
X9540997Y6388621D01*
X9540000Y6388819D01*
Y6350000D01*
Y6311181D01*
X9540997Y6311379D01*
X9554559Y6320441D01*
X9562626Y6332514D01*
X9569450Y6333317D01*
X9576274Y6332514D01*
X9584341Y6320441D01*
X9597903Y6311379D01*
X9598900Y6311181D01*
Y6350000D01*
Y6388819D01*
D02*
G37*
G36*
X9628900D02*
Y6365000D01*
X9652719D01*
X9652521Y6365997D01*
X9643459Y6379559D01*
X9629897Y6388621D01*
X9628900Y6388819D01*
D02*
G37*
G36*
X9510000D02*
X9509003Y6388621D01*
X9495441Y6379559D01*
X9486379Y6365997D01*
X9486181Y6365000D01*
X9510000D01*
Y6388819D01*
D02*
G37*
G36*
X8910800Y6411086D02*
X8897144Y6408369D01*
X8885566Y6400634D01*
X8877831Y6389056D01*
X8875114Y6375400D01*
X8877831Y6361744D01*
X8885566Y6350166D01*
X8897144Y6342431D01*
X8910800Y6339714D01*
X8924456Y6342431D01*
X8936034Y6350166D01*
X8943769Y6361744D01*
X8946486Y6375400D01*
X8943769Y6389056D01*
X8936034Y6400634D01*
X8924456Y6408369D01*
X8910800Y6411086D01*
D02*
G37*
G36*
X9754319Y6360400D02*
X9730500D01*
Y6336581D01*
X9731497Y6336779D01*
X9745059Y6345841D01*
X9754121Y6359403D01*
X9754319Y6360400D01*
D02*
G37*
G36*
X9700500D02*
X9676681D01*
X9676879Y6359403D01*
X9685941Y6345841D01*
X9699503Y6336779D01*
X9700500Y6336581D01*
Y6360400D01*
D02*
G37*
G36*
X8525150Y6461886D02*
X8511494Y6459169D01*
X8499916Y6451434D01*
X8492181Y6439856D01*
X8489464Y6426200D01*
X8492181Y6412544D01*
X8493563Y6410476D01*
X8487717Y6396364D01*
X8484225Y6395669D01*
X8472648Y6387934D01*
X8464912Y6376356D01*
X8462196Y6362700D01*
X8464912Y6349044D01*
X8472648Y6337466D01*
X8484225Y6329731D01*
X8497881Y6327014D01*
X8511538Y6329731D01*
X8523115Y6337466D01*
X8530851Y6349044D01*
X8533567Y6362700D01*
X8530851Y6376356D01*
X8529469Y6378424D01*
X8535314Y6392536D01*
X8538806Y6393231D01*
X8550384Y6400966D01*
X8558119Y6412544D01*
X8560836Y6426200D01*
X8558119Y6439856D01*
X8550384Y6451434D01*
X8538806Y6459169D01*
X8525150Y6461886D01*
D02*
G37*
G36*
X7645400Y6385686D02*
X7631744Y6382969D01*
X7620166Y6375234D01*
X7612431Y6363656D01*
X7609714Y6350000D01*
X7612431Y6336344D01*
X7620166Y6324766D01*
X7631744Y6317031D01*
X7645400Y6314314D01*
X7659056Y6317031D01*
X7670634Y6324766D01*
X7678369Y6336344D01*
X7681086Y6350000D01*
X7678369Y6363656D01*
X7670634Y6375234D01*
X7659056Y6382969D01*
X7645400Y6385686D01*
D02*
G37*
G36*
X9652719Y6335000D02*
X9628900D01*
Y6311181D01*
X9629897Y6311379D01*
X9643459Y6320441D01*
X9652521Y6334003D01*
X9652719Y6335000D01*
D02*
G37*
G36*
X9510000D02*
X9486181D01*
X9486379Y6334003D01*
X9495441Y6320441D01*
X9509003Y6311379D01*
X9510000Y6311181D01*
Y6335000D01*
D02*
G37*
G36*
X9730500Y6312619D02*
Y6288800D01*
X9754319D01*
X9754121Y6289797D01*
X9745059Y6303359D01*
X9731497Y6312421D01*
X9730500Y6312619D01*
D02*
G37*
G36*
X9700500D02*
X9699503Y6312421D01*
X9685941Y6303359D01*
X9676879Y6289797D01*
X9676681Y6288800D01*
X9700500D01*
Y6312619D01*
D02*
G37*
G36*
X10081500Y6252794D02*
X10080503Y6252595D01*
X10066941Y6243534D01*
X10062637Y6237093D01*
X10047363D01*
X10043059Y6243534D01*
X10029497Y6252595D01*
X10028500Y6252794D01*
Y6213974D01*
Y6175155D01*
X10029497Y6175353D01*
X10043059Y6184415D01*
X10047363Y6190856D01*
X10062637D01*
X10066941Y6184415D01*
X10080503Y6175353D01*
X10081500Y6175155D01*
Y6213974D01*
Y6252794D01*
D02*
G37*
G36*
X9754319Y6258800D02*
X9730500D01*
Y6234981D01*
X9731497Y6235179D01*
X9745059Y6244241D01*
X9754121Y6257803D01*
X9754319Y6258800D01*
D02*
G37*
G36*
X9700500D02*
X9676681D01*
X9676879Y6257803D01*
X9685941Y6244241D01*
X9699503Y6235179D01*
X9700500Y6234981D01*
Y6258800D01*
D02*
G37*
G36*
X10111500Y6252794D02*
Y6228974D01*
X10135319D01*
X10135121Y6229972D01*
X10126059Y6243534D01*
X10112497Y6252595D01*
X10111500Y6252794D01*
D02*
G37*
G36*
X9998500D02*
X9997502Y6252595D01*
X9983941Y6243534D01*
X9974879Y6229972D01*
X9974681Y6228974D01*
X9998500D01*
Y6252794D01*
D02*
G37*
G36*
X7638096Y6296786D02*
X7624439Y6294069D01*
X7612862Y6286334D01*
X7605127Y6274756D01*
X7602410Y6261100D01*
X7605127Y6247444D01*
X7612862Y6235866D01*
X7624439Y6228131D01*
X7638096Y6225414D01*
X7651752Y6228131D01*
X7663329Y6235866D01*
X7671065Y6247444D01*
X7673781Y6261100D01*
X7671065Y6274756D01*
X7663329Y6286334D01*
X7651752Y6294069D01*
X7638096Y6296786D01*
D02*
G37*
G36*
X10210800Y6295829D02*
X10197144Y6293113D01*
X10185566Y6285377D01*
X10177831Y6273800D01*
X10175114Y6260144D01*
X10177831Y6246487D01*
X10185566Y6234910D01*
X10197144Y6227174D01*
X10210800Y6224458D01*
X10224456Y6227174D01*
X10236034Y6234910D01*
X10243769Y6246487D01*
X10246486Y6260144D01*
X10243769Y6273800D01*
X10236034Y6285377D01*
X10224456Y6293113D01*
X10210800Y6295829D01*
D02*
G37*
G36*
X8864600Y6273149D02*
X8850944Y6270433D01*
X8839366Y6262697D01*
X8831631Y6251120D01*
X8828914Y6237464D01*
X8831631Y6223807D01*
X8839366Y6212230D01*
X8850944Y6204494D01*
X8864600Y6201778D01*
X8878256Y6204494D01*
X8889834Y6212230D01*
X8897569Y6223807D01*
X8900286Y6237464D01*
X8897569Y6251120D01*
X8889834Y6262697D01*
X8878256Y6270433D01*
X8864600Y6273149D01*
D02*
G37*
G36*
X7886700Y6309486D02*
X7873044Y6306769D01*
X7861466Y6299034D01*
X7853731Y6287456D01*
X7851014Y6273800D01*
X7853731Y6260144D01*
X7861466Y6248566D01*
X7873044Y6240831D01*
X7874367Y6240568D01*
X7880212Y6226456D01*
X7879131Y6224838D01*
X7876414Y6211182D01*
X7879131Y6197525D01*
X7886866Y6185948D01*
X7898444Y6178212D01*
X7912100Y6175496D01*
X7925756Y6178212D01*
X7937334Y6185948D01*
X7945069Y6197525D01*
X7947786Y6211182D01*
X7945069Y6224838D01*
X7937334Y6236415D01*
X7925756Y6244151D01*
X7924433Y6244414D01*
X7918588Y6258526D01*
X7919669Y6260144D01*
X7922386Y6273800D01*
X7919669Y6287456D01*
X7911934Y6299034D01*
X7900356Y6306769D01*
X7886700Y6309486D01*
D02*
G37*
G36*
X10135319Y6198974D02*
X10111500D01*
Y6175155D01*
X10112497Y6175353D01*
X10126059Y6184415D01*
X10135121Y6197977D01*
X10135319Y6198974D01*
D02*
G37*
G36*
X9998500D02*
X9974681D01*
X9974879Y6197977D01*
X9983941Y6184415D01*
X9997502Y6175353D01*
X9998500Y6175155D01*
Y6198974D01*
D02*
G37*
G36*
X9760019Y6157086D02*
X9746363Y6154369D01*
X9734785Y6146634D01*
X9727050Y6135056D01*
X9724333Y6121400D01*
X9727050Y6107744D01*
X9727386Y6107241D01*
X9719749Y6095811D01*
X9715500Y6096656D01*
X9701844Y6093940D01*
X9690266Y6086204D01*
X9682531Y6074627D01*
X9679814Y6060970D01*
X9682531Y6047314D01*
X9690266Y6035737D01*
X9701844Y6028001D01*
X9702807Y6027810D01*
Y6014861D01*
X9701844Y6014669D01*
X9690266Y6006934D01*
X9682531Y5995356D01*
X9679814Y5981700D01*
X9682531Y5968044D01*
X9690266Y5956466D01*
X9701844Y5948731D01*
X9715500Y5946014D01*
X9729156Y5948731D01*
X9740734Y5956466D01*
X9748469Y5968044D01*
X9751186Y5981700D01*
X9748469Y5995356D01*
X9740734Y6006934D01*
X9729156Y6014669D01*
X9728193Y6014861D01*
Y6027810D01*
X9729156Y6028001D01*
X9740734Y6035737D01*
X9748469Y6047314D01*
X9751186Y6060970D01*
X9748469Y6074627D01*
X9748133Y6075130D01*
X9755770Y6086559D01*
X9760019Y6085714D01*
X9773675Y6088431D01*
X9785253Y6096166D01*
X9792988Y6107744D01*
X9795705Y6121400D01*
X9792988Y6135056D01*
X9785253Y6146634D01*
X9773675Y6154369D01*
X9760019Y6157086D01*
D02*
G37*
G36*
X8724900D02*
X8711244Y6154369D01*
X8699666Y6146634D01*
X8691931Y6135056D01*
X8689214Y6121400D01*
X8691931Y6107744D01*
X8699666Y6096166D01*
X8711244Y6088431D01*
X8724900Y6085714D01*
X8738556Y6088431D01*
X8750134Y6096166D01*
X8757869Y6107744D01*
X8760586Y6121400D01*
X8757869Y6135056D01*
X8750134Y6146634D01*
X8738556Y6154369D01*
X8724900Y6157086D01*
D02*
G37*
G36*
X8820406Y6131686D02*
X8806750Y6128969D01*
X8795173Y6121234D01*
X8787437Y6109656D01*
X8784721Y6096000D01*
X8787437Y6082344D01*
X8795173Y6070766D01*
X8806750Y6063031D01*
X8820406Y6060314D01*
X8834063Y6063031D01*
X8845640Y6070766D01*
X8853375Y6082344D01*
X8856092Y6096000D01*
X8853375Y6109656D01*
X8845640Y6121234D01*
X8834063Y6128969D01*
X8820406Y6131686D01*
D02*
G37*
G36*
X9374100Y6118986D02*
X9360444Y6116269D01*
X9348866Y6108534D01*
X9341131Y6096956D01*
X9338414Y6083300D01*
X9341131Y6069644D01*
X9348866Y6058066D01*
X9360444Y6050331D01*
X9374100Y6047614D01*
X9387756Y6050331D01*
X9399334Y6058066D01*
X9407069Y6069644D01*
X9409786Y6083300D01*
X9407069Y6096956D01*
X9399334Y6108534D01*
X9387756Y6116269D01*
X9374100Y6118986D01*
D02*
G37*
G36*
X8016000Y6045919D02*
Y6022100D01*
X8039819D01*
X8039621Y6023097D01*
X8030559Y6036659D01*
X8016997Y6045721D01*
X8016000Y6045919D01*
D02*
G37*
G36*
X7986000D02*
X7985003Y6045721D01*
X7971441Y6036659D01*
X7962379Y6023097D01*
X7962181Y6022100D01*
X7986000D01*
Y6045919D01*
D02*
G37*
G36*
X9459407Y6157086D02*
X9445751Y6154369D01*
X9434173Y6146634D01*
X9426438Y6135056D01*
X9423721Y6121400D01*
X9426438Y6107744D01*
X9434173Y6096166D01*
X9442870Y6090356D01*
X9443788Y6086470D01*
Y6080130D01*
X9442870Y6076244D01*
X9434173Y6070434D01*
X9426438Y6058856D01*
X9423721Y6045200D01*
X9426438Y6031544D01*
X9434173Y6019966D01*
X9445751Y6012231D01*
X9459407Y6009514D01*
X9473063Y6012231D01*
X9484641Y6019966D01*
X9492376Y6031544D01*
X9495093Y6045200D01*
X9492376Y6058856D01*
X9484641Y6070434D01*
X9475944Y6076244D01*
X9475026Y6080130D01*
Y6086470D01*
X9475944Y6090356D01*
X9484641Y6096166D01*
X9492376Y6107744D01*
X9495093Y6121400D01*
X9492376Y6135056D01*
X9484641Y6146634D01*
X9473063Y6154369D01*
X9459407Y6157086D01*
D02*
G37*
G36*
X8284216Y6068186D02*
X8270560Y6065469D01*
X8258982Y6057734D01*
X8251247Y6046156D01*
X8248530Y6032500D01*
X8251247Y6018844D01*
X8258982Y6007266D01*
X8270560Y5999531D01*
X8284216Y5996814D01*
X8297872Y5999531D01*
X8309449Y6007266D01*
X8317185Y6018844D01*
X8319902Y6032500D01*
X8317185Y6046156D01*
X8309449Y6057734D01*
X8297872Y6065469D01*
X8284216Y6068186D01*
D02*
G37*
G36*
X8039819Y5992100D02*
X8016000D01*
Y5968281D01*
X8016997Y5968479D01*
X8030559Y5977541D01*
X8039621Y5991103D01*
X8039819Y5992100D01*
D02*
G37*
G36*
X7986000D02*
X7962181D01*
X7962379Y5991103D01*
X7971441Y5977541D01*
X7985003Y5968479D01*
X7986000Y5968281D01*
Y5992100D01*
D02*
G37*
G36*
X7848600Y6030086D02*
X7834944Y6027369D01*
X7823366Y6019634D01*
X7815631Y6008056D01*
X7812914Y5994400D01*
X7815631Y5980744D01*
X7823366Y5969166D01*
X7834944Y5961431D01*
X7848600Y5958714D01*
X7862256Y5961431D01*
X7873834Y5969166D01*
X7881569Y5980744D01*
X7884286Y5994400D01*
X7881569Y6008056D01*
X7873834Y6019634D01*
X7862256Y6027369D01*
X7848600Y6030086D01*
D02*
G37*
G36*
X7635000Y5692940D02*
Y5603000D01*
X7724940D01*
X7723271Y5615672D01*
X7712591Y5641457D01*
X7695600Y5663600D01*
X7673457Y5680591D01*
X7647672Y5691271D01*
X7635000Y5692940D01*
D02*
G37*
G36*
X7381000D02*
Y5603000D01*
X7470940D01*
X7469271Y5615672D01*
X7458591Y5641457D01*
X7441600Y5663600D01*
X7419457Y5680591D01*
X7393672Y5691271D01*
X7381000Y5692940D01*
D02*
G37*
G36*
X7127000D02*
Y5603000D01*
X7216940D01*
X7215271Y5615672D01*
X7204591Y5641457D01*
X7187600Y5663600D01*
X7165457Y5680591D01*
X7139672Y5691271D01*
X7127000Y5692940D01*
D02*
G37*
G36*
X7605000D02*
X7592328Y5691271D01*
X7566543Y5680591D01*
X7544400Y5663600D01*
X7527409Y5641457D01*
X7516729Y5615672D01*
X7515060Y5603000D01*
X7605000D01*
Y5692940D01*
D02*
G37*
G36*
X7351000D02*
X7338328Y5691271D01*
X7312543Y5680591D01*
X7290400Y5663600D01*
X7273409Y5641457D01*
X7262729Y5615672D01*
X7261060Y5603000D01*
X7351000D01*
Y5692940D01*
D02*
G37*
G36*
X7097000D02*
X7084328Y5691271D01*
X7058543Y5680591D01*
X7036400Y5663600D01*
X7019409Y5641457D01*
X7008729Y5615672D01*
X7007060Y5603000D01*
X7097000D01*
Y5692940D01*
D02*
G37*
G36*
X9906000Y5688863D02*
X9879895Y5685426D01*
X9855569Y5675350D01*
X9834679Y5659321D01*
X9818650Y5638431D01*
X9808574Y5614105D01*
X9805137Y5588000D01*
X9808544Y5562128D01*
X9808019Y5561460D01*
X9798194Y5553769D01*
X9792656Y5557469D01*
X9779000Y5560186D01*
X9765344Y5557469D01*
X9759806Y5553769D01*
X9749981Y5561460D01*
X9749456Y5562128D01*
X9752863Y5588000D01*
X9749426Y5614105D01*
X9739350Y5638431D01*
X9723321Y5659321D01*
X9702431Y5675350D01*
X9678105Y5685426D01*
X9652000Y5688863D01*
X9625895Y5685426D01*
X9601569Y5675350D01*
X9580679Y5659321D01*
X9564650Y5638431D01*
X9554574Y5614105D01*
X9551137Y5588000D01*
X9554574Y5561895D01*
X9564650Y5537569D01*
X9580679Y5516679D01*
X9601569Y5500650D01*
X9625895Y5490574D01*
X9652000Y5487137D01*
X9678105Y5490574D01*
X9702431Y5500650D01*
X9723321Y5516679D01*
X9730933Y5526600D01*
X9737334Y5525514D01*
X9743729Y5522414D01*
X9746031Y5510844D01*
X9753766Y5499266D01*
X9765344Y5491531D01*
X9779000Y5488814D01*
X9792656Y5491531D01*
X9804234Y5499266D01*
X9811969Y5510844D01*
X9814271Y5522414D01*
X9820666Y5525514D01*
X9827067Y5526600D01*
X9834679Y5516679D01*
X9855569Y5500650D01*
X9879895Y5490574D01*
X9906000Y5487137D01*
X9932105Y5490574D01*
X9956431Y5500650D01*
X9977321Y5516679D01*
X9993350Y5537569D01*
X10003426Y5561895D01*
X10006863Y5588000D01*
X10003426Y5614105D01*
X9993350Y5638431D01*
X9977321Y5659321D01*
X9956431Y5675350D01*
X9932105Y5685426D01*
X9906000Y5688863D01*
D02*
G37*
G36*
X10160000D02*
X10133895Y5685426D01*
X10109569Y5675350D01*
X10088679Y5659321D01*
X10072650Y5638431D01*
X10062574Y5614105D01*
X10059137Y5588000D01*
X10062574Y5561895D01*
X10072650Y5537569D01*
X10088679Y5516679D01*
X10109569Y5500650D01*
X10133895Y5490574D01*
X10160000Y5487137D01*
X10186105Y5490574D01*
X10210431Y5500650D01*
X10231321Y5516679D01*
X10247350Y5537569D01*
X10257426Y5561895D01*
X10260863Y5588000D01*
X10257426Y5614105D01*
X10247350Y5638431D01*
X10231321Y5659321D01*
X10210431Y5675350D01*
X10186105Y5685426D01*
X10160000Y5688863D01*
D02*
G37*
G36*
X9398000D02*
X9371895Y5685426D01*
X9347569Y5675350D01*
X9326679Y5659321D01*
X9310650Y5638431D01*
X9300574Y5614105D01*
X9297137Y5588000D01*
X9300574Y5561895D01*
X9310650Y5537569D01*
X9326679Y5516679D01*
X9347569Y5500650D01*
X9371895Y5490574D01*
X9398000Y5487137D01*
X9424105Y5490574D01*
X9448431Y5500650D01*
X9469321Y5516679D01*
X9485350Y5537569D01*
X9495426Y5561895D01*
X9498863Y5588000D01*
X9495426Y5614105D01*
X9485350Y5638431D01*
X9469321Y5659321D01*
X9448431Y5675350D01*
X9424105Y5685426D01*
X9398000Y5688863D01*
D02*
G37*
G36*
X9144000D02*
X9117895Y5685426D01*
X9093569Y5675350D01*
X9072679Y5659321D01*
X9056650Y5638431D01*
X9046574Y5614105D01*
X9043137Y5588000D01*
X9046574Y5561895D01*
X9056650Y5537569D01*
X9072679Y5516679D01*
X9093569Y5500650D01*
X9117895Y5490574D01*
X9144000Y5487137D01*
X9170105Y5490574D01*
X9194431Y5500650D01*
X9215321Y5516679D01*
X9231350Y5537569D01*
X9241426Y5561895D01*
X9244863Y5588000D01*
X9241426Y5614105D01*
X9231350Y5638431D01*
X9215321Y5659321D01*
X9194431Y5675350D01*
X9170105Y5685426D01*
X9144000Y5688863D01*
D02*
G37*
G36*
X8788400Y5724329D02*
X8774744Y5721613D01*
X8763166Y5713877D01*
X8755431Y5702300D01*
X8752714Y5688644D01*
X8755431Y5674987D01*
X8763166Y5663410D01*
X8774744Y5655674D01*
X8788400Y5652958D01*
X8799480Y5655162D01*
X8805755Y5648339D01*
X8807539Y5644802D01*
X8802650Y5638431D01*
X8792574Y5614105D01*
X8789137Y5588000D01*
X8792574Y5561895D01*
X8802650Y5537569D01*
X8818679Y5516679D01*
X8839569Y5500650D01*
X8863895Y5490574D01*
X8890000Y5487137D01*
X8916105Y5490574D01*
X8940431Y5500650D01*
X8961321Y5516679D01*
X8977350Y5537569D01*
X8987426Y5561895D01*
X8990863Y5588000D01*
X8987426Y5614105D01*
X8977350Y5638431D01*
X8961321Y5659321D01*
X8940431Y5675350D01*
X8916105Y5685426D01*
X8890000Y5688863D01*
X8863895Y5685426D01*
X8839569Y5675350D01*
X8832294Y5669768D01*
X8829743Y5670987D01*
X8821934Y5677826D01*
X8824086Y5688644D01*
X8821369Y5702300D01*
X8813634Y5713877D01*
X8802056Y5721613D01*
X8788400Y5724329D01*
D02*
G37*
G36*
X8636000Y5688863D02*
X8609895Y5685426D01*
X8585569Y5675350D01*
X8564679Y5659321D01*
X8548650Y5638431D01*
X8538574Y5614105D01*
X8535137Y5588000D01*
X8538574Y5561895D01*
X8548650Y5537569D01*
X8564679Y5516679D01*
X8585569Y5500650D01*
X8609895Y5490574D01*
X8636000Y5487137D01*
X8662105Y5490574D01*
X8686431Y5500650D01*
X8707321Y5516679D01*
X8723350Y5537569D01*
X8733426Y5561895D01*
X8736863Y5588000D01*
X8733426Y5614105D01*
X8723350Y5638431D01*
X8707321Y5659321D01*
X8686431Y5675350D01*
X8662105Y5685426D01*
X8636000Y5688863D01*
D02*
G37*
G36*
X8382000D02*
X8355895Y5685426D01*
X8331569Y5675350D01*
X8310679Y5659321D01*
X8294650Y5638431D01*
X8284574Y5614105D01*
X8281137Y5588000D01*
X8284574Y5561895D01*
X8294650Y5537569D01*
X8310679Y5516679D01*
X8331569Y5500650D01*
X8355895Y5490574D01*
X8382000Y5487137D01*
X8408105Y5490574D01*
X8432431Y5500650D01*
X8453321Y5516679D01*
X8469350Y5537569D01*
X8479426Y5561895D01*
X8482863Y5588000D01*
X8479426Y5614105D01*
X8469350Y5638431D01*
X8453321Y5659321D01*
X8432431Y5675350D01*
X8408105Y5685426D01*
X8382000Y5688863D01*
D02*
G37*
G36*
X8128000D02*
X8101895Y5685426D01*
X8077569Y5675350D01*
X8056679Y5659321D01*
X8040650Y5638431D01*
X8030574Y5614105D01*
X8027137Y5588000D01*
X8030574Y5561895D01*
X8040650Y5537569D01*
X8056679Y5516679D01*
X8077569Y5500650D01*
X8101895Y5490574D01*
X8128000Y5487137D01*
X8154105Y5490574D01*
X8178431Y5500650D01*
X8199321Y5516679D01*
X8215350Y5537569D01*
X8225426Y5561895D01*
X8228863Y5588000D01*
X8225426Y5614105D01*
X8215350Y5638431D01*
X8199321Y5659321D01*
X8178431Y5675350D01*
X8154105Y5685426D01*
X8128000Y5688863D01*
D02*
G37*
G36*
X7874000D02*
X7847895Y5685426D01*
X7823569Y5675350D01*
X7802679Y5659321D01*
X7786650Y5638431D01*
X7776574Y5614105D01*
X7773137Y5588000D01*
X7776574Y5561895D01*
X7786650Y5537569D01*
X7802679Y5516679D01*
X7823569Y5500650D01*
X7847895Y5490574D01*
X7874000Y5487137D01*
X7900105Y5490574D01*
X7924431Y5500650D01*
X7945321Y5516679D01*
X7961350Y5537569D01*
X7971426Y5561895D01*
X7974863Y5588000D01*
X7971426Y5614105D01*
X7961350Y5638431D01*
X7945321Y5659321D01*
X7924431Y5675350D01*
X7900105Y5685426D01*
X7874000Y5688863D01*
D02*
G37*
G36*
X6858000D02*
X6831895Y5685426D01*
X6807569Y5675350D01*
X6786679Y5659321D01*
X6770650Y5638431D01*
X6760574Y5614105D01*
X6757137Y5588000D01*
X6760574Y5561895D01*
X6770650Y5537569D01*
X6786679Y5516679D01*
X6807569Y5500650D01*
X6831895Y5490574D01*
X6858000Y5487137D01*
X6884105Y5490574D01*
X6908431Y5500650D01*
X6929321Y5516679D01*
X6945350Y5537569D01*
X6955426Y5561895D01*
X6958863Y5588000D01*
X6955426Y5614105D01*
X6945350Y5638431D01*
X6929321Y5659321D01*
X6908431Y5675350D01*
X6884105Y5685426D01*
X6858000Y5688863D01*
D02*
G37*
G36*
X6604000D02*
X6577895Y5685426D01*
X6553569Y5675350D01*
X6532679Y5659321D01*
X6516650Y5638431D01*
X6506574Y5614105D01*
X6503137Y5588000D01*
X6506574Y5561895D01*
X6516650Y5537569D01*
X6532679Y5516679D01*
X6553569Y5500650D01*
X6577895Y5490574D01*
X6604000Y5487137D01*
X6630105Y5490574D01*
X6654431Y5500650D01*
X6675321Y5516679D01*
X6691350Y5537569D01*
X6701426Y5561895D01*
X6704863Y5588000D01*
X6701426Y5614105D01*
X6691350Y5638431D01*
X6675321Y5659321D01*
X6654431Y5675350D01*
X6630105Y5685426D01*
X6604000Y5688863D01*
D02*
G37*
G36*
X6350000D02*
X6323895Y5685426D01*
X6299569Y5675350D01*
X6278679Y5659321D01*
X6262650Y5638431D01*
X6252574Y5614105D01*
X6249137Y5588000D01*
X6252574Y5561895D01*
X6262650Y5537569D01*
X6278679Y5516679D01*
X6299569Y5500650D01*
X6323895Y5490574D01*
X6350000Y5487137D01*
X6376105Y5490574D01*
X6400431Y5500650D01*
X6421321Y5516679D01*
X6437350Y5537569D01*
X6447426Y5561895D01*
X6450863Y5588000D01*
X6447426Y5614105D01*
X6437350Y5638431D01*
X6421321Y5659321D01*
X6400431Y5675350D01*
X6376105Y5685426D01*
X6350000Y5688863D01*
D02*
G37*
G36*
X7724940Y5573000D02*
X7635000D01*
Y5483060D01*
X7647672Y5484729D01*
X7673457Y5495409D01*
X7695600Y5512400D01*
X7712591Y5534543D01*
X7723271Y5560328D01*
X7724940Y5573000D01*
D02*
G37*
G36*
X7470940D02*
X7381000D01*
Y5483060D01*
X7393672Y5484729D01*
X7419457Y5495409D01*
X7441600Y5512400D01*
X7458591Y5534543D01*
X7469271Y5560328D01*
X7470940Y5573000D01*
D02*
G37*
G36*
X7216940D02*
X7127000D01*
Y5483060D01*
X7139672Y5484729D01*
X7165457Y5495409D01*
X7187600Y5512400D01*
X7204591Y5534543D01*
X7215271Y5560328D01*
X7216940Y5573000D01*
D02*
G37*
G36*
X7605000D02*
X7515060D01*
X7516729Y5560328D01*
X7527409Y5534543D01*
X7544400Y5512400D01*
X7566543Y5495409D01*
X7592328Y5484729D01*
X7605000Y5483060D01*
Y5573000D01*
D02*
G37*
G36*
X7351000D02*
X7261060D01*
X7262729Y5560328D01*
X7273409Y5534543D01*
X7290400Y5512400D01*
X7312543Y5495409D01*
X7338328Y5484729D01*
X7351000Y5483060D01*
Y5573000D01*
D02*
G37*
G36*
X7097000D02*
X7007060D01*
X7008729Y5560328D01*
X7019409Y5534543D01*
X7036400Y5512400D01*
X7058543Y5495409D01*
X7084328Y5484729D01*
X7097000Y5483060D01*
Y5573000D01*
D02*
G37*
G36*
X7381000Y5184940D02*
Y5095000D01*
X7470940D01*
X7469271Y5107672D01*
X7458591Y5133457D01*
X7441600Y5155600D01*
X7419457Y5172591D01*
X7393672Y5183271D01*
X7381000Y5184940D01*
D02*
G37*
G36*
X7127000D02*
Y5095000D01*
X7216940D01*
X7215271Y5107672D01*
X7204591Y5133457D01*
X7187600Y5155600D01*
X7165457Y5172591D01*
X7139672Y5183271D01*
X7127000Y5184940D01*
D02*
G37*
G36*
X7351000D02*
X7338328Y5183271D01*
X7312543Y5172591D01*
X7290400Y5155600D01*
X7273409Y5133457D01*
X7262729Y5107672D01*
X7261060Y5095000D01*
X7351000D01*
Y5184940D01*
D02*
G37*
G36*
X7097000D02*
X7084328Y5183271D01*
X7058543Y5172591D01*
X7036400Y5155600D01*
X7019409Y5133457D01*
X7008729Y5107672D01*
X7007060Y5095000D01*
X7097000D01*
Y5184940D01*
D02*
G37*
G36*
X10160000Y5180863D02*
X10133895Y5177426D01*
X10109569Y5167350D01*
X10088679Y5151321D01*
X10072650Y5130431D01*
X10062574Y5106105D01*
X10059137Y5080000D01*
X10062574Y5053895D01*
X10072650Y5029569D01*
X10088679Y5008679D01*
X10109569Y4992650D01*
X10133895Y4982574D01*
X10160000Y4979137D01*
X10186105Y4982574D01*
X10210431Y4992650D01*
X10231321Y5008679D01*
X10247350Y5029569D01*
X10257426Y5053895D01*
X10260863Y5080000D01*
X10257426Y5106105D01*
X10247350Y5130431D01*
X10231321Y5151321D01*
X10210431Y5167350D01*
X10186105Y5177426D01*
X10160000Y5180863D01*
D02*
G37*
G36*
X9906000D02*
X9879895Y5177426D01*
X9855569Y5167350D01*
X9834679Y5151321D01*
X9818650Y5130431D01*
X9808574Y5106105D01*
X9805137Y5080000D01*
X9808574Y5053895D01*
X9818650Y5029569D01*
X9834679Y5008679D01*
X9855569Y4992650D01*
X9879895Y4982574D01*
X9906000Y4979137D01*
X9932105Y4982574D01*
X9956431Y4992650D01*
X9977321Y5008679D01*
X9993350Y5029569D01*
X10003426Y5053895D01*
X10006863Y5080000D01*
X10003426Y5106105D01*
X9993350Y5130431D01*
X9977321Y5151321D01*
X9956431Y5167350D01*
X9932105Y5177426D01*
X9906000Y5180863D01*
D02*
G37*
G36*
X9652000D02*
X9625895Y5177426D01*
X9601569Y5167350D01*
X9580679Y5151321D01*
X9564650Y5130431D01*
X9554574Y5106105D01*
X9551137Y5080000D01*
X9554574Y5053895D01*
X9564650Y5029569D01*
X9580679Y5008679D01*
X9601569Y4992650D01*
X9625895Y4982574D01*
X9652000Y4979137D01*
X9678105Y4982574D01*
X9702431Y4992650D01*
X9723321Y5008679D01*
X9739350Y5029569D01*
X9749426Y5053895D01*
X9752863Y5080000D01*
X9749426Y5106105D01*
X9739350Y5130431D01*
X9723321Y5151321D01*
X9702431Y5167350D01*
X9678105Y5177426D01*
X9652000Y5180863D01*
D02*
G37*
G36*
X9398000D02*
X9371895Y5177426D01*
X9347569Y5167350D01*
X9326679Y5151321D01*
X9310650Y5130431D01*
X9300574Y5106105D01*
X9297137Y5080000D01*
X9300574Y5053895D01*
X9310650Y5029569D01*
X9326679Y5008679D01*
X9347569Y4992650D01*
X9371895Y4982574D01*
X9398000Y4979137D01*
X9424105Y4982574D01*
X9448431Y4992650D01*
X9469321Y5008679D01*
X9485350Y5029569D01*
X9495426Y5053895D01*
X9498863Y5080000D01*
X9495426Y5106105D01*
X9485350Y5130431D01*
X9469321Y5151321D01*
X9448431Y5167350D01*
X9424105Y5177426D01*
X9398000Y5180863D01*
D02*
G37*
G36*
X9144000D02*
X9117895Y5177426D01*
X9093569Y5167350D01*
X9072679Y5151321D01*
X9056650Y5130431D01*
X9046574Y5106105D01*
X9043137Y5080000D01*
X9046574Y5053895D01*
X9056650Y5029569D01*
X9072679Y5008679D01*
X9093569Y4992650D01*
X9117895Y4982574D01*
X9144000Y4979137D01*
X9170105Y4982574D01*
X9194431Y4992650D01*
X9215321Y5008679D01*
X9231350Y5029569D01*
X9241426Y5053895D01*
X9244863Y5080000D01*
X9241426Y5106105D01*
X9231350Y5130431D01*
X9215321Y5151321D01*
X9194431Y5167350D01*
X9170105Y5177426D01*
X9144000Y5180863D01*
D02*
G37*
G36*
X8890000D02*
X8863895Y5177426D01*
X8839569Y5167350D01*
X8818679Y5151321D01*
X8802650Y5130431D01*
X8792574Y5106105D01*
X8789137Y5080000D01*
X8792574Y5053895D01*
X8802650Y5029569D01*
X8818679Y5008679D01*
X8839569Y4992650D01*
X8863895Y4982574D01*
X8890000Y4979137D01*
X8916105Y4982574D01*
X8940431Y4992650D01*
X8961321Y5008679D01*
X8977350Y5029569D01*
X8987426Y5053895D01*
X8990863Y5080000D01*
X8987426Y5106105D01*
X8977350Y5130431D01*
X8961321Y5151321D01*
X8940431Y5167350D01*
X8916105Y5177426D01*
X8890000Y5180863D01*
D02*
G37*
G36*
X8636000D02*
X8609895Y5177426D01*
X8585569Y5167350D01*
X8564679Y5151321D01*
X8548650Y5130431D01*
X8538574Y5106105D01*
X8535137Y5080000D01*
X8538574Y5053895D01*
X8548650Y5029569D01*
X8564679Y5008679D01*
X8585569Y4992650D01*
X8609895Y4982574D01*
X8636000Y4979137D01*
X8662105Y4982574D01*
X8686431Y4992650D01*
X8707321Y5008679D01*
X8723350Y5029569D01*
X8733426Y5053895D01*
X8736863Y5080000D01*
X8733426Y5106105D01*
X8723350Y5130431D01*
X8707321Y5151321D01*
X8686431Y5167350D01*
X8662105Y5177426D01*
X8636000Y5180863D01*
D02*
G37*
G36*
X8382000D02*
X8355895Y5177426D01*
X8331569Y5167350D01*
X8310679Y5151321D01*
X8294650Y5130431D01*
X8284574Y5106105D01*
X8281137Y5080000D01*
X8284574Y5053895D01*
X8294650Y5029569D01*
X8310679Y5008679D01*
X8331569Y4992650D01*
X8355895Y4982574D01*
X8382000Y4979137D01*
X8408105Y4982574D01*
X8432431Y4992650D01*
X8453321Y5008679D01*
X8469350Y5029569D01*
X8479426Y5053895D01*
X8482863Y5080000D01*
X8479426Y5106105D01*
X8469350Y5130431D01*
X8453321Y5151321D01*
X8432431Y5167350D01*
X8408105Y5177426D01*
X8382000Y5180863D01*
D02*
G37*
G36*
X8128000D02*
X8101895Y5177426D01*
X8077569Y5167350D01*
X8056679Y5151321D01*
X8040650Y5130431D01*
X8030574Y5106105D01*
X8027137Y5080000D01*
X8030574Y5053895D01*
X8040650Y5029569D01*
X8056679Y5008679D01*
X8077569Y4992650D01*
X8101895Y4982574D01*
X8128000Y4979137D01*
X8154105Y4982574D01*
X8178431Y4992650D01*
X8199321Y5008679D01*
X8215350Y5029569D01*
X8225426Y5053895D01*
X8228863Y5080000D01*
X8225426Y5106105D01*
X8215350Y5130431D01*
X8199321Y5151321D01*
X8178431Y5167350D01*
X8154105Y5177426D01*
X8128000Y5180863D01*
D02*
G37*
G36*
X7874000D02*
X7847895Y5177426D01*
X7823569Y5167350D01*
X7802679Y5151321D01*
X7786650Y5130431D01*
X7776574Y5106105D01*
X7773137Y5080000D01*
X7776574Y5053895D01*
X7786650Y5029569D01*
X7802679Y5008679D01*
X7823569Y4992650D01*
X7847895Y4982574D01*
X7874000Y4979137D01*
X7900105Y4982574D01*
X7924431Y4992650D01*
X7945321Y5008679D01*
X7961350Y5029569D01*
X7971426Y5053895D01*
X7974863Y5080000D01*
X7971426Y5106105D01*
X7961350Y5130431D01*
X7945321Y5151321D01*
X7924431Y5167350D01*
X7900105Y5177426D01*
X7874000Y5180863D01*
D02*
G37*
G36*
X7620000D02*
X7593895Y5177426D01*
X7569569Y5167350D01*
X7548679Y5151321D01*
X7532650Y5130431D01*
X7522574Y5106105D01*
X7519137Y5080000D01*
X7522574Y5053895D01*
X7532650Y5029569D01*
X7548679Y5008679D01*
X7569569Y4992650D01*
X7593895Y4982574D01*
X7620000Y4979137D01*
X7646105Y4982574D01*
X7670431Y4992650D01*
X7691321Y5008679D01*
X7707350Y5029569D01*
X7717426Y5053895D01*
X7720863Y5080000D01*
X7717426Y5106105D01*
X7707350Y5130431D01*
X7691321Y5151321D01*
X7670431Y5167350D01*
X7646105Y5177426D01*
X7620000Y5180863D01*
D02*
G37*
G36*
X6858000D02*
X6831895Y5177426D01*
X6807569Y5167350D01*
X6786679Y5151321D01*
X6770650Y5130431D01*
X6760574Y5106105D01*
X6757137Y5080000D01*
X6760574Y5053895D01*
X6770650Y5029569D01*
X6786679Y5008679D01*
X6807569Y4992650D01*
X6831895Y4982574D01*
X6858000Y4979137D01*
X6884105Y4982574D01*
X6908431Y4992650D01*
X6929321Y5008679D01*
X6945350Y5029569D01*
X6955426Y5053895D01*
X6958863Y5080000D01*
X6955426Y5106105D01*
X6945350Y5130431D01*
X6929321Y5151321D01*
X6908431Y5167350D01*
X6884105Y5177426D01*
X6858000Y5180863D01*
D02*
G37*
G36*
X6604000D02*
X6577895Y5177426D01*
X6553569Y5167350D01*
X6532679Y5151321D01*
X6516650Y5130431D01*
X6506574Y5106105D01*
X6503137Y5080000D01*
X6506574Y5053895D01*
X6516650Y5029569D01*
X6532679Y5008679D01*
X6553569Y4992650D01*
X6577895Y4982574D01*
X6604000Y4979137D01*
X6630105Y4982574D01*
X6654431Y4992650D01*
X6675321Y5008679D01*
X6691350Y5029569D01*
X6701426Y5053895D01*
X6704863Y5080000D01*
X6701426Y5106105D01*
X6691350Y5130431D01*
X6675321Y5151321D01*
X6654431Y5167350D01*
X6630105Y5177426D01*
X6604000Y5180863D01*
D02*
G37*
G36*
X6350000D02*
X6323895Y5177426D01*
X6299569Y5167350D01*
X6278679Y5151321D01*
X6262650Y5130431D01*
X6252574Y5106105D01*
X6249137Y5080000D01*
X6252574Y5053895D01*
X6262650Y5029569D01*
X6278679Y5008679D01*
X6299569Y4992650D01*
X6323895Y4982574D01*
X6350000Y4979137D01*
X6376105Y4982574D01*
X6400431Y4992650D01*
X6421321Y5008679D01*
X6437350Y5029569D01*
X6447426Y5053895D01*
X6450863Y5080000D01*
X6447426Y5106105D01*
X6437350Y5130431D01*
X6421321Y5151321D01*
X6400431Y5167350D01*
X6376105Y5177426D01*
X6350000Y5180863D01*
D02*
G37*
G36*
X7470940Y5065000D02*
X7381000D01*
Y4975060D01*
X7393672Y4976729D01*
X7419457Y4987409D01*
X7441600Y5004400D01*
X7458591Y5026543D01*
X7469271Y5052328D01*
X7470940Y5065000D01*
D02*
G37*
G36*
X7216940D02*
X7127000D01*
Y4975060D01*
X7139672Y4976729D01*
X7165457Y4987409D01*
X7187600Y5004400D01*
X7204591Y5026543D01*
X7215271Y5052328D01*
X7216940Y5065000D01*
D02*
G37*
G36*
X7351000D02*
X7261060D01*
X7262729Y5052328D01*
X7273409Y5026543D01*
X7290400Y5004400D01*
X7312543Y4987409D01*
X7338328Y4976729D01*
X7351000Y4975060D01*
Y5065000D01*
D02*
G37*
G36*
X7097000D02*
X7007060D01*
X7008729Y5052328D01*
X7019409Y5026543D01*
X7036400Y5004400D01*
X7058543Y4987409D01*
X7084328Y4976729D01*
X7097000Y4975060D01*
Y5065000D01*
D02*
G37*
G36*
X12446000Y9244863D02*
X12419895Y9241426D01*
X12395569Y9231350D01*
X12374679Y9215321D01*
X12358650Y9194431D01*
X12348574Y9170105D01*
X12345137Y9144000D01*
X12348574Y9117895D01*
X12358650Y9093569D01*
X12374679Y9072679D01*
X12395569Y9056650D01*
X12419895Y9046574D01*
X12446000Y9043137D01*
X12472105Y9046574D01*
X12496431Y9056650D01*
X12517321Y9072679D01*
X12533350Y9093569D01*
X12543426Y9117895D01*
X12546863Y9144000D01*
X12543426Y9170105D01*
X12533350Y9194431D01*
X12517321Y9215321D01*
X12496431Y9231350D01*
X12472105Y9241426D01*
X12446000Y9244863D01*
D02*
G37*
G36*
X12192000D02*
X12165895Y9241426D01*
X12141569Y9231350D01*
X12120679Y9215321D01*
X12104650Y9194431D01*
X12094574Y9170105D01*
X12091137Y9144000D01*
X12094574Y9117895D01*
X12104650Y9093569D01*
X12120679Y9072679D01*
X12141569Y9056650D01*
X12165895Y9046574D01*
X12192000Y9043137D01*
X12218105Y9046574D01*
X12242431Y9056650D01*
X12263321Y9072679D01*
X12279350Y9093569D01*
X12289426Y9117895D01*
X12292863Y9144000D01*
X12289426Y9170105D01*
X12279350Y9194431D01*
X12263321Y9215321D01*
X12242431Y9231350D01*
X12218105Y9241426D01*
X12192000Y9244863D01*
D02*
G37*
G36*
X11938000D02*
X11911895Y9241426D01*
X11887569Y9231350D01*
X11866679Y9215321D01*
X11850650Y9194431D01*
X11840574Y9170105D01*
X11837137Y9144000D01*
X11840574Y9117895D01*
X11850650Y9093569D01*
X11866679Y9072679D01*
X11887569Y9056650D01*
X11911895Y9046574D01*
X11938000Y9043137D01*
X11964105Y9046574D01*
X11988431Y9056650D01*
X12009321Y9072679D01*
X12025350Y9093569D01*
X12035426Y9117895D01*
X12038863Y9144000D01*
X12035426Y9170105D01*
X12025350Y9194431D01*
X12009321Y9215321D01*
X11988431Y9231350D01*
X11964105Y9241426D01*
X11938000Y9244863D01*
D02*
G37*
G36*
X11684000D02*
X11657895Y9241426D01*
X11633569Y9231350D01*
X11612679Y9215321D01*
X11596650Y9194431D01*
X11586574Y9170105D01*
X11583137Y9144000D01*
X11586574Y9117895D01*
X11596650Y9093569D01*
X11612679Y9072679D01*
X11633569Y9056650D01*
X11657895Y9046574D01*
X11684000Y9043137D01*
X11710105Y9046574D01*
X11734431Y9056650D01*
X11755321Y9072679D01*
X11771350Y9093569D01*
X11781426Y9117895D01*
X11784863Y9144000D01*
X11781426Y9170105D01*
X11771350Y9194431D01*
X11755321Y9215321D01*
X11734431Y9231350D01*
X11710105Y9241426D01*
X11684000Y9244863D01*
D02*
G37*
G36*
X11430000D02*
X11403895Y9241426D01*
X11379569Y9231350D01*
X11358679Y9215321D01*
X11342650Y9194431D01*
X11332574Y9170105D01*
X11329137Y9144000D01*
X11332574Y9117895D01*
X11342650Y9093569D01*
X11358679Y9072679D01*
X11379569Y9056650D01*
X11403895Y9046574D01*
X11430000Y9043137D01*
X11456105Y9046574D01*
X11480431Y9056650D01*
X11501321Y9072679D01*
X11517350Y9093569D01*
X11527426Y9117895D01*
X11530863Y9144000D01*
X11527426Y9170105D01*
X11517350Y9194431D01*
X11501321Y9215321D01*
X11480431Y9231350D01*
X11456105Y9241426D01*
X11430000Y9244863D01*
D02*
G37*
G36*
X11176000D02*
X11149895Y9241426D01*
X11125569Y9231350D01*
X11104679Y9215321D01*
X11088650Y9194431D01*
X11078574Y9170105D01*
X11075137Y9144000D01*
X11078574Y9117895D01*
X11088650Y9093569D01*
X11104679Y9072679D01*
X11125569Y9056650D01*
X11149895Y9046574D01*
X11176000Y9043137D01*
X11202105Y9046574D01*
X11226431Y9056650D01*
X11247321Y9072679D01*
X11263350Y9093569D01*
X11273426Y9117895D01*
X11276863Y9144000D01*
X11273426Y9170105D01*
X11263350Y9194431D01*
X11247321Y9215321D01*
X11226431Y9231350D01*
X11202105Y9241426D01*
X11176000Y9244863D01*
D02*
G37*
G36*
X10922000D02*
X10895895Y9241426D01*
X10871569Y9231350D01*
X10850679Y9215321D01*
X10834650Y9194431D01*
X10824574Y9170105D01*
X10821137Y9144000D01*
X10824574Y9117895D01*
X10834650Y9093569D01*
X10850679Y9072679D01*
X10871569Y9056650D01*
X10895895Y9046574D01*
X10922000Y9043137D01*
X10948105Y9046574D01*
X10972431Y9056650D01*
X10993321Y9072679D01*
X11009350Y9093569D01*
X11019426Y9117895D01*
X11022863Y9144000D01*
X11019426Y9170105D01*
X11009350Y9194431D01*
X10993321Y9215321D01*
X10972431Y9231350D01*
X10948105Y9241426D01*
X10922000Y9244863D01*
D02*
G37*
G36*
X10668000D02*
X10641895Y9241426D01*
X10617569Y9231350D01*
X10596679Y9215321D01*
X10580650Y9194431D01*
X10570574Y9170105D01*
X10567137Y9144000D01*
X10570574Y9117895D01*
X10580650Y9093569D01*
X10596679Y9072679D01*
X10617569Y9056650D01*
X10641895Y9046574D01*
X10668000Y9043137D01*
X10694105Y9046574D01*
X10718431Y9056650D01*
X10739321Y9072679D01*
X10755350Y9093569D01*
X10765426Y9117895D01*
X10768863Y9144000D01*
X10765426Y9170105D01*
X10755350Y9194431D01*
X10739321Y9215321D01*
X10718431Y9231350D01*
X10694105Y9241426D01*
X10668000Y9244863D01*
D02*
G37*
G36*
X10414000D02*
X10387895Y9241426D01*
X10363569Y9231350D01*
X10342679Y9215321D01*
X10326650Y9194431D01*
X10316574Y9170105D01*
X10313137Y9144000D01*
X10316574Y9117895D01*
X10326650Y9093569D01*
X10342679Y9072679D01*
X10363569Y9056650D01*
X10387895Y9046574D01*
X10414000Y9043137D01*
X10440105Y9046574D01*
X10464431Y9056650D01*
X10485321Y9072679D01*
X10501350Y9093569D01*
X10511426Y9117895D01*
X10514863Y9144000D01*
X10511426Y9170105D01*
X10501350Y9194431D01*
X10485321Y9215321D01*
X10464431Y9231350D01*
X10440105Y9241426D01*
X10414000Y9244863D01*
D02*
G37*
G36*
X12446000Y8736863D02*
X12419895Y8733426D01*
X12395569Y8723350D01*
X12374679Y8707321D01*
X12358650Y8686431D01*
X12348574Y8662105D01*
X12345137Y8636000D01*
X12348574Y8609895D01*
X12358650Y8585569D01*
X12374679Y8564679D01*
X12395569Y8548650D01*
X12419895Y8538574D01*
X12446000Y8535137D01*
X12472105Y8538574D01*
X12496431Y8548650D01*
X12517321Y8564679D01*
X12533350Y8585569D01*
X12543426Y8609895D01*
X12546863Y8636000D01*
X12543426Y8662105D01*
X12533350Y8686431D01*
X12517321Y8707321D01*
X12496431Y8723350D01*
X12472105Y8733426D01*
X12446000Y8736863D01*
D02*
G37*
G36*
X12192000D02*
X12165895Y8733426D01*
X12141569Y8723350D01*
X12120679Y8707321D01*
X12104650Y8686431D01*
X12094574Y8662105D01*
X12091137Y8636000D01*
X12094574Y8609895D01*
X12104650Y8585569D01*
X12120679Y8564679D01*
X12141569Y8548650D01*
X12165895Y8538574D01*
X12192000Y8535137D01*
X12218105Y8538574D01*
X12242431Y8548650D01*
X12263321Y8564679D01*
X12279350Y8585569D01*
X12289426Y8609895D01*
X12292863Y8636000D01*
X12289426Y8662105D01*
X12279350Y8686431D01*
X12263321Y8707321D01*
X12242431Y8723350D01*
X12218105Y8733426D01*
X12192000Y8736863D01*
D02*
G37*
G36*
X11938000D02*
X11911895Y8733426D01*
X11887569Y8723350D01*
X11866679Y8707321D01*
X11850650Y8686431D01*
X11840574Y8662105D01*
X11837137Y8636000D01*
X11840574Y8609895D01*
X11850650Y8585569D01*
X11866679Y8564679D01*
X11887569Y8548650D01*
X11911895Y8538574D01*
X11938000Y8535137D01*
X11964105Y8538574D01*
X11988431Y8548650D01*
X12009321Y8564679D01*
X12025350Y8585569D01*
X12035426Y8609895D01*
X12038863Y8636000D01*
X12035426Y8662105D01*
X12025350Y8686431D01*
X12009321Y8707321D01*
X11988431Y8723350D01*
X11964105Y8733426D01*
X11938000Y8736863D01*
D02*
G37*
G36*
X11684000D02*
X11657895Y8733426D01*
X11633569Y8723350D01*
X11612679Y8707321D01*
X11596650Y8686431D01*
X11586574Y8662105D01*
X11583137Y8636000D01*
X11586574Y8609895D01*
X11596650Y8585569D01*
X11612679Y8564679D01*
X11633569Y8548650D01*
X11657895Y8538574D01*
X11684000Y8535137D01*
X11710105Y8538574D01*
X11734431Y8548650D01*
X11755321Y8564679D01*
X11771350Y8585569D01*
X11781426Y8609895D01*
X11784863Y8636000D01*
X11781426Y8662105D01*
X11771350Y8686431D01*
X11755321Y8707321D01*
X11734431Y8723350D01*
X11710105Y8733426D01*
X11684000Y8736863D01*
D02*
G37*
G36*
X11430000D02*
X11403895Y8733426D01*
X11379569Y8723350D01*
X11358679Y8707321D01*
X11342650Y8686431D01*
X11332574Y8662105D01*
X11329137Y8636000D01*
X11332574Y8609895D01*
X11342650Y8585569D01*
X11358679Y8564679D01*
X11379569Y8548650D01*
X11403895Y8538574D01*
X11430000Y8535137D01*
X11456105Y8538574D01*
X11480431Y8548650D01*
X11501321Y8564679D01*
X11517350Y8585569D01*
X11527426Y8609895D01*
X11530863Y8636000D01*
X11527426Y8662105D01*
X11517350Y8686431D01*
X11501321Y8707321D01*
X11480431Y8723350D01*
X11456105Y8733426D01*
X11430000Y8736863D01*
D02*
G37*
G36*
X11176000D02*
X11149895Y8733426D01*
X11125569Y8723350D01*
X11104679Y8707321D01*
X11088650Y8686431D01*
X11078574Y8662105D01*
X11075137Y8636000D01*
X11078574Y8609895D01*
X11088650Y8585569D01*
X11104679Y8564679D01*
X11125569Y8548650D01*
X11149895Y8538574D01*
X11176000Y8535137D01*
X11202105Y8538574D01*
X11226431Y8548650D01*
X11247321Y8564679D01*
X11263350Y8585569D01*
X11273426Y8609895D01*
X11276863Y8636000D01*
X11273426Y8662105D01*
X11263350Y8686431D01*
X11247321Y8707321D01*
X11226431Y8723350D01*
X11202105Y8733426D01*
X11176000Y8736863D01*
D02*
G37*
G36*
X10922000D02*
X10895895Y8733426D01*
X10871569Y8723350D01*
X10850679Y8707321D01*
X10834650Y8686431D01*
X10824574Y8662105D01*
X10821137Y8636000D01*
X10824574Y8609895D01*
X10834650Y8585569D01*
X10850679Y8564679D01*
X10871569Y8548650D01*
X10895895Y8538574D01*
X10922000Y8535137D01*
X10948105Y8538574D01*
X10972431Y8548650D01*
X10993321Y8564679D01*
X11009350Y8585569D01*
X11019426Y8609895D01*
X11022863Y8636000D01*
X11019426Y8662105D01*
X11009350Y8686431D01*
X10993321Y8707321D01*
X10972431Y8723350D01*
X10948105Y8733426D01*
X10922000Y8736863D01*
D02*
G37*
G36*
X10668000D02*
X10641895Y8733426D01*
X10617569Y8723350D01*
X10596679Y8707321D01*
X10580650Y8686431D01*
X10570574Y8662105D01*
X10567137Y8636000D01*
X10570574Y8609895D01*
X10580650Y8585569D01*
X10596679Y8564679D01*
X10617569Y8548650D01*
X10641895Y8538574D01*
X10668000Y8535137D01*
X10694105Y8538574D01*
X10718431Y8548650D01*
X10739321Y8564679D01*
X10755350Y8585569D01*
X10765426Y8609895D01*
X10768863Y8636000D01*
X10765426Y8662105D01*
X10755350Y8686431D01*
X10739321Y8707321D01*
X10718431Y8723350D01*
X10694105Y8733426D01*
X10668000Y8736863D01*
D02*
G37*
G36*
X10414000D02*
X10387895Y8733426D01*
X10363569Y8723350D01*
X10342679Y8707321D01*
X10326650Y8686431D01*
X10316574Y8662105D01*
X10313137Y8636000D01*
X10316574Y8609895D01*
X10326650Y8585569D01*
X10342679Y8564679D01*
X10363569Y8548650D01*
X10387895Y8538574D01*
X10414000Y8535137D01*
X10440105Y8538574D01*
X10464431Y8548650D01*
X10485321Y8564679D01*
X10501350Y8585569D01*
X10511426Y8609895D01*
X10514863Y8636000D01*
X10511426Y8662105D01*
X10501350Y8686431D01*
X10485321Y8707321D01*
X10464431Y8723350D01*
X10440105Y8733426D01*
X10414000Y8736863D01*
D02*
G37*
G36*
X12346700Y8255719D02*
Y8231900D01*
X12370519D01*
X12370321Y8232897D01*
X12361259Y8246459D01*
X12347697Y8255521D01*
X12346700Y8255719D01*
D02*
G37*
G36*
X12316700D02*
X12315703Y8255521D01*
X12302141Y8246459D01*
X12293079Y8232897D01*
X12292881Y8231900D01*
X12316700D01*
Y8255719D01*
D02*
G37*
G36*
X12219700D02*
Y8231900D01*
X12243519D01*
X12243321Y8232897D01*
X12234259Y8246459D01*
X12220697Y8255521D01*
X12219700Y8255719D01*
D02*
G37*
G36*
X12189700D02*
X12188703Y8255521D01*
X12175141Y8246459D01*
X12166079Y8232897D01*
X12165881Y8231900D01*
X12189700D01*
Y8255719D01*
D02*
G37*
G36*
X11938000Y8290686D02*
X11924344Y8287969D01*
X11912766Y8280234D01*
X11905031Y8268656D01*
X11902314Y8255000D01*
X11905031Y8241344D01*
X11912766Y8229766D01*
X11924344Y8222031D01*
X11938000Y8219314D01*
X11951656Y8222031D01*
X11963234Y8229766D01*
X11970969Y8241344D01*
X11973686Y8255000D01*
X11970969Y8268656D01*
X11963234Y8280234D01*
X11951656Y8287969D01*
X11938000Y8290686D01*
D02*
G37*
G36*
X12460200Y8290407D02*
X12446544Y8287690D01*
X12434966Y8279954D01*
X12427231Y8268377D01*
X12424514Y8254721D01*
X12427231Y8241065D01*
X12434966Y8229487D01*
X12446544Y8221752D01*
X12460200Y8219035D01*
X12473856Y8221752D01*
X12485433Y8229487D01*
X12493169Y8241065D01*
X12495886Y8254721D01*
X12493169Y8268377D01*
X12485433Y8279954D01*
X12473856Y8287690D01*
X12460200Y8290407D01*
D02*
G37*
G36*
X11430000D02*
X11416344Y8287690D01*
X11404766Y8279954D01*
X11397031Y8268377D01*
X11394314Y8254721D01*
X11397031Y8241065D01*
X11404766Y8229487D01*
X11416344Y8221752D01*
X11430000Y8219035D01*
X11443656Y8221752D01*
X11455234Y8229487D01*
X11462969Y8241065D01*
X11465686Y8254721D01*
X11462969Y8268377D01*
X11455234Y8279954D01*
X11443656Y8287690D01*
X11430000Y8290407D01*
D02*
G37*
G36*
X10617200Y8288795D02*
X10603544Y8286079D01*
X10591966Y8278343D01*
X10584231Y8266766D01*
X10581514Y8253110D01*
X10584231Y8239453D01*
X10591966Y8227876D01*
X10603544Y8220141D01*
X10617200Y8217424D01*
X10630856Y8220141D01*
X10642434Y8227876D01*
X10650169Y8239453D01*
X10652886Y8253110D01*
X10650169Y8266766D01*
X10642434Y8278343D01*
X10630856Y8286079D01*
X10617200Y8288795D01*
D02*
G37*
G36*
X10464800D02*
X10451144Y8286079D01*
X10439566Y8278343D01*
X10431831Y8266766D01*
X10429114Y8253110D01*
X10431831Y8239453D01*
X10439566Y8227876D01*
X10451144Y8220141D01*
X10464800Y8217424D01*
X10478456Y8220141D01*
X10490034Y8227876D01*
X10497769Y8239453D01*
X10500486Y8253110D01*
X10497769Y8266766D01*
X10490034Y8278343D01*
X10478456Y8286079D01*
X10464800Y8288795D01*
D02*
G37*
G36*
X11305300Y8232573D02*
Y8208753D01*
X11329119D01*
X11328921Y8209751D01*
X11319859Y8223313D01*
X11306297Y8232374D01*
X11305300Y8232573D01*
D02*
G37*
G36*
X11275300D02*
X11274302Y8232374D01*
X11260740Y8223313D01*
X11251679Y8209751D01*
X11251480Y8208753D01*
X11275300D01*
Y8232573D01*
D02*
G37*
G36*
X12054600Y8214549D02*
Y8190730D01*
X12078419D01*
X12078221Y8191727D01*
X12069159Y8205289D01*
X12055597Y8214351D01*
X12054600Y8214549D01*
D02*
G37*
G36*
X12024600D02*
X12023603Y8214351D01*
X12010041Y8205289D01*
X12000979Y8191727D01*
X12000781Y8190730D01*
X12024600D01*
Y8214549D01*
D02*
G37*
G36*
X11506200Y8252586D02*
X11492544Y8249869D01*
X11480966Y8242134D01*
X11473231Y8230556D01*
X11470514Y8216900D01*
X11473231Y8203244D01*
X11480966Y8191666D01*
X11492544Y8183931D01*
X11506200Y8181214D01*
X11519856Y8183931D01*
X11531434Y8191666D01*
X11539169Y8203244D01*
X11541886Y8216900D01*
X11539169Y8230556D01*
X11531434Y8242134D01*
X11519856Y8249869D01*
X11506200Y8252586D01*
D02*
G37*
G36*
X10693400D02*
X10679744Y8249869D01*
X10668166Y8242134D01*
X10660431Y8230556D01*
X10657714Y8216900D01*
X10660431Y8203244D01*
X10668166Y8191666D01*
X10679744Y8183931D01*
X10693400Y8181214D01*
X10707056Y8183931D01*
X10718634Y8191666D01*
X10726369Y8203244D01*
X10729086Y8216900D01*
X10726369Y8230556D01*
X10718634Y8242134D01*
X10707056Y8249869D01*
X10693400Y8252586D01*
D02*
G37*
G36*
X12370519Y8201900D02*
X12346700D01*
Y8178081D01*
X12347697Y8178279D01*
X12361259Y8187341D01*
X12370321Y8200903D01*
X12370519Y8201900D01*
D02*
G37*
G36*
X12316700D02*
X12292881D01*
X12293079Y8200903D01*
X12302141Y8187341D01*
X12315703Y8178279D01*
X12316700Y8178081D01*
Y8201900D01*
D02*
G37*
G36*
X12243519D02*
X12219700D01*
Y8178081D01*
X12220697Y8178279D01*
X12234259Y8187341D01*
X12243321Y8200903D01*
X12243519Y8201900D01*
D02*
G37*
G36*
X12189700D02*
X12165881D01*
X12166079Y8200903D01*
X12175141Y8187341D01*
X12188703Y8178279D01*
X12189700Y8178081D01*
Y8201900D01*
D02*
G37*
G36*
X11329119Y8178754D02*
X11305300D01*
Y8154934D01*
X11306297Y8155133D01*
X11319859Y8164194D01*
X11328921Y8177756D01*
X11329119Y8178754D01*
D02*
G37*
G36*
X11275300D02*
X11251480D01*
X11251679Y8177756D01*
X11260740Y8164194D01*
X11274302Y8155133D01*
X11275300Y8154934D01*
Y8178754D01*
D02*
G37*
G36*
X11796980Y8211415D02*
X11783324Y8208699D01*
X11771747Y8200963D01*
X11764011Y8189386D01*
X11761295Y8175730D01*
X11764011Y8162073D01*
X11771747Y8150496D01*
X11783324Y8142760D01*
X11796980Y8140044D01*
X11810637Y8142760D01*
X11822214Y8150496D01*
X11829950Y8162073D01*
X11832666Y8175730D01*
X11829950Y8189386D01*
X11822214Y8200963D01*
X11810637Y8208699D01*
X11796980Y8211415D01*
D02*
G37*
G36*
X12078419Y8160730D02*
X12054600D01*
Y8136910D01*
X12055597Y8137109D01*
X12069159Y8146170D01*
X12078221Y8159732D01*
X12078419Y8160730D01*
D02*
G37*
G36*
X12024600D02*
X12000781D01*
X12000979Y8159732D01*
X12010041Y8146170D01*
X12023603Y8137109D01*
X12024600Y8136910D01*
Y8160730D01*
D02*
G37*
G36*
X12130800Y8147769D02*
Y8123950D01*
X12154619D01*
X12154421Y8124947D01*
X12145359Y8138509D01*
X12131797Y8147571D01*
X12130800Y8147769D01*
D02*
G37*
G36*
X12100800D02*
X12099803Y8147571D01*
X12086241Y8138509D01*
X12077179Y8124947D01*
X12076981Y8123950D01*
X12100800D01*
Y8147769D01*
D02*
G37*
G36*
X10662939Y8152967D02*
X10649282Y8150250D01*
X10637705Y8142515D01*
X10629970Y8130937D01*
X10627253Y8117281D01*
X10629970Y8103625D01*
X10637705Y8092047D01*
X10649282Y8084312D01*
X10662939Y8081595D01*
X10676595Y8084312D01*
X10688172Y8092047D01*
X10695908Y8103625D01*
X10698625Y8117281D01*
X10695908Y8130937D01*
X10688172Y8142515D01*
X10676595Y8150250D01*
X10662939Y8152967D01*
D02*
G37*
G36*
X12154619Y8093950D02*
X12130800D01*
Y8070131D01*
X12131797Y8070329D01*
X12145359Y8079391D01*
X12154421Y8092953D01*
X12154619Y8093950D01*
D02*
G37*
G36*
X12100800D02*
X12076981D01*
X12077179Y8092953D01*
X12086241Y8079391D01*
X12099803Y8070329D01*
X12100800Y8070131D01*
Y8093950D01*
D02*
G37*
G36*
X11620500Y8125586D02*
X11606844Y8122869D01*
X11595266Y8115134D01*
X11587531Y8103556D01*
X11584814Y8089900D01*
X11587531Y8076244D01*
X11595266Y8064666D01*
X11606844Y8056931D01*
X11620500Y8054214D01*
X11634156Y8056931D01*
X11645734Y8064666D01*
X11653469Y8076244D01*
X11656186Y8089900D01*
X11653469Y8103556D01*
X11645734Y8115134D01*
X11634156Y8122869D01*
X11620500Y8125586D01*
D02*
G37*
G36*
X10410200Y8036686D02*
X10396544Y8033969D01*
X10384966Y8026234D01*
X10377231Y8014656D01*
X10374514Y8001000D01*
X10377231Y7987344D01*
X10384966Y7975766D01*
X10396544Y7968031D01*
X10410200Y7965314D01*
X10423856Y7968031D01*
X10435434Y7975766D01*
X10443169Y7987344D01*
X10445886Y8001000D01*
X10443169Y8014656D01*
X10435434Y8026234D01*
X10423856Y8033969D01*
X10410200Y8036686D01*
D02*
G37*
G36*
X10795000Y8022986D02*
X10781344Y8020269D01*
X10769766Y8012534D01*
X10762031Y8000956D01*
X10759314Y7987300D01*
X10762031Y7973644D01*
X10769766Y7962066D01*
X10781344Y7954331D01*
X10795000Y7951614D01*
X10808656Y7954331D01*
X10820234Y7962066D01*
X10827969Y7973644D01*
X10830686Y7987300D01*
X10827969Y8000956D01*
X10820234Y8012534D01*
X10808656Y8020269D01*
X10795000Y8022986D01*
D02*
G37*
G36*
X12039600Y8014355D02*
X12025944Y8011639D01*
X12014366Y8003903D01*
X12006631Y7992326D01*
X12003914Y7978670D01*
X12006631Y7965013D01*
X12014366Y7953436D01*
X12025944Y7945700D01*
X12039600Y7942984D01*
X12053256Y7945700D01*
X12064834Y7953436D01*
X12072569Y7965013D01*
X12075286Y7978670D01*
X12072569Y7992326D01*
X12064834Y8003903D01*
X12053256Y8011639D01*
X12039600Y8014355D01*
D02*
G37*
G36*
X11556453Y8007786D02*
X11506747D01*
X11493091Y8005069D01*
X11481514Y7997334D01*
X11457366Y7973186D01*
X11391900D01*
X11378244Y7970469D01*
X11366666Y7962734D01*
X11123118Y7719186D01*
X10934700D01*
X10921044Y7716469D01*
X10909466Y7708734D01*
X10901731Y7697156D01*
X10899014Y7683500D01*
X10901731Y7669844D01*
X10909466Y7658266D01*
X10921044Y7650531D01*
X10934700Y7647814D01*
X11137900D01*
X11151556Y7650531D01*
X11163134Y7658266D01*
X11406682Y7901814D01*
X11472147D01*
X11485804Y7904531D01*
X11486554Y7905032D01*
X11496569Y7900884D01*
X11498916Y7898017D01*
X11506366Y7886866D01*
X11517944Y7879131D01*
X11531600Y7876414D01*
X11545256Y7879131D01*
X11556834Y7886866D01*
X11564284Y7898017D01*
X11566631Y7900884D01*
X11576646Y7905032D01*
X11577396Y7904531D01*
X11591053Y7901814D01*
X11874500D01*
X11888156Y7904531D01*
X11899734Y7912266D01*
X11907469Y7923844D01*
X11910186Y7937500D01*
X11907469Y7951156D01*
X11899734Y7962734D01*
X11888156Y7970469D01*
X11874500Y7973186D01*
X11605834D01*
X11581686Y7997334D01*
X11570109Y8005069D01*
X11556453Y8007786D01*
D02*
G37*
G36*
X12268200Y7969186D02*
X12254544Y7966469D01*
X12242966Y7958734D01*
X12235231Y7947156D01*
X12232514Y7933500D01*
X12235231Y7919844D01*
X12242966Y7908266D01*
X12254544Y7900531D01*
X12268200Y7897814D01*
X12281856Y7900531D01*
X12293434Y7908266D01*
X12301169Y7919844D01*
X12303886Y7933500D01*
X12301169Y7947156D01*
X12293434Y7958734D01*
X12281856Y7966469D01*
X12268200Y7969186D01*
D02*
G37*
G36*
X11102100Y7871100D02*
Y7847281D01*
X11125919D01*
X11125721Y7848278D01*
X11116659Y7861840D01*
X11103097Y7870902D01*
X11102100Y7871100D01*
D02*
G37*
G36*
X11072100D02*
X11071103Y7870902D01*
X11057541Y7861840D01*
X11048479Y7848278D01*
X11048281Y7847281D01*
X11072100D01*
Y7871100D01*
D02*
G37*
G36*
X11125919Y7817281D02*
X11102100D01*
Y7793462D01*
X11103097Y7793660D01*
X11116659Y7802722D01*
X11125721Y7816284D01*
X11125919Y7817281D01*
D02*
G37*
G36*
X11072100D02*
X11048281D01*
X11048479Y7816284D01*
X11057541Y7802722D01*
X11071103Y7793660D01*
X11072100Y7793462D01*
Y7817281D01*
D02*
G37*
G36*
X10705330Y7799476D02*
Y7775656D01*
X10729149D01*
X10728951Y7776654D01*
X10719889Y7790216D01*
X10706327Y7799277D01*
X10705330Y7799476D01*
D02*
G37*
G36*
X10675330D02*
X10674332Y7799277D01*
X10660770Y7790216D01*
X10651709Y7776654D01*
X10651510Y7775656D01*
X10675330D01*
Y7799476D01*
D02*
G37*
G36*
X10729149Y7745656D02*
X10705330D01*
Y7721837D01*
X10706327Y7722035D01*
X10719889Y7731097D01*
X10728951Y7744659D01*
X10729149Y7745656D01*
D02*
G37*
G36*
X10675330D02*
X10651510D01*
X10651709Y7744659D01*
X10660770Y7731097D01*
X10674332Y7722035D01*
X10675330Y7721837D01*
Y7745656D01*
D02*
G37*
G36*
X10756900Y7731886D02*
X10743244Y7729169D01*
X10731666Y7721434D01*
X10723931Y7709856D01*
X10721214Y7696200D01*
X10723931Y7682544D01*
X10731666Y7670966D01*
X10743244Y7663231D01*
X10756900Y7660514D01*
X10770556Y7663231D01*
X10782134Y7670966D01*
X10789869Y7682544D01*
X10792586Y7696200D01*
X10789869Y7709856D01*
X10782134Y7721434D01*
X10770556Y7729169D01*
X10756900Y7731886D01*
D02*
G37*
G36*
X11290300Y7665315D02*
X11276643Y7662599D01*
X11265066Y7654863D01*
X11257331Y7643286D01*
X11254614Y7629630D01*
X11257331Y7615973D01*
X11265066Y7604396D01*
X11276643Y7596660D01*
X11290300Y7593944D01*
X11303956Y7596660D01*
X11315533Y7604396D01*
X11323269Y7615973D01*
X11325985Y7629630D01*
X11323269Y7643286D01*
X11315533Y7654863D01*
X11303956Y7662599D01*
X11290300Y7665315D01*
D02*
G37*
G36*
X10536627Y7630286D02*
X10522971Y7627569D01*
X10511393Y7619834D01*
X10503658Y7608256D01*
X10500941Y7594600D01*
X10503658Y7580944D01*
X10511393Y7569366D01*
X10522971Y7561631D01*
X10536627Y7558914D01*
X10550283Y7561631D01*
X10561861Y7569366D01*
X10569596Y7580944D01*
X10572313Y7594600D01*
X10569596Y7608256D01*
X10561861Y7619834D01*
X10550283Y7627569D01*
X10536627Y7630286D01*
D02*
G37*
G36*
X11303000Y7566786D02*
X11289344Y7564069D01*
X11277766Y7556334D01*
X11270031Y7544756D01*
X11267314Y7531100D01*
X11270031Y7517444D01*
X11277766Y7505866D01*
X11289344Y7498131D01*
X11303000Y7495414D01*
X11316656Y7498131D01*
X11328234Y7505866D01*
X11335969Y7517444D01*
X11338686Y7531100D01*
X11335969Y7544756D01*
X11328234Y7556334D01*
X11316656Y7564069D01*
X11303000Y7566786D01*
D02*
G37*
G36*
X12406250Y7624690D02*
X12326250D01*
X12305366Y7621941D01*
X12285905Y7613880D01*
X12269193Y7601056D01*
X12256370Y7584345D01*
X12248309Y7564884D01*
X12245560Y7544000D01*
X12248309Y7523116D01*
X12256370Y7503655D01*
X12269193Y7486943D01*
X12285905Y7474120D01*
X12305366Y7466059D01*
X12326250Y7463310D01*
X12406250D01*
X12427134Y7466059D01*
X12446595Y7474120D01*
X12463306Y7486943D01*
X12476129Y7503655D01*
X12484190Y7523116D01*
X12486940Y7544000D01*
X12484190Y7564884D01*
X12476129Y7584345D01*
X12463306Y7601056D01*
X12446595Y7613880D01*
X12427134Y7621941D01*
X12406250Y7624690D01*
D02*
G37*
G36*
X10677358Y7667416D02*
X10663702Y7664699D01*
X10652124Y7656964D01*
X10644389Y7645387D01*
X10641672Y7631730D01*
X10644389Y7618074D01*
X10652124Y7606497D01*
X10663702Y7598761D01*
X10677358Y7596044D01*
X10691014Y7598761D01*
X10698526Y7603780D01*
X10821238Y7481068D01*
Y7447808D01*
X10816476Y7445263D01*
X10808537Y7442302D01*
X10796630Y7444670D01*
X10782973Y7441954D01*
X10771396Y7434218D01*
X10763660Y7422641D01*
X10760944Y7408985D01*
X10763660Y7395328D01*
X10770346Y7385323D01*
X10771699Y7378521D01*
X10776119Y7371905D01*
X10783149Y7364876D01*
Y6889016D01*
X10778307Y6885780D01*
X10770572Y6874203D01*
X10767855Y6860547D01*
X10770572Y6846891D01*
X10778307Y6835313D01*
X10789884Y6827578D01*
X10803541Y6824861D01*
X10817197Y6827578D01*
X10828774Y6835313D01*
X10836510Y6846891D01*
X10839226Y6860547D01*
X10836510Y6874203D01*
X10828774Y6885780D01*
X10823933Y6889016D01*
Y7373321D01*
X10823933Y7373322D01*
X10828915Y7380011D01*
X10844196Y7381206D01*
X11044025Y7181378D01*
X11042889Y7175666D01*
X11045605Y7162010D01*
X11053341Y7150433D01*
X11064918Y7142697D01*
X11078574Y7139981D01*
X11092231Y7142697D01*
X11103808Y7150433D01*
X11111543Y7162010D01*
X11114260Y7175666D01*
X11111543Y7189323D01*
X11103808Y7200900D01*
X11092231Y7208636D01*
X11078574Y7211352D01*
X11072863Y7210216D01*
X10862021Y7421058D01*
Y7489515D01*
X10860469Y7497318D01*
X10856049Y7503934D01*
X10719573Y7640409D01*
X10712958Y7644830D01*
X10710334Y7645351D01*
X10710327Y7645387D01*
X10702592Y7656964D01*
X10691014Y7664699D01*
X10677358Y7667416D01*
D02*
G37*
G36*
X10352800Y7417519D02*
Y7393700D01*
X10376619D01*
X10376421Y7394697D01*
X10367359Y7408259D01*
X10353797Y7417321D01*
X10352800Y7417519D01*
D02*
G37*
G36*
X12003250Y7639819D02*
X11893250D01*
X11868450Y7636554D01*
X11845340Y7626982D01*
X11825496Y7611754D01*
X11810268Y7591910D01*
X11800695Y7568800D01*
X11797431Y7544000D01*
X11799542Y7527964D01*
X11798300Y7526801D01*
X11784644Y7524084D01*
X11773066Y7516348D01*
X11765331Y7504771D01*
X11762614Y7491115D01*
X11765331Y7477459D01*
X11773066Y7465881D01*
X11784644Y7458146D01*
X11798300Y7455429D01*
X11811956Y7458146D01*
X11823534Y7465881D01*
X11823616Y7466004D01*
X11836146Y7468073D01*
X11845340Y7461018D01*
X11868450Y7451445D01*
X11893250Y7448180D01*
X11969503D01*
X11973355Y7435480D01*
X11967609Y7431641D01*
X11958216Y7417583D01*
X11954917Y7401000D01*
X11958216Y7384417D01*
X11967609Y7370359D01*
X11981667Y7360966D01*
X11998250Y7357667D01*
X12014832Y7360966D01*
X12028891Y7370359D01*
X12038284Y7384417D01*
X12041582Y7401000D01*
X12038284Y7417583D01*
X12028891Y7431641D01*
X12020007Y7437577D01*
X12023088Y7450792D01*
X12028050Y7451445D01*
X12051160Y7461018D01*
X12071004Y7476245D01*
X12086232Y7496090D01*
X12095804Y7519200D01*
X12099069Y7544000D01*
X12095804Y7568800D01*
X12086232Y7591910D01*
X12071004Y7611754D01*
X12051160Y7626982D01*
X12028050Y7636554D01*
X12003250Y7639819D01*
D02*
G37*
G36*
X11606300Y7426993D02*
X11592644Y7424276D01*
X11581066Y7416541D01*
X11573331Y7404963D01*
X11570614Y7391307D01*
X11573331Y7377651D01*
X11581066Y7366073D01*
X11592644Y7358338D01*
X11606300Y7355621D01*
X11619956Y7358338D01*
X11631534Y7366073D01*
X11639269Y7377651D01*
X11641986Y7391307D01*
X11639269Y7404963D01*
X11631534Y7416541D01*
X11619956Y7424276D01*
X11606300Y7426993D01*
D02*
G37*
G36*
X11462006Y7392682D02*
X11448349Y7389966D01*
X11436772Y7382230D01*
X11429037Y7370653D01*
X11426320Y7356997D01*
X11429037Y7343340D01*
X11436772Y7331763D01*
X11448349Y7324028D01*
X11462006Y7321311D01*
X11475662Y7324028D01*
X11487239Y7331763D01*
X11494975Y7343340D01*
X11497692Y7356997D01*
X11494975Y7370653D01*
X11487239Y7382230D01*
X11475662Y7389966D01*
X11462006Y7392682D01*
D02*
G37*
G36*
X12103100Y7312786D02*
X12089444Y7310069D01*
X12077866Y7302334D01*
X12070131Y7290756D01*
X12067414Y7277100D01*
X12070131Y7263444D01*
X12077866Y7251866D01*
X12089444Y7244131D01*
X12103100Y7241414D01*
X12116756Y7244131D01*
X12128334Y7251866D01*
X12136069Y7263444D01*
X12138786Y7277100D01*
X12136069Y7290756D01*
X12128334Y7302334D01*
X12116756Y7310069D01*
X12103100Y7312786D01*
D02*
G37*
G36*
X12306300Y7238086D02*
X12292644Y7235369D01*
X12281066Y7227634D01*
X12273331Y7216056D01*
X12270614Y7202400D01*
X12273331Y7188744D01*
X12281066Y7177166D01*
X12292644Y7169431D01*
X12306300Y7166714D01*
X12319956Y7169431D01*
X12331534Y7177166D01*
X12339269Y7188744D01*
X12341986Y7202400D01*
X12339269Y7216056D01*
X12331534Y7227634D01*
X12319956Y7235369D01*
X12306300Y7238086D01*
D02*
G37*
G36*
X10604500Y7223886D02*
X10590844Y7221169D01*
X10579266Y7213434D01*
X10571531Y7201856D01*
X10568814Y7188200D01*
X10571531Y7174544D01*
X10579266Y7162966D01*
X10590844Y7155231D01*
X10604500Y7152514D01*
X10618156Y7155231D01*
X10629734Y7162966D01*
X10637469Y7174544D01*
X10640186Y7188200D01*
X10637469Y7201856D01*
X10629734Y7213434D01*
X10618156Y7221169D01*
X10604500Y7223886D01*
D02*
G37*
G36*
X12366250Y7148611D02*
X12352594Y7145894D01*
X12341016Y7138159D01*
X12333281Y7126581D01*
X12330564Y7112925D01*
X12333281Y7099269D01*
X12341016Y7087691D01*
X12352594Y7079956D01*
X12366250Y7077239D01*
X12379906Y7079956D01*
X12391483Y7087691D01*
X12399219Y7099269D01*
X12401936Y7112925D01*
X12399219Y7126581D01*
X12391483Y7138159D01*
X12379906Y7145894D01*
X12366250Y7148611D01*
D02*
G37*
G36*
X12026900Y7084186D02*
X12013244Y7081469D01*
X12001666Y7073734D01*
X11993931Y7062156D01*
X11991214Y7048500D01*
X11993931Y7034844D01*
X12001666Y7023266D01*
X12013244Y7015531D01*
X12026900Y7012814D01*
X12040556Y7015531D01*
X12052134Y7023266D01*
X12059869Y7034844D01*
X12062586Y7048500D01*
X12059869Y7062156D01*
X12052134Y7073734D01*
X12040556Y7081469D01*
X12026900Y7084186D01*
D02*
G37*
G36*
X11125200D02*
X11111544Y7081469D01*
X11099966Y7073734D01*
X11092231Y7062156D01*
X11089514Y7048500D01*
X11092231Y7034844D01*
X11099966Y7023266D01*
X11111544Y7015531D01*
X11125200Y7012814D01*
X11138856Y7015531D01*
X11150434Y7023266D01*
X11158169Y7034844D01*
X11160886Y7048500D01*
X11158169Y7062156D01*
X11150434Y7073734D01*
X11138856Y7081469D01*
X11125200Y7084186D01*
D02*
G37*
G36*
X11274302Y7082371D02*
X11260646Y7079654D01*
X11249069Y7071919D01*
X11241333Y7060341D01*
X11238617Y7046685D01*
X11241333Y7033029D01*
X11249069Y7021452D01*
X11260646Y7013716D01*
X11274302Y7010999D01*
X11287959Y7013716D01*
X11299536Y7021452D01*
X11307272Y7033029D01*
X11309988Y7046685D01*
X11307272Y7060341D01*
X11299536Y7071919D01*
X11287959Y7079654D01*
X11274302Y7082371D01*
D02*
G37*
G36*
X11710030Y7022686D02*
X11696373Y7019969D01*
X11684796Y7012234D01*
X11677060Y7000656D01*
X11674344Y6987000D01*
X11677060Y6973344D01*
X11684796Y6961766D01*
X11696373Y6954031D01*
X11710030Y6951314D01*
X11723686Y6954031D01*
X11735263Y6961766D01*
X11742999Y6973344D01*
X11745715Y6987000D01*
X11742999Y7000656D01*
X11735263Y7012234D01*
X11723686Y7019969D01*
X11710030Y7022686D01*
D02*
G37*
G36*
X11621300Y6959900D02*
Y6936081D01*
X11645119D01*
X11644921Y6937079D01*
X11635859Y6950640D01*
X11622297Y6959702D01*
X11621300Y6959900D01*
D02*
G37*
G36*
X11591300D02*
X11590302Y6959702D01*
X11576741Y6950640D01*
X11567679Y6937079D01*
X11567481Y6936081D01*
X11591300D01*
Y6959900D01*
D02*
G37*
G36*
X12118800Y6969886D02*
X12105144Y6967169D01*
X12093566Y6959434D01*
X12085831Y6947856D01*
X12083114Y6934200D01*
X12085831Y6920544D01*
X12093566Y6908966D01*
X12105144Y6901231D01*
X12118800Y6898514D01*
X12132456Y6901231D01*
X12144034Y6908966D01*
X12151769Y6920544D01*
X12154486Y6934200D01*
X12151769Y6947856D01*
X12144034Y6959434D01*
X12132456Y6967169D01*
X12118800Y6969886D01*
D02*
G37*
G36*
X11645119Y6906081D02*
X11621300D01*
Y6882262D01*
X11622297Y6882460D01*
X11635859Y6891522D01*
X11644921Y6905084D01*
X11645119Y6906081D01*
D02*
G37*
G36*
X11591300D02*
X11567481D01*
X11567679Y6905084D01*
X11576741Y6891522D01*
X11590302Y6882460D01*
X11591300Y6882262D01*
Y6906081D01*
D02*
G37*
G36*
X11785600Y6827686D02*
X11771944Y6824969D01*
X11760366Y6817234D01*
X11752631Y6805656D01*
X11749914Y6792000D01*
X11752631Y6778344D01*
X11760366Y6766767D01*
X11771944Y6759031D01*
X11785600Y6756314D01*
X11799256Y6759031D01*
X11810834Y6766767D01*
X11818569Y6778344D01*
X11821286Y6792000D01*
X11818569Y6805656D01*
X11810834Y6817234D01*
X11799256Y6824969D01*
X11785600Y6827686D01*
D02*
G37*
G36*
X11398639Y6762312D02*
X11384983Y6759596D01*
X11373405Y6751860D01*
X11365670Y6740283D01*
X11362953Y6726627D01*
X11365670Y6712970D01*
X11373405Y6701393D01*
X11384983Y6693657D01*
X11398639Y6690941D01*
X11412295Y6693657D01*
X11423873Y6701393D01*
X11431608Y6712970D01*
X11434325Y6726627D01*
X11431608Y6740283D01*
X11423873Y6751860D01*
X11412295Y6759596D01*
X11398639Y6762312D01*
D02*
G37*
G36*
X11264900Y6690486D02*
X11251244Y6687769D01*
X11239666Y6680034D01*
X11231931Y6668456D01*
X11229214Y6654800D01*
X11231931Y6641144D01*
X11239666Y6629566D01*
X11251244Y6621831D01*
X11264900Y6619114D01*
X11278556Y6621831D01*
X11290134Y6629566D01*
X11297869Y6641144D01*
X11300586Y6654800D01*
X11297869Y6668456D01*
X11290134Y6680034D01*
X11278556Y6687769D01*
X11264900Y6690486D01*
D02*
G37*
G36*
X12406250Y6760690D02*
X12326250D01*
X12305366Y6757941D01*
X12285905Y6749880D01*
X12269193Y6737057D01*
X12256370Y6720345D01*
X12248309Y6700884D01*
X12245560Y6680000D01*
X12248309Y6659116D01*
X12256370Y6639655D01*
X12269193Y6622944D01*
X12285905Y6610120D01*
X12305366Y6602059D01*
X12326250Y6599310D01*
X12406250D01*
X12427134Y6602059D01*
X12446595Y6610120D01*
X12463306Y6622944D01*
X12476129Y6639655D01*
X12484190Y6659116D01*
X12486940Y6680000D01*
X12484190Y6700884D01*
X12476129Y6720345D01*
X12463306Y6737057D01*
X12446595Y6749880D01*
X12427134Y6757941D01*
X12406250Y6760690D01*
D02*
G37*
G36*
X11998250Y6866333D02*
X11981667Y6863034D01*
X11967609Y6853641D01*
X11958216Y6839583D01*
X11954917Y6823000D01*
X11958216Y6806417D01*
X11967609Y6792359D01*
X11973355Y6788520D01*
X11969503Y6775820D01*
X11893250D01*
X11868450Y6772555D01*
X11845340Y6762982D01*
X11825496Y6747755D01*
X11810268Y6727910D01*
X11800695Y6704800D01*
X11797431Y6680000D01*
X11800695Y6655200D01*
X11810268Y6632090D01*
X11825496Y6612246D01*
X11845340Y6597018D01*
X11868450Y6587446D01*
X11893250Y6584181D01*
X12003250D01*
X12028050Y6587446D01*
X12051160Y6597018D01*
X12071004Y6612246D01*
X12086232Y6632090D01*
X12095804Y6655200D01*
X12099069Y6680000D01*
X12095804Y6704800D01*
X12086232Y6727910D01*
X12071004Y6747755D01*
X12051160Y6762982D01*
X12028050Y6772555D01*
X12023088Y6773208D01*
X12020007Y6786423D01*
X12028891Y6792359D01*
X12038284Y6806417D01*
X12041582Y6823000D01*
X12038284Y6839583D01*
X12028891Y6853641D01*
X12014832Y6863034D01*
X11998250Y6866333D01*
D02*
G37*
G36*
X10934700Y6626986D02*
X10921044Y6624269D01*
X10909466Y6616534D01*
X10901731Y6604956D01*
X10899014Y6591300D01*
X10901731Y6577644D01*
X10909466Y6566066D01*
X10921044Y6558331D01*
X10934700Y6555614D01*
X10948356Y6558331D01*
X10959934Y6566066D01*
X10967669Y6577644D01*
X10970386Y6591300D01*
X10967669Y6604956D01*
X10959934Y6616534D01*
X10948356Y6624269D01*
X10934700Y6626986D01*
D02*
G37*
G36*
X10541000D02*
X10527344Y6624269D01*
X10515766Y6616534D01*
X10508031Y6604956D01*
X10505314Y6591300D01*
X10508031Y6577644D01*
X10515766Y6566066D01*
X10527344Y6558331D01*
X10541000Y6555614D01*
X10554656Y6558331D01*
X10566234Y6566066D01*
X10573969Y6577644D01*
X10576686Y6591300D01*
X10573969Y6604956D01*
X10566234Y6616534D01*
X10554656Y6624269D01*
X10541000Y6626986D01*
D02*
G37*
G36*
X11413639Y6527800D02*
X11399983Y6525083D01*
X11388405Y6517348D01*
X11380670Y6505771D01*
X11377953Y6492114D01*
X11380670Y6478458D01*
X11388405Y6466881D01*
X11399983Y6459145D01*
X11413639Y6456429D01*
X11427295Y6459145D01*
X11438872Y6466881D01*
X11446608Y6478458D01*
X11449325Y6492114D01*
X11446608Y6505771D01*
X11438872Y6517348D01*
X11427295Y6525083D01*
X11413639Y6527800D01*
D02*
G37*
G36*
X11305300Y6504961D02*
X11291643Y6502244D01*
X11280066Y6494509D01*
X11272331Y6482931D01*
X11269614Y6469275D01*
X11272331Y6455619D01*
X11280066Y6444041D01*
X11291643Y6436306D01*
X11305300Y6433589D01*
X11318956Y6436306D01*
X11330533Y6444041D01*
X11338269Y6455619D01*
X11340985Y6469275D01*
X11338269Y6482931D01*
X11330533Y6494509D01*
X11318956Y6502244D01*
X11305300Y6504961D01*
D02*
G37*
G36*
X11568930Y6449249D02*
Y6425430D01*
X11592749D01*
X11592551Y6426427D01*
X11583489Y6439989D01*
X11569927Y6449051D01*
X11568930Y6449249D01*
D02*
G37*
G36*
X11538930D02*
X11537932Y6449051D01*
X11524370Y6439989D01*
X11515309Y6426427D01*
X11515110Y6425430D01*
X11538930D01*
Y6449249D01*
D02*
G37*
G36*
X10759200Y6426919D02*
Y6403100D01*
X10783019D01*
X10782821Y6404097D01*
X10773759Y6417659D01*
X10760197Y6426721D01*
X10759200Y6426919D01*
D02*
G37*
G36*
X10729200D02*
X10728203Y6426721D01*
X10714641Y6417659D01*
X10705579Y6404097D01*
X10705381Y6403100D01*
X10729200D01*
Y6426919D01*
D02*
G37*
G36*
X12460200Y6461792D02*
X12446544Y6459075D01*
X12434966Y6451340D01*
X12427231Y6439763D01*
X12424514Y6426106D01*
X12427231Y6412450D01*
X12434966Y6400873D01*
X12446544Y6393137D01*
X12460200Y6390421D01*
X12473856Y6393137D01*
X12485433Y6400873D01*
X12493169Y6412450D01*
X12495886Y6426106D01*
X12493169Y6439763D01*
X12485433Y6451340D01*
X12473856Y6459075D01*
X12460200Y6461792D01*
D02*
G37*
G36*
X11592749Y6395430D02*
X11568930D01*
Y6371610D01*
X11569927Y6371809D01*
X11583489Y6380870D01*
X11592551Y6394432D01*
X11592749Y6395430D01*
D02*
G37*
G36*
X11538930D02*
X11515110D01*
X11515309Y6394432D01*
X11524370Y6380870D01*
X11537932Y6371809D01*
X11538930Y6371610D01*
Y6395430D01*
D02*
G37*
G36*
X12125025Y6426437D02*
X12111368Y6423720D01*
X12099791Y6415985D01*
X12092056Y6404407D01*
X12089339Y6390751D01*
X12092056Y6377095D01*
X12099791Y6365517D01*
X12111368Y6357782D01*
X12125025Y6355065D01*
X12138681Y6357782D01*
X12150258Y6365517D01*
X12157994Y6377095D01*
X12160711Y6390751D01*
X12157994Y6404407D01*
X12150258Y6415985D01*
X12138681Y6423720D01*
X12125025Y6426437D01*
D02*
G37*
G36*
X12307100Y6376119D02*
Y6352300D01*
X12330919D01*
X12330721Y6353297D01*
X12321659Y6366859D01*
X12308097Y6375921D01*
X12307100Y6376119D01*
D02*
G37*
G36*
X12277100D02*
X12276102Y6375921D01*
X12262541Y6366859D01*
X12253479Y6353297D01*
X12253281Y6352300D01*
X12277100D01*
Y6376119D01*
D02*
G37*
G36*
X10783019Y6373100D02*
X10759200D01*
Y6349281D01*
X10760197Y6349479D01*
X10773759Y6358541D01*
X10782821Y6372103D01*
X10783019Y6373100D01*
D02*
G37*
G36*
X10729200D02*
X10705381D01*
X10705579Y6372103D01*
X10714641Y6358541D01*
X10728203Y6349479D01*
X10729200Y6349281D01*
Y6373100D01*
D02*
G37*
G36*
X12330919Y6322300D02*
X12307100D01*
Y6298481D01*
X12308097Y6298679D01*
X12321659Y6307741D01*
X12330721Y6321303D01*
X12330919Y6322300D01*
D02*
G37*
G36*
X12277100D02*
X12253281D01*
X12253479Y6321303D01*
X12262541Y6307741D01*
X12276102Y6298679D01*
X12277100Y6298481D01*
Y6322300D01*
D02*
G37*
G36*
X11048044Y6350656D02*
X11034387Y6347940D01*
X11022810Y6340204D01*
X11015074Y6328627D01*
X11012358Y6314970D01*
X11015074Y6301314D01*
X11022810Y6289737D01*
X11034387Y6282001D01*
X11048044Y6279285D01*
X11061700Y6282001D01*
X11073277Y6289737D01*
X11081013Y6301314D01*
X11083729Y6314970D01*
X11081013Y6328627D01*
X11073277Y6340204D01*
X11061700Y6347940D01*
X11048044Y6350656D01*
D02*
G37*
G36*
X11305300Y6185786D02*
Y6161966D01*
X11329119D01*
X11328921Y6162964D01*
X11319859Y6176526D01*
X11306297Y6185587D01*
X11305300Y6185786D01*
D02*
G37*
G36*
X11275300D02*
X11274302Y6185587D01*
X11260740Y6176526D01*
X11251679Y6162964D01*
X11251480Y6161966D01*
X11275300D01*
Y6185786D01*
D02*
G37*
G36*
X11568981Y6207886D02*
X11555324Y6205169D01*
X11543747Y6197434D01*
X11536011Y6185856D01*
X11533295Y6172200D01*
X11536011Y6158544D01*
X11543747Y6146966D01*
X11555324Y6139231D01*
X11568981Y6136514D01*
X11582637Y6139231D01*
X11594214Y6146966D01*
X11601950Y6158544D01*
X11604666Y6172200D01*
X11601950Y6185856D01*
X11594214Y6197434D01*
X11582637Y6205169D01*
X11568981Y6207886D01*
D02*
G37*
G36*
X11054131D02*
X11040474Y6205169D01*
X11028897Y6197434D01*
X11021162Y6185856D01*
X11018445Y6172200D01*
X11021162Y6158544D01*
X11028897Y6146966D01*
X11040474Y6139231D01*
X11054131Y6136514D01*
X11067787Y6139231D01*
X11079364Y6146966D01*
X11087100Y6158544D01*
X11089817Y6172200D01*
X11087100Y6185856D01*
X11079364Y6197434D01*
X11067787Y6205169D01*
X11054131Y6207886D01*
D02*
G37*
G36*
X11329119Y6131966D02*
X11305300D01*
Y6108147D01*
X11306297Y6108345D01*
X11319859Y6117407D01*
X11328921Y6130969D01*
X11329119Y6131966D01*
D02*
G37*
G36*
X11275300D02*
X11251480D01*
X11251679Y6130969D01*
X11260740Y6117407D01*
X11274302Y6108345D01*
X11275300Y6108147D01*
Y6131966D01*
D02*
G37*
G36*
X10848100Y6069819D02*
Y6046000D01*
X10871919D01*
X10871721Y6046997D01*
X10862659Y6060559D01*
X10849097Y6069621D01*
X10848100Y6069819D01*
D02*
G37*
G36*
X10818100D02*
X10817103Y6069621D01*
X10803541Y6060559D01*
X10794479Y6046997D01*
X10794281Y6046000D01*
X10818100D01*
Y6069819D01*
D02*
G37*
G36*
X10642600Y6108786D02*
X10628944Y6106069D01*
X10617366Y6098334D01*
X10609631Y6086756D01*
X10606914Y6073100D01*
X10609631Y6059444D01*
X10617366Y6047866D01*
X10628944Y6040131D01*
X10642600Y6037414D01*
X10656256Y6040131D01*
X10667834Y6047866D01*
X10675569Y6059444D01*
X10678286Y6073100D01*
X10675569Y6086756D01*
X10667834Y6098334D01*
X10656256Y6106069D01*
X10642600Y6108786D01*
D02*
G37*
G36*
X11036300Y6068186D02*
X11022644Y6065469D01*
X11011066Y6057734D01*
X11003331Y6046156D01*
X11000614Y6032500D01*
X11003331Y6018844D01*
X11011066Y6007266D01*
X11022644Y5999531D01*
X11036300Y5996814D01*
X11049956Y5999531D01*
X11061534Y6007266D01*
X11069269Y6018844D01*
X11071986Y6032500D01*
X11069269Y6046156D01*
X11061534Y6057734D01*
X11049956Y6065469D01*
X11036300Y6068186D01*
D02*
G37*
G36*
X11264900Y6066686D02*
X11251244Y6063969D01*
X11239666Y6056234D01*
X11231931Y6044656D01*
X11229214Y6031000D01*
X11231931Y6017344D01*
X11239666Y6005766D01*
X11251244Y5998031D01*
X11264900Y5995314D01*
X11278556Y5998031D01*
X11290134Y6005766D01*
X11297869Y6017344D01*
X11300586Y6031000D01*
X11297869Y6044656D01*
X11290134Y6056234D01*
X11278556Y6063969D01*
X11264900Y6066686D01*
D02*
G37*
G36*
X10871919Y6016000D02*
X10848100D01*
Y5992181D01*
X10849097Y5992379D01*
X10862659Y6001441D01*
X10871721Y6015002D01*
X10871919Y6016000D01*
D02*
G37*
G36*
X10818100D02*
X10794281D01*
X10794479Y6015002D01*
X10803541Y6001441D01*
X10817103Y5992379D01*
X10818100Y5992181D01*
Y6016000D01*
D02*
G37*
G36*
X11998250Y6033383D02*
X11984594Y6030667D01*
X11973016Y6022931D01*
X11965281Y6011354D01*
X11962564Y5997697D01*
X11965281Y5984041D01*
X11973016Y5972464D01*
X11984594Y5964728D01*
X11998250Y5962012D01*
X12011906Y5964728D01*
X12023483Y5972464D01*
X12031219Y5984041D01*
X12033936Y5997697D01*
X12031219Y6011354D01*
X12023483Y6022931D01*
X12011906Y6030667D01*
X11998250Y6033383D01*
D02*
G37*
G36*
X10541000Y6017386D02*
X10527344Y6014669D01*
X10515766Y6006934D01*
X10508031Y5995356D01*
X10505314Y5981700D01*
X10508031Y5968044D01*
X10515766Y5956466D01*
X10527344Y5948731D01*
X10541000Y5946014D01*
X10554656Y5948731D01*
X10566234Y5956466D01*
X10573969Y5968044D01*
X10576686Y5981700D01*
X10573969Y5995356D01*
X10566234Y6006934D01*
X10554656Y6014669D01*
X10541000Y6017386D01*
D02*
G37*
G36*
X11607800Y6030086D02*
X11594144Y6027369D01*
X11582566Y6019634D01*
X11574831Y6008056D01*
X11572114Y5994400D01*
X11574831Y5980744D01*
X11582566Y5969166D01*
X11594144Y5961431D01*
X11607800Y5958714D01*
X11621456Y5961431D01*
X11633034Y5969166D01*
X11633046Y5969185D01*
X11645009Y5964230D01*
X11644785Y5963100D01*
X11647501Y5949444D01*
X11655237Y5937866D01*
X11666814Y5930131D01*
X11680470Y5927414D01*
X11694127Y5930131D01*
X11705704Y5937866D01*
X11713440Y5949444D01*
X11716156Y5963100D01*
X11713440Y5976756D01*
X11705704Y5988334D01*
X11694127Y5996069D01*
X11680470Y5998786D01*
X11666814Y5996069D01*
X11655237Y5988334D01*
X11655224Y5988315D01*
X11643261Y5993270D01*
X11643486Y5994400D01*
X11640769Y6008056D01*
X11633034Y6019634D01*
X11621456Y6027369D01*
X11607800Y6030086D01*
D02*
G37*
G36*
X11895750Y5991986D02*
X11882094Y5989269D01*
X11870516Y5981534D01*
X11862781Y5969956D01*
X11860064Y5956300D01*
X11862781Y5942644D01*
X11870516Y5931066D01*
X11882094Y5923331D01*
X11895750Y5920614D01*
X11909406Y5923331D01*
X11920984Y5931066D01*
X11928719Y5942644D01*
X11931436Y5956300D01*
X11928719Y5969956D01*
X11920984Y5981534D01*
X11909406Y5989269D01*
X11895750Y5991986D01*
D02*
G37*
G36*
X11938000Y5688863D02*
X11911895Y5685426D01*
X11887569Y5675350D01*
X11866679Y5659321D01*
X11858363Y5648482D01*
X11844950Y5650816D01*
X11837214Y5662393D01*
X11825637Y5670129D01*
X11811980Y5672845D01*
X11798324Y5670129D01*
X11786747Y5662393D01*
X11779011Y5650816D01*
X11778773Y5649619D01*
X11765194Y5646453D01*
X11755321Y5659321D01*
X11734431Y5675350D01*
X11710105Y5685426D01*
X11684000Y5688863D01*
X11657895Y5685426D01*
X11633569Y5675350D01*
X11612679Y5659321D01*
X11596650Y5638431D01*
X11586574Y5614105D01*
X11583137Y5588000D01*
X11586574Y5561895D01*
X11596650Y5537569D01*
X11612679Y5516679D01*
X11633569Y5500650D01*
X11657895Y5490574D01*
X11684000Y5487137D01*
X11710105Y5490574D01*
X11734431Y5500650D01*
X11755321Y5516679D01*
X11771350Y5537569D01*
X11781426Y5561895D01*
X11784863Y5588000D01*
X11783432Y5598866D01*
X11795272Y5606229D01*
X11798324Y5604190D01*
X11811980Y5601474D01*
X11825637Y5604190D01*
X11826538Y5604793D01*
X11838379Y5597430D01*
X11837137Y5588000D01*
X11840574Y5561895D01*
X11850650Y5537569D01*
X11866679Y5516679D01*
X11887569Y5500650D01*
X11911895Y5490574D01*
X11938000Y5487137D01*
X11964105Y5490574D01*
X11988431Y5500650D01*
X12009321Y5516679D01*
X12025350Y5537569D01*
X12035426Y5561895D01*
X12038863Y5588000D01*
X12035426Y5614105D01*
X12025350Y5638431D01*
X12009321Y5659321D01*
X11988431Y5675350D01*
X11964105Y5685426D01*
X11938000Y5688863D01*
D02*
G37*
G36*
X12446000D02*
X12419895Y5685426D01*
X12395569Y5675350D01*
X12374679Y5659321D01*
X12358650Y5638431D01*
X12348574Y5614105D01*
X12345137Y5588000D01*
X12348574Y5561895D01*
X12358650Y5537569D01*
X12374679Y5516679D01*
X12395569Y5500650D01*
X12419895Y5490574D01*
X12446000Y5487137D01*
X12472105Y5490574D01*
X12496431Y5500650D01*
X12517321Y5516679D01*
X12533350Y5537569D01*
X12543426Y5561895D01*
X12546863Y5588000D01*
X12543426Y5614105D01*
X12533350Y5638431D01*
X12517321Y5659321D01*
X12496431Y5675350D01*
X12472105Y5685426D01*
X12446000Y5688863D01*
D02*
G37*
G36*
X12192000D02*
X12165895Y5685426D01*
X12141569Y5675350D01*
X12120679Y5659321D01*
X12104650Y5638431D01*
X12094574Y5614105D01*
X12091137Y5588000D01*
X12094574Y5561895D01*
X12104650Y5537569D01*
X12120679Y5516679D01*
X12141569Y5500650D01*
X12165895Y5490574D01*
X12192000Y5487137D01*
X12218105Y5490574D01*
X12242431Y5500650D01*
X12263321Y5516679D01*
X12279350Y5537569D01*
X12289426Y5561895D01*
X12292863Y5588000D01*
X12289426Y5614105D01*
X12279350Y5638431D01*
X12263321Y5659321D01*
X12242431Y5675350D01*
X12218105Y5685426D01*
X12192000Y5688863D01*
D02*
G37*
G36*
X11430000D02*
X11403895Y5685426D01*
X11379569Y5675350D01*
X11358679Y5659321D01*
X11342650Y5638431D01*
X11332574Y5614105D01*
X11329137Y5588000D01*
X11332574Y5561895D01*
X11342650Y5537569D01*
X11358679Y5516679D01*
X11379569Y5500650D01*
X11403895Y5490574D01*
X11430000Y5487137D01*
X11456105Y5490574D01*
X11480431Y5500650D01*
X11501321Y5516679D01*
X11517350Y5537569D01*
X11527426Y5561895D01*
X11530863Y5588000D01*
X11527426Y5614105D01*
X11517350Y5638431D01*
X11501321Y5659321D01*
X11480431Y5675350D01*
X11456105Y5685426D01*
X11430000Y5688863D01*
D02*
G37*
G36*
X11061700Y5712586D02*
X11048044Y5709869D01*
X11036466Y5702134D01*
X11028731Y5690556D01*
X11026014Y5676900D01*
X11028731Y5663244D01*
X11036466Y5651666D01*
X11048044Y5643931D01*
X11061700Y5641214D01*
X11075356Y5643931D01*
X11087505Y5638349D01*
X11088140Y5637198D01*
X11078574Y5614105D01*
X11075137Y5588000D01*
X11078574Y5561895D01*
X11088650Y5537569D01*
X11104679Y5516679D01*
X11125569Y5500650D01*
X11149895Y5490574D01*
X11176000Y5487137D01*
X11202105Y5490574D01*
X11226431Y5500650D01*
X11247321Y5516679D01*
X11263350Y5537569D01*
X11273426Y5561895D01*
X11276863Y5588000D01*
X11273426Y5614105D01*
X11263350Y5638431D01*
X11247321Y5659321D01*
X11226431Y5675350D01*
X11202105Y5685426D01*
X11176000Y5688863D01*
X11149895Y5685426D01*
X11125569Y5675350D01*
X11107226Y5661275D01*
X11097878Y5665469D01*
X11095534Y5667589D01*
X11097386Y5676900D01*
X11094669Y5690556D01*
X11086934Y5702134D01*
X11075356Y5709869D01*
X11061700Y5712586D01*
D02*
G37*
G36*
X10922000Y5688863D02*
X10895895Y5685426D01*
X10871569Y5675350D01*
X10850679Y5659321D01*
X10834650Y5638431D01*
X10824574Y5614105D01*
X10821137Y5588000D01*
X10824574Y5561895D01*
X10834650Y5537569D01*
X10850679Y5516679D01*
X10871569Y5500650D01*
X10895895Y5490574D01*
X10922000Y5487137D01*
X10948105Y5490574D01*
X10972431Y5500650D01*
X10993321Y5516679D01*
X11009350Y5537569D01*
X11019426Y5561895D01*
X11022863Y5588000D01*
X11019426Y5614105D01*
X11009350Y5638431D01*
X10993321Y5659321D01*
X10972431Y5675350D01*
X10948105Y5685426D01*
X10922000Y5688863D01*
D02*
G37*
G36*
X10668000D02*
X10641895Y5685426D01*
X10617569Y5675350D01*
X10596679Y5659321D01*
X10580650Y5638431D01*
X10570574Y5614105D01*
X10567137Y5588000D01*
X10570574Y5561895D01*
X10580650Y5537569D01*
X10596679Y5516679D01*
X10617569Y5500650D01*
X10641895Y5490574D01*
X10668000Y5487137D01*
X10694105Y5490574D01*
X10718431Y5500650D01*
X10739321Y5516679D01*
X10755350Y5537569D01*
X10765426Y5561895D01*
X10768863Y5588000D01*
X10765426Y5614105D01*
X10755350Y5638431D01*
X10739321Y5659321D01*
X10718431Y5675350D01*
X10694105Y5685426D01*
X10668000Y5688863D01*
D02*
G37*
G36*
X10414000D02*
X10387895Y5685426D01*
X10363569Y5675350D01*
X10342679Y5659321D01*
X10326650Y5638431D01*
X10316574Y5614105D01*
X10313137Y5588000D01*
X10316574Y5561895D01*
X10326650Y5537569D01*
X10342679Y5516679D01*
X10363569Y5500650D01*
X10387895Y5490574D01*
X10414000Y5487137D01*
X10440105Y5490574D01*
X10464431Y5500650D01*
X10485321Y5516679D01*
X10501350Y5537569D01*
X10511426Y5561895D01*
X10514863Y5588000D01*
X10511426Y5614105D01*
X10501350Y5638431D01*
X10485321Y5659321D01*
X10464431Y5675350D01*
X10440105Y5685426D01*
X10414000Y5688863D01*
D02*
G37*
G36*
X12446000Y5180863D02*
X12419895Y5177426D01*
X12395569Y5167350D01*
X12374679Y5151321D01*
X12358650Y5130431D01*
X12348574Y5106105D01*
X12345137Y5080000D01*
X12348574Y5053895D01*
X12358650Y5029569D01*
X12374679Y5008679D01*
X12395569Y4992650D01*
X12419895Y4982574D01*
X12446000Y4979137D01*
X12472105Y4982574D01*
X12496431Y4992650D01*
X12517321Y5008679D01*
X12533350Y5029569D01*
X12543426Y5053895D01*
X12546863Y5080000D01*
X12543426Y5106105D01*
X12533350Y5130431D01*
X12517321Y5151321D01*
X12496431Y5167350D01*
X12472105Y5177426D01*
X12446000Y5180863D01*
D02*
G37*
G36*
X12192000D02*
X12165895Y5177426D01*
X12141569Y5167350D01*
X12120679Y5151321D01*
X12104650Y5130431D01*
X12094574Y5106105D01*
X12091137Y5080000D01*
X12094574Y5053895D01*
X12104650Y5029569D01*
X12120679Y5008679D01*
X12141569Y4992650D01*
X12165895Y4982574D01*
X12192000Y4979137D01*
X12218105Y4982574D01*
X12242431Y4992650D01*
X12263321Y5008679D01*
X12279350Y5029569D01*
X12289426Y5053895D01*
X12292863Y5080000D01*
X12289426Y5106105D01*
X12279350Y5130431D01*
X12263321Y5151321D01*
X12242431Y5167350D01*
X12218105Y5177426D01*
X12192000Y5180863D01*
D02*
G37*
G36*
X11938000D02*
X11911895Y5177426D01*
X11887569Y5167350D01*
X11866679Y5151321D01*
X11850650Y5130431D01*
X11840574Y5106105D01*
X11837137Y5080000D01*
X11840574Y5053895D01*
X11850650Y5029569D01*
X11866679Y5008679D01*
X11887569Y4992650D01*
X11911895Y4982574D01*
X11938000Y4979137D01*
X11964105Y4982574D01*
X11988431Y4992650D01*
X12009321Y5008679D01*
X12025350Y5029569D01*
X12035426Y5053895D01*
X12038863Y5080000D01*
X12035426Y5106105D01*
X12025350Y5130431D01*
X12009321Y5151321D01*
X11988431Y5167350D01*
X11964105Y5177426D01*
X11938000Y5180863D01*
D02*
G37*
G36*
X11684000D02*
X11657895Y5177426D01*
X11633569Y5167350D01*
X11612679Y5151321D01*
X11596650Y5130431D01*
X11586574Y5106105D01*
X11583137Y5080000D01*
X11586574Y5053895D01*
X11596650Y5029569D01*
X11612679Y5008679D01*
X11633569Y4992650D01*
X11657895Y4982574D01*
X11684000Y4979137D01*
X11710105Y4982574D01*
X11734431Y4992650D01*
X11755321Y5008679D01*
X11771350Y5029569D01*
X11781426Y5053895D01*
X11784863Y5080000D01*
X11781426Y5106105D01*
X11771350Y5130431D01*
X11755321Y5151321D01*
X11734431Y5167350D01*
X11710105Y5177426D01*
X11684000Y5180863D01*
D02*
G37*
G36*
X11430000D02*
X11403895Y5177426D01*
X11379569Y5167350D01*
X11358679Y5151321D01*
X11342650Y5130431D01*
X11332574Y5106105D01*
X11329137Y5080000D01*
X11332574Y5053895D01*
X11342650Y5029569D01*
X11358679Y5008679D01*
X11379569Y4992650D01*
X11403895Y4982574D01*
X11430000Y4979137D01*
X11456105Y4982574D01*
X11480431Y4992650D01*
X11501321Y5008679D01*
X11517350Y5029569D01*
X11527426Y5053895D01*
X11530863Y5080000D01*
X11527426Y5106105D01*
X11517350Y5130431D01*
X11501321Y5151321D01*
X11480431Y5167350D01*
X11456105Y5177426D01*
X11430000Y5180863D01*
D02*
G37*
G36*
X11176000D02*
X11149895Y5177426D01*
X11125569Y5167350D01*
X11104679Y5151321D01*
X11088650Y5130431D01*
X11078574Y5106105D01*
X11075137Y5080000D01*
X11078574Y5053895D01*
X11088650Y5029569D01*
X11104679Y5008679D01*
X11125569Y4992650D01*
X11149895Y4982574D01*
X11176000Y4979137D01*
X11202105Y4982574D01*
X11226431Y4992650D01*
X11247321Y5008679D01*
X11263350Y5029569D01*
X11273426Y5053895D01*
X11276863Y5080000D01*
X11273426Y5106105D01*
X11263350Y5130431D01*
X11247321Y5151321D01*
X11226431Y5167350D01*
X11202105Y5177426D01*
X11176000Y5180863D01*
D02*
G37*
G36*
X10922000D02*
X10895895Y5177426D01*
X10871569Y5167350D01*
X10850679Y5151321D01*
X10834650Y5130431D01*
X10824574Y5106105D01*
X10821137Y5080000D01*
X10824574Y5053895D01*
X10834650Y5029569D01*
X10850679Y5008679D01*
X10871569Y4992650D01*
X10895895Y4982574D01*
X10922000Y4979137D01*
X10948105Y4982574D01*
X10972431Y4992650D01*
X10993321Y5008679D01*
X11009350Y5029569D01*
X11019426Y5053895D01*
X11022863Y5080000D01*
X11019426Y5106105D01*
X11009350Y5130431D01*
X10993321Y5151321D01*
X10972431Y5167350D01*
X10948105Y5177426D01*
X10922000Y5180863D01*
D02*
G37*
G36*
X10668000D02*
X10641895Y5177426D01*
X10617569Y5167350D01*
X10596679Y5151321D01*
X10580650Y5130431D01*
X10570574Y5106105D01*
X10567137Y5080000D01*
X10570574Y5053895D01*
X10580650Y5029569D01*
X10596679Y5008679D01*
X10617569Y4992650D01*
X10641895Y4982574D01*
X10668000Y4979137D01*
X10694105Y4982574D01*
X10718431Y4992650D01*
X10739321Y5008679D01*
X10755350Y5029569D01*
X10765426Y5053895D01*
X10768863Y5080000D01*
X10765426Y5106105D01*
X10755350Y5130431D01*
X10739321Y5151321D01*
X10718431Y5167350D01*
X10694105Y5177426D01*
X10668000Y5180863D01*
D02*
G37*
G36*
X10414000D02*
X10387895Y5177426D01*
X10363569Y5167350D01*
X10342679Y5151321D01*
X10326650Y5130431D01*
X10316574Y5106105D01*
X10313137Y5080000D01*
X10316574Y5053895D01*
X10326650Y5029569D01*
X10342679Y5008679D01*
X10363569Y4992650D01*
X10387895Y4982574D01*
X10414000Y4979137D01*
X10440105Y4982574D01*
X10464431Y4992650D01*
X10485321Y5008679D01*
X10501350Y5029569D01*
X10511426Y5053895D01*
X10514863Y5080000D01*
X10511426Y5106105D01*
X10501350Y5130431D01*
X10485321Y5151321D01*
X10464431Y5167350D01*
X10440105Y5177426D01*
X10414000Y5180863D01*
D02*
G37*
%LPD*%
D34*
X11591053Y7937500D02*
X11874500D01*
X11556453Y7972100D02*
X11591053Y7937500D01*
X11506747Y7972100D02*
X11556453D01*
X11472147Y7937500D02*
X11506747Y7972100D01*
X11391900Y7937500D02*
X11472147D01*
X11137900Y7683500D02*
X11391900Y7937500D01*
X10934700Y7683500D02*
X11137900D01*
D35*
X7937500Y7255026D02*
X7986495Y7206031D01*
X8222574D01*
X8293100Y7276556D01*
Y7471199D01*
X8496300Y7674399D01*
Y7861300D01*
X8155691Y7362703D02*
Y7473737D01*
X8382000Y7700046D01*
Y7857300D01*
X8458200Y7933500D01*
X7416400Y8043218D02*
X7429500Y8056318D01*
X7416400Y8035100D02*
Y8043218D01*
X7429500Y8056318D02*
Y8090039D01*
X7721461Y8382000D01*
X8230556D01*
X8280400Y8332156D01*
Y8204200D02*
Y8332156D01*
X8293100Y7868604D02*
X8382000Y7957504D01*
Y7983169D01*
X8411364Y8012534D01*
X8566872D01*
X9258809Y7320596D01*
X9604678D01*
X10705154Y7625990D02*
X10841630Y7489515D01*
X10790538Y7386325D02*
X10790890Y7386676D01*
Y7403245D01*
X10796630Y7408985D01*
X10841630Y7412611D02*
Y7489515D01*
X10790538Y7386325D02*
X10803541Y7373323D01*
X10841630Y7412611D02*
X11078574Y7175666D01*
X10803541Y6860547D02*
Y7373323D01*
X10683098Y7625990D02*
X10705154D01*
X10677358Y7631730D02*
X10683098Y7625990D01*
X9017956Y8459156D02*
Y8559800D01*
X8877300Y8318500D02*
X9017956Y8459156D01*
X8585366Y8318500D02*
X8877300D01*
X8432966Y8166100D02*
X8585366Y8318500D01*
D39*
X7112000Y8636000D02*
D03*
X6604000D02*
D03*
X6858000D02*
D03*
X6350000D02*
D03*
X7366000D02*
D03*
X7874000D02*
D03*
X7620000D02*
D03*
X9652000D02*
D03*
X9398000D02*
D03*
X9906000D02*
D03*
X10160000D02*
D03*
X9144000D02*
D03*
X8890000D02*
D03*
X8382000D02*
D03*
X8636000D02*
D03*
X8128000D02*
D03*
X10414000D02*
D03*
X10922000D02*
D03*
X10668000D02*
D03*
X11176000D02*
D03*
X11430000D02*
D03*
X12446000D02*
D03*
X12192000D02*
D03*
X11684000D02*
D03*
X11938000D02*
D03*
X7112000Y5080000D02*
D03*
X6604000D02*
D03*
X6858000D02*
D03*
X6350000D02*
D03*
X7366000D02*
D03*
X7874000D02*
D03*
X7620000D02*
D03*
X9652000D02*
D03*
X9398000D02*
D03*
X9906000D02*
D03*
X10160000D02*
D03*
X9144000D02*
D03*
X8890000D02*
D03*
X8382000D02*
D03*
X8636000D02*
D03*
X8128000D02*
D03*
X10414000D02*
D03*
X10922000D02*
D03*
X10668000D02*
D03*
X11176000D02*
D03*
X11430000D02*
D03*
X12446000D02*
D03*
X12192000D02*
D03*
X11684000D02*
D03*
X11938000D02*
D03*
X7112000Y9144000D02*
D03*
X6604000D02*
D03*
X6858000D02*
D03*
X6350000D02*
D03*
X7366000D02*
D03*
X7874000D02*
D03*
X7620000D02*
D03*
X9652000D02*
D03*
X9398000D02*
D03*
X9906000D02*
D03*
X10160000D02*
D03*
X9144000D02*
D03*
X8890000D02*
D03*
X8382000D02*
D03*
X8636000D02*
D03*
X8128000D02*
D03*
X10414000D02*
D03*
X10922000D02*
D03*
X10668000D02*
D03*
X11176000D02*
D03*
X11430000D02*
D03*
X12446000D02*
D03*
X12192000D02*
D03*
X11684000D02*
D03*
X11938000D02*
D03*
X7112000Y5588000D02*
D03*
X6604000D02*
D03*
X6858000D02*
D03*
X6350000D02*
D03*
X7366000D02*
D03*
X7874000D02*
D03*
X7620000D02*
D03*
X9652000D02*
D03*
X9398000D02*
D03*
X9906000D02*
D03*
X10160000D02*
D03*
X9144000D02*
D03*
X8890000D02*
D03*
X8382000D02*
D03*
X8636000D02*
D03*
X8128000D02*
D03*
X10414000D02*
D03*
X10922000D02*
D03*
X10668000D02*
D03*
X11176000D02*
D03*
X11430000D02*
D03*
X12446000D02*
D03*
X12192000D02*
D03*
X11684000D02*
D03*
X11938000D02*
D03*
D40*
X12366250Y7544000D02*
D03*
Y6680000D02*
D03*
D41*
X11948250Y7544000D02*
D03*
Y6680000D02*
D03*
D42*
X7937500Y7255026D02*
D03*
X7848600Y7461728D02*
D03*
X7810500Y7378700D02*
D03*
X8155691Y7362703D02*
D03*
X7416400Y8035100D02*
D03*
X10210800Y6260144D02*
D03*
X9604678Y7320596D02*
D03*
X8559800Y7823200D02*
D03*
X8458200Y7933500D02*
D03*
X8496300Y7861300D02*
D03*
X8441196Y7790231D02*
D03*
X8293100Y7868604D02*
D03*
X8267700Y7797200D02*
D03*
X8229600Y7734300D02*
D03*
X8199321Y7658100D02*
D03*
X8961321Y7277100D02*
D03*
X9217786Y7048500D02*
D03*
X9679197Y6855969D02*
D03*
X8953500Y6823000D02*
D03*
X8890000Y6756400D02*
D03*
X8826500Y6673594D02*
D03*
X8750300Y6616700D02*
D03*
X9017000Y6870700D02*
D03*
X9653038Y6461886D02*
D03*
X9055100Y7112925D02*
D03*
X9459131Y7036865D02*
D03*
X10690330Y7760656D02*
D03*
X10756900Y7696200D02*
D03*
X9902040Y8154176D02*
D03*
X10341808Y7291314D02*
D03*
X11054131Y6172200D02*
D03*
X10796630Y7408985D02*
D03*
X10803541Y6860547D02*
D03*
X11048044Y6314970D02*
D03*
X10677358Y7631730D02*
D03*
X11078574Y7175666D02*
D03*
X12366250Y7112925D02*
D03*
X11305300Y6469275D02*
D03*
X11413639Y6492114D02*
D03*
X11462006Y7356997D02*
D03*
X11998250Y5997697D02*
D03*
X11274302Y7046685D02*
D03*
X11680470Y5963100D02*
D03*
X11290300Y6146966D02*
D03*
X11531600Y7912100D02*
D03*
X8978900Y6946900D02*
D03*
X9728200Y6477000D02*
D03*
X11811980Y5637159D02*
D03*
X11568981Y6172200D02*
D03*
X11061700Y5676900D02*
D03*
X10316574Y6261100D02*
D03*
X9279466Y6413500D02*
D03*
X9715500Y6375400D02*
D03*
Y6273800D02*
D03*
X9760019Y6121400D02*
D03*
X9525000Y6350000D02*
D03*
X9004300Y6426106D02*
D03*
X9715500Y5981700D02*
D03*
X8910800Y6375400D02*
D03*
X9715500Y6060970D02*
D03*
X8677550Y6565900D02*
D03*
X8610600Y6487100D02*
D03*
X8864600Y6237464D02*
D03*
X8525150Y6426200D02*
D03*
X7848600Y5994400D02*
D03*
X8497881Y6362700D02*
D03*
X8820406Y6096000D02*
D03*
X8724900Y6121400D02*
D03*
X9779000Y5524500D02*
D03*
X8284216Y6032500D02*
D03*
X8348316Y6556270D02*
D03*
X8788400Y5688644D02*
D03*
X8216900Y6438900D02*
D03*
X8331569Y6489700D02*
D03*
X8296600Y6426106D02*
D03*
X7886700Y6273800D02*
D03*
X8242300Y6532173D02*
D03*
X8176754Y6565000D02*
D03*
X8128000Y6629400D02*
D03*
X8049660Y6604000D02*
D03*
X8019500Y6692900D02*
D03*
X7962900Y6756400D02*
D03*
X7899400Y6807200D02*
D03*
X7802173Y6823000D02*
D03*
X7638096Y6261100D02*
D03*
X7645400Y6350000D02*
D03*
X7581900Y6487100D02*
D03*
X7531100Y6527800D02*
D03*
X7467600Y6487100D02*
D03*
X7035800Y6972300D02*
D03*
X7150100Y6971728D02*
D03*
X7277100Y7035800D02*
D03*
X7467600Y6629400D02*
D03*
X7448619Y6703100D02*
D03*
X7663840Y6960996D02*
D03*
X7549941Y7046685D02*
D03*
X7239000Y6914010D02*
D03*
X7302500Y7239000D02*
D03*
X7493000Y8048500D02*
D03*
X7442200Y7670800D02*
D03*
X7721600Y7320596D02*
D03*
X7645400Y8242300D02*
D03*
Y7251700D02*
D03*
X7416800Y7480300D02*
D03*
X7747000Y7823200D02*
D03*
X7658100Y7772400D02*
D03*
X7607300Y7691827D02*
D03*
X7721600Y7727950D02*
D03*
X8128000Y7629630D02*
D03*
X7950200Y7454900D02*
D03*
X9017956Y8559800D02*
D03*
X8432966Y8166100D02*
D03*
X8610600Y8242300D02*
D03*
X8293100Y7944431D02*
D03*
X8178800Y8255000D02*
D03*
X8280400Y8204200D02*
D03*
X8178800Y7810500D02*
D03*
X7950200Y8026400D02*
D03*
X8559800Y8173359D02*
D03*
X8820406Y8143800D02*
D03*
X8851900Y8039100D02*
D03*
X8737298Y8246417D02*
D03*
X8826500Y7969800D02*
D03*
X8928100Y8255000D02*
D03*
X9004300Y8193000D02*
D03*
X9114397Y8108950D02*
D03*
X9575800Y7629630D02*
D03*
X9283700Y7645400D02*
D03*
X9182100D02*
D03*
X9401071Y7603439D02*
D03*
X9080500Y7721600D02*
D03*
X8978900Y7772400D02*
D03*
X8915400Y7848600D02*
D03*
X9080500Y7823200D02*
D03*
X9496529Y7603439D02*
D03*
X9537700Y7378700D02*
D03*
X9144000Y7791100D02*
D03*
X8877300Y7911579D02*
D03*
X8648700Y7724897D02*
D03*
X10156062Y8255000D02*
D03*
X8763000Y7632700D02*
D03*
X9245600Y7861300D02*
D03*
X9321800Y7886700D02*
D03*
X10464800Y8253110D02*
D03*
X8864600Y7521727D02*
D03*
X10617200Y8253110D02*
D03*
X9601200Y7823200D02*
D03*
X10693400Y8216900D02*
D03*
X10083800Y7791100D02*
D03*
X10541000Y5981700D02*
D03*
X10642600Y6073100D02*
D03*
X10833100Y6031000D02*
D03*
X11036300Y6032500D02*
D03*
X11264900Y6031000D02*
D03*
X11607800Y5994400D02*
D03*
X11895750Y5956300D02*
D03*
X12292100Y6337300D02*
D03*
X12460200Y6426106D02*
D03*
X12125025Y6390751D02*
D03*
X11710030Y6987000D02*
D03*
X12460200Y8254721D02*
D03*
X12268200Y7933500D02*
D03*
X12039600Y7978670D02*
D03*
X11796980Y8175730D02*
D03*
X11620500Y8089900D02*
D03*
X11290300Y8193753D02*
D03*
X10795000Y7987300D02*
D03*
X10662939Y8117281D02*
D03*
X10410200Y8001000D02*
D03*
X9822750Y7944431D02*
D03*
X9753353Y7629630D02*
D03*
X9663200Y7569200D02*
D03*
X9867900Y6896233D02*
D03*
X10312470Y6897000D02*
D03*
X10096500Y6921081D02*
D03*
X10033000Y7219340D02*
D03*
X10083800Y7035800D02*
D03*
X10107900Y7391307D02*
D03*
X9880600Y7874000D02*
D03*
X9496529Y7506727D02*
D03*
X10312470Y7747000D02*
D03*
X9842500Y7708900D02*
D03*
X9042400Y7320596D02*
D03*
X10185400Y7708900D02*
D03*
X9931427D02*
D03*
X11430000Y8254721D02*
D03*
X10261600Y7642330D02*
D03*
X10134600Y7529437D02*
D03*
X10312400Y7589783D02*
D03*
X10210800Y7493000D02*
D03*
X9283700Y7442200D02*
D03*
X9262600Y8246417D02*
D03*
X9626600Y7924800D02*
D03*
X9486900Y7886700D02*
D03*
X11506200Y8216900D02*
D03*
X9906000Y7327000D02*
D03*
X9760019Y7213600D02*
D03*
X9118600Y7262900D02*
D03*
X10337800Y7378700D02*
D03*
X9182100Y7200900D02*
D03*
X11938000Y8255000D02*
D03*
X9080500Y6997700D02*
D03*
X7912100Y6211182D02*
D03*
X8001000Y6007100D02*
D03*
X10198100Y6527800D02*
D03*
X10109200Y6532173D02*
D03*
X10020300D02*
D03*
X9931400D02*
D03*
X10096500Y6410430D02*
D03*
X10013500D02*
D03*
X9931400D02*
D03*
X9842500D02*
D03*
X9374100Y6083300D02*
D03*
X9459407Y6045200D02*
D03*
Y6121400D02*
D03*
X9613900Y6350000D02*
D03*
X9244100Y6491421D02*
D03*
X9461500Y6726627D02*
D03*
X9550400Y6938759D02*
D03*
X7048500Y7262900D02*
D03*
X7162800Y7355952D02*
D03*
X7366000Y7708900D02*
D03*
X7061200Y7950200D02*
D03*
X7493000Y7965970D02*
D03*
X7823200Y8026400D02*
D03*
X7950200Y8153400D02*
D03*
X8049660Y8246417D02*
D03*
X11303000Y7531100D02*
D03*
X11606300Y7391307D02*
D03*
X11125200Y7048500D02*
D03*
X11264900Y6654800D02*
D03*
X12103100Y7277100D02*
D03*
X12306300Y7202400D02*
D03*
X12026900Y7048500D02*
D03*
X12118800Y6934200D02*
D03*
X10536627Y7594600D02*
D03*
X11553930Y6410430D02*
D03*
X10604500Y7188200D02*
D03*
X9512300Y7213600D02*
D03*
X9677400Y7226300D02*
D03*
X10096500Y6213974D02*
D03*
X10013500D02*
D03*
X10210800Y6638238D02*
D03*
Y6772170D02*
D03*
X9906000D02*
D03*
Y6638238D02*
D03*
X10934700Y6591300D02*
D03*
X11874500Y7937500D02*
D03*
X10934700Y7683500D02*
D03*
X12039600Y8175730D02*
D03*
X12115800Y8108950D02*
D03*
X12204700Y8216900D02*
D03*
X12331700D02*
D03*
X11798300Y7491115D02*
D03*
X11785600Y6792000D02*
D03*
X11398639Y6726627D02*
D03*
X11606300Y6921081D02*
D03*
X10541000Y6591300D02*
D03*
X10744200Y6388100D02*
D03*
X11087100Y7832281D02*
D03*
X11290300Y7629630D02*
D03*
%TF.MD5,90ed5fd59ff4a03645b23a2c89b3d6b9*%
M02*
